<?xml version="1.0" encoding="UTF-8"?>
<svg width="341px" height="220px" viewBox="0 0 341 220" version="1.1" xmlns="http://www.w3.org/2000/svg" xmlns:xlink="http://www.w3.org/1999/xlink">
    <title>Slice 1</title>
    <g id="Page-1" stroke="none" stroke-width="1" fill="none" fill-rule="evenodd">
        <g id="init" transform="translate(0.999130, 0.500000)">
            <path d="M62.0008705,216.5 C26.7408705,215.8 0.720870466,182.69 9.23087047,148.5 C9.37087047,147.93 9.52087047,147.36 9.67087047,146.8 C20.9908705,105.8 64.1208705,123.13 87.4108705,81.63 C110.70087,40.13 202.48087,16.81 240.00087,71.68 C277.52087,126.55 332.21087,116.99 338.40087,156.02 C344.59087,195.05 322.40087,220.26 252.14087,219.11 C201.79087,218.29 110.00087,217.5 62.0008705,216.5 Z" id="Path" fill="#DEF0F8" fill-rule="nonzero"></path>
            <polygon id="Path" fill="#C5E5F3" fill-rule="nonzero" points="209.08087 133.17 209.08087 177.3 186.41087 177.3 186.41087 192.53 186.41087 192.53 186.41087 218.34 186.41087 218.34 196.78087 218.34 209.08087 218.34 239.94087 218.34 245.86087 218.34 245.86087 133.17"></polygon>
            <rect id="Rectangle" fill="#8BCEEA" fill-rule="nonzero" x="276.85087" y="109.14" width="29.36" height="100.97"></rect>
            <rect id="Rectangle" fill="#C5E5F3" fill-rule="nonzero" x="254.00087" y="90.01" width="27.71" height="127.1"></rect>
            <path d="M208.42087,93.37 L163.05087,93.37 C163.05087,93.37 161.54087,78.16 172.46087,74.93 C183.38087,71.7 185.70087,78.08 185.70087,78.08 C185.70087,78.08 188.09087,64.97 203.38087,66.23 C218.67087,67.49 218.67087,81.61 218.67087,81.61 C218.67087,81.61 231.77087,79.76 233.45087,93.37 L208.42087,93.37 Z" id="Path" fill="#8BCEEA" fill-rule="nonzero"></path>
            <path d="M45.4408705,168.75 L0.0708704656,168.75 C0.0708704656,168.75 -1.43912953,153.5 9.48087047,150.31 C20.4008705,147.12 22.7208705,153.5 22.7208705,153.5 C22.7208705,153.5 25.1108705,140.4 40.3908705,141.66 C55.6708705,142.92 55.6808705,157.03 55.6808705,157.03 C55.6808705,157.03 68.7908705,155.18 70.4708705,168.79 L45.4408705,168.75 Z" id="Path" fill="#8BCEEA" fill-rule="nonzero"></path>
            <rect id="Rectangle" fill="#407BFF" fill-rule="nonzero" transform="translate(106.886545, 115.678630) rotate(-11.240000) translate(-106.886545, -115.678630) " x="62.2365445" y="21.3786304" width="89.3" height="188.6" rx="9.05"></rect>
            <rect id="Rectangle" fill="#051934" fill-rule="nonzero" transform="translate(106.886545, 115.678630) rotate(-11.240000) translate(-106.886545, -115.678630) " x="62.2365445" y="21.3786304" width="89.3" height="188.6" rx="9.05"></rect>
            <circle id="Oval" fill="#FFFFFF" fill-rule="nonzero" cx="123.02087" cy="196.89" r="5.09"></circle>
            <path d="M101.80087,28.72 C101.724571,28.0961727 101.306462,27.5671001 100.717161,27.3486807 C100.127861,27.1302613 99.4659299,27.259026 99.0014825,27.6824297 C98.5370352,28.1058335 98.3477507,28.7530617 98.5108705,29.36 C98.5923173,29.8049484 98.8518136,30.1973897 99.2293419,30.4465584 C99.6068702,30.6957271 100.069731,30.7800411 100.51087,30.68 L100.51087,30.68 C100.952595,30.5936189 101.34075,30.3325928 101.587366,29.9560794 C101.833982,29.5795661 101.918177,29.1194465 101.82087,28.68 L101.80087,28.72 Z" id="Path" fill="#FFFFFF" fill-rule="nonzero"></path>
            <rect id="Rectangle" fill="#FFFFFF" fill-rule="nonzero" transform="translate(87.666681, 31.523152) rotate(-11.240000) translate(-87.666681, -31.523152) " x="79.0416812" y="29.8481522" width="17.25" height="3.35" rx="1.67"></rect>
            <rect id="Rectangle" fill="#F7F7F7" fill-rule="nonzero" transform="translate(106.298443, 112.277674) rotate(-11.290000) translate(-106.298443, -112.277674) " x="64.5134428" y="34.7676737" width="83.57" height="155.02" rx="2.36"></rect>
            <path d="M61.7308705,83.5 L67.5808705,112.82 L80.9208705,110.15 C89.4208705,108.46 97.7308705,114.24 99.4908705,123.07 L102.17087,136.47 L130.38087,130.84 L124.52087,101.5 L120.14087,79.5 L118.67087,72.13 L61.7308705,83.5 Z" id="Path" fill="#C5E5F3" fill-rule="nonzero"></path>
            <rect id="Rectangle" fill="#C5E5F3" fill-rule="nonzero" transform="translate(99.309823, 168.361713) rotate(-11.290000) translate(-99.309823, -168.361713) " x="81.5298234" y="153.411713" width="35.56" height="29.9"></rect>
            <rect id="Rectangle" fill="#C5E5F3" fill-rule="nonzero" transform="translate(80.239656, 172.170436) rotate(-11.290000) translate(-80.239656, -172.170436) " x="75.7346559" y="157.220436" width="9.01" height="29.9"></rect>
            <polyline id="Path" stroke="#11B0DE" stroke-width="5.55" points="71.4508705 151.18 144.49087 136.6 123.18087 29.87"></polyline>
            <path d="M65.6008705,121.86 L80.5008705,118.86 C85.8873405,117.895632 91.0373981,121.475168 92.0108705,126.86 L95.8808705,146.28" id="Path" stroke="#11B0DE" stroke-width="5.55"></path>
            <line x1="119.77087" y1="141.53" x2="128.81087" y2="186.83" id="Path" stroke="#11B0DE" stroke-width="5.55"></line>
            <path d="M90.5108705,45.72 C79.4422256,47.8574646 72.1996748,58.5601464 74.3308705,69.63 C76.4708705,80.69 101.26087,101.43 101.26087,101.43 C101.26087,101.43 116.55087,72.96 114.41087,61.89 C113.386887,56.5758155 110.293224,51.8863023 105.810808,48.8536386 C101.328393,45.8209749 95.824613,44.6937248 90.5108705,45.72 Z M96.1408705,74.92 C92.3517639,75.6513954 88.4952191,74.0279748 86.3699151,70.8068957 C84.244611,67.5858167 84.269199,63.4015811 86.4322114,60.2057016 C88.5952238,57.0098222 92.4705811,55.431837 96.2508304,56.2077126 C100.03108,56.9835882 102.971571,59.9604894 103.70087,63.75 C104.181619,66.2339704 103.654893,68.8071606 102.236782,70.9024385 C100.81867,72.9977163 98.6255808,74.4430905 96.1408705,74.92 Z" id="Shape" fill="#7FBC5B" fill-rule="nonzero"></path>
            <path d="M293.68087,68.57 C286.647048,68.5755146 280.946385,74.2761778 280.94087,81.31 C280.94087,88.31 293.68087,103.99 293.68087,103.99 C293.68087,103.99 306.42087,88.35 306.42087,81.31 C306.42087,74.2738923 300.716978,68.57 293.68087,68.57 Z M293.68087,87.14 C290.367162,87.14 287.68087,84.4537085 287.68087,81.14 C287.68087,77.8262915 290.367162,75.14 293.68087,75.14 C296.994579,75.14 299.68087,77.8262915 299.68087,81.14 C299.68087,82.7312989 299.048729,84.2574224 297.923511,85.3826407 C296.798293,86.507859 295.272169,87.14 293.68087,87.14 Z" id="Shape" fill="#7FBC5B" fill-rule="nonzero"></path>
            <path d="M101.83087,37.7 C119.33087,15.17 152.22087,0 189.91087,0 C236.58087,0 275.91087,19 287.73087,55.58" id="Path" stroke="#7FBC5B" stroke-linecap="round" stroke-linejoin="round" stroke-dasharray="1"></path>
            <rect id="Rectangle" fill="#8BCEEA" fill-rule="nonzero" x="209.08087" y="133.17" width="37.22" height="85.17"></rect>
            <path d="M274.12087,219.5 C301.69087,217.26 319.47087,209.5 329.40087,197.73 C329.265066,196.542433 329.044504,195.366099 328.74087,194.21 C325.60087,182.6 314.38087,186.02 311.08087,185.05 C307.78087,184.08 305.80087,175.79 294.25087,174.43 C282.70087,173.07 272.79087,187.01 268.83087,198.1 C264.87087,209.19 253.13087,212.76 247.76087,208.8 C242.39087,204.84 238.76087,195.59 224.93087,198.1 C211.51087,200.5 212.00087,217.16 212.00087,218.29 C213.05087,218.29 214.53087,218.38 215.56087,218.4 L274.12087,219.5 Z" id="Path" fill="#7FBC5B" fill-rule="nonzero"></path>
        </g>
    </g>
</svg>