<?xml version="1.0" encoding="UTF-8"?>
<svg width="26px" height="26px" viewBox="0 0 26 26" version="1.1" xmlns="http://www.w3.org/2000/svg" xmlns:xlink="http://www.w3.org/1999/xlink">
    <title>Untitled</title>
    <g id="Page-1" stroke="none" stroke-width="1" fill="none" fill-rule="evenodd">
        <g id="account" fill="#11B0DE" fill-rule="nonzero">
            <path d="M12.59,0 C5.636735,0 0,5.636735 0,12.59 C0,19.543265 5.636735,25.18 12.59,25.18 C19.543265,25.18 25.18,19.543265 25.18,12.59 C25.1689878,5.64130152 19.5386985,0.0110122212 12.59,0 Z M12.59,6.12 C14.71,6.12 16.43,8.12 16.43,10.58 C16.43,13.04 14.71,15.06 12.59,15.06 C10.47,15.06 8.75,13.06 8.75,10.6 C8.75,8.14 10.47,6.12 12.59,6.12 Z M12.59,22.87 C9.7027456,22.8742077 6.94734797,21.6616875 5,19.53 C5.2554293,17.9738584 6.27268348,16.6488004 7.71,16 L8.91,15.44 C10.9675263,17.4108339 14.2124737,17.4108339 16.27,15.44 L17.47,16 C18.9140701,16.6590056 19.9290678,18.0010582 20.17,19.57 C18.2230836,21.6915763 15.4694363,22.8903937 12.59,22.87 Z" id="Shape"></path>
        </g>
    </g>
</svg>