<?xml version="1.0" encoding="UTF-8"?>
<svg width="43px" height="40px" viewBox="0 0 43 40" version="1.1" xmlns="http://www.w3.org/2000/svg" xmlns:xlink="http://www.w3.org/1999/xlink">
    <title>Slice 1</title>
    <g id="Page-1" stroke="none" stroke-width="1" fill="none" fill-rule="evenodd">
        <g id="address" transform="translate(0.002608, 0.000000)" fill-rule="nonzero">
            <path d="M24.5473916,10.36 C31.7573916,8.68 40.3773916,10.9 42.5473916,22.5 C44.7173916,34.1 37.9173916,39.7 24.8173916,39.83 C11.7173916,39.96 -2.06260842,37.38 0.257391581,27 C2.57739158,16.62 9.80739158,16.9 13.3573916,17.44 C16.9073916,17.98 18.6773916,11.72 24.5473916,10.36 Z" id="Path" fill="#DEF0F8"></path>
            <path d="M21.7773916,0 C14.9401064,0 9.39739158,5.5427148 9.39739158,12.38 C9.39739158,19.22 21.7773916,34.38 21.7773916,34.38 C21.7773916,34.38 34.1573916,19.18 34.1573916,12.38 C34.1573916,5.5427148 28.6146768,0 21.7773916,0 Z M21.7773916,18.0000087 C18.5796629,18.0000087 15.9873916,15.4077287 15.9873916,12.21 C15.9873916,9.0122713 18.5796629,6.42 21.7773916,6.42 C24.9751203,6.42 27.5674003,9.0122713 27.5674003,12.21 C27.5700521,13.7464175 26.9608903,15.220673 25.8744774,16.3070859 C24.7880646,17.3934987 23.3138091,18.0026605 21.7773916,18.0000087 Z" id="Shape" fill="#11B0DE"></path>
        </g>
    </g>
</svg>