<?xml version="1.0" encoding="UTF-8"?>
<svg width="93px" height="93px" viewBox="0 0 93 93" version="1.1" xmlns="http://www.w3.org/2000/svg" xmlns:xlink="http://www.w3.org/1999/xlink">
    <title>Untitled 16</title>
    <g id="Page-1" stroke="none" stroke-width="1" fill="none" fill-rule="evenodd">
        <g id="avatar" fill="#11B0DE" fill-rule="nonzero">
            <path d="M46.14,0 C20.6575816,0 0,20.6575816 0,46.14 C0,71.6224184 20.6575816,92.28 46.14,92.28 C71.6224184,92.28 92.28,71.6224184 92.28,46.14 C92.2579452,20.6667226 71.6132774,0.022054798 46.14,0 Z M46.14,22.44 C53.91,22.44 60.23,29.72 60.23,38.76 C60.23,47.8 53.91,55.18 46.14,55.18 C38.37,55.18 32.06,47.89 32.06,38.86 C32.06,29.83 38.37,22.44 46.14,22.44 Z M46.14,83.8301827 C35.5754667,83.8158097 25.5000099,79.3765155 18.36,71.59 C19.2304516,65.8239242 22.9599575,60.8901379 28.27,58.48 L32.64,56.48 C40.1783962,63.7338085 52.1016038,63.7338085 59.64,56.48 L64.01,58.48 C69.3200425,60.8901379 73.0495484,65.8239242 73.92,71.59 C66.8081449,79.4157068 56.714454,83.863035 46.14,83.8301827 Z" id="Shape"></path>
        </g>
    </g>
</svg>