<?xml version="1.0" encoding="UTF-8"?>
<svg width="19px" height="26px" viewBox="0 0 19 26" version="1.1" xmlns="http://www.w3.org/2000/svg" xmlns:xlink="http://www.w3.org/1999/xlink">
    <title>Untitled 3</title>
    <g id="Page-1" stroke="none" stroke-width="1" fill="none" fill-rule="evenodd">
        <g id="bill" transform="translate(0.000000, 0.982442)" fill="#00B2E3" fill-rule="nonzero">
            <path d="M0.77,23.8975585 C0.35,24.2475585 0,24.0875585 0,23.5375585 L0,0.657558467 C0,0.107558467 0.36,-0.082441533 0.81,0.247558467 L2.65,1.60755847 C3.12171473,1.92684274 3.74897181,1.88994527 4.18,1.51755847 L5.44,0.337558467 C5.85627835,-0.0425657638 6.49372165,-0.0425657638 6.91,0.337558467 L8.17,1.51755847 C8.60064874,1.8896517 9.23136114,1.91454825 9.69,1.57755847 L11.38,0.267558467 C11.8611121,-0.0928627043 12.5233741,-0.0887746673 13,0.277558467 L14.61,1.56755847 C15.0761084,1.91875699 15.7127464,1.93877705 16.2,1.61755847 L18.08,0.237558467 C18.52,-0.082441533 18.89,0.107558467 18.89,0.657558467 L18.89,23.5375585 C18.89,24.0875585 18.55,24.2375585 18.14,23.8775585 L16.74,22.6475585 C16.3011218,22.2873229 15.6688782,22.2873229 15.23,22.6475585 L13.83,23.8775585 C13.3789224,24.2406461 12.745648,24.2729148 12.26,23.9575585 L10.35,22.5775585 C9.86706803,22.2601946 9.23323042,22.2967621 8.79,22.6675585 L7.46,23.8675585 C7.02915511,24.2542376 6.39663122,24.3150572 5.9,24.0175585 L3.9,22.6175585 C3.41065683,22.2992474 2.77396219,22.3232736 2.31,22.6775585 L0.77,23.8975585 Z" id="Path"></path>
        </g>
    </g>
</svg>