<?xml version="1.0" encoding="UTF-8"?>
<svg width="333px" height="239px" viewBox="0 0 333 239" version="1.1" xmlns="http://www.w3.org/2000/svg" xmlns:xlink="http://www.w3.org/1999/xlink">
    <title>Untitled 6</title>
    <g id="Page-1" stroke="none" stroke-width="1" fill="none" fill-rule="evenodd">
        <g id="cancel_plan" transform="translate(0.002208, 0.372467)" fill-rule="nonzero">
            <path d="M54.4777922,226.107533 C19.1777922,225.397533 -6.90220778,192.217533 1.62779222,157.957533 C1.76779222,157.397533 1.91779222,156.827533 2.06779222,156.257533 C13.4077922,115.177533 56.6477922,132.537533 79.9977922,90.9375326 C103.347792,49.3375326 195.327792,25.9375326 232.917792,80.9375326 C270.507792,135.937533 325.347792,126.347533 331.547792,165.477533 C337.747792,204.607533 315.547792,230.857533 245.087792,229.717533 C194.637792,228.897533 102.627792,227.077533 54.4777922,226.107533 Z" id="Path" fill="#DAF0F9"></path>
            <path d="M224.767792,134.627533 L223.767792,135.677533 C221.447792,138.207533 215.127792,145.057533 208.167792,152.947533 C206.527792,154.807533 204.837792,156.747533 203.167792,158.677533 C200.647792,161.597533 198.167792,164.507533 195.867792,167.327533 L195.867792,167.327533 C195.157792,168.157533 194.497792,168.967533 193.867792,169.777533 C192.497792,171.467533 191.217792,173.087533 190.047792,174.607533 C186.517792,179.207533 184.047792,182.927533 183.577792,184.817533 C180.757792,196.597533 186.247792,229.757533 187.667792,237.867533 L110.667792,237.867533 C112.987792,221.017533 116.227792,197.207533 116.667792,193.587533 C117.307792,187.877533 97.3977922,163.387533 97.0577922,145.507533 C96.7177922,127.627533 108.537792,114.867533 110.397792,97.2875326 C111.307792,89.0075326 110.277792,78.2275326 108.957792,69.0475326 C108.267792,64.1675326 107.467792,59.8075326 106.827792,56.5075326 C106.498103,55.0093986 106.936894,53.4455016 107.997792,52.3375326 C108.257445,52.0619184 108.553513,51.8230458 108.877792,51.6275326 C110.169243,50.7758589 111.806553,50.6438178 113.217792,51.2775326 C117.627792,53.1675326 124.157792,58.1375326 125.437792,70.5975326 C125.437792,70.5975326 129.607792,93.3475326 135.577792,97.1375326 C138.007792,98.6575326 138.687792,80.0375326 141.777792,81.9975326 L149.367792,86.7975326 L149.877792,87.1175326 C150.957792,87.7975326 152.007792,88.4875326 153.137792,89.1975326 L153.137792,89.1975326 C153.527792,89.4375326 153.917792,89.7075326 154.337792,89.9575326 C155.047792,90.4175326 155.777792,90.8875326 156.537792,91.3475326 C156.68376,91.454992 156.841432,91.5455695 157.007792,91.6175326 L172.007792,101.197533 L172.007792,101.197533 C172.837792,101.687533 173.667792,102.197533 174.507792,102.767533 C175.137792,103.177533 175.797792,103.567533 176.507792,103.987533 C177.217792,104.407533 178.147792,104.987533 178.977792,105.557533 L178.977792,105.557533 C184.787792,109.227533 190.467792,112.857533 195.777792,116.207533 L198.257792,117.777533 L200.187792,118.997533 C201.047792,119.537533 201.827792,120.057533 202.637792,120.597533 L202.637792,120.597533 C212.777792,126.987533 220.637792,131.977533 223.477792,133.817533 C224.357792,134.307533 224.767792,134.557533 224.767792,134.627533 Z" id="Path" fill="#E0C5AC"></path>
            <path d="M207.477792,28.6275326 C207.477792,28.6275326 221.477792,16.4875326 230.087792,23.1075326 C238.697792,29.7275326 210.717792,51.1075326 210.717792,51.1075326 L207.477792,28.6275326 Z" id="Path" fill="#E0C5AC"></path>
            <path d="M232.197792,69.3775326 L221.517792,75.2875326 C217.097792,77.7275326 207.237792,79.2875326 205.207792,75.5975326 L203.137792,71.8575326 C201.137792,68.1875326 206.987792,61.0175326 211.417792,58.5675326 L222.747792,52.2975326 C227.167792,49.8575326 232.447792,50.8575326 234.477792,54.5175326 L236.547792,58.2575326 C238.577792,61.9275326 236.617792,66.9275326 232.197792,69.3775326 Z" id="Path" fill="#E0C5AC"></path>
            <rect id="Rectangle" fill="#3078FF" transform="translate(176.073449, 103.400031) rotate(-11.240000) translate(-176.073449, -103.400031) " x="130.448449" y="7.04503086" width="91.25" height="192.71" rx="9.24"></rect>
            <rect id="Rectangle" fill="#001936" transform="translate(176.073449, 103.400031) rotate(-11.240000) translate(-176.073449, -103.400031) " x="130.448449" y="7.04503086" width="91.25" height="192.71" rx="9.24"></rect>
            <circle id="Oval" fill="#FFFFFF" cx="192.557792" cy="186.377533" r="5.2"></circle>
            <path d="M170.877792,14.5475326 C170.700981,13.6198787 169.805671,13.0111722 168.878003,13.1879092 C167.950335,13.3646462 167.341557,14.259908 167.51822,15.18759 C167.694883,16.1152721 168.590096,16.7241215 169.517792,16.5475326 L169.517792,16.5475326 C170.434324,16.356647 171.029863,15.4677822 170.857792,14.5475326 L170.877792,14.5475326 Z" id="Path" fill="#FFFFFF"></path>
            <rect id="Rectangle" fill="#FFFFFF" transform="translate(156.437894, 17.400737) rotate(-11.240000) translate(-156.437894, -17.400737) " x="147.622894" y="15.6907366" width="17.63" height="3.42" rx="1.71"></rect>
            <rect id="Rectangle" fill="#FFFFFF" transform="translate(175.472808, 99.926600) rotate(-11.290000) translate(-175.472808, -99.926600) " x="132.777808" y="20.7316004" width="85.39" height="158.39" rx="2.36"></rect>
            <path d="M232.487792,91.0575326 L220.137792,97.8875326 C215.717792,100.327533 207.527792,100.887533 205.497792,97.2675326 L203.437792,93.5275326 C201.437792,89.8675326 207.147792,82.7675326 211.567792,80.3175326 L222.997792,73.9775326 C227.417792,71.5275326 232.697792,72.5275326 234.727792,76.1975326 L236.797792,79.9375326 C238.867792,83.6275326 236.907792,88.6275326 232.487792,91.0575326 Z" id="Path" fill="#E0C5AC"></path>
            <path d="M233.627792,112.037533 L222.877792,118.037533 C218.447792,120.487533 208.667792,121.977533 206.637792,118.307533 L204.577792,114.567533 C202.577792,110.897533 208.127792,103.887533 212.577792,101.447533 L224.207792,95.0075326 C228.627792,92.5675326 233.907792,93.5675326 235.937792,97.2375326 L237.997792,100.917533 C239.997792,104.627533 238.047792,109.627533 233.627792,112.037533 Z" id="Path" fill="#E0C5AC"></path>
            <path d="M199.587792,114.697533 L178.997792,100.507533 L193.187792,79.8875326 C193.662757,79.1999381 193.490387,78.2574975 192.802792,77.7825326 C192.115198,77.3075677 191.172757,77.4799381 190.697792,78.1675326 L176.467792,98.7875326 L155.837792,84.6275326 C155.392997,84.3220705 154.819026,84.2771075 154.332091,84.5095808 C153.845155,84.7420541 153.519231,85.2166454 153.477091,85.7545808 C153.43495,86.2925162 153.682997,86.8120705 154.127792,87.1175326 L174.747792,101.307533 L160.557792,121.927533 C160.08442,122.618227 160.258803,123.561682 160.947792,124.037533 C161.201161,124.210031 161.501294,124.300769 161.807792,124.297616 C162.304953,124.29534 162.770474,124.053269 163.057792,123.647533 L177.247792,103.017533 L197.867792,117.207533 C198.120284,117.382991 198.420322,117.477189 198.727792,117.477533 C199.225403,117.478395 199.6906,117.23079 199.967792,116.817533 C200.202001,116.487136 200.293673,116.076506 200.22222,115.677871 C200.150766,115.279236 199.922177,114.926012 199.587792,114.697533 L199.587792,114.697533 Z" id="Path" fill="#C1272D"></path>
        </g>
    </g>
</svg>