<?xml version="1.0" encoding="UTF-8"?>
<svg width="27px" height="19px" viewBox="0 0 27 19" version="1.1" xmlns="http://www.w3.org/2000/svg" xmlns:xlink="http://www.w3.org/1999/xlink">
    <title>Untitled 17</title>
    <g id="Page-1" stroke="none" stroke-width="1" fill="none" fill-rule="evenodd">
        <g id="credit_card" transform="translate(0.999966, 0.000000)" fill="#11B0DE" fill-rule="nonzero">
            <path d="M25.5400336,3.05 C25.5074346,1.38736792 24.1529774,0.0551149305 22.4900336,0.05 L3.05003361,0 C1.35842742,0.0110113778 -0.00551246757,1.38836706 1.6751711e-05,3.08 L1.6751711e-05,15.08 C0.010994442,16.7638062 1.3762006,18.1245508 3.06003361,18.13 L22.5000336,18.13 C24.1434843,18.0980794 25.468113,16.7734507 25.5000336,15.13 L25.5400336,3.05 Z M8.20003361,15.7000001 L3.09003361,15.7000001 C2.94091672,15.7000001 2.82003361,15.5791169 2.82003361,15.43 L2.82003361,13.51 C2.82003361,13.3608831 2.94091672,13.24 3.09003361,13.24 L8.20003361,13.24 C8.35075462,13.2453863 8.47012982,13.3691828 8.47003366,13.52 L8.47003366,15.44 C8.46465225,15.5851977 8.34533096,15.7000997 8.20003361,15.7000001 L8.20003361,15.7000001 Z M14.8500336,15.7 L9.74003361,15.7 C9.59091672,15.7 9.47003355,15.5791169 9.47003355,15.43 L9.47003355,13.51 C9.46993739,13.3591828 9.58931259,13.2353863 9.74003361,13.23 L14.8500336,13.23 C14.9991505,13.23 15.1200336,13.3508831 15.1200336,13.5 L15.1200336,15.42 C15.1228778,15.492443 15.0953459,15.5627835 15.0440815,15.6140479 C14.9928171,15.6653123 14.9224766,15.6928442 14.8500336,15.69 L14.8500336,15.7 Z M21.5000336,15.7 L16.3900336,15.7 C16.2409167,15.7 16.1200335,15.5791169 16.1200335,15.43 L16.1200335,13.5 C16.1199374,13.3491828 16.2393126,13.2253863 16.3900336,13.22 L21.5000336,13.22 C21.6491505,13.22 21.7700336,13.3408831 21.7700336,13.49 L21.7700336,15.41 C21.765249,15.5588026 21.6485639,15.6798094 21.5000336,15.69 L21.5000336,15.7 Z" id="Shape"></path>
        </g>
    </g>
</svg>