<?xml version="1.0" encoding="UTF-8"?>
<svg width="471px" height="175px" viewBox="0 0 471 175" version="1.1" xmlns="http://www.w3.org/2000/svg" xmlns:xlink="http://www.w3.org/1999/xlink">
    <title>Slice 1</title>
    <g id="Page-1" stroke="none" stroke-width="1" fill="none" fill-rule="evenodd">
        <g id="limpo_track" transform="translate(0.000000, 0.000342)">
            <rect id="Rectangle" fill="#C5E5F3" fill-rule="nonzero" x="0" y="123.609658" width="470.36" height="50.85"></rect>
            <path d="M405.63,89.1296579 C396.935419,89.1296579 389.88552,96.1750786 389.88,104.869658 C389.88,113.569658 405.63,132.869658 405.63,132.869658 C405.63,132.869658 421.37,113.539658 421.37,104.869658 C421.37,96.176696 414.322962,89.1296579 405.63,89.1296579 L405.63,89.1296579 Z M405.63,112.069665 C401.565184,112.069665 398.27,108.774474 398.27,104.709658 C398.27,100.644842 401.565184,97.3496579 405.63,97.3496579 C409.694816,97.3496579 412.990007,100.644842 412.990007,104.709658 C412.992659,106.662465 412.218086,108.536055 410.837242,109.9169 C409.456397,111.297744 407.582807,112.072317 405.63,112.069665 L405.63,112.069665 Z" id="Shape" fill="#7FBC5B" fill-rule="nonzero"></path>
            <path d="M248,136.459658 L45,136.459658 C43.5150153,136.448708 42.3154394,135.244673 42.31,133.759658 L42.31,133.759658 C42.3154839,132.276289 43.5166314,131.075142 45,131.069658 L248,131.069658 C249.483369,131.075142 250.684516,132.276289 250.69,133.759658 L250.69,133.759658 C250.684561,135.244673 249.484985,136.448708 248,136.459658 Z" id="Path" fill="#051934" fill-rule="nonzero"></path>
            <polygon id="Path" fill="#051934" fill-rule="nonzero" points="251.62 111.049658 44.35 106.609658 44.35 134.589658 251.62 134.589658"></polygon>
            <path d="M165.1,46.8996127 L44.35,46.8996127 C41.8354547,46.8885749 39.7865188,48.9151424 39.77,51.4296579 L39.77,129.229658 C39.7865188,131.744173 41.8354547,133.770741 44.35,133.759703 L49.58,133.759703 C51.6599335,133.75832 53.4766035,132.352661 54,130.339658 C56.54,120.729658 64.86,113.689658 74.74,113.689658 C84.62,113.689658 92.93,120.689658 95.47,130.339658 C95.9983731,132.357818 97.8238244,133.763908 99.91,133.759703 L165.1,133.759703 C167.614545,133.770741 169.663481,131.744173 169.68,129.229658 L169.68,51.4296579 C169.663481,48.9151424 167.614545,46.8885749 165.1,46.8996127 Z" id="Path" fill="#11B0DE" fill-rule="nonzero"></path>
            <path d="M172,57.0696348 L202.87,57.0696348 C204.728443,57.064152 206.451313,58.0415857 207.4,59.6396579 L224.3,88.1396579 C224.659655,88.7409525 225.135602,89.2644936 225.7,89.6796579 L249.5,107.109658 C250.826348,108.072696 251.613859,109.610572 251.62,111.249658 L251.62,124.999658 L241.9,124.999658 C241.9,124.999658 236.22,112.869658 220.58,112.869658 C204.94,112.869658 199,127.369658 198.06,133.419658 L172,133.419658 L172,57.0696348 Z" id="Path" fill="#FDFFFD" fill-rule="nonzero"></path>
            <path d="M201.5,62.5496579 L180,62.5496579 C179.125775,62.5551563 178.419873,63.2654156 178.419873,64.1396579 L178.419873,89.1396579 C178.414652,89.5621545 178.578751,89.9691908 178.87564,90.2698381 C179.172529,90.5704853 179.57747,90.7396579 180,90.7396579 L215.14,90.7396579 C215.699712,90.7373361 216.216978,90.4408926 216.50193,89.9591397 C216.786881,89.4773869 216.797543,88.8812922 216.53,88.3896579 L202.86,63.3896579 C202.589033,62.88704 202.070745,62.5669208 201.5,62.5496579 L201.5,62.5496579 Z" id="Path" fill="#C5E5F3" fill-rule="nonzero"></path>
            <path d="M251.62,110.449658 L172,110.449658 L172,133.449658 L198.06,133.449658 C198.06,133.449658 202.12,112.999658 220.58,112.999658 C220.58,112.999658 235,112.279658 241.9,124.999658 L251.62,124.999658 L251.62,110.449658 Z" id="Path" fill="#ECEEF0" fill-rule="nonzero"></path>
            <circle id="Oval" fill="#051934" fill-rule="nonzero" transform="translate(221.464528, 133.435389) rotate(-76.880000) translate(-221.464528, -133.435389) " cx="221.464528" cy="133.435389" r="16.86"></circle>
            <circle id="Oval" fill="#051934" fill-rule="nonzero" transform="translate(75.321470, 133.422562) rotate(-45.000000) translate(-75.321470, -133.422562) " cx="75.3214695" cy="133.422562" r="16.86"></circle>
            <circle id="Oval" fill="#C8E6F4" fill-rule="nonzero" cx="75.32" cy="133.419658" r="9.81"></circle>
            <circle id="Oval" fill="#C8E6F4" fill-rule="nonzero" cx="221.45" cy="133.419658" r="9.81"></circle>
            <rect id="Rectangle" fill="#051934" fill-rule="nonzero" x="35.37" y="122.169658" width="13.76" height="14.29" rx="4.82"></rect>
            <path d="M187.91,90.7396579 L178.46,90.7396579 L178.46,79.5596579 C178.514686,77.0016339 180.621611,74.96613 183.18,74.9996579 L183.18,74.9996579 C185.747732,74.9661923 187.860729,77.0121803 187.91,79.5796579 L187.91,90.7396579 Z" id="Path" fill="#051934" fill-rule="nonzero"></path>
            <path d="M206.18,85.2596579 C206.830117,85.304777 207.48305,85.2880352 208.13,85.2096579 C208.46,85.0696579 209.37,84.5396579 209.24,83.9396579 C209.15,83.5696579 208.48,84.1596579 208.24,84.0496579 C208,83.9396579 208.8,83.8596579 208.84,83.7196579 C208.88,83.5796579 208.15,83.5096579 207.89,83.4596579 C207.63,83.4096579 206.89,84.0196579 206.27,84.1896579 C205.65,84.3596579 206.18,85.2596579 206.18,85.2596579 Z" id="Path" fill="#DBC5AF" fill-rule="nonzero"></path>
            <path d="M185,83.4996579 C185,83.4996579 187.25,86.0496579 190,86.4096579 C192.75,86.7696579 196.78,87.5896579 198,87.5996919 C199.22,87.6096579 206.33,85.4096579 206.33,85.4096579 C206.425558,85.1791697 206.425558,84.9201462 206.33,84.6896579 C206.256472,84.4073685 206.077529,84.1640052 205.83,84.0096579 C205.83,84.0096579 200.98,84.1296579 198.72,84.4396579 C197.78,84.5696579 191.37,80.7496579 190.37,78.4396579 C189.91,77.5496579 185,83.4996579 185,83.4996579 Z" id="Path" fill="#7DA65B" fill-rule="nonzero"></path>
            <path d="M186.6,77.2896579 C188.042014,78.1152943 189.707651,78.465218 191.36,78.2896579 C191.36,78.2896579 191.85,78.1596579 191.61,77.5896579 C191.76,77.1196579 191.74,77.1696579 191.83,76.8196579 C191.949952,76.4094035 192.043477,75.9918804 192.11,75.5696579 L190.71,74.0896579 L189.38,72.6796579 C189.246017,74.5731536 188.212166,76.2875608 186.6,77.2896579 Z" id="Path" fill="#DBC5AF" fill-rule="nonzero"></path>
            <path d="M189.16,73.9996579 C189.672528,75.246001 190.621773,76.2627954 191.83,76.8596579 C192.05,76.0696579 192.19,75.2396579 192.19,75.2396579 L190.71,74.1296579 L189.16,73.9996579 Z" id="Path" fill="#DBC5AF" fill-rule="nonzero" opacity="0.15" style="mix-blend-mode: multiply;"></path>
            <path d="M193.69,75.4996579 C193.69,75.4996579 189.33,76.0396579 189.03,73.3696579 C188.73,70.6996579 188,68.9996579 190.72,68.4896579 C193.44,67.9796579 194.15,68.9996579 194.47,69.8696579 C194.79,70.7396579 194.81,75.2896579 193.69,75.4996579 Z" id="Path" fill="#DBC5AF" fill-rule="nonzero"></path>
            <path d="M187.65,68.0596579 C187.65,68.0596579 187.52,67.9696579 187.32,67.9496579 C187.438553,67.8922078 187.568273,67.8614846 187.7,67.8596579 C187.73613,67.4516074 188.017477,67.1068591 188.41,66.9896579 C188.247513,67.0793644 188.133761,67.2371487 188.1,67.4196579 C188.68,66.8596579 189.47,66.4196579 192.78,66.8296579 C197.14,67.3396579 196.02,70.1296579 195.44,70.4496579 C194.86,70.7696579 193.44,69.7896579 192.44,69.8296579 C191.44,69.8696579 191.13,71.3896579 190.76,71.5896579 C190.39,71.7896579 190.55,71.4196579 190.07,71.1796579 C189.59,70.9396579 189.52,71.7496579 189.64,72.2696579 C189.76,72.7896579 189.07,73.4596579 189.07,73.4596579 L188.43,72.7096579 C187.78,71.9596579 187.26,68.8696579 187.59,68.2296579 L187.65,68.0596579 Z" id="Path" fill="#051934" fill-rule="nonzero"></path>
            <path d="M184.67,82.2596579 C184.67,82.2596579 186.32,85.2596579 188.91,86.1896579 C191.5,87.1196579 195.27,88.7996579 196.49,89.0796579 C197.71,89.3596579 205.09,88.7296579 205.09,88.7296579 C205.220214,88.517429 205.26657,88.2642557 205.22,88.0196579 C205.201601,87.7307841 205.08109,87.4578628 204.88,87.2496579 C204.88,87.2496579 200.12,86.3196579 197.88,86.1396579 C196.88,86.0596579 191.5,80.9496579 191.02,78.4896579 C190.79,77.5196579 184.67,82.2596579 184.67,82.2596579 Z" id="Path" fill="#7FBC5B" fill-rule="nonzero"></path>
            <path d="M194.46,90.7396579 C194.06,85.9896579 193.16,78.5296579 191.36,77.7396579 C189.848532,77.133369 188.227693,76.8473386 186.6,76.8996579 C186.6,76.8996579 184.06,78.9896579 183.25,85.2496579 C183,87.2496579 182.74,89.0796579 182.52,90.7496579 L194.46,90.7396579 Z" id="Path" fill="#7FBC5B" fill-rule="nonzero"></path>
            <path d="M207,90.7996579 L209.92,83.7996579 C210.006033,83.6023365 210.008916,83.37867 209.927998,83.1791965 C209.847079,82.9797231 209.689188,82.8212764 209.49,82.7396579 C209.073023,82.5668329 208.594777,82.7634949 208.42,83.1796579 L205.24,90.7996579 L207,90.7996579 Z" id="Path" fill="#051934" fill-rule="nonzero"></path>
            <path d="M207.94,90.7996579 L217.35,90.7996579 L215.83,86.1396579 C215.54849,85.2777551 214.736524,84.7012591 213.83,84.7196579 L210.48,84.7196579 C209.614923,84.7227763 208.843955,85.2660493 208.55,86.0796579 L207.55,88.7696579 C207.358455,89.3157416 207.401905,89.9168012 207.67,90.4296579 L207.94,90.7996579 Z" id="Path" fill="#051934" fill-rule="nonzero"></path>
            <path d="M215.06,97.6796579 L215.06,97.6796579 C213.267354,97.6741674 211.815491,96.2223042 211.81,94.4296579 L211.81,85.1196579 C211.81,83.3231077 213.263458,81.8651688 215.06,81.8596579 L215.06,81.8596579 C216.858169,81.8651486 218.314509,83.3214888 218.32,85.1196579 L218.32,94.4296579 C218.314489,96.2261997 216.85655,97.6796579 215.06,97.6796579 L215.06,97.6796579 Z" id="Path" fill="#ECEEF0" fill-rule="nonzero"></path>
            <rect id="Rectangle" fill="#11B0DE" fill-rule="nonzero" opacity="0.3" style="mix-blend-mode: multiply;" x="45.34" y="53.8696579" width="117.66" height="57.15"></rect>
            <path d="M205,88.5596579 C205.626377,88.7454158 206.26945,88.8693414 206.92,88.9296579 C207.28,88.8696579 208.28,88.5396579 208.28,87.9296579 C208.28,87.5496579 207.49,87.9296579 207.28,87.8096579 C207.07,87.6896579 207.87,87.7496579 207.94,87.6196579 C208.01,87.4896579 207.31,87.2596579 207.06,87.1596579 C206.81,87.0596579 205.95,87.4896579 205.33,87.5196579 C204.71,87.5496579 205,88.5596579 205,88.5596579 Z" id="Path" fill="#DBC5AF" fill-rule="nonzero"></path>
            <rect id="Rectangle" fill="#051934" fill-rule="nonzero" x="243.76" y="122.169658" width="10.45" height="14.29" rx="4.82"></rect>
            <path d="M77.3,69.2496579 L75.11,69.2496579 C74.8275668,69.2758477 74.6135356,69.5160868 74.62,69.7996579 L74.62,86.0896579 C74.6187984,86.3694088 74.8314481,86.6037574 75.11,86.6296579 L77.3,86.6296579 C77.5785519,86.6037574 77.7912016,86.3694088 77.79,86.0896579 L77.79,69.7996579 C77.7964644,69.5160868 77.5824332,69.2758477 77.3,69.2496579 L77.3,69.2496579 Z" id="Path" fill="#FFFFFF" fill-rule="nonzero"></path>
            <path d="M83.68,75.1196579 L81.5,75.1196579 C81.3620039,75.1273888 81.2327629,75.189739 81.1408231,75.2929367 C81.0488833,75.3961344 81.0018098,75.5316883 81.01,75.6696579 L81.01,86.0896579 C81.0087984,86.3694088 81.2214481,86.6037574 81.5,86.6296579 L83.68,86.6296579 C83.9625093,86.6086747 84.1807782,86.3729443 84.18,86.0896579 L84.18,75.6696579 C84.1913678,75.3805911 83.9688391,75.1358094 83.68,75.1196579 L83.68,75.1196579 Z" id="Path" fill="#FFFFFF" fill-rule="nonzero"></path>
            <path d="M82.55,69.2396579 C81.5943826,69.3104443 80.8551851,70.1064224 80.8551851,71.0646579 C80.8551851,72.0228934 81.5943826,72.8188715 82.55,72.8896579 C83.2342571,72.9403436 83.8893759,72.6040089 84.2469811,72.0184362 C84.6045864,71.4328636 84.6045864,70.6964523 84.2469811,70.1108796 C83.8893759,69.525307 83.2342571,69.1889723 82.55,69.2396579 L82.55,69.2396579 Z" id="Path" fill="#FFFFFF" fill-rule="nonzero"></path>
            <path d="M128.93,86.9196579 C131.359056,86.9599785 133.572705,85.5315551 134.536845,83.301673 C135.500984,81.0717908 135.025314,78.4805802 133.332043,76.7385201 C131.638773,74.9964601 129.062115,74.4473954 126.805752,75.3478205 C124.549389,76.2482457 123.058678,78.4204364 123.03,80.8496579 C122.991016,84.151911 125.627972,86.8648466 128.93,86.9196579 L128.93,86.9196579 Z M128.93,77.9196579 C130.135491,77.8457557 131.263544,78.5166125 131.774188,79.6111043 C132.284831,80.7055961 132.07417,82.0010406 131.243043,82.8773377 C130.411916,83.7536348 129.129421,84.0324955 128.009461,83.5804355 C126.889501,83.1283755 126.159939,82.0373697 126.17,80.8296579 C126.14197,79.272514 127.373215,77.983276 128.93,77.9396579 L128.93,77.9196579 Z" id="Shape" fill="#FFFFFF" fill-rule="nonzero"></path>
            <path d="M133.34,92.6296579 C126.40954,91.0940845 119.328384,90.3426971 112.23,90.3896579 L112.23,80.8696579 C112.223314,79.4640276 113.259822,78.2713017 114.652647,78.08188 C116.045471,77.8924582 117.36286,78.7650583 117.7318,80.1214226 C118.100741,81.4777869 117.406868,82.8974642 116.11,83.4396579 C115.765955,83.5881071 115.39469,83.6630412 115.02,83.6596579 C114.14739,83.6596579 113.44,84.367048 113.44,85.2396579 C113.44,86.1122678 114.14739,86.8196579 115.02,86.8196579 C115.817617,86.8261766 116.607809,86.6660945 117.34,86.3496579 C120.139017,85.2053954 121.64913,82.157041 120.863513,79.2369999 C120.077896,76.3169588 117.242082,74.4378462 114.246771,74.852508 C111.251459,75.2671698 109.032791,77.8460095 109.07,80.8696579 L109.07,90.3996579 C102.298729,90.4061999 95.5485213,91.1539874 88.94,92.6296579 C88.5262487,92.7286491 88.1698999,92.99031 87.9515726,93.3554436 C87.7332453,93.7205773 87.6713898,94.1583269 87.78,94.5696579 C88.0404239,95.4166974 88.9234257,95.9067634 89.78,95.6796579 C96.7891985,94.1595964 103.94854,93.4416493 111.12,93.5396579 C118.291285,93.4456981 125.450169,94.1635993 132.46,95.6796579 C132.599916,95.7192252 132.744597,95.7394134 132.89,95.7397395 C133.619065,95.746918 134.264278,95.2691336 134.47,94.5696579 C134.579517,94.1624705 134.521732,93.7284002 134.309504,93.3640447 C134.097276,92.9996892 133.748215,92.7352797 133.34,92.6296579 Z" id="Path" fill="#FFFFFF" fill-rule="nonzero"></path>
            <path d="M89.94,86.6296579 C90.0699937,86.6244605 90.1925843,86.5677808 90.2807489,86.4721128 C90.3689135,86.3764448 90.415414,86.2496428 90.41,86.1196579 L90.41,80.8796579 L90.41,80.8796579 L90.41,80.8796579 C90.3026168,79.8785302 90.7762315,78.9039599 91.6297262,78.3697927 C92.4832209,77.8356255 93.5667791,77.8356255 94.4202738,78.3697927 C95.2737685,78.9039599 95.7473832,79.8785302 95.64,80.8796579 L95.64,86.1496579 C95.6345961,86.2813253 95.6824537,86.4096196 95.7727698,86.5055804 C95.863086,86.6015413 95.988247,86.6570794 96.12,86.6596579 L98.12,86.6596579 C98.2499937,86.6544605 98.3725843,86.5977808 98.4607489,86.5021128 C98.5489135,86.4064448 98.595414,86.2796428 98.59,86.1496579 L98.59,80.8496579 C98.4826168,79.8485302 98.9562315,78.8739599 99.8097262,78.3397927 C100.663221,77.8056255 101.746779,77.8056255 102.600274,78.3397927 C103.453768,78.8739599 103.927383,79.8485302 103.82,80.8496579 L103.82,80.8496579 L103.82,80.8496579 L103.82,86.0896579 C103.814586,86.2196428 103.861086,86.3464448 103.949251,86.4421128 C104.037416,86.5377808 104.160006,86.5944605 104.29,86.5996579 L106.29,86.5996579 C106.419994,86.5944605 106.542584,86.5377808 106.630749,86.4421128 C106.718914,86.3464448 106.765414,86.2196428 106.76,86.0896579 L106.76,80.8796579 L106.76,80.8796579 L106.76,80.8796579 C106.845069,77.6935229 104.363926,75.0256273 101.18,74.8796579 C99.5843462,74.9052415 98.0823977,75.6378993 97.08,76.8796579 C96.0776023,75.6378993 94.5756538,74.9052415 92.98,74.8796579 C89.7945395,75.0255905 87.310476,77.6918482 87.39,80.8796579 L87.39,80.8796579 L87.39,86.1896579 C87.3845961,86.3213253 87.4324537,86.4496196 87.5227698,86.5455804 C87.613086,86.6415413 87.738247,86.6970794 87.87,86.6996579 L89.94,86.6296579 Z" id="Path" fill="#FFFFFF" fill-rule="nonzero"></path>
            <path d="M216.08,41.5496579 C233.58,19.0296579 266.47,3.84965793 304.15,3.84965793 C360.2,3.84965793 405.63,37.4096579 405.63,78.8496579" id="Path" stroke="#7FBC5B" stroke-linecap="round" stroke-linejoin="round" stroke-dasharray="1"></path>
            <path d="M119.18,15.6996579 L145.35,15.6996579 C145.35,15.6996579 146.22,6.92965793 139.92,5.05965793 C133.62,3.18965793 132.28,6.87965793 132.28,6.87965793 C132.28,6.87965793 130.9,-0.680342071 122.08,0.0496579287 C117.23,0.146184954 113.329109,4.06918375 113.26,8.91965793 C113.26,8.91965793 105.7,7.84965793 104.73,15.6996579 L119.18,15.6996579 Z" id="Path" fill="#8BCEEA" fill-rule="nonzero"></path>
            <path d="M249.87,71.0996579 L269.16,71.0996579 C269.16,71.0996579 269.8,64.6296579 265.16,63.2596579 C260.52,61.8896579 259.53,64.5996579 259.53,64.5996579 C259.53,64.5996579 258.53,59.0296579 252.02,59.5996579 C248.452159,59.6795907 245.583503,62.5614864 245.52,66.1296579 C245.52,66.1296579 239.94,65.3396579 239.23,71.1296579 L249.87,71.0996579 Z" id="Path" fill="#8BCEEA" fill-rule="nonzero"></path>
        </g>
    </g>
</svg>