<?xml version="1.0" encoding="UTF-8"?>
<svg width="48px" height="48px" viewBox="0 0 48 48" version="1.1" xmlns="http://www.w3.org/2000/svg" xmlns:xlink="http://www.w3.org/1999/xlink">
    <title>Untitled 75</title>
    <g id="Page-1" stroke="none" stroke-width="1" fill="none" fill-rule="evenodd">
        <g id="lock">
            <polygon id="Path" points="0 0 48 0 48 48 0 48"></polygon>
            <path d="M36,16 L34,16 L34,12 C34,6.48 29.52,2 24,2 C18.48,2 14,6.48 14,12 L14,16 L12,16 C9.79,16 8,17.79 8,20 L8,40 C8,42.21 9.79,44 12,44 L36,44 C38.21,44 40,42.21 40,40 L40,20 C40,17.79 38.21,16 36,16 Z M24,34 C21.79,34 20,32.21 20,30 C20,27.79 21.79,26 24,26 C26.21,26 28,27.79 28,30 C28,32.21 26.21,34 24,34 Z M30.2,16 L17.8,16 L17.8,12 C17.8,8.58 20.58,5.8 24,5.8 C27.42,5.8 30.2,8.58 30.2,12 L30.2,16 Z" id="Shape" fill="#00B2E3" fill-rule="nonzero"></path>
        </g>
    </g>
</svg>