<?xml version="1.0" encoding="UTF-8"?>
<svg width="18px" height="18px" viewBox="0 0 18 18" version="1.1" xmlns="http://www.w3.org/2000/svg" xmlns:xlink="http://www.w3.org/1999/xlink">
    <title>Untitled 51</title>
    <g id="Page-1" stroke="none" stroke-width="1" fill="none" fill-rule="evenodd">
        <g id="my_plan" fill-rule="nonzero">
            <rect id="Rectangle" fill="#00B2E3" x="0" y="0" width="18" height="18"></rect>
            <path d="M7.89,13.7800181 C7.62907239,13.7815675 7.37786656,13.6810851 7.19,13.5 L3.66,10.05 C3.27227641,9.65996255 3.27227641,9.03003745 3.66,8.64 C4.05003745,8.25227641 4.67996255,8.25227641 5.07,8.64 L7.8,11.3 L13.47,4.3 C13.6474117,3.92943141 14.0334251,3.7050811 14.4432283,3.73436132 C14.8530315,3.76364153 15.203227,4.04059356 15.3261517,4.43262102 C15.4490764,4.82464848 15.3197142,5.25197129 15,5.51 L8.64,13.41 C8.46287881,13.6293033 8.20142303,13.7636625 7.92,13.7800181 L7.89,13.7800181 Z" id="Path" fill="#FFFFFF"></path>
        </g>
    </g>
</svg>