<?xml version="1.0" encoding="UTF-8"?>
<svg width="277px" height="199px" viewBox="0 0 277 199" version="1.1" xmlns="http://www.w3.org/2000/svg" xmlns:xlink="http://www.w3.org/1999/xlink">
    <title>Untitled 33</title>
    <g id="Page-1" stroke="none" stroke-width="1" fill="none" fill-rule="evenodd">
        <g id="how2" transform="translate(0.999066, 0.000000)" fill-rule="nonzero">
            <path d="M45.2209342,182 C15.9209342,181.33 -5.72906577,149.76 1.35093423,117.18 C1.47093423,116.64 1.59093423,116.1 1.72093423,115.55 C11.1309342,76.48 30.4209342,85.55 49.8009342,45.93 C69.1809342,6.31 167.140934,-6.38 198.340934,45.93 C229.540934,98.24 270.020934,87.11 275.170934,124.33 C280.320934,161.55 261.860934,186.53 203.410934,185.44 C161.550934,184.64 85.1809342,182.91 45.2209342,182 Z" id="Path" fill="#DEF0F8"></path>
            <rect id="Rectangle" fill="#EBCDBF" x="105.660934" y="0" width="106.45" height="191.01"></rect>
            <rect id="Rectangle" fill="#BCA799" x="105.660934" y="0" width="106.45" height="191.01"></rect>
            <rect id="Rectangle" fill="#DBC5AF" x="107.980934" y="3.32" width="101.81" height="183.02"></rect>
            <rect id="Rectangle" fill="#DBC5AF" x="109.770934" y="7.38" width="100.01" height="178.95"></rect>
            <rect id="Rectangle" fill="#BCA799" x="117.800934" y="12.21" width="86.1" height="167.15"></rect>
            <rect id="Rectangle" fill="#DBC5AF" x="97.5609342" y="179.36" width="122.65" height="19.42"></rect>
            <rect id="Rectangle" fill="#EDE2D7" x="97.5609342" y="179.36" width="122.65" height="4.22"></rect>
            <rect id="Rectangle" fill="#DBC5AF" x="120.520934" y="15.17" width="80.21" height="164.19"></rect>
            <path d="M189.440934,95.79 C189.510934,100.56 182.240934,100.56 182.310934,95.79 C182.380934,91.02 189.510934,91 189.440934,95.79 Z" id="Path" fill="#BCA799"></path>
            <path d="M135.110934,184.26 C135.110934,184.26 138.110934,187.03 137.520934,189 C136.930934,190.97 134.240934,192.28 133.870934,194.69 C133.500934,197.1 132.050934,198.41 130.740934,198.41 L124.480934,198.41 C124.480934,198.41 123.480934,196.71 125.850934,196.2 C128.220934,195.69 129.060934,192.87 128.920934,190.2 C128.857396,188.157603 128.927546,186.113237 129.130934,184.08 L134.130934,182.91 L135.110934,184.26 Z" id="Path" fill="#051934"></path>
            <path d="M98.4409342,191.82 C98.4409342,191.82 99.1709342,197.65 97.8609342,198.3 C96.5509342,198.95 80.8609342,198.74 80.8609342,198.74 C80.8609342,198.74 80.8609342,196.74 83.5609342,196.34 C86.2609342,195.94 90.9909342,194.29 91.8009342,190.72 C92.6109342,187.15 98.4409342,191.82 98.4409342,191.82 Z" id="Path" fill="#051934"></path>
            <path d="M84.2609342,102.75 C84.2609342,102.75 85.1509342,113.81 86.1909342,127.09 C87.6009342,145.09 89.3109342,167.3 89.4709342,171.5 C89.7609342,178.79 90.9309342,190.5 90.9309342,190.5 C90.9309342,190.5 93.7009342,193.27 99.2409342,192.1 C102.399301,180.89446 104.524844,169.423225 105.590934,157.83 C105.590934,157.55 105.590934,157.25 105.660934,156.96 C107.000934,139 109.000934,101.22 109.000934,101.22 L84.2609342,102.75 Z" id="Path" fill="#051934"></path>
            <path d="M84.2609342,102.75 C84.2609342,102.75 85.1509342,113.81 86.1909342,127.09 L105.590934,157.79 C105.590934,157.51 105.590934,157.21 105.660934,156.92 C107.000934,139 109.000934,101.22 109.000934,101.22 L84.2609342,102.75 Z" id="Path" fill="#041426"></path>
            <path d="M88.3109342,104.07 C88.3109342,104.07 104.310934,144.07 114.770934,162.9 C125.230934,181.73 128.550934,187 128.550934,187 C128.550934,187 134.550934,184.59 135.110934,182.95 C135.110934,182.95 131.110934,146.64 124.110934,137.79 C120.110934,132.79 115.470934,117.79 115.250934,112.53 C115.030934,107.27 113.830934,96.89 113.830934,96.89 L88.3109342,104.07 Z" id="Path" fill="#051934"></path>
            <path d="M68.1209342,76.66 C65.7052149,76.6724325 63.2918438,76.8126283 60.8909342,77.08 C59.8909342,77.4 56.7909342,79.71 56.8109342,80.01 C56.8309342,80.31 57.0609342,80.49 57.6709342,80.38 C58.2809342,80.27 60.2009342,79.53 60.1309342,79.8 C60.0609342,80.07 54.6409342,82.6 54.8609342,83.8 C55.0809342,85 58.7309342,86.33 61.4009342,85.8 C64.0709342,85.27 68.5209342,80.95 68.9509342,80.8 C72.6509342,79.52 68.1209342,76.66 68.1209342,76.66 Z" id="Path" fill="#D1BBA7"></path>
            <path d="M66.6809342,79.19 C65.8209342,77.3 65.9309342,76.97 65.9309342,76.97 C65.9309342,76.97 79.5309342,73.59 81.0009342,72.44 C82.4709342,71.29 88.3009342,53.75 88.3009342,53.75 L107.360934,56.6 C107.360934,56.6 91.3209342,78 87.5209342,80.83 C81.2209342,85.52 68.5209342,81.45 68.5209342,81.45 C67.7258618,80.864903 67.0926777,80.0871878 66.6809342,79.19 L66.6809342,79.19 Z" id="Path" fill="#75AA53"></path>
            <path d="M102.000934,43.84 C102.000934,43.84 92.0009342,52.49 85.5509342,51.79 C86.4685202,49.7151785 87.7832195,47.8399486 89.4209342,46.27 C89.0609342,45.36 88.7709342,44.52 88.5209342,43.78 C88.0754546,42.4966569 87.6949714,41.1916665 87.3809342,39.87 L91.3809342,35.11 L94.0709342,31.88 C94.2869115,33.2048305 94.6456679,34.5023889 95.1409342,35.75 C96.4124926,39.1651445 98.8395397,42.0273618 102.000934,43.84 L102.000934,43.84 Z" id="Path" fill="#DBC5AF"></path>
            <path d="M95.1209342,35.75 C94.2340975,39.2694713 91.8154486,42.2056156 88.5309342,43.75 C88.0854546,42.4666569 87.7049714,41.1616665 87.3909342,39.84 L91.3909342,35.08 C92.661349,35.1099443 93.9195158,35.335942 95.1209342,35.75 Z" id="Path" fill="#DBC5AF" opacity="0.15" style="mix-blend-mode: multiply;"></path>
            <path d="M85.4909342,40.1 C85.4909342,40.1 95.9309342,39.75 95.6209342,33.25 C95.3109342,26.75 96.4309342,22.33 89.7509342,22.25 C83.0709342,22.17 81.9009342,24.77 81.4809342,27 C81.0609342,29.23 82.7709342,40 85.4909342,40.1 Z" id="Path" fill="#DBC5AF"></path>
            <path d="M114.060934,110.43 C108.480934,114.43 78.2809342,111.82 79.9109342,108.25 C80.9807196,105.916344 81.8342922,103.48952 82.4609342,101 C82.6709342,100.19 82.8709342,99.31 83.0509342,98.39 C84.2999138,91.6460984 84.4114544,84.7407217 83.3809342,77.96 C83.2909342,77.32 83.1909342,76.67 83.0809342,76.02 C82.5343661,72.7149922 82.2667562,69.3698675 82.2809342,66.02 C82.2809342,59.8 83.4009342,54.22 85.5909342,51.09 L85.5909342,51.09 C92.3209342,50.45 98.2209342,40.86 98.2209342,40.86 C98.2209342,40.86 116.720934,51.35 118.520934,81.57 C118.520934,81.57 118.520934,84.83 118.400934,89.18 C118.200934,94.46 117.700934,101.33 116.400934,105.91 C115.840934,108 115.060934,109.7 114.060934,110.43 Z" id="Path" fill="#7FBC5B"></path>
            <path d="M100.650934,23.16 C100.760934,23.06 100.990934,22.98 101.500934,23.01 C101.229197,22.8149553 100.91288,22.6911792 100.580934,22.65 C100.628606,21.6199902 100.058423,20.6605086 99.1309342,20.21 C99.5048132,20.489846 99.7325862,20.9233496 99.7509342,21.39 C98.5009342,19.8 95.6209342,18.45 87.2909342,18.32 C76.2909342,18.13 79.2209342,25.56 80.5509342,26.54 C81.8809342,27.52 85.6509342,25.54 88.2509342,26.02 C90.8509342,26.5 90.9809342,30.39 91.8209342,31.02 C92.6609342,31.65 92.4009342,30.67 93.6609342,30.23 C94.9209342,29.79 94.8409342,31.84 94.3609342,33.12 C93.8809342,34.4 95.3609342,36.31 95.3609342,36.31 L97.2109342,34.64 C99.0609342,32.97 101.390934,25.37 100.790934,23.64 C100.750934,23.47 100.700934,23.31 100.650934,23.16 Z" id="Path" fill="#051934"></path>
            <path d="M116.450934,105.87 C95.1409342,90.29 101.350934,60.55 101.350934,60.55 C101.350934,60.55 111.270934,75.69 118.430934,89.14 C118.230934,94.42 117.730934,101.29 116.450934,105.87 Z" id="Path" fill="#75AA53"></path>
            <path d="M123.880934,99 C122.510653,100.262954 121.208799,101.598189 119.980934,103 C119.473212,104.00414 119.135306,105.085438 118.980934,106.2 C119.150934,106.36 119.660934,106.82 119.980934,106.44 C120.300934,106.06 120.320934,105.52 120.420934,105.71 C120.520934,105.9 119.360934,108.71 120.090934,109.25 C120.820934,109.79 123.520934,110.75 124.780934,109.07 C126.040934,107.39 126.370934,101.23 126.540934,100.92 C127.940934,98.24 123.880934,99 123.880934,99 Z" id="Path" fill="#CCB6A3"></path>
            <path d="M125.280934,100.37 C124.140357,99.8977567 123.096333,99.2198189 122.200934,98.37 C122.200934,98.37 118.710934,81.37 117.840934,79.54 C116.970934,77.71 97.8409342,64.21 97.8409342,64.21 C97.8409342,64.21 89.9309342,59.1 90.7009342,53.83 C91.3709342,49.24 94.5309342,47.01 97.7009342,45.94 C101.490744,44.6757148 105.668007,45.8669497 108.220934,48.94 C113.990934,55.78 125.400934,69.5 126.980934,72.94 C130.500934,80.51 128.570934,100.07 128.570934,100.07 C127.581257,100.678187 126.36429,100.789156 125.280934,100.37 L125.280934,100.37 Z" id="Path" fill="#7FBC5B"></path>
            <path d="M59.1609342,85.11 L59.4409342,85.22 L59.4409342,88.92 L61.8409342,88.92 L61.8409342,84.22 C61.8409342,83.5572583 61.3036759,83.02 60.6409342,83.02 C60.0050213,83.0199871 59.4319198,82.6363778 59.1895112,82.0484804 C58.9471027,81.460583 59.0832682,80.7845207 59.5343609,80.3363012 C59.9854536,79.8880817 60.6623722,79.7562388 61.2487087,80.0023989 C61.8350452,80.248559 62.2149846,80.8240999 62.2109342,81.46 C62.2082711,81.7809152 62.3332057,82.0897434 62.5582518,82.3185401 C62.7832978,82.5473369 63.0900188,82.6773588 63.4109342,82.68 L63.4109342,82.68 C63.7292083,82.6747396 64.0323518,82.5432381 64.2536541,82.314434 C64.4749565,82.0856299 64.596283,81.7782726 64.5909342,81.46 C64.6322893,79.4304438 63.1468432,77.6917266 61.1357237,77.4156703 C59.1246043,77.139614 57.2255969,78.4137641 56.7185523,80.3793975 C56.2115077,82.3450308 57.2572246,84.3787868 59.1509342,85.11 L59.1609342,85.11 Z" id="Path" fill="#DBC5AF"></path>
            <path d="M61.9109342,177.67 L90.2209342,177.67 L90.2209342,116.67 C90.215426,101.354188 77.8067383,88.9365507 62.4909342,88.92 L58.7909342,88.92 C43.479032,88.9365435 31.0719569,101.348093 31.0609342,116.66 L31.0609342,177.66 L61.9109342,177.66 L61.9109342,177.67 Z" id="Path" fill="#11B0DE"></path>
            <rect id="Rectangle" fill="#FFFFFF" x="67.7309342" y="103.02" width="11.7" height="8.78" rx="1.46"></rect>
            <path d="M60.0009342,177.67 L60.0009342,94.47 C60.0009342,93.9 60.2809342,93.77 60.6209342,93.77 C60.9609342,93.77 61.2509342,93.94 61.2509342,94.47 L61.2509342,177.67 L60.0009342,177.67 Z" id="Path" fill="#DBC5AF"></path>
        </g>
    </g>
</svg>