<?xml version="1.0" encoding="UTF-8"?>
<svg width="335px" height="183px" viewBox="0 0 335 183" version="1.1" xmlns="http://www.w3.org/2000/svg" xmlns:xlink="http://www.w3.org/1999/xlink">
    <title>Slice 1</title>
    <g id="Page-1" stroke="none" stroke-width="1" fill="none" fill-rule="evenodd">
        <g id="how4" transform="translate(0.002519, 0.003483)" fill-rule="nonzero">
            <path d="M54.7874806,178.446517 C19.2874806,177.726517 -6.94251945,144.356517 1.63748055,109.906517 C1.77748055,109.33985 1.92748055,108.76985 2.08748055,108.196517 C13.4874806,66.8765169 56.9974806,84.3365169 80.4474806,42.5065169 C103.897481,0.676516867 196.447481,-22.8534831 234.237481,32.4465169 C272.027481,87.7465169 327.187481,78.1265169 333.427481,117.446517 C339.667481,156.766517 317.297481,183.206517 246.427481,182.046517 C195.747481,181.256517 103.207481,179.416517 54.7874806,178.446517 Z" id="Path" fill="#DEF0F8"></path>
            <path d="M303.407481,146.176517 L35.4074806,146.176517 C33.44751,146.171057 31.8584532,144.586464 31.8474806,142.626517 L31.8474806,142.626517 C31.8529739,140.662663 33.4436268,139.07201 35.4074806,139.066517 L303.407481,139.066517 C305.367428,139.07749 306.952021,140.666546 306.957481,142.626517 L306.957481,142.626517 C306.951987,144.584848 305.365812,146.171024 303.407481,146.176517 Z" id="Path" fill="#051934"></path>
            <polygon id="Path" fill="#051934" points="308.257481 112.626517 34.5974806 106.766517 34.5974806 143.706517 308.257481 143.706517"></polygon>
            <path d="M193.997481,27.9365169 L34.5974806,27.9365169 C31.2837721,27.9365169 28.5974806,30.6228084 28.5974806,33.9365169 L28.5974806,136.636517 C28.5974806,139.950225 31.2837721,142.636517 34.5974806,142.636517 L41.5074806,142.636517 C44.2599702,142.630303 46.6625503,140.769844 47.3574806,138.106517 C50.7074806,125.426517 61.6974806,116.106517 74.7374806,116.106517 C87.7774806,116.106517 98.7374806,125.406517 102.107481,138.106517 C102.806443,140.771397 105.212466,142.631343 107.967481,142.636517 L193.997481,142.636517 C197.311189,142.636517 199.997481,139.950225 199.997481,136.636517 L199.997481,33.9165169 C199.986461,30.6106215 197.303394,27.9365169 193.997481,27.9365169 Z" id="Path" fill="#11B0DE"></path>
            <path d="M203.127481,41.3665114 L243.897481,41.3665114 C246.351714,41.3634655 248.628292,42.6459382 249.897481,44.7465169 L272.207481,82.3865169 C272.684881,83.1696739 273.313841,83.8496312 274.057481,84.3865169 L305.477481,107.386517 C307.231257,108.662188 308.271386,110.697869 308.277481,112.866511 L308.277481,131.006517 L295.427481,131.006517 C295.427481,131.006517 287.917481,115.006517 267.267481,115.006517 C246.617481,115.006517 238.797481,134.176517 237.547481,142.156517 L203.127481,142.156517 L203.127481,41.3665114 Z" id="Path" fill="#FDFFFD"></path>
            <path d="M242.087481,48.5965169 L213.757481,48.5965169 C212.597683,48.5965169 211.657481,49.5367189 211.657481,50.6965169 L211.657481,83.6965169 C211.657481,84.2525563 211.879042,84.7856771 212.273159,85.1779168 C212.667275,85.5701566 213.201447,85.7891773 213.757481,85.7865408 L260.147481,85.7865408 C260.886333,85.7841902 261.569602,85.3937546 261.946722,84.7583895 C262.323842,84.1230243 262.33932,83.3362222 261.987481,82.6865169 L243.927481,49.6865169 C243.558945,49.0146985 242.853743,48.5969432 242.087481,48.5965169 Z" id="Path" fill="#C5E5F3"></path>
            <path d="M308.257481,111.836517 L203.127481,111.836517 L203.127481,142.166517 L237.547481,142.166517 C237.547481,142.166517 242.897481,115.266517 267.267481,115.266517 C267.267481,115.266517 286.267481,114.266517 295.427481,131.146517 L308.257481,131.146517 L308.257481,111.836517 Z" id="Path" fill="#ECEEF0"></path>
            <circle id="Oval" fill="#051934" transform="translate(268.447655, 142.184751) rotate(-76.880000) translate(-268.447655, -142.184751) " cx="268.447655" cy="142.184751" r="22.25"></circle>
            <circle id="Oval" fill="#051934" transform="translate(75.486343, 142.166397) rotate(-45.000000) translate(-75.486343, -142.166397) " cx="75.4863425" cy="142.166397" r="22.25"></circle>
            <circle id="Oval" fill="#C8E6F4" cx="75.4874806" cy="142.166517" r="12.95"></circle>
            <circle id="Oval" fill="#C8E6F4" cx="268.427481" cy="142.166517" r="12.95"></circle>
            <rect id="Rectangle" fill="#051934" x="22.7474806" y="127.316517" width="18.16" height="18.86" rx="4.82"></rect>
            <path d="M224.137481,85.8165169 L211.657481,85.8165169 L211.657481,71.0565169 C211.744763,67.6857619 214.525895,65.0115963 217.897481,65.0565169 L217.897481,65.0565169 C221.269066,65.0115963 224.050198,67.6857619 224.137481,71.0565169 L224.137481,85.8165169 Z" id="Path" fill="#051934"></path>
            <path d="M248.257481,78.5865169 C249.117673,78.6488225 249.981932,78.6253737 250.837481,78.5165169 C251.277481,78.3365169 252.467481,77.6365169 252.297481,76.8365169 C252.187481,76.3465169 251.297481,77.1265169 250.937481,76.9865169 C250.577481,76.8465169 251.677481,76.7365169 251.727481,76.5465169 C251.777481,76.3565169 250.827481,76.2665169 250.477481,76.2065169 C250.127481,76.1465169 249.127481,76.9465169 248.337481,77.2065169 C247.547481,77.4665169 248.257481,78.5865169 248.257481,78.5865169 Z" id="Path" fill="#DBC5AF"></path>
            <path d="M220.247481,76.2565169 C220.247481,76.2565169 223.247481,79.6265169 226.837481,80.1065169 C230.427481,80.5865169 235.777481,81.6565169 237.427481,81.6766195 C239.077481,81.6965169 248.427481,78.7865169 248.427481,78.7865169 C248.559712,78.4662975 248.559712,78.1067363 248.427481,77.7865169 C248.321026,77.4178124 248.087137,77.0988727 247.767481,76.8865169 C247.767481,76.8865169 241.357481,77.0465169 238.367481,77.4665169 C237.127481,77.6365169 228.667481,72.5965169 227.367481,69.5465169 C226.787481,68.3965169 220.247481,76.2565169 220.247481,76.2565169 Z" id="Path" fill="#7DA65B"></path>
            <path d="M222.417481,68.0565169 C224.319089,69.1481468 226.517305,69.6101922 228.697481,69.3765169 C228.697481,69.3765169 229.337481,69.2065169 229.027481,68.4565169 C229.227481,67.8365169 229.197481,67.8965169 229.317481,67.4565169 C229.469561,66.9133599 229.593063,66.3626042 229.687481,65.8065169 L227.837481,63.8065169 L226.077481,61.9965169 C225.897231,64.4857263 224.536718,66.7383794 222.417481,68.0565169 L222.417481,68.0565169 Z" id="Path" fill="#DBC5AF"></path>
            <path d="M225.797481,63.6665169 C226.46822,65.3126906 227.721124,66.6545794 229.317481,67.4365169 C229.597481,66.4365169 229.787481,65.2965169 229.787481,65.2965169 L227.837481,63.8365169 L225.797481,63.6665169 Z" id="Path" fill="#DBC5AF" opacity="0.15" style="mix-blend-mode: multiply;"></path>
            <path d="M231.767481,65.6965169 C231.767481,65.6965169 226.017481,66.4165169 225.617481,62.8765169 C225.217481,59.3365169 224.197481,57.0565169 227.847481,56.4465169 C231.497481,55.8365169 232.377481,57.1065169 232.847481,58.2565169 C233.317481,59.4065169 233.257481,65.4165169 231.767481,65.6965169 Z" id="Path" fill="#DBC5AF"></path>
            <path d="M223.797481,55.8765169 C223.747481,55.8065169 223.627481,55.7565169 223.367481,55.7365169 C223.520838,55.6536183 223.693203,55.6122507 223.867481,55.6165169 C223.919027,55.0760003 224.289383,54.6189662 224.807481,54.4565169 C224.590282,54.5731872 224.439012,54.7834892 224.397481,55.0265169 C225.157481,54.2965169 226.207481,53.7365169 230.577481,54.2465169 C236.327481,54.9265169 234.847481,58.6065169 234.087481,59.0265169 C233.327481,59.4465169 231.477481,58.1565169 230.087481,58.2165169 C228.697481,58.2765169 228.347481,60.2765169 227.867481,60.5365169 C227.387481,60.7965169 227.587481,60.3065169 226.957481,59.9965169 C226.327481,59.6865169 226.227481,60.7365169 226.387481,61.4365169 C226.547481,62.1365169 225.627481,63.0065169 225.627481,63.0065169 L224.777481,62.0065169 C223.927481,61.0065169 223.247481,56.9365169 223.677481,56.0865169 L223.797481,55.8765169 Z" id="Path" fill="#051934"></path>
            <path d="M219.857481,74.6265169 C219.857481,74.6265169 222.037481,78.5565169 225.457481,79.8065169 C228.877481,81.0565169 233.857481,83.2565169 235.457481,83.6265169 C237.057481,83.9965169 246.807481,83.1665169 246.807481,83.1665169 C246.990857,82.8898973 247.055692,82.5513128 246.987481,82.2265169 C246.962551,81.8499311 246.802799,81.4949278 246.537481,81.2265169 C246.537481,81.2265169 240.247481,79.9965169 237.237481,79.7665169 C235.987481,79.6665169 228.817481,72.9165169 228.177481,69.6565169 C227.937481,68.3565169 219.857481,74.6265169 219.857481,74.6265169 Z" id="Path" fill="#7FBC5B"></path>
            <path d="M232.787481,85.8165169 C232.267481,79.5465169 231.067481,69.6965169 228.697481,68.6465169 C226.702691,67.8479117 224.565359,67.4667314 222.417481,67.5265169 C222.417481,67.5265169 219.047481,70.2965169 217.987481,78.5265169 C217.657481,81.1065169 217.317481,83.5865169 216.987481,85.7865169 L232.787481,85.8165169 Z" id="Path" fill="#7FBC5B"></path>
            <path d="M249.377481,85.9065169 L253.227481,76.6565169 C253.373959,76.2992513 253.318713,75.8909787 253.082551,75.5854915 C252.846389,75.2800042 252.465191,75.1237131 252.082551,75.1754915 C251.69991,75.2272698 251.373959,75.4792513 251.227481,75.8365169 L247.027481,85.9065169 L249.377481,85.9065169 Z" id="Path" fill="#051934"></path>
            <path d="M250.577481,85.9065169 L262.997481,85.9065169 L260.997481,79.7465169 C260.636994,78.62607 259.59449,77.8664159 258.417481,77.8665169 L253.997481,77.8665169 C252.852595,77.8676348 251.831925,78.5881078 251.447481,79.6665169 L250.167481,83.2265169 C249.910561,83.942205 249.964957,84.7327629 250.317481,85.4065169 L250.577481,85.9065169 Z" id="Path" fill="#051934"></path>
            <path d="M259.997481,94.9965169 L259.997481,94.9965169 C257.627206,94.9855685 255.708429,93.0667915 255.697481,90.6965169 L255.697481,78.3965169 C255.708429,76.0262422 257.627206,74.1074652 259.997481,74.0965169 L259.997481,74.0965169 C262.37166,74.1019873 264.296495,76.022357 264.307481,78.3965169 L264.307481,90.6865169 C264.301982,93.0645829 262.375547,94.9910184 259.997481,94.9965169 L259.997481,94.9965169 Z" id="Path" fill="#ECEEF0"></path>
            <rect id="Rectangle" fill="#11B0DE" opacity="0.3" style="mix-blend-mode: multiply;" x="35.9074806" y="37.1365169" width="155.34" height="75.45"></rect>
            <path d="M246.707481,82.9365169 C247.535939,83.1831226 248.38674,83.3472535 249.247481,83.4265169 C249.707481,83.3465169 251.027481,82.9165169 251.027481,82.1065169 C251.027481,81.5965169 250.027481,82.1765169 249.667481,81.9565169 C249.307481,81.7365169 250.447481,81.8665169 250.537481,81.6965169 C250.627481,81.5265169 249.717481,81.2265169 249.387481,81.0965169 C249.057481,80.9665169 247.917481,81.5265169 247.097481,81.5665169 C246.277481,81.6065169 246.707481,82.9365169 246.707481,82.9365169 Z" id="Path" fill="#DBC5AF"></path>
            <rect id="Rectangle" fill="#051934" x="297.877481" y="127.316517" width="13.8" height="18.86" rx="4.82"></rect>
            <path d="M78.0974806,57.4465169 L75.2174806,57.4465169 C74.8435317,57.4829804 74.5604886,57.8008595 74.5674806,58.1765169 L74.5674806,79.6765169 C74.5608849,80.050184 74.8450872,80.3649927 75.2174806,80.3965169 L78.0974806,80.3965169 C78.4698739,80.3649927 78.7540762,80.050184 78.7474806,79.6765169 L78.7474806,58.1765169 C78.7544725,57.8008595 78.4714294,57.4829804 78.0974806,57.4465169 Z" id="Path" fill="#FFFFFF"></path>
            <path d="M86.5274806,65.1965169 L83.6574806,65.1965169 C83.4744207,65.2043026 83.3019742,65.2845783 83.1781643,65.4196436 C83.0543544,65.554709 82.9893487,65.733472 82.9974806,65.9165169 L82.9974806,79.6765169 C82.9912335,80.0537559 83.2811229,80.3699988 83.6574806,80.3965169 L86.5274806,80.3965169 C86.8998739,80.3649927 87.1840762,80.050184 87.1774806,79.6765169 L87.1774806,65.9165169 C87.1945236,65.5390188 86.9047497,65.2180386 86.5274806,65.1965169 Z" id="Path" fill="#FFFFFF"></path>
            <path d="M84.9974806,57.4365169 C83.6664743,57.4365169 82.5874806,58.5155106 82.5874806,59.8465169 C82.5874806,61.1775231 83.6664743,62.2565169 84.9974806,62.2565169 C86.3284868,62.2565169 87.4074806,61.1775231 87.4074806,59.8465169 C87.4074806,58.5155106 86.3284868,57.4365169 84.9974806,57.4365169 Z" id="Path" fill="#FFFFFF"></path>
            <path d="M146.277481,80.7765169 C149.530928,80.8619491 152.511847,78.96791 153.816532,75.986297 C155.121217,73.004684 154.489581,69.5298747 152.219061,67.1981466 C149.948541,64.8664184 146.491758,64.142596 143.476503,65.3675251 C140.461247,66.5924542 138.488602,69.5219482 138.487481,72.7765169 C138.459253,77.1248795 141.929905,80.6890924 146.277481,80.7765169 Z M146.277481,68.9165169 C147.867976,68.8221273 149.354508,69.7096674 150.025965,71.154566 C150.697422,72.5994645 150.417302,74.307983 149.319605,75.46282 C148.221908,76.617657 146.52979,76.9840416 145.052706,76.386707 C143.575621,75.7893724 142.613853,74.3497528 142.627481,72.7565169 C142.600622,71.7628181 142.970466,70.7993082 143.655322,70.0788014 C144.340179,69.3582947 145.283698,68.9400752 146.277481,68.9165169 Z" id="Shape" fill="#FFFFFF"></path>
            <path d="M152.087481,88.3165169 C151.637481,88.1965169 141.087481,85.4965169 124.227481,85.3165169 L124.227481,72.7865169 C124.226655,70.9370112 125.595157,69.3726001 127.428342,69.1274336 C129.261526,68.8822671 130.993025,70.0320902 131.478234,71.8168153 C131.963444,73.6015404 131.052458,75.4697705 129.347481,76.1865169 C128.890747,76.3742501 128.401283,76.4694237 127.907481,76.4665169 C126.753205,76.4665169 125.817481,77.4022417 125.817481,78.5565169 C125.817481,79.710792 126.753205,80.6465169 127.907481,80.6465169 C132.248439,80.6465169 135.767481,77.127475 135.767481,72.7865169 C135.767481,68.4455587 132.248439,64.9265169 127.907481,64.9265169 C123.566522,64.9265169 120.047481,68.4455587 120.047481,72.7865169 L120.047481,85.3665169 C103.947481,85.6365169 93.9074806,88.1965169 93.4674806,88.3165169 C92.9319709,88.4593099 92.4755926,88.8099142 92.1996119,89.2905337 C91.9233805,89.7711531 91.8508726,90.3420391 91.9974806,90.8765169 C92.3357298,92.0043023 93.5116257,92.6565918 94.6474806,92.3465169 C94.7574806,92.3465169 105.757481,89.5065169 122.827481,89.5065169 C139.897481,89.5065169 150.827481,92.2965169 151.007481,92.3465169 C151.190368,92.3937952 151.378583,92.4173221 151.567481,92.4165169 C152.531938,92.4269292 153.387517,91.7995053 153.667481,90.8765169 C153.811029,90.3267298 153.723406,89.7421499 153.424973,89.2586116 C153.126539,88.7750733 152.643278,88.4346766 152.087481,88.3165169 Z" id="Path" fill="#FFFFFF"></path>
            <path d="M94.7874806,80.3965169 C95.1481076,80.3802852 95.4287848,80.077332 95.4174806,79.7165169 L95.4174806,72.7965169 L95.4174806,72.7965169 L95.4174806,72.7965169 C95.2750052,71.4752497 95.8996553,70.18866 97.0260154,69.4834231 C98.1523755,68.7781861 99.5825856,68.7781861 100.708946,69.4834231 C101.835306,70.18866 102.459956,71.4752497 102.317481,72.7965169 L102.317481,79.7965169 C102.312094,79.9689301 102.375461,80.1364139 102.493626,80.2620815 C102.611791,80.3877491 102.775062,80.4612934 102.947481,80.4665169 L105.627481,80.4665169 C105.984128,80.4503357 106.263257,80.1534849 106.257481,79.7965169 L106.257481,72.9265169 C106.257481,72.8665169 106.257481,72.8165169 106.257481,72.7565169 C106.115005,71.4352497 106.739655,70.14866 107.866015,69.4434231 C108.992376,68.7381861 110.422586,68.7381861 111.548946,69.4434231 C112.675306,70.14866 113.299956,71.4352497 113.157481,72.7565169 L113.157481,72.7565169 L113.157481,72.7565169 L113.157481,79.6765169 C113.146176,80.037332 113.426854,80.3402852 113.787481,80.3565169 L116.457481,80.3565169 C116.629936,80.3487414 116.792215,80.2726829 116.908525,80.1451165 C117.024836,80.0175501 117.085623,79.8489553 117.077481,79.6765169 L117.077481,72.7965169 L117.077481,72.7965169 L117.077481,72.7965169 C117.077481,68.5065169 113.777481,64.8565169 109.707481,64.8565169 C107.608785,64.8821934 105.628663,65.833823 104.297481,67.4565169 C102.960594,65.8355803 100.97841,64.8847172 98.8774806,64.8565169 C94.8274806,64.8565169 91.5374806,68.4765169 91.5074806,72.7365169 L91.5074806,72.7365169 L91.5074806,79.7365169 C91.4993378,79.9089553 91.5601252,80.0775501 91.6764358,80.2051165 C91.7927463,80.3326829 91.9550251,80.4087414 92.1274806,80.4165169 L94.7874806,80.3965169 Z" id="Path" fill="#FFFFFF"></path>
        </g>
    </g>
</svg>