<?xml version="1.0" encoding="UTF-8"?>
<svg width="31px" height="27px" viewBox="0 0 31 27" version="1.1" xmlns="http://www.w3.org/2000/svg" xmlns:xlink="http://www.w3.org/1999/xlink">
    <title>Slice 1</title>
    <g id="Page-1" stroke="none" stroke-width="1" fill="none" fill-rule="evenodd">
        <g id="home" transform="translate(0.875623, 0.000000)" fill="#000000" fill-rule="nonzero">
            <path d="M1.76437662,12.28 C1.50237431,12.590591 1.07848101,12.7117614 0.691908714,12.586566 C0.305336421,12.4613707 0.0329564365,12.1147053 0.00277587715,11.7094879 C-0.0274046822,11.3042705 0.190615697,10.9210801 0.554376622,10.74 L15.0243766,0 L29.6043766,10.74 C30.6043766,11.51 29.4943766,13.15 28.4043766,12.28 L25.1243766,10 L25.1243766,25.4 C25.1312227,25.9704132 24.6932668,26.4477852 24.1243766,26.49 L5.92437662,26.49 C5.35313103,26.4526732 4.91245814,25.9723397 4.92437662,25.4 L4.92437662,10 L1.76437662,12.28 Z M23.1243766,8.44 L15.0243766,2.52 L7.02437662,8.44 L7.02437662,24.44 L23.1243766,24.44 L23.1243766,8.44 Z" id="Shape"></path>
        </g>
    </g>
</svg>