<?xml version="1.0" encoding="UTF-8"?>
<svg width="432px" height="512px" viewBox="0 0 432 512" version="1.1" xmlns="http://www.w3.org/2000/svg" xmlns:xlink="http://www.w3.org/1999/xlink">
    <title>Slice 1</title>
    <g id="Page-1" stroke="none" stroke-width="1" fill="none" fill-rule="evenodd">
        <g id="laundry" transform="translate(0.460000, 0.000000)" fill="#000000" fill-rule="nonzero">
            <path d="M387.693,0 L43.386,0 C19.463,0 0,19.463 0,43.386 L0,468.613 C0,492.536 19.463,511.999 43.386,511.999 L387.693,511.999 C411.616,511.999 431.079,492.536 431.079,468.613 L431.079,43.386 C431.079,19.463 411.616,0 387.693,0 Z M30.569,43.386 C30.569,36.319 36.319,30.569 43.386,30.569 L387.693,30.569 C394.76,30.569 400.51,36.319 400.51,43.386 L400.51,108.471 L30.569,108.471 L30.569,43.386 Z M400.512,468.613 L400.512,468.613 C400.512,475.68 394.76,481.43 387.693,481.43 L43.386,481.43 C36.319,481.43 30.569,475.68 30.569,468.613 L30.569,139.039 L400.512,139.039 L400.512,468.613 L400.512,468.613 Z" id="Shape"></path>
            <path d="M215.543,178.484 C142.896,178.484 83.793,237.587 83.793,310.235 C83.793,382.883 142.896,441.985 215.544,441.985 C288.191,441.985 347.294,382.882 347.294,310.235 C347.294,237.588 288.19,178.484 215.543,178.484 Z M215.543,209.053 C268.795,209.053 312.569,250.405 316.444,302.685 C270.665,334.676 248.055,316.608 229.737,301.962 C228.033,300.601 226.424,299.314 224.822,298.089 C223.437,297.031 221.979,295.864 220.439,294.632 C203.439,281.041 170.819,254.977 119.033,279.83 C131.972,238.849 170.341,209.053 215.543,209.053 Z M215.543,411.416 C162.29,411.416 118.517,370.064 114.642,317.785 C160.418,285.797 183.029,303.862 201.349,318.508 C203.053,319.87 204.663,321.157 206.265,322.381 C207.65,323.439 209.107,324.605 210.648,325.837 C222.547,335.351 242.096,350.982 270.519,350.982 C282.701,350.982 296.514,348.105 312.052,340.649 C299.109,381.625 260.741,411.416 215.543,411.416 Z" id="Shape"></path>
            <path d="M363.639,54.235 L341.087,54.235 C332.646,54.235 325.803,61.078 325.803,69.519 C325.803,77.96 332.646,84.803 341.087,84.803 L363.639,84.803 C372.08,84.803 378.923,77.96 378.923,69.519 C378.923,61.078 372.08,54.235 363.639,54.235 Z" id="Path"></path>
            <path d="M295.821,54.235 L273.269,54.235 C264.828,54.235 257.985,61.078 257.985,69.519 C257.985,77.96 264.828,84.803 273.269,84.803 L295.821,84.803 C304.262,84.803 311.105,77.96 311.105,69.519 C311.105,61.078 304.262,54.235 295.821,54.235 Z" id="Path"></path>
            <path d="M141.959,54.235 L67.44,54.235 C58.999,54.235 52.156,61.078 52.156,69.519 C52.156,77.96 58.999,84.803 67.44,84.803 L141.959,84.803 C150.4,84.803 157.243,77.96 157.243,69.519 C157.243,61.078 150.4,54.235 141.959,54.235 Z" id="Path"></path>
        </g>
    </g>
</svg>