<?xml version="1.0" encoding="UTF-8"?>
<svg width="24px" height="28px" viewBox="0 0 24 28" version="1.1" xmlns="http://www.w3.org/2000/svg" xmlns:xlink="http://www.w3.org/1999/xlink">
    <title>Slice 1</title>
    <g id="Page-1" stroke="none" stroke-width="1" fill="none" fill-rule="evenodd">
        <g id="service" transform="translate(0.998938, 0.999633)" fill="#000000" fill-rule="nonzero">
            <path d="M11.0710618,0.000179410866 C9.74947383,0.000179410866 8.6765684,1.06879094 8.67106178,2.39036742 C8.67106178,2.8874237 9.07400551,3.29036742 9.57106178,3.29036742 C10.0681181,3.29036742 10.4710618,2.8874237 10.4710618,2.39036742 L10.4710618,2.39036742 C10.4410532,2.15937719 10.547447,1.93189259 10.7439706,1.80685071 C10.9404942,1.68180883 11.1916294,1.68180883 11.388153,1.80685071 C11.5846766,1.93189259 11.6910704,2.15937719 11.6610618,2.39036742 C11.6665736,2.54937939 11.6065202,2.70367352 11.4949636,2.81712092 C11.383407,2.93056831 11.2301439,2.99320615 11.0710618,2.99036742 C10.5740055,2.99036742 10.1710618,3.39331115 10.1710618,3.89036742 L10.1710618,5.17036742 L0.431061783,11.0003674 C0.150558343,11.1667501 -0.0149229963,11.4746223 0.00106178323,11.8003674 L0.00106178323,13.4603674 C0.00104677294,13.698153 0.0961858308,13.9260567 0.265262294,14.0932545 C0.434338757,14.2604524 0.663291246,14.3530392 0.901061783,14.3503674 L3.00106178,14.3503674 L3.00106178,24.2203674 C3.00654564,25.703736 4.20769323,26.9048836 5.69106178,26.9103674 L16.4510618,26.9103674 C17.9344303,26.9048836 19.1355779,25.703736 19.1410618,24.2203674 L19.1410618,14.3503674 L21.2310618,14.3503674 C21.4688323,14.3530392 21.6977848,14.2604524 21.8668613,14.0932545 C22.0359377,13.9260567 22.1310768,13.698153 22.1310618,13.4603674 L22.1310618,11.8003674 C22.1470466,11.4746223 21.9815652,11.1667501 21.7010618,11.0003674 L12.0010618,5.17036742 L12.0010618,4.60036742 C12.9008876,4.23348144 13.4923399,3.36207504 13.5010618,2.39036742 C13.4984451,1.7503511 13.2403004,1.13789135 12.7839967,0.689098854 C12.327693,0.240306361 11.7110334,-0.00763819771 11.0710618,0.000179410866 Z M11.0710618,6.73036742 L20.3410618,12.3103674 L20.3410618,12.5603674 L18.6810618,12.5603674 C18.1842662,11.8136135 17.3479658,11.3635864 16.4510618,11.3603674 L5.68106178,11.3603674 C4.78415775,11.3635864 3.94785735,11.8136135 3.45106178,12.5603674 L1.79106178,12.5603674 L1.79106178,12.3103674 L11.0710618,6.73036742 Z M5.68106178,13.1603674 L16.4510618,13.1603674 C16.6914085,13.15484 16.9235526,13.2478851 17.0935484,13.4178808 C17.2635441,13.5878766 17.3565892,13.8200207 17.3510618,14.0603674 L17.3510618,24.2203674 C17.3565892,24.4607142 17.2635441,24.6928583 17.0935484,24.862854 C16.9235526,25.0328498 16.6914085,25.1258948 16.4510618,25.1203674 L5.68106178,25.1203674 C5.44071505,25.1258948 5.20857094,25.0328498 5.03857519,24.862854 C4.86857945,24.6928583 4.77553436,24.4607142 4.78106178,24.2203674 L4.78106178,14.0603674 C4.77553436,13.8200207 4.86857945,13.5878766 5.03857519,13.4178808 C5.20857094,13.2478851 5.44071505,13.15484 5.68106178,13.1603674 L5.68106178,13.1603674 Z" id="Shape"></path>
        </g>
    </g>
</svg>