<?xml version="1.0" encoding="UTF-8"?>
<svg width="344px" height="257px" viewBox="0 0 344 257" version="1.1" xmlns="http://www.w3.org/2000/svg" xmlns:xlink="http://www.w3.org/1999/xlink">
    <title>Slice 1</title>
    <g id="Page-1" stroke="none" stroke-width="1" fill="none" fill-rule="evenodd">
        <g id="entry" transform="translate(0.999461, 0.000000)" fill-rule="nonzero">
            <path d="M54.3505393,236.18 C19.1405393,235.47 -6.87946067,202.37 1.62053933,168.18 C1.76053933,167.62 1.91053933,167.05 2.07053933,166.48 C13.3805393,125.48 56.5205393,142.82 79.8105393,101.31 C103.100539,59.8 194.870539,36.47 232.380539,91.31 C269.890539,146.15 324.580539,136.62 330.770539,175.66 C336.960539,214.7 314.770539,239.89 244.510539,238.75 C194.190539,238 102.390539,237.15 54.3505393,236.18 Z" id="Path" fill="#DEF0F8"></path>
            <path d="M165.880539,0 C151.675776,0 140.160539,11.5152362 140.160539,25.72 C140.160539,39.92 165.880539,71.49 165.880539,71.49 C165.880539,71.49 191.600539,39.92 191.600539,25.72 C191.600539,11.5152362 180.085303,0 165.880539,0 Z M165.880539,37.48 C159.253122,37.48 153.880539,32.107417 153.880539,25.48 C153.880539,18.852583 159.253122,13.48 165.880539,13.48 C172.507956,13.48 177.880539,18.852583 177.880539,25.48 C177.880539,28.6625979 176.616257,31.7148448 174.365821,33.9652814 C172.115384,36.2157179 169.063137,37.48 165.880539,37.48 Z" id="Shape" fill="#7FBC5B"></path>
            <path d="M282.570539,135.23 L237.210539,135.23 C237.210539,135.23 235.700539,120.02 246.620539,116.79 C257.540539,113.56 259.850539,119.94 259.850539,119.94 C259.850539,119.94 262.240539,106.84 277.530539,108.1 C292.820539,109.36 292.820539,123.47 292.820539,123.47 C292.820539,123.47 305.930539,121.62 307.610539,135.23 L282.570539,135.23 Z" id="Path" fill="#8BCEEA"></path>
            <path d="M47.6805393,156.87 L2.31053933,156.87 C2.31053933,156.87 0.800539332,141.66 11.7205393,138.43 C22.6405393,135.2 25.0005393,141.58 25.0005393,141.58 C25.0005393,141.58 27.3905393,128.48 42.6805393,129.73 C57.9705393,130.98 57.9605393,145.11 57.9605393,145.11 C57.9605393,145.11 71.0005393,143.26 72.7105393,156.87 L47.6805393,156.87 Z" id="Path" fill="#8BCEEA"></path>
            <path d="M317.810539,230.17 L272.440539,230.17 C272.440539,230.17 270.930539,214.96 281.850539,211.73 C292.770539,208.5 295.090539,214.88 295.090539,214.88 C295.090539,214.88 297.480539,201.78 312.770539,203.04 C328.060539,204.3 328.050539,218.41 328.050539,218.41 C328.050539,218.41 341.160539,216.56 342.840539,230.17 L317.810539,230.17 Z" id="Path" fill="#8BCEEA"></path>
            <rect id="Rectangle" fill="#EBCDBF" x="121.110539" y="95.24" width="88.97" height="154.74"></rect>
            <rect id="Rectangle" fill="#BCA799" x="121.110539" y="95.24" width="88.97" height="154.74"></rect>
            <rect id="Rectangle" fill="#DBC5AF" x="123.050539" y="97.93" width="85.09" height="148.27"></rect>
            <rect id="Rectangle" fill="#DBC5AF" x="124.550539" y="101.22" width="83.59" height="144.97"></rect>
            <rect id="Rectangle" fill="#BCA799" x="131.270539" y="105.13" width="71.96" height="135.41"></rect>
            <rect id="Rectangle" fill="#DBC5AF" x="114.350539" y="240.54" width="102.5" height="15.73"></rect>
            <rect id="Rectangle" fill="#EDE2D7" x="114.350539" y="240.54" width="102.5" height="3.42"></rect>
            <rect id="Rectangle" fill="#DBC5AF" x="133.540539" y="107.53" width="67.04" height="133.01"></rect>
            <rect id="Rectangle" fill="#F0F8FB" x="142.590539" y="116.76" width="21.11" height="28.9"></rect>
            <rect id="Rectangle" fill="#F0F8FB" x="169.000539" y="116.76" width="21.11" height="28.9"></rect>
            <rect id="Rectangle" fill="#F0F8FB" x="142.590539" y="151.01" width="21.11" height="28.9"></rect>
            <rect id="Rectangle" fill="#F0F8FB" x="169.000539" y="151.01" width="21.11" height="28.9"></rect>
            <path d="M198.000539,184 C198.080539,189.25 190.070539,189.25 190.150539,184 C190.000539,178.77 198.000539,178.77 198.000539,184 Z" id="Path" fill="#051934"></path>
        </g>
    </g>
</svg>