<?xml version="1.0" encoding="UTF-8"?>
<svg width="238px" height="171px" viewBox="0 0 238 171" version="1.1" xmlns="http://www.w3.org/2000/svg" xmlns:xlink="http://www.w3.org/1999/xlink">
    <title>Slice 1</title>
    <g id="Page-1" stroke="none" stroke-width="1" fill="none" fill-rule="evenodd">
        <g id="finish" transform="translate(0.000235, 0.844902)">
            <path d="M38.839765,161.205098 C13.679765,160.695098 -4.92023497,137.035098 1.15976503,112.615098 C1.25976503,112.215098 1.36976503,111.805098 1.47976503,111.395098 C9.55976503,82.1550977 40.389765,94.4850977 56.999765,64.8350977 C73.609765,35.1850977 139.229765,18.4950977 165.999765,57.7050977 C192.769765,96.9150977 231.999765,90.0850977 236.369765,117.975098 C240.739765,145.865098 224.939765,164.595098 174.729765,163.775098 C138.769765,163.155098 73.169765,161.895098 38.839765,161.205098 Z" id="Path" fill="#DEF0F8" fill-rule="nonzero"></path>
            <path d="M160.249765,95.9450977 L159.559765,96.6950977 C157.899765,98.4950977 153.389765,103.385098 148.429765,109.005098 L144.849765,113.085098 C143.049765,115.165098 141.289765,117.245098 139.649765,119.255098 L139.649765,119.255098 C139.149765,119.845098 138.649765,120.425098 138.199765,120.995098 C137.199765,122.205098 136.319765,123.355098 135.479765,124.435098 C132.959765,127.715098 131.199765,130.375098 130.869765,131.715098 C128.869765,140.115098 132.769765,163.715098 133.789765,169.535098 L78.899765,169.535098 C80.559765,157.535098 82.899765,140.535098 83.159765,137.965098 C83.619765,133.905098 69.419765,116.435098 69.159765,103.695098 C68.899765,90.9550977 77.339765,81.8450977 78.669765,69.3150977 C79.319765,63.4050977 78.579765,55.7250977 77.669765,49.1750977 C77.179765,45.7050977 76.609765,42.5950977 76.149765,40.2350977 C75.9188713,39.1507007 76.2496808,38.0229411 77.029765,37.2350977 C77.2124514,37.0407084 77.4210854,36.8724552 77.649765,36.7350977 C78.5685931,36.126956 79.7351229,36.0325766 80.739765,36.4850977 C83.889765,37.8350977 88.549765,41.3750977 89.459765,50.2650977 C89.459765,50.2650977 92.459765,66.4750977 96.689765,69.1850977 C98.419765,70.2650977 98.899765,56.9850977 101.099765,58.3850977 C102.799765,59.4450977 104.609765,60.6050977 106.519765,61.8050977 L106.879765,62.0350977 C107.649765,62.5250977 108.399765,63.0350977 109.209765,63.5150977 L109.209765,63.5150977 C109.489765,63.6950977 109.769765,63.8850977 110.069765,64.0550977 C110.579765,64.3850977 111.069765,64.7250977 111.639765,65.0550977 C111.743985,65.1279786 111.85441,65.1915567 111.969765,65.2450977 L122.689765,72.1550977 L122.689765,72.1550977 C123.289765,72.5050977 123.879765,72.8850977 124.469765,73.2750977 L125.869765,74.1450977 C126.449765,74.5250977 127.039765,74.8950977 127.629765,75.2650977 L127.629765,75.2650977 C131.769765,77.8750977 135.819765,80.4650977 139.629765,82.8550977 C140.219765,83.2450977 140.819765,83.6050977 141.389765,83.9750977 L142.769765,84.8450977 C143.379765,85.2350977 143.939765,85.5950977 144.519765,85.9850977 L144.519765,85.9850977 C151.739765,90.5350977 157.329765,94.1050977 159.379765,95.4150977 C159.999765,95.7550977 160.249765,95.9250977 160.249765,95.9450977 Z" id="Path" fill="#DBC5AF" fill-rule="nonzero"></path>
            <path d="M148.539765,20.0950977 C148.539765,20.0950977 157.899765,11.7750977 164.039765,16.4950977 C170.179765,21.2150977 150.229765,36.4250977 150.229765,36.4250977 L148.539765,20.0950977 Z" id="Path" fill="#DBC5AF" fill-rule="nonzero"></path>
            <path d="M165.549765,49.4550977 L157.929765,53.6650977 C154.779765,55.4150977 147.749765,56.5050977 146.309765,53.8850977 L144.829765,51.2250977 C143.389765,48.6050977 147.579765,43.4950977 150.729765,41.7550977 L158.809765,37.2850977 C161.959765,35.5350977 165.729765,36.2850977 167.169765,38.8650977 L168.649765,41.5350977 C170.099765,44.1550977 168.699765,47.7150977 165.549765,49.4550977 Z" id="Path" fill="#DBC5AF" fill-rule="nonzero"></path>
            <rect id="Rectangle" fill="#407BFF" fill-rule="nonzero" transform="translate(125.546129, 73.718102) rotate(-11.240000) translate(-125.546129, -73.718102) " x="93.0161292" y="5.02310247" width="65.06" height="137.39" rx="6.59"></rect>
            <rect id="Rectangle" fill="#051934" fill-rule="nonzero" transform="translate(125.546129, 73.718102) rotate(-11.240000) translate(-125.546129, -73.718102) " x="93.0161292" y="5.02310247" width="65.06" height="137.39" rx="6.59"></rect>
            <circle id="Oval" fill="#FFFFFF" fill-rule="nonzero" cx="137.279765" cy="132.875098" r="3.71"></circle>
            <path d="M121.829765,10.3650977 C121.699978,9.70235597 121.057507,9.27031075 120.394765,9.40009767 C119.732023,9.52988458 119.299978,10.172356 119.429765,10.8350977 C119.483286,11.1591101 119.665173,11.4478626 119.9343,11.6360631 C120.203426,11.8242635 120.537062,11.8960166 120.859765,11.8350977 L120.859765,11.8350977 C121.183778,11.7815772 121.47253,11.5996896 121.66073,11.330563 C121.848931,11.0614364 121.920684,10.727801 121.859765,10.4050977 L121.829765,10.3650977 Z" id="Path" fill="#FFFFFF" fill-rule="nonzero"></path>
            <rect id="Rectangle" fill="#FFFFFF" fill-rule="nonzero" transform="translate(111.391565, 12.938448) rotate(-10.972240) translate(-111.391565, -12.938448) " x="105.117573" y="11.7205845" width="12.5479832" height="2.43572626" rx="1.21786313"></rect>
            <rect id="Rectangle" fill="#FFFFFF" fill-rule="nonzero" transform="translate(125.099826, 71.232420) rotate(-11.290000) translate(-125.099826, -71.232420) " x="94.6598255" y="14.7674203" width="60.88" height="112.93" rx="2.36"></rect>
            <path d="M165.749765,64.9150977 L156.999765,69.7850977 C153.849765,71.5250977 147.999765,71.9550977 146.559765,69.3450977 L144.999765,66.6750977 C143.549765,64.0650977 147.649765,59.0050977 150.799765,57.2550977 L158.999765,52.7350977 C162.149765,50.9950977 165.919765,51.7350977 167.359765,54.3150977 L168.839765,56.9850977 C170.299765,59.6050977 168.909765,63.1550977 165.749765,64.9150977 Z" id="Path" fill="#DBC5AF" fill-rule="nonzero"></path>
            <path d="M166.569765,79.8750977 L158.899765,84.1550977 C155.749765,85.9050977 148.769765,86.9650977 147.329765,84.3450977 L145.849765,81.6850977 C144.409765,79.0650977 148.389765,74.0650977 151.539765,72.3250977 L159.829765,67.7350977 C162.979765,65.9950977 166.749765,66.7350977 168.199765,69.3250977 L169.669765,71.9850977 C171.119765,74.5650977 169.719765,78.1550977 166.569765,79.8750977 Z" id="Path" fill="#DBC5AF" fill-rule="nonzero"></path>
            <polyline id="Path" stroke="#7FBC5B" stroke-width="4" stroke-linecap="round" stroke-linejoin="round" points="139.749765 60.8550977 123.059765 86.9750977 111.169765 77.7050977"></polyline>
        </g>
    </g>
</svg>