<?xml version="1.0" encoding="UTF-8"?>
<svg width="343px" height="204px" viewBox="0 0 343 204" version="1.1" xmlns="http://www.w3.org/2000/svg" xmlns:xlink="http://www.w3.org/1999/xlink">
    <title>Slice 1</title>
    <g id="Page-1" stroke="none" stroke-width="1" fill="none" fill-rule="evenodd">
        <g id="without" transform="translate(0.999130, 0.500000)">
            <path d="M57.1408705,200.43 C21.9308705,199.72 -4.09912953,166.62 4.41087047,132.43 C4.55087047,131.87 4.70087047,131.3 4.86087047,130.73 C16.1708705,89.73 59.3108705,107.07 82.6008705,65.57 C105.89087,24.07 197.66087,0.73 235.16087,55.57 C272.66087,110.41 327.37087,100.88 333.56087,139.92 C339.75087,178.96 317.56087,204.15 247.30087,203.01 C197.00087,202.22 105.18087,201.4 57.1408705,200.43 Z" id="Path" fill="#DEF0F8" fill-rule="nonzero"></path>
            <path d="M45.4408705,49.36 L0.0708704656,49.36 C0.0708704656,49.36 -1.43912953,34.15 9.48087047,30.91 C20.4008705,27.67 22.7208705,34.07 22.7208705,34.07 C22.7208705,34.07 25.1108705,20.96 40.3908705,22.22 C55.6708705,23.48 55.6808705,37.6 55.6808705,37.6 C55.6808705,37.6 68.7908705,35.75 70.4708705,49.36 L45.4408705,49.36 Z" id="Path" fill="#8BCEEA" fill-rule="nonzero"></path>
            <path d="M234.35087,136.5 L198.50087,136.5 C198.50087,136.5 197.31087,124.5 205.94087,121.92 C214.57087,119.34 216.40087,124.42 216.40087,124.42 C216.40087,124.42 218.28087,114.06 230.40087,115.06 C242.52087,116.06 242.49087,127.2 242.49087,127.2 C242.49087,127.2 252.84087,125.74 254.17087,136.5 L234.35087,136.5 Z" id="Path" fill="#8BCEEA" fill-rule="nonzero"></path>
            <path d="M219.91087,167.15 L19.2008705,167.15 C17.7379462,167.144562 16.5518187,165.962893 16.5408705,164.5 L16.5408705,164.5 C16.5463539,163.0332 17.7340703,161.845483 19.2008705,161.84 L219.91087,161.84 C221.377671,161.845483 222.565387,163.0332 222.57087,164.5 L222.57087,164.5 C222.559922,165.962893 221.373795,167.144562 219.91087,167.15 Z" id="Path" fill="#051934" fill-rule="nonzero"></path>
            <polygon id="Path" fill="#051934" fill-rule="nonzero" points="223.54087 142.03 18.6208705 137.64 18.6208705 165.31 223.54087 165.31"></polygon>
            <path d="M138.00087,78.6099543 L18.6208705,78.6099543 C16.133939,78.5989165 14.1073887,80.6030987 14.0908705,83.09 L14.0908705,160.01 C14.0935038,161.206956 14.5728981,162.353544 15.423021,163.19616 C16.2731438,164.038776 17.423938,164.507983 18.6208705,164.5001 L23.7908705,164.5001 C25.8520912,164.498084 27.6521533,163.104885 28.1708705,161.11 C30.6808705,151.62 38.9108705,144.66 48.6708705,144.66 C58.4308705,144.66 66.6708705,151.66 69.1708705,161.11 C69.6895876,163.104885 71.4896498,164.498084 73.5508705,164.5001 L138.00087,164.5001 C139.195151,164.507983 140.343401,164.03983 141.191649,163.199089 C142.039896,162.358348 142.518237,161.214304 142.52087,160.02 L142.52087,83.09 C142.515578,81.8965221 142.036389,80.7540298 141.188722,79.9138643 C140.341055,79.0736988 139.194348,78.6046839 138.00087,78.6099543 L138.00087,78.6099543 Z" id="Path" fill="#11B0DE" fill-rule="nonzero"></path>
            <path d="M144.82087,88.6699468 L175.34087,88.6699468 C177.176546,88.6617036 178.880052,89.6237279 179.82087,91.2 L196.53087,119.38 C196.879661,119.980276 197.349638,120.501338 197.91087,120.91 L221.45087,138.14 C222.76085,139.09573 223.537061,140.618441 223.54087,142.24 L223.54087,155.82 L213.93087,155.82 C213.93087,155.82 208.31087,143.82 192.85087,143.82 C177.39087,143.82 171.53087,158.17 170.59087,164.15 L144.82087,164.15 L144.82087,88.6699468 Z" id="Path" fill="#FDFFFD" fill-rule="nonzero"></path>
            <path d="M174.00087,94.08 L152.77087,94.08 C151.906054,94.0854564 151.206327,94.7851831 151.20087,95.65 L151.20087,120.39 C151.20087,121.257087 151.903783,121.96 152.77087,121.96 L187.51087,121.96 C188.064746,121.96 188.577775,121.668648 188.860929,121.192621 C189.144082,120.716594 189.155461,120.12659 188.89087,119.64 L175.37087,94.9 C175.096062,94.3990599 174.572211,94.085514 174.00087,94.08 L174.00087,94.08 Z" id="Path" fill="#C5E5F3" fill-rule="nonzero"></path>
            <path d="M223.54087,141.44 L144.82087,141.44 L144.82087,164.15 L170.59087,164.15 C170.59087,164.15 174.59087,144.01 192.85087,144.01 C192.85087,144.01 207.11087,143.29 213.93087,155.9 L223.54087,155.9 L223.54087,141.44 Z" id="Path" fill="#ECEEF0" fill-rule="nonzero"></path>
            <circle id="Oval" fill="#051934" fill-rule="nonzero" transform="translate(193.723457, 164.170566) rotate(-76.880000) translate(-193.723457, -164.170566) " cx="193.723457" cy="164.170566" r="16.66"></circle>
            <circle id="Oval" fill="#051934" fill-rule="nonzero" transform="translate(49.226869, 164.154265) rotate(-45.000000) translate(-49.226869, -164.154265) " cx="49.2268688" cy="164.154265" r="16.66"></circle>
            <circle id="Oval" fill="#C8E6F4" fill-rule="nonzero" cx="49.2308705" cy="164.15" r="9.69"></circle>
            <circle id="Oval" fill="#C8E6F4" fill-rule="nonzero" cx="193.71087" cy="164.15" r="9.69"></circle>
            <rect id="Rectangle" fill="#051934" fill-rule="nonzero" x="9.74087047" y="153.03" width="13.6" height="14.12" rx="4.82"></rect>
            <path d="M160.55087,121.96 L151.20087,121.96 L151.20087,110.9 C151.250137,108.360136 153.34075,106.336531 155.88087,106.37 L155.88087,106.37 C158.417112,106.342072 160.501614,108.364083 160.55087,110.9 L160.55087,121.96 L160.55087,121.96 Z" id="Path" fill="#051934" fill-rule="nonzero"></path>
            <path d="M178.61087,116.5 C179.25432,116.545185 179.900623,116.528441 180.54087,116.45 C180.87087,116.31 181.77087,115.79 181.64087,115.19 C181.55087,114.82 180.89087,115.41 180.64087,115.3 C180.39087,115.19 181.19087,115.11 181.23087,114.97 C181.27087,114.83 180.55087,114.76 180.29087,114.72 C180.03087,114.68 179.29087,115.27 178.69087,115.43 C178.09087,115.59 178.61087,116.5 178.61087,116.5 Z" id="Path" fill="#DBC5AF" fill-rule="nonzero"></path>
            <path d="M157.63087,114.8 C157.63087,114.8 159.86087,117.32 162.57087,117.68 C165.28087,118.04 169.27087,118.84 170.50087,118.850034 C171.73087,118.86 178.73087,116.69 178.73087,116.69 C178.820267,116.458325 178.820267,116.201675 178.73087,115.97 C178.650719,115.693546 178.473082,115.455513 178.23087,115.3 C178.23087,115.3 173.44087,115.42 171.23087,115.73 C170.30087,115.86 163.96087,112.08 162.97087,109.8 C162.53087,108.91 157.63087,114.8 157.63087,114.8 Z" id="Path" fill="#7DA65B" fill-rule="nonzero"></path>
            <path d="M159.26087,108.66 C160.682771,109.480918 162.327933,109.830952 163.96087,109.66 C163.96087,109.66 164.45087,109.54 164.21087,108.97 C164.36087,108.51 164.34087,108.55 164.43087,108.21 C164.64087,107.43 164.71087,106.98 164.71087,106.98 L163.32087,105.5 L162.00087,104.1 C161.874692,105.972405 160.854893,107.669589 159.26087,108.66 Z" id="Path" fill="#DBC5AF" fill-rule="nonzero"></path>
            <path d="M161.79087,105.37 C162.295461,106.60182 163.234958,107.605374 164.43087,108.19 C164.64087,107.41 164.78087,106.59 164.78087,106.59 L163.32087,105.5 L161.79087,105.37 Z" id="Path" fill="#DBC5AF" fill-rule="nonzero" opacity="0.15" style="mix-blend-mode: multiply;"></path>
            <path d="M166.26087,106.89 C166.26087,106.89 161.96087,107.42 161.65087,104.78 C161.34087,102.14 160.59087,100.42 163.33087,99.96 C166.07087,99.5 166.72087,100.46 167.04087,101.32 C167.36087,102.18 167.38087,106.68 166.26087,106.89 Z" id="Path" fill="#DBC5AF" fill-rule="nonzero"></path>
            <path d="M160.29087,99.5 C160.29087,99.5 160.17087,99.42 159.97087,99.4 C160.086827,99.3355663 160.218331,99.3044206 160.35087,99.31 C160.385484,98.9045983 160.662274,98.560588 161.05087,98.44 C160.887855,98.5241852 160.77328,98.6794154 160.74087,98.86 C161.31087,98.32 162.10087,97.86 165.37087,98.29 C169.68087,98.79 168.57087,101.55 168.00087,101.86 C167.43087,102.17 166.05087,101.21 165.00087,101.25 C163.95087,101.29 163.70087,102.8 163.34087,102.99 C162.98087,103.18 163.13087,102.82 162.66087,102.59 C162.19087,102.36 162.11087,103.15 162.23087,103.67 C162.35087,104.19 161.67087,104.84 161.67087,104.84 L161.03087,104.1 C160.303109,102.744676 160.016451,101.196021 160.21087,99.67 L160.29087,99.5 Z" id="Path" fill="#051934" fill-rule="nonzero"></path>
            <path d="M157.34087,113.57 C157.34087,113.57 158.98087,116.57 161.54087,117.45 C164.10087,118.33 167.83087,120.03 169.03087,120.31 C170.23087,120.59 177.53087,119.97 177.53087,119.97 C177.664538,119.75911 177.714478,119.505845 177.67087,119.26 C177.651007,118.974423 177.530537,118.705138 177.33087,118.5 C177.33087,118.5 172.62087,117.58 170.33087,117.41 C169.39087,117.33 164.02087,112.28 163.54087,109.84 C163.39087,108.88 157.34087,113.57 157.34087,113.57 Z" id="Path" fill="#7FBC5B" fill-rule="nonzero"></path>
            <path d="M167.00087,121.96 C166.60087,117.26 165.71087,109.88 163.93087,109.1 C162.438755,108.499365 160.838664,108.213391 159.23087,108.26 C159.23087,108.26 156.71087,110.33 155.91087,116.52 C155.67087,118.45 155.41087,120.31 155.19087,121.96 L167.00087,121.96 Z" id="Path" fill="#7FBC5B" fill-rule="nonzero"></path>
            <path d="M179.45087,122.02 L182.33087,115.1 C182.502079,114.691309 182.309561,114.221208 181.90087,114.05 C181.49218,113.878792 181.022079,114.071309 180.85087,114.48 L177.70087,122.02 L179.45087,122.02 Z" id="Path" fill="#051934" fill-rule="nonzero"></path>
            <path d="M180.35087,122.02 L189.66087,122.02 L188.15087,117.41 C187.890026,116.56499 187.105185,115.991608 186.22087,116 L182.91087,116 C182.050006,115.992018 181.280627,116.53582 181.00087,117.35 L180.00087,120.01 C179.803894,120.548589 179.847594,121.14582 180.12087,121.65 L180.35087,122.02 Z" id="Path" fill="#051934" fill-rule="nonzero"></path>
            <path d="M187.40087,128.82 L187.40087,128.82 C185.624793,128.81451 184.186361,127.376078 184.18087,125.6 L184.18087,116.4 C184.186361,114.623922 185.624793,113.18549 187.40087,113.18 L187.40087,113.18 C189.176948,113.18549 190.61538,114.623922 190.62087,116.4 L190.62087,125.6 C190.61538,127.376078 189.176948,128.81451 187.40087,128.82 Z" id="Path" fill="#ECEEF0" fill-rule="nonzero"></path>
            <rect id="Rectangle" fill="#11B0DE" fill-rule="nonzero" opacity="0.3" style="mix-blend-mode: multiply;" x="19.5908705" y="85.5" width="116.32" height="56.5"></rect>
            <path d="M177.45087,119.8 C178.070938,119.981716 178.707307,120.102291 179.35087,120.16 C179.70087,120.16 180.69087,119.78 180.69087,119.16 C180.69087,118.78 179.91087,119.16 179.69087,119.04 C179.47087,118.92 180.27087,118.98 180.34087,118.85 C180.41087,118.72 179.72087,118.5 179.48087,118.4 C179.24087,118.3 178.37087,118.72 177.76087,118.75 C177.15087,118.78 177.45087,119.8 177.45087,119.8 Z" id="Path" fill="#DBC5AF" fill-rule="nonzero"></path>
            <rect id="Rectangle" fill="#051934" fill-rule="nonzero" x="215.77087" y="153.03" width="10.33" height="14.12" rx="4.82"></rect>
            <path d="M51.1908705,100.71 L49.0008705,100.71 C48.7223186,100.735901 48.5096689,100.970249 48.5108654,101.25 L48.5108654,117.35 C48.5096689,117.629751 48.7223186,117.864099 49.0008705,117.89 L51.1608705,117.89 C51.4417489,117.868808 51.6569835,117.63161 51.6508705,117.35 L51.6508705,101.25 C51.6538431,100.980405 51.4575089,100.749926 51.1908705,100.71 L51.1908705,100.71 Z" id="Path" fill="#FFFFFF" fill-rule="nonzero"></path>
            <path d="M57.5008705,106.5 L55.3508705,106.5 C55.2128744,106.507731 55.0836333,106.570081 54.9916936,106.673279 C54.8997538,106.776476 54.8526803,106.91203 54.8608705,107.05 L54.8608705,117.34 C54.8547575,117.62161 55.069992,117.858808 55.3508705,117.88 L57.5008705,117.88 C57.7817489,117.858808 57.9969835,117.62161 57.9908705,117.34 L57.9908705,107.06 C58.0018536,106.920368 57.9560438,106.78221 57.8638115,106.676802 C57.7715793,106.571393 57.6407246,106.507649 57.5008705,106.5 L57.5008705,106.5 Z" id="Path" fill="#FFFFFF" fill-rule="nonzero"></path>
            <path d="M56.3808705,100.7 C55.4360087,100.770377 54.7053138,101.557521 54.7053138,102.505 C54.7053138,103.452479 55.4360087,104.239623 56.3808705,104.31 C57.0578053,104.360421 57.706045,104.02784 58.0599128,103.448564 C58.4137807,102.869289 58.4137807,102.140711 58.0599128,101.561436 C57.706045,100.98216 57.0578053,100.649579 56.3808705,100.7 L56.3808705,100.7 Z" id="Path" fill="#FFFFFF" fill-rule="nonzero"></path>
            <path d="M102.24087,118.18 C104.681925,118.249191 106.921373,116.832021 107.903858,114.596343 C108.886344,112.360665 108.415823,109.75258 106.714034,108.001168 C105.012245,106.249755 102.418757,105.704487 100.155771,106.622325 C97.8927847,107.540164 96.4118509,109.737966 96.4108705,112.18 C96.3773691,115.441405 98.9798494,118.119772 102.24087,118.18 Z M102.24087,109.3 C102.985334,109.318307 103.691837,109.632421 104.204149,110.172882 C104.716461,110.713342 104.992372,111.435622 104.97087,112.18 C105.059207,113.211121 104.559049,114.204038 103.677903,114.746805 C102.796758,115.289572 101.684983,115.289572 100.803838,114.746805 C99.9226922,114.204038 99.4225339,113.211121 99.5108705,112.18 C99.4866575,111.434876 99.7616634,110.711055 100.274545,110.169994 C100.787426,109.628932 101.495518,109.315639 102.24087,109.3 L102.24087,109.3 Z" id="Shape" fill="#FFFFFF" fill-rule="nonzero"></path>
            <path d="M106.60087,123.83 C99.7496602,122.30749 92.7490949,121.559466 85.7308705,121.6 L85.7308705,112.2 C85.7287905,110.816318 86.7515996,109.644944 88.1229334,109.460486 C89.4942672,109.276028 90.7902456,110.135501 91.1538625,111.470553 C91.5174794,112.805606 90.8363407,114.20357 89.5608705,114.74 C89.2220292,114.882622 88.8584945,114.957367 88.4908705,114.96 C87.6293063,114.96 86.9308705,115.658436 86.9308705,116.52 C86.9308705,117.381564 87.6293063,118.08 88.4908705,118.08 C89.2775541,118.084106 90.0567957,117.927577 90.7808705,117.62 C93.500319,116.472403 94.9503996,113.489129 94.1728029,110.641723 C93.3952061,107.794317 90.6300845,105.962171 87.704814,106.356088 C84.7795436,106.750005 82.5975632,109.248328 82.6008705,112.2 L82.6008705,121.61 C75.9065241,121.623786 69.233679,122.368194 62.7008705,123.83 C62.2915708,123.923992 61.9384092,124.18106 61.7231785,124.541666 C61.5079479,124.902271 61.449319,125.335133 61.5608705,125.74 C61.8121769,126.593812 62.7052239,127.084988 63.5608705,126.84 C70.4909122,125.334585 77.5698615,124.623335 84.6608705,124.72 C91.7517406,124.626535 98.8303283,125.337748 105.76087,126.84 C105.897377,126.879536 106.038754,126.899733 106.18087,126.9 C106.904565,126.907441 107.545404,126.433955 107.75087,125.74 C107.859209,125.33385 107.797944,124.901116 107.581121,124.541001 C107.364298,124.180886 107.010513,123.924277 106.60087,123.83 L106.60087,123.83 Z" id="Path" fill="#FFFFFF" fill-rule="nonzero"></path>
            <path d="M63.6908705,117.89 C63.9575712,117.879165 64.1665378,117.656861 64.1608705,117.39 L64.1608705,112.2 L64.1608705,112.2 L64.1608705,112.2 C64.0363083,111.201551 64.4990228,110.220863 65.3488547,109.682159 C66.1986866,109.143454 67.2830543,109.143454 68.1328862,109.682159 C68.9827181,110.220863 69.4454326,111.201551 69.3208705,112.2 L69.3208705,117.41 C69.3154665,117.541667 69.3633242,117.669962 69.4536403,117.765923 C69.5439564,117.861883 69.6691175,117.917421 69.8008705,117.92 L71.8008705,117.92 C71.9308641,117.914803 72.0534548,117.858123 72.1416194,117.762455 C72.229784,117.666787 72.2762844,117.539985 72.2708705,117.41 L72.2708705,112.2 C72.164062,111.209975 72.6320835,110.245908 73.4760604,109.717457 C74.3200372,109.189005 75.3917037,109.189005 76.2356806,109.717457 C77.0796574,110.245908 77.5476789,111.209975 77.4408705,112.2 L77.4408705,112.2 L77.4408705,112.2 L77.4408705,112.2 L77.4408705,117.39 C77.4352031,117.656861 77.6441698,117.879165 77.9108705,117.89 L79.9108705,117.89 C80.0399727,117.887423 80.1625916,117.832939 80.2510326,117.738852 C80.3394736,117.644766 80.3862765,117.519015 80.3808705,117.39 L80.3808705,112.2 L80.3808705,112.2 L80.3808705,112.2 C80.4996169,109.027674 78.0418104,106.351297 74.8708705,106.2 C73.2872951,106.229068 71.7990165,106.96221 70.8108705,108.2 C69.8209362,106.964435 68.3337715,106.231842 66.7508705,106.2 C63.6159891,106.345711 61.1678643,108.962367 61.2308705,112.1 L61.2308705,112.1 L61.2308705,117.36 C61.2252031,117.626861 61.4341698,117.849165 61.7008705,117.86 L63.6908705,117.89 Z" id="Path" fill="#FFFFFF" fill-rule="nonzero"></path>
            <path d="M324.68087,72.21 C315.17605,72.21 307.47087,79.9151795 307.47087,89.42 C307.47087,98.93 324.68087,120.06 324.68087,120.06 C324.68087,120.06 341.89087,98.93 341.89087,89.42 C341.89087,79.9151795 334.185691,72.21 324.68087,72.21 Z M324.68087,97.3001559 C320.269206,97.2724266 316.712586,93.678587 316.730869,89.2668749 C316.749293,84.8551628 320.335692,81.2910396 324.747433,81.3001559 C329.159174,81.3093072 332.730869,84.8882497 332.730869,89.3 C332.730869,91.4304235 331.881197,93.4728689 330.370075,94.9746056 C328.858952,96.4763422 326.811252,97.3133151 324.68087,97.3001559 Z" id="Shape" fill="#7FBC5B" fill-rule="nonzero"></path>
            <path d="M162.52087,62.13 C162.52087,27.82 198.20087,0 242.22087,0 C286.24087,0 321.92087,27.82 321.92087,62.13" id="Path" stroke="#7FBC5B" stroke-linecap="round" stroke-linejoin="round" stroke-dasharray="1"></path>
        </g>
    </g>
</svg>