<svg id="emr5bf90rqyc1" xmlns="http://www.w3.org/2000/svg" xmlns:xlink="http://www.w3.org/1999/xlink" viewBox="0 0 58.630000 79.460000" shape-rendering="geometricPrecision" text-rendering="geometricPrecision"><style><![CDATA[#emr5bf90rqyc12_to {animation: emr5bf90rqyc12_to__to 2000ms linear infinite normal forwards}@keyframes emr5bf90rqyc12_to__to { 0% {transform: translate(28.560000px,51.020000px)} 5% {transform: translate(30.675194px,50.667468px)} 10% {transform: translate(32.630904px,49.634341px)} 15% {transform: translate(34.100000px,48px)} 20% {transform: translate(34.739296px,45.890325px)} 25% {transform: translate(34.675367px,43.716720px)} 30% {transform: translate(34px,41.700000px)} 35% {transform: translate(32.630902px,39.965658px)} 40% {transform: translate(30.713015px,38.942785px)} 45% {transform: translate(28.559999px,38.559207px)} 50% {transform: translate(26.400000px,38.900000px)} 55% {transform: translate(24.489096px,39.965659px)} 60% {transform: translate(23.200000px,41.700000px)} 65% {transform: translate(22.400000px,43.730000px)} 70% {transform: translate(22.450000px,45.887623px)} 75% {transform: translate(23.200000px,47.900000px)} 80% {transform: translate(24.550000px,49.600000px)} 85% {transform: translate(26.450000px,50.600000px)} 90% {transform: translate(28.560000px,51.020000px)} 100% {transform: translate(28.560000px,51.020000px)} }#emr5bf90rqyc12_tr {animation: emr5bf90rqyc12_tr__tr 2000ms linear infinite normal forwards}@keyframes emr5bf90rqyc12_tr__tr { 0% {transform: rotate(0deg)} 5% {transform: rotate(-20deg)} 10% {transform: rotate(-40deg)} 15% {transform: rotate(-60deg)} 20% {transform: rotate(-80deg)} 25% {transform: rotate(-100deg)} 30% {transform: rotate(-120deg)} 35% {transform: rotate(-140deg)} 40% {transform: rotate(-160deg)} 45% {transform: rotate(-180deg)} 50% {transform: rotate(-200deg)} 55% {transform: rotate(-220deg)} 60% {transform: rotate(-240deg)} 65% {transform: rotate(-260deg)} 70% {transform: rotate(-280deg)} 75% {transform: rotate(-300deg)} 80% {transform: rotate(-320deg)} 85% {transform: rotate(-340deg)} 90% {transform: rotate(-360deg)} 100% {transform: rotate(-360deg)} }]]></style><g id="emr5bf90rqyc2"><g id="emr5bf90rqyc3"><rect id="emr5bf90rqyc4" width="58.630000" height="79.460000" rx="0" ry="0" fill="rgb(227,227,227)" stroke="none" stroke-width="1"/><rect id="emr5bf90rqyc5" width="11.340000" height="5.570000" rx="0" ry="0" transform="matrix(1 0 0 1 3.95000000000000 70.20000000000000)" fill="rgb(255,255,255)" stroke="none" stroke-width="1"/><path id="emr5bf90rqyc6" d="M29.440000,9C29.444044,10.118125,28.773078,11.128217,27.740834,11.557975C26.708589,11.987734,25.519043,11.752236,24.728403,10.961597C23.937764,10.170957,23.702266,8.981411,24.132025,7.949166C24.561783,6.916922,25.571875,6.245956,26.690000,6.250000C28.208783,6.250000,29.440000,7.481217,29.440000,9Z" fill="rgb(255,255,255)" stroke="none" stroke-width="1"/><path id="emr5bf90rqyc7" d="M38.520000,9C38.524048,10.117217,37.854168,11.126678,36.823154,11.557026C35.792139,11.987374,34.603378,11.753715,33.811949,10.965153C33.020519,10.176592,32.782547,8.988686,33.209150,7.956116C33.635753,6.923547,34.642776,6.250007,35.760000,6.250000C36.491076,6.247342,37.193121,6.535899,37.711011,7.051912C38.228901,7.567926,38.520005,8.268919,38.520000,9Z" fill="rgb(255,255,255)" stroke="none" stroke-width="1"/><rect id="emr5bf90rqyc8" width="11.790000" height="6.510000" rx="0" ry="0" transform="matrix(1 0 0 1 42.77000000000000 5.72000000000000)" fill="rgb(255,255,255)" stroke="none" stroke-width="1"/><rect id="emr5bf90rqyc9" width="17.190000" height="9.050000" rx="0" ry="0" transform="matrix(1 0 0 1 2.33000000000000 4.45000000000000)" fill="rgb(255,255,255)" stroke="none" stroke-width="1"/><circle id="emr5bf90rqyc10" r="20.780000" transform="matrix(1 0 0 1 28.56000000000000 44.80000000000000)" fill="rgb(6,28,57)" stroke="none" stroke-width="1"/><circle id="emr5bf90rqyc11" r="15.330000" transform="matrix(0.70710700000000 -0.70710700000000 0.70710700000000 0.70710700000000 28.56000000000001 44.80000000000000)" fill="rgb(255,255,255)" stroke="none" stroke-width="1"/><g id="emr5bf90rqyc12_to" transform="translate(28.560000,51.020000)"><g id="emr5bf90rqyc12_tr" transform="rotate(0)"><path id="emr5bf90rqyc12" d="M28.560000,60.190000C32.623117,60.190000,36.519819,58.575933,39.392876,55.702876C42.265933,52.829819,43.880000,48.933117,43.880000,44.870000C43.880000,40.806883,37.080000,51.490000,30.460000,44.870000C23.840000,38.250000,13.230000,44.870000,13.230000,44.870000C13.229999,48.934850,14.845439,52.833068,17.720659,55.706413C20.595880,58.579758,24.495151,60.192653,28.560000,60.190000Z" transform="translate(-28.555001,-51.058889)" fill="rgb(17,176,222)" stroke="none" stroke-width="1"/></g></g></g></g></svg>