<?xml version="1.0" encoding="UTF-8"?>
<svg width="44px" height="40px" viewBox="0 0 44 40" version="1.1" xmlns="http://www.w3.org/2000/svg" xmlns:xlink="http://www.w3.org/1999/xlink">
    <title>Untitled 2</title>
    <g id="Page-1" stroke="none" stroke-width="1" fill="none" fill-rule="evenodd">
        <g id="bolsa_10" transform="translate(0.994534, 0.000000)" fill-rule="nonzero">
            <path d="M18.425466,6.91 C11.215466,5.23 2.59546598,7.45 0.405465982,19.05 C-1.78453402,30.65 5.00546598,36.25 18.145466,36.38 C31.285466,36.51 45.005466,33.93 42.715466,23.56 C40.425466,13.19 33.155466,13.46 29.615466,14 C26.075466,14.54 24.285466,8.27 18.425466,6.91 Z" id="Path" fill="#DAF0F9"></path>
            <path d="M36.675466,10.58 C36.3504907,10.254173 35.9054662,10.0768868 35.445466,10.09 L29.705466,10.09 L29.705466,8.69 C29.705466,3.77 26.095466,0 21.505466,0 C19.2676869,0.0281587359 17.1358571,0.957718706 15.5924391,2.57830769 C14.049021,4.19889668 13.2244962,6.37350902 13.305466,8.61 L13.305466,10.09 L7.56546598,10.09 C7.09416738,10.1012334 6.64869605,10.3076713 6.33546598,10.66 C6.03245673,10.9944199 5.88371052,11.4406585 5.92546598,11.89 L8.00546598,33.38 C8.11554893,36.6087074 10.6790646,39.2156724 13.905466,39.380004 L29.215466,39.380004 C32.3069645,39.3836169 34.8559655,36.9578837 35.005466,33.87 L37.005466,11.81 C37.0568916,11.3728793 36.9387883,10.9326761 36.675466,10.58 Z M16.585466,8.58 C16.5121507,7.21098892 16.9920185,5.86993681 17.9172257,4.8582264 C18.842433,3.84651599 20.1353696,3.24901377 21.505466,3.2 C22.8810697,3.24875457 24.1788312,3.8504069 25.1049307,4.86873999 C26.0310303,5.88707308 26.5071399,7.23595775 26.425466,8.61 L26.425466,10.09 L16.585466,10.09 L16.585466,8.58 Z" id="Shape" fill="#00B2E3"></path>
        </g>
    </g>
</svg>