<?xml version="1.0" encoding="UTF-8"?>
<svg width="44px" height="37px" viewBox="0 0 44 37" version="1.1" xmlns="http://www.w3.org/2000/svg" xmlns:xlink="http://www.w3.org/1999/xlink">
    <title>Slice 1</title>
    <g id="Page-1" stroke="none" stroke-width="1" fill="none" fill-rule="evenodd">
        <g id="bolsa_5" transform="translate(0.994534, 0.329904)" fill-rule="nonzero">
            <path d="M18.425466,6.55009576 C11.215466,4.88009576 2.59546598,7.10009576 0.405465982,18.6700958 C-1.78453402,30.2400958 5.00546598,35.8900958 18.145466,36.0300958 C31.285466,36.1700958 45.005466,33.5700958 42.715466,23.2000958 C40.425466,12.8300958 33.155466,13.1000958 29.615466,13.6700958 C26.075466,14.2400958 24.285466,7.92009576 18.425466,6.55009576 Z" id="Path" fill="#DAF0F9"></path>
            <path d="M32.265466,7.92009576 C32.0035819,7.6535313 31.6382875,7.51471944 31.265466,7.54009576 L26.835466,7.54009576 L26.835466,6.45009576 C26.8479703,4.15823696 25.6368327,2.03380111 23.6582769,0.877042656 C21.6797211,-0.279715798 19.2343369,-0.293057723 17.2432768,0.842042655 C15.2522167,1.97714303 14.0179702,4.08823696 14.005466,6.38009576 L14.005466,7.54009576 L9.56546598,7.54009576 C9.18604956,7.5441264 8.82477259,7.70308826 8.56546598,7.98009576 C8.32183539,8.25297857 8.20551876,8.61646805 8.24546598,8.98009576 L9.88546598,25.6700958 C9.98062731,28.1802956 11.9767101,30.2024142 14.485466,30.3301303 L26.485466,30.3301303 C28.8820257,30.3393944 30.8673221,28.4726888 31.005466,26.0800958 L32.605466,8.88009576 C32.6251116,8.52749842 32.5026525,8.18173171 32.265466,7.92009576 Z M16.595466,6.38009576 C16.535665,5.30889362 16.9086915,4.25857105 17.6307563,3.46505191 C18.3528211,2.67153278 19.3633891,2.20134263 20.435466,2.16009576 C21.5075429,2.20134263 22.5181108,2.67153278 23.2401756,3.46505191 C23.9622404,4.25857105 24.335267,5.30889362 24.275466,6.38009576 L24.275466,7.54009576 L16.595466,7.54009576 L16.595466,6.38009576 Z" id="Shape" fill="#00B2E3"></path>
        </g>
    </g>
</svg>