<?xml version="1.0" encoding="UTF-8"?>
<svg width="336px" height="201px" viewBox="0 0 336 201" version="1.1" xmlns="http://www.w3.org/2000/svg" xmlns:xlink="http://www.w3.org/1999/xlink">
    <title>Untitled 13</title>
    <g id="Page-1" stroke="none" stroke-width="1" fill="none" fill-rule="evenodd">
        <g id="delivery" transform="translate(0.000608, 1.460000)">
            <path d="M56.0593918,196.69 C21.5093918,195.99 -4.00060821,163.54 4.32939179,129.98 C4.46939179,129.43 4.60939179,128.87 4.76939179,128.31 C15.8593918,88.1 58.1893918,105.1 80.9993918,64.38 C103.809392,23.66 193.929392,0.76 230.719392,54.59 C267.509392,108.42 321.189392,99.05 327.259392,137.35 C333.329392,175.65 311.559392,200.35 242.629392,199.24 C193.259392,198.44 103.189392,197.64 56.0593918,196.69 Z" id="Path" fill="#DAF0F9" fill-rule="nonzero"></path>
            <path d="M44.5793918,48.46 L0.0693917929,48.46 C0.0693917929,48.46 -1.41060821,33.54 9.29939179,30.37 C20.0093918,27.2 22.2993918,33.46 22.2993918,33.46 C22.2993918,33.46 24.6293918,20.61 39.6293918,21.84 C54.6293918,23.07 54.6293918,36.93 54.6293918,36.93 C54.6293918,36.93 67.4893918,35.11 69.1393918,48.46 L44.5793918,48.46 Z" id="Path" fill="#77CFED" fill-rule="nonzero"></path>
            <path d="M229.919392,133.92 L194.749392,133.92 C194.749392,133.92 193.579392,122.13 202.049392,119.62 C210.519392,117.11 212.309392,122.07 212.309392,122.07 C212.309392,122.07 214.159392,111.91 226.009392,112.88 C237.859392,113.85 237.869392,124.8 237.869392,124.8 C237.869392,124.8 248.029392,123.37 249.329392,133.92 L229.919392,133.92 Z" id="Path" fill="#77CFED" fill-rule="nonzero"></path>
            <path d="M215.749392,164.04 L18.8393918,164.04 C17.3963125,164.034492 16.2293918,162.86309 16.2293918,161.42 L16.2293918,161.42 C16.2348745,159.980814 17.4002057,158.815483 18.8393918,158.81 L215.749392,158.81 C217.188578,158.815483 218.353909,159.980814 218.359392,161.42 L218.359392,161.42 C218.359392,162.86309 217.192471,164.034492 215.749392,164.04 Z" id="Path" fill="#001936" fill-rule="nonzero"></path>
            <polygon id="Path" fill="#001936" fill-rule="nonzero" points="219.319392 139.39 18.2693918 135.08 18.2693918 162.22 219.319392 162.22"></polygon>
            <path d="M135.389392,77.1698945 L18.2693918,77.1698945 C15.8376667,77.1533577 13.8513918,79.1083175 13.8293918,81.54 L13.8293918,157.01 C13.8346769,158.181351 14.3057579,159.302475 15.1387134,160.126051 C15.9716688,160.949626 17.098056,161.40798 18.2693918,161.400102 L23.3393918,161.400102 C25.360314,161.398121 27.1262144,160.034681 27.6393918,158.08 C30.0993918,148.77 38.1693918,141.93 47.7493918,141.93 C57.3293918,141.93 65.3993918,148.77 67.8593918,158.08 C68.3725691,160.034681 70.1384696,161.398121 72.1593918,161.400102 L135.389392,161.400102 C136.560728,161.40798 137.687115,160.949626 138.52007,160.126051 C139.353026,159.302475 139.824107,158.181351 139.829392,157.01 L139.829392,81.54 C139.807392,79.1083175 137.821117,77.1533577 135.389392,77.1698945 Z" id="Path" fill="#00B2E3" fill-rule="nonzero"></path>
            <path d="M142.079392,87.029995 L171.999392,87.029995 C173.802144,87.0274983 175.473369,87.9732597 176.399392,89.52 L192.789392,117.17 C193.136781,117.753911 193.599531,118.260895 194.149392,118.66 L217.259392,135.54 C218.541063,136.471613 219.305306,137.955581 219.319392,139.54 L219.319392,152.87 L209.889392,152.87 C209.889392,152.87 204.369392,141.1 189.199392,141.1 C174.029392,141.1 168.289392,155.17 167.369392,161.04 L142.079392,161.04 L142.079392,87.029995 Z" id="Path" fill="#FCFFFC" fill-rule="nonzero"></path>
            <path d="M170.699392,92.3499227 L149.889392,92.3499227 C149.038873,92.3499227 148.349392,93.0394815 148.349392,93.89 L148.349392,118.15 C148.349392,118.558433 148.511641,118.950138 148.800447,119.238944 C149.089253,119.52775 149.480958,119.690039 149.889392,119.690039 L183.999392,119.690039 C184.542818,119.693864 185.047513,119.409181 185.325293,118.9421 C185.603073,118.475018 185.612246,117.895641 185.349392,117.42 L172.059392,93.15 C171.789125,92.6521163 171.265872,92.3443203 170.699392,92.3499227 Z" id="Path" fill="#BDE6F5" fill-rule="nonzero"></path>
            <path d="M219.319392,138.81 L142.079392,138.81 L142.079392,161.09 L167.369392,161.09 C167.369392,161.09 171.299392,141.33 189.199392,141.33 C189.199392,141.33 203.199392,140.62 209.889392,152.99 L219.319392,152.99 L219.319392,138.81 Z" id="Path" fill="#EBEDEF" fill-rule="nonzero"></path>
            <circle id="Oval" fill="#001936" fill-rule="nonzero" transform="translate(190.062110, 161.111355) rotate(-76.880000) translate(-190.062110, -161.111355) " cx="190.06211" cy="161.111355" r="16.35"></circle>
            <circle id="Oval" fill="#001936" fill-rule="nonzero" transform="translate(48.295750, 161.089843) rotate(-45.000000) translate(-48.295750, -161.089843) " cx="48.2957498" cy="161.089843" r="16.35"></circle>
            <circle id="Oval" fill="#C1E7F6" fill-rule="nonzero" cx="48.2993918" cy="161.09" r="9.51"></circle>
            <circle id="Oval" fill="#C1E7F6" fill-rule="nonzero" cx="190.049392" cy="161.09" r="9.51"></circle>
            <rect id="Rectangle" fill="#001936" fill-rule="nonzero" x="9.55939179" y="150.18" width="13.34" height="13.86" rx="4.82"></rect>
            <path d="M157.519392,119.69 L148.349392,119.69 L148.349392,108.85 C148.393219,106.35986 150.439023,104.372125 152.929392,104.4 L152.929392,104.4 C155.421456,104.372066 157.470143,106.358266 157.519392,108.85 L157.519392,119.69 L157.519392,119.69 Z" id="Path" fill="#001936" fill-rule="nonzero"></path>
            <path d="M175.239392,114.38 C175.86788,114.441714 176.500903,114.441714 177.129392,114.38 C177.449392,114.25 178.329392,113.73 178.199392,113.15 C178.119392,112.78 177.469392,113.36 177.199392,113.25 C176.929392,113.14 177.739392,113.07 177.779392,112.93 C177.819392,112.79 177.109392,112.72 176.859392,112.68 C176.609392,112.64 175.859392,113.22 175.289392,113.38 C174.719392,113.54 175.239392,114.38 175.239392,114.38 Z" id="Path" fill="#E0C5AC" fill-rule="nonzero"></path>
            <path d="M154.659392,112.67 C155.936816,114.104523 157.627911,115.1073 159.499392,115.54 C162.149392,115.89 166.069392,116.68 167.279392,116.690035 C168.489392,116.7 175.349392,114.57 175.349392,114.57 C175.442208,114.342434 175.442208,114.087566 175.349392,113.86 C175.272949,113.587145 175.098459,113.352119 174.859392,113.2 C174.859392,113.2 170.159392,113.32 167.959392,113.62 C167.049392,113.75 160.839392,110.04 159.859392,107.81 C159.459392,106.89 154.659392,112.67 154.659392,112.67 Z" id="Path" fill="#71A850" fill-rule="nonzero"></path>
            <path d="M156.249392,106.65 C157.64596,107.460759 159.262557,107.810672 160.869392,107.65 C160.869392,107.65 161.339392,107.53 161.109392,106.97 C161.249392,106.52 161.239392,106.56 161.319392,106.23 C161.43301,105.832302 161.523166,105.428273 161.589392,105.02 L160.229392,103.54 L158.939392,102.17 C158.812266,104.008062 157.812028,105.673886 156.249392,106.65 Z" id="Path" fill="#E0C5AC" fill-rule="nonzero"></path>
            <path d="M158.729392,103.42 C159.227123,104.627589 160.147916,105.612375 161.319392,106.19 C161.529392,105.42 161.669392,104.62 161.669392,104.62 L160.229392,103.54 L158.729392,103.42 Z" id="Path" fill="#E0C5AC" fill-rule="nonzero" opacity="0.15" style="mix-blend-mode: multiply;"></path>
            <path d="M163.119392,104.91 C163.119392,104.91 158.899392,105.44 158.599392,102.84 C158.299392,100.24 157.599392,98.56 160.239392,98.11 C162.879392,97.66 163.569392,98.6 163.879392,99.44 C164.189392,100.28 164.219392,104.7 163.119392,104.91 Z" id="Path" fill="#E0C5AC" fill-rule="nonzero"></path>
            <path d="M157.269392,97.69 C157.175731,97.6241766 157.063866,97.5892186 156.949392,97.59 C157.064084,97.5317316 157.19075,97.5009208 157.319392,97.5 C157.358486,97.1073127 157.624864,96.7743399 157.999392,96.65 C157.843101,96.7397433 157.733595,96.8930516 157.699392,97.07 C158.269392,96.53 159.039392,96.07 162.249392,96.5 C166.479392,96.99 165.379392,99.7 164.819392,100.01 C164.259392,100.32 162.909392,99.37 161.889392,99.41 C160.869392,99.45 160.609392,100.92 160.249392,101.11 C159.889392,101.3 160.049392,100.95 159.589392,100.72 C159.129392,100.49 159.049392,101.27 159.169392,101.78 C159.289392,102.29 158.609392,102.93 158.609392,102.93 L157.989392,102.21 C157.275865,100.878717 156.992861,99.3588802 157.179392,97.86 L157.269392,97.69 Z" id="Path" fill="#001936" fill-rule="nonzero"></path>
            <path d="M154.369392,111.47 C154.369392,111.47 155.969392,114.36 158.489392,115.27 C161.009392,116.18 164.659392,117.81 165.839392,118.08 C167.019392,118.35 174.179392,117.75 174.179392,117.75 C174.307134,117.540516 174.353402,117.29138 174.309392,117.05 C174.292509,116.768608 174.175447,116.502556 173.979392,116.3 C173.979392,116.3 169.359392,115.4 167.149392,115.23 C166.229392,115.16 160.959392,110.23 160.489392,107.81 C160.309392,106.87 154.369392,111.47 154.369392,111.47 Z" id="Path" fill="#6ABF4B" fill-rule="nonzero"></path>
            <path d="M163.869392,119.69 C163.489392,115.08 162.609392,107.85 160.869392,107.07 C159.400487,106.487766 157.828943,106.208834 156.249392,106.25 C156.249392,106.25 153.779392,108.25 152.999392,114.36 C152.759392,116.25 152.499392,118.08 152.279392,119.69 L163.869392,119.69 Z" id="Path" fill="#6ABF4B" fill-rule="nonzero"></path>
            <path d="M176.059392,119.75 L178.889392,112.96 C179.036478,112.568036 178.852246,112.129389 178.469392,111.96 C178.074891,111.81951 177.638804,112.007028 177.469392,112.39 L174.389392,119.78 L176.059392,119.75 Z" id="Path" fill="#001936" fill-rule="nonzero"></path>
            <path d="M176.939392,119.75 L186.069392,119.75 L184.599392,115.23 C184.331196,114.407472 183.56454,113.850637 182.699392,113.85 L179.449392,113.85 C178.611001,113.854553 177.864437,114.38154 177.579392,115.17 L176.639392,117.78 C176.44831,118.308297 176.488231,118.892601 176.749392,119.39 L176.939392,119.75 Z" id="Path" fill="#001936" fill-rule="nonzero"></path>
            <path d="M183.859392,126.43 L183.859392,126.43 C182.116451,126.42451 180.704881,125.012941 180.699392,123.27 L180.699392,114.27 C180.704881,112.527059 182.116451,111.11549 183.859392,111.11 L183.859392,111.11 C185.582935,111.126176 186.977719,112.516517 186.999392,114.24 L186.999392,123.24 C187.010491,124.986883 185.606233,126.413503 183.859392,126.43 L183.859392,126.43 Z" id="Path" fill="#EBEDEF" fill-rule="nonzero"></path>
            <rect id="Rectangle" fill="#00B2E3" fill-rule="nonzero" opacity="0.3" style="mix-blend-mode: multiply;" x="19.2193918" y="83.92" width="114.13" height="55.44"></rect>
            <path d="M174.099392,117.54 C174.706441,117.717269 175.32943,117.834498 175.959392,117.89 C176.299392,117.89 177.269392,117.52 177.269392,116.89 C177.269392,116.52 176.509392,116.95 176.269392,116.78 C176.029392,116.61 176.839392,116.72 176.899392,116.6 C176.959392,116.48 176.299392,116.25 176.059392,116.15 C175.819392,116.05 174.969392,116.47 174.369392,116.5 C173.769392,116.53 174.099392,117.54 174.099392,117.54 Z" id="Path" fill="#E0C5AC" fill-rule="nonzero"></path>
            <rect id="Rectangle" fill="#001936" fill-rule="nonzero" x="211.689392" y="150.18" width="10.14" height="13.86" rx="4.43"></rect>
            <path d="M50.2193918,98.85 L48.1093918,98.85 C47.834038,98.8711757 47.6232678,99.1039011 47.6293918,99.38 L47.6293918,115.18 C47.6232678,115.456099 47.834038,115.688824 48.1093918,115.71 L50.2193918,115.71 C50.4947456,115.688824 50.7055157,115.456099 50.6993918,115.18 L50.6993918,99.38 C50.7055157,99.1039011 50.4947456,98.8711757 50.2193918,98.85 Z" id="Path" fill="#FFFFFF" fill-rule="nonzero"></path>
            <path d="M56.4093918,104.54 L54.2993918,104.54 C54.0215965,104.556136 53.8080113,104.791969 53.8193918,105.07 L53.8193918,115.18 C53.8181689,115.454247 54.0263651,115.68413 54.2993918,115.71 L56.4093918,115.71 C56.6863766,115.689037 56.9001839,115.457776 56.8993918,115.18 L56.8993918,105.07 C56.9048014,104.934712 56.8561923,104.802825 56.7642778,104.703407 C56.6723633,104.60399 56.5446881,104.545202 56.4093918,104.54 L56.4093918,104.54 Z" id="Path" fill="#FFFFFF" fill-rule="nonzero"></path>
            <path d="M55.3193918,98.84 C54.3418478,98.84 53.5493918,99.632456 53.5493918,100.61 C53.5493918,101.587544 54.3418478,102.38 55.3193918,102.38 C56.2969358,102.38 57.0893918,101.587544 57.0893918,100.61 C57.0893918,99.632456 56.2969358,98.84 55.3193918,98.84 Z" id="Path" fill="#FFFFFF" fill-rule="nonzero"></path>
            <path d="M100.309392,115.99 C102.694465,116.050951 104.879156,114.662236 105.83629,112.476788 C106.793424,110.29134 106.332564,107.743986 104.670393,106.032414 C103.008222,104.320843 100.475454,103.785597 98.2629187,104.678334 C96.0503838,105.57107 94.5982994,107.714165 94.5893918,110.1 C94.5613337,113.29848 97.1114615,115.924398 100.309392,115.99 L100.309392,115.99 Z M100.309392,107.28 C101.039699,107.295679 101.733512,107.602325 102.236725,108.131825 C102.739938,108.661325 103.010888,109.369841 102.989392,110.1 C103.076961,111.112745 102.586166,112.088355 101.720805,112.621713 C100.855445,113.155072 99.7633391,113.155072 98.8979784,112.621713 C98.0326178,112.088355 97.5418224,111.112745 97.6293918,110.1 C97.6051672,109.36909 97.8752068,108.65902 98.3789956,108.128914 C98.8827844,107.598808 99.5781963,107.292993 100.309392,107.28 L100.309392,107.28 Z" id="Shape" fill="#FFFFFF" fill-rule="nonzero"></path>
            <path d="M104.579392,121.54 C97.8598266,120.045391 90.9930177,119.314094 84.1093918,119.36 L84.1093918,110.13 C84.1053438,109.033006 84.7630414,108.041777 85.7753719,107.619168 C86.7877023,107.196559 87.954958,107.42594 88.7320874,108.200202 C89.5092168,108.974464 89.7429116,110.140863 89.3240478,111.154749 C88.905184,112.168635 87.9163929,112.829993 86.8193918,112.83 C86.0195597,112.89461 85.4033878,113.562563 85.4033878,114.365 C85.4033878,115.167437 86.0195597,115.83539 86.8193918,115.9 C90.0062975,115.877945 92.5740086,113.280466 92.5593305,110.093518 C92.5446524,106.90657 89.9531243,104.332853 86.7661506,104.340138 C83.5791769,104.347454 80.9994681,106.933018 80.9993918,110.12 L80.9993918,119.36 C74.4427978,119.376066 67.9075046,120.107054 61.5093918,121.54 C61.1090301,121.63657 60.764507,121.890467 60.5537232,122.244283 C60.3429395,122.598098 60.2836972,123.02195 60.3893918,123.42 C60.6447211,124.269478 61.5390426,124.752411 62.3893918,124.5 C69.1870354,123.015737 76.1322461,122.314506 83.0893918,122.41 C90.0467017,122.310716 96.9923448,123.011991 103.789392,124.5 C103.929004,124.514741 104.06978,124.514741 104.209392,124.5 C104.914386,124.506878 105.538626,124.045838 105.739392,123.37 C105.831625,122.973248 105.760757,122.556078 105.542679,122.212042 C105.324601,121.868006 104.977564,121.625893 104.579392,121.54 L104.579392,121.54 Z" id="Path" fill="#FFFFFF" fill-rule="nonzero"></path>
            <path d="M62.4793918,115.71 C62.6067342,115.704805 62.7267826,115.649179 62.8130723,115.555386 C62.899362,115.461593 62.9448081,115.337333 62.9393918,115.21 L62.9393918,110.12 L62.9393918,110.12 L62.9393918,110.12 C62.8335486,109.148484 63.2922497,108.201931 64.1203605,107.683011 C64.9484712,107.164091 66.0003124,107.164091 66.8284231,107.683011 C67.6565338,108.201931 68.115235,109.148484 68.0093918,110.12 L68.0093918,115.23 C68.0067118,115.357312 68.0547304,115.480471 68.1428783,115.57237 C68.2310263,115.664269 68.3520788,115.717375 68.4793918,115.72 L70.4793918,115.72 C70.7405695,115.70917 70.9450621,115.491341 70.9393918,115.23 L70.9393918,110.11 C70.8985493,109.40095 71.1429577,108.705011 71.6181773,108.177198 C72.0933969,107.649385 72.7599584,107.333535 73.4693918,107.3 C74.9317039,107.386019 76.0563746,108.626269 75.9993918,110.09 L75.9993918,110.09 L75.9993918,110.09 L75.9993918,110.09 L75.9993918,115.18 C75.9939755,115.307333 76.0394215,115.431593 76.1257113,115.525386 C76.212001,115.619179 76.3320494,115.674805 76.4593918,115.68 L78.4593918,115.68 C78.722137,115.663949 78.9252538,115.44317 78.9193918,115.18 L78.9193918,110.18 C78.9193918,110.18 78.9193918,110.18 78.9193918,110.11 L78.9193918,110.11 L78.9193918,110.11 C79.0045232,107.012173 76.5949526,104.415883 73.4993918,104.27 C71.949482,104.284982 70.4854033,104.984079 69.4993918,106.18 C68.5133803,104.984079 67.0493016,104.284982 65.4993918,104.27 C62.4252674,104.415647 60.0263426,106.983073 60.0893918,110.06 L60.0893918,110.06 L60.0893918,115.22 C60.0779903,115.481478 60.2781617,115.703891 60.5393918,115.72 L62.4793918,115.71 Z" id="Path" fill="#FFFFFF" fill-rule="nonzero"></path>
            <path d="M318.549392,70.89 C309.221302,70.89 301.659392,78.4519106 301.659392,87.78 C301.659392,97.1 318.549392,117.84 318.549392,117.84 C318.549392,117.84 335.429392,97.1 335.429392,87.78 C335.429392,78.4558144 327.873576,70.8955205 318.549392,70.89 L318.549392,70.89 Z M318.549392,95.5 C315.353233,95.5040458 312.469539,93.5818398 311.243618,90.6301346 C310.017696,87.6784295 310.691116,84.2788598 312.949712,82.0174017 C315.208307,79.7559435 318.607021,79.0782182 321.560277,80.3003999 C324.513532,81.5225815 326.439493,84.4038388 326.439493,87.6 C326.450029,89.7004003 325.623781,91.7185677 324.143253,93.2084778 C322.662725,94.6983879 320.649817,95.5373682 318.549392,95.54 L318.549392,95.5 Z" id="Shape" fill="#6ABF4B" fill-rule="nonzero"></path>
            <path d="M159.449392,61 C159.449392,27.33 194.449392,-7.10542736e-15 237.639392,-7.10542736e-15 C280.829392,-7.10542736e-15 315.839392,27.29 315.839392,61" id="Path" stroke="#6ABF4B" stroke-linecap="round" stroke-linejoin="round" stroke-dasharray="1"></path>
        </g>
    </g>
</svg>