<?xml version="1.0" standalone="no"?>
<!DOCTYPE svg PUBLIC "-//W3C//DTD SVG 20010904//EN"
 "http://www.w3.org/TR/2001/REC-SVG-20010904/DTD/svg10.dtd">
<svg version="1.0" xmlns="http://www.w3.org/2000/svg"
 width="1054.000000pt" height="1280.000000pt" viewBox="0 0 1054.000000 1280.000000"
 preserveAspectRatio="xMidYMid meet">
<metadata>
Created by potrace 1.15, written by Peter Selinger 2001-2017
</metadata>
<g transform="translate(0.000000,1280.000000) scale(0.100000,-0.100000)"
fill="#000000" stroke="none">
<path d="M3860 12794 c-14 -2 -59 -9 -100 -15 -138 -21 -188 -60 -291 -226
-80 -130 -192 -358 -222 -448 -56 -174 -47 -208 65 -250 176 -66 204 -84 177
-110 -8 -8 -59 -21 -114 -30 -147 -23 -276 -60 -374 -106 -81 -38 -90 -40
-152 -35 -75 7 -115 -4 -173 -46 -51 -36 -114 -55 -218 -63 -116 -9 -157 -21
-170 -49 -12 -29 -47 -46 -92 -46 -42 0 -91 -17 -136 -46 -19 -13 -69 -30
-110 -39 -107 -22 -243 -63 -324 -97 -38 -16 -101 -36 -140 -44 -39 -9 -90
-26 -113 -40 -70 -41 -193 -141 -296 -243 -84 -82 -105 -109 -146 -192 -27
-53 -125 -228 -218 -390 -218 -378 -269 -471 -391 -714 -170 -340 -274 -600
-308 -767 -42 -207 44 -509 182 -637 65 -60 66 -74 29 -226 -33 -133 -33 -191
1 -241 83 -125 266 -250 634 -434 290 -145 431 -232 565 -349 44 -39 96 -79
116 -91 l37 -20 53 43 c30 24 111 105 181 180 93 100 128 131 132 119 3 -9 19
-75 36 -145 52 -213 135 -427 278 -712 131 -263 222 -409 343 -549 77 -90 95
-148 109 -344 10 -156 27 -236 62 -305 30 -59 34 -219 14 -527 -9 -135 -23
-360 -31 -500 -24 -407 -41 -517 -94 -596 -16 -25 -35 -71 -42 -102 -16 -79
-62 -197 -159 -401 -117 -249 -286 -638 -332 -766 -50 -140 -91 -311 -118
-492 -23 -160 -49 -267 -86 -357 -37 -91 -54 -166 -64 -283 -12 -134 -24 -171
-57 -179 -61 -16 -45 -117 28 -175 39 -31 70 -80 82 -130 15 -59 69 -100 187
-141 76 -26 127 -62 143 -101 10 -22 30 -41 63 -59 139 -75 430 -148 594 -148
80 0 89 2 115 26 30 28 42 27 150 -6 125 -39 171 -43 620 -45 460 -2 540 -7
590 -34 25 -13 58 -15 205 -12 393 10 451 8 500 -16 117 -57 739 -56 1059 3
166 30 328 97 458 188 44 31 83 56 86 56 3 0 34 -35 70 -78 88 -107 111 -117
246 -108 137 8 270 38 350 78 52 26 77 33 126 33 53 0 70 5 116 34 124 78 138
84 214 86 86 3 148 22 270 82 181 90 316 193 389 297 60 86 88 158 94 243 4
64 2 78 -22 122 -30 58 -58 157 -81 286 -30 170 -64 234 -146 275 -108 56
-145 162 -234 670 -68 391 -91 477 -204 763 -169 429 -188 508 -201 802 -9
216 -21 290 -52 345 -40 70 -49 148 -58 550 -5 212 -9 437 -9 501 l-1 115 121
104 c183 158 300 315 421 567 108 226 162 400 209 671 49 288 72 342 143 342
52 0 119 -51 310 -239 100 -97 195 -186 212 -198 61 -43 75 -41 192 30 59 35
202 115 317 177 550 295 1004 574 1051 645 25 38 13 73 -85 253 -114 208 -128
242 -111 282 7 16 16 30 21 30 5 0 21 19 36 42 24 35 28 52 28 107 l0 66 35 0
c31 0 35 3 38 27 19 165 -296 977 -633 1633 -142 277 -239 487 -272 588 -33
103 -99 199 -231 338 -160 168 -200 190 -374 209 -265 29 -1007 260 -1627 507
-186 74 -222 86 -287 89 -68 3 -251 36 -297 53 -12 5 13 13 76 25 196 37 206
70 126 424 -53 234 -104 352 -193 449 -81 89 -148 120 -331 152 l-100 18 -6
-326 c-4 -179 -12 -362 -19 -406 -26 -174 -71 -258 -183 -342 -84 -64 -147
-130 -226 -238 -214 -290 -469 -740 -776 -1368 -88 -180 -162 -327 -165 -327
-14 1 -285 871 -299 957 -36 231 -274 703 -469 928 -97 113 -170 224 -199 305
-38 107 -37 248 5 505 33 199 42 302 29 323 -8 11 -113 15 -177 6z"/>
</g>
</svg>
