<svg xmlns="http://www.w3.org/2000/svg" viewBox="0 0 42.96 40.38"><defs><style>.cls-1{fill:#daf0f9;}.cls-2{fill:#00b2e3;}</style></defs><g id="Layer_2" data-name="Layer 2"><g id="Capa_1" data-name="Capa 1"><path class="cls-1" d="M18.42,9.23C11.21,7.55,2.59,9.78.4,21.38S5,38.57,18.14,38.71,45,36.25,42.71,25.88s-9.56-10.1-13.1-9.55S24.28,10.59,18.42,9.23Z"/><path class="cls-2" d="M42.73,34.77,34.84,5.42l-7-1.73a1.67,1.67,0,0,1-1.1-.89L25.84.94A1.63,1.63,0,0,0,24.36,0H18.79A1.63,1.63,0,0,0,17.3.94L16.41,2.8a1.63,1.63,0,0,1-1.09.89l-7,1.73-8,29.23H6.68l5.69-17.4L10.54,39.5a51.61,51.61,0,0,0,11,.88,53.31,53.31,0,0,0,11-.88L30.77,17.25l5.54,17.52Z"/></g></g></svg>