<svg xmlns="http://www.w3.org/2000/svg" viewBox="0 0 42.96 38.71"><defs><style>.cls-1{fill:#daf0f9;}.cls-2{fill:#00b2e3;}</style></defs><g id="Layer_2" data-name="Layer 2"><g id="Capa_1" data-name="Capa 1"><path class="cls-1" d="M18.42,7C11.21,5.31,2.59,7.53.4,19.13S5,36.32,18.14,36.46,45,34,42.71,23.63s-9.56-10.1-13.1-9.55S24.28,8.35,18.42,7Z"/><path class="cls-2" d="M18.8,1.91v-1A.88.88,0,0,0,18,.06C17.81,0,12.27-.75,7.7,4.74c-4.25,5.1-4.58,5.51-4.6,5.52a.91.91,0,0,0,0,1.16l4.73,5.23a.89.89,0,0,0,1,.22l.68-.31V37.82a.89.89,0,0,0,.89.89H33a.89.89,0,0,0,.89-.89h0V16.57l.68.3a.89.89,0,0,0,1-.22l4.73-5.23a.89.89,0,0,0,0-1.16S40,9.84,35.71,4.74C31.14-.75,25.6,0,25.37.06a.88.88,0,0,0-.76.88v1a7.46,7.46,0,0,1-.12,1.79c-.24.88-.93,1.79-2.79,1.79A2.78,2.78,0,0,1,19.13,3.7,5.24,5.24,0,0,1,18.8,1.91Z"/></g></g></svg>