<?xml version="1.0" encoding="UTF-8"?>
<svg width="44px" height="41px" viewBox="0 0 44 41" version="1.1" xmlns="http://www.w3.org/2000/svg" xmlns:xlink="http://www.w3.org/1999/xlink">
    <title>Untitled</title>
    <g id="Page-1" stroke="none" stroke-width="1" fill="none" fill-rule="evenodd">
        <g id="chaqueta_seda" transform="translate(0.994534, 0.999340)" fill-rule="nonzero">
            <path d="M18.425466,9.08065986 C11.215466,7.40065986 2.59546598,9.62065986 0.405465982,21.2206599 C-1.78453402,32.8206599 5.00546598,38.4206599 18.145466,38.5606599 C31.285466,38.7006599 45.005466,36.1006599 42.715466,25.7306599 C40.425466,15.3606599 33.155466,15.6306599 29.615466,16.1806599 C26.075466,16.7306599 24.285466,10.4406599 18.425466,9.08065986 Z" id="Path" fill="#DAF0F9"></path>
            <path d="M40.905466,18.6806599 L38.005466,5.87065986 C37.8059073,5.09451252 37.3153459,4.42491412 36.635466,4.00065986 L29.505466,0.190659857 C29.2732588,0.0615702136 29.0111028,-0.00396878324 28.745466,0.00031225389 C28.2493887,-0.00565129927 27.7736877,0.197701779 27.435466,0.560659857 L25.555466,2.74065986 C25.0557119,3.35872813 24.6819956,4.06878922 24.455466,4.83065986 L21.515466,16.3506599 L18.515466,3.87065986 C18.2960948,3.1063941 17.8746228,2.41545636 17.295466,1.87065986 L15.635466,0.430659857 C15.2929018,0.146757239 14.8603372,-0.00570405978 14.415466,0.00031225389 C14.0925271,-0.00577681055 13.7741073,0.0772892412 13.495466,0.240659857 L7.27546598,4.00065986 C6.6144049,4.44064 6.11838969,5.08792227 5.86546598,5.84065986 L2.15546598,18.6806599 C1.96827599,19.4403338 1.94441721,20.2310821 2.08546598,21.0006599 L4.81546598,32.7006599 C4.90957056,33.2827979 5.41581927,33.708217 6.00546598,33.7006599 C6.16967115,33.7007765 6.33245662,33.6702542 6.48546598,33.6106599 L8.73546598,32.7106599 L8.85546598,32.6606599 L8.31546598,37.7306599 C8.27280942,38.0928263 8.3854327,38.4561272 8.62546598,38.7306599 C8.87840141,39.0143056 9.2458502,39.1686341 9.62546598,39.1506599 L17.885466,39.1506599 C18.6628706,39.1162325 19.3312648,38.5887649 19.545466,37.8406599 L21.545466,29.4006599 L23.545466,37.8406599 C23.757804,38.5884825 24.4285473,39.1137633 25.205466,39.1406599 L33.465466,39.1406599 C33.8437096,39.1626078 34.2114949,39.0118158 34.465466,38.7306599 C34.7054993,38.4561272 34.8181225,38.0928263 34.775466,37.7306599 L34.235466,32.6606599 L34.355466,32.7106599 L36.595466,33.6106599 C36.751926,33.6703552 36.9180048,33.7008594 37.085466,33.7006599 L37.085466,33.7006599 C37.6660273,33.6942596 38.1587352,33.2731418 38.255466,32.7006599 L40.895466,21.0006599 C41.043796,20.2347509 41.047188,19.447819 40.905466,18.6806599 Z M10.005466,21.1306599 C10.005466,21.7606599 9.90546598,22.7906599 9.83546598,23.4206599 L9.29546598,28.5206599 L7.82546598,21.0006599 C7.72680788,20.2761596 7.7882514,19.5388374 8.00546598,18.8406599 L10.325466,12.0006599 L10.005466,21.1306599 Z M21.435466,26.8706599 C20.8804459,26.8706451 20.3802732,26.5357629 20.1688225,26.0226003 C19.9573718,25.5094376 20.0764277,24.9193999 20.4703211,24.5283816 C20.8642146,24.1373633 21.4551086,24.0226332 21.9667085,24.2378375 C22.4783083,24.4530419 22.8095172,24.9556545 22.805466,25.5106599 C22.805555,25.8766128 22.6581589,26.2271594 22.3965838,26.4830891 C22.1350086,26.7390187 21.7813299,26.8787324 21.415466,26.8706599 L21.435466,26.8706599 Z M21.435466,20.7406599 C20.8804459,20.7406451 20.3802732,20.4057629 20.1688225,19.8926003 C19.9573718,19.3794376 20.0764277,18.7893999 20.4703211,18.3983816 C20.8642146,18.0073633 21.4551086,17.8926332 21.9667085,18.1078375 C22.4783083,18.3230419 22.8095172,18.8256545 22.805466,19.3806599 C22.805555,19.7466128 22.6581589,20.0971594 22.3965838,20.3530891 C22.1350086,20.6090187 21.7813299,20.7487324 21.415466,20.7406599 L21.435466,20.7406599 Z M35.155466,21.0006599 L33.715466,28.5706599 L33.165466,23.4706599 C33.105466,22.8406599 33.025466,21.8106599 33.005466,21.1806599 L32.665466,12.0006599 L35.005466,18.8406599 C35.2172557,19.5402198 35.268528,20.2785408 35.155466,21.0006599 Z" id="Shape" fill="#00B2E3"></path>
        </g>
    </g>
</svg>