<?xml version="1.0" encoding="UTF-8"?>
<svg width="700px" height="282px" viewBox="0 0 700 282" version="1.1" xmlns="http://www.w3.org/2000/svg" xmlns:xlink="http://www.w3.org/1999/xlink">
    <title>Slice 1</title>
    <g id="Page-1" stroke="none" stroke-width="1" fill="none" fill-rule="evenodd">
        <g id="branding" fill-rule="nonzero">
            <g id="Group" fill="#DAF0F9">
                <rect id="Rectangle" x="0" y="0" width="700" height="282"></rect>
            </g>
            <g id="Group" transform="translate(65.300000, 38.700000)">
                <path d="M367.5,204.8 C341,204.3 321.4,179.3 327.8,153.6 C327.9,153.2 328,152.7 328.1,152.3 C336.6,121.4 369.1,134.5 386.7,103.2 C404.2,71.9 473.4,54.3 501.7,95.7 C530,137 571.2,129.8 575.8,159.3 C580.4,188.8 563.7,208.5 510.8,207.6 C472.8,206.9 403.7,205.6 367.5,204.8 Z" id="XMLID_120_" fill="#BDE6F5"></path>
                <path d="M341,195.7 L544,195.7 C545.5,195.7 546.7,194.5 546.7,193 L546.7,193 C546.7,191.5 545.5,190.3 544,190.3 L341,190.3 C339.5,190.3 338.3,191.5 338.3,193 L338.3,193 C338.3,194.5 339.5,195.7 341,195.7 Z" id="XMLID_119_" fill="#051934"></path>
                <polygon id="XMLID_118_" fill="#051934" points="337.3 170.3 544.6 165.9 544.6 193.9 337.3 193.9"></polygon>
                <g id="XMLID_96_" transform="translate(419.386796, 106.200000)" fill="#00B2E3">
                    <path d="M4.413204,-2.84217094e-14 L125.213204,-2.84217094e-14 C127.713204,-2.84217094e-14 129.813204,2 129.813204,4.5 L129.813204,82.3 C129.813204,84.8 127.813204,86.8 125.213204,86.8 L120.013204,86.8 C117.913204,86.8 116.113204,85.4 115.613204,83.4 C113.113204,73.8 104.713204,66.8 94.913204,66.8 C85.013204,66.8 76.713204,73.8 74.213204,83.4 C73.713204,85.4 71.913204,86.8 69.813204,86.8 L4.613204,86.8 C2.113204,86.8 0.0132040027,84.8 0.0132040027,82.3 L0.0132040027,4.5 C-0.186795997,2 1.913204,-2.84217094e-14 4.413204,-2.84217094e-14 Z" id="XMLID_117_"></path>
                </g>
                <path d="M416.9,116.3 L386,116.3 C384.1,116.3 382.4,117.3 381.5,118.9 L364.6,147.4 C364.2,148 363.8,148.5 363.2,148.9 L339.4,166.3 C338.1,167.3 337.3,168.8 337.3,170.4 L337.3,184.3 L347,184.3 C347,184.3 352.7,172.2 368.3,172.2 C383.9,172.2 389.9,186.7 390.8,192.8 L416.9,192.8 L416.9,116.3 L416.9,116.3 Z" id="XMLID_51_" fill="#FDFFFD"></path>
                <path d="M387.4,121.8 L408.9,121.8 C409.8,121.8 410.5,122.5 410.5,123.4 L410.5,148.4 C410.5,149.3 409.8,150 408.9,150 L373.7,150 C372.5,150 371.7,148.7 372.3,147.7 L386,122.7 C386.3,122.1 386.8,121.8 387.4,121.8 Z" id="XMLID_50_" fill="#BDE6F5"></path>
                <path d="M337.3,169.7 L416.9,169.7 L416.9,192.7 L390.8,192.7 C390.8,192.7 386.7,172.3 368.3,172.3 C368.3,172.3 353.9,171.6 347,184.3 L337.3,184.3 L337.3,169.7 Z" id="XMLID_49_" fill="#ECEEF0"></path>
                <circle id="XMLID_48_" fill="#051934" transform="translate(367.493380, 192.690940) rotate(-13.114865) translate(-367.493380, -192.690940) " cx="367.49338" cy="192.69094" r="16.8997027"></circle>
                <circle id="XMLID_46_" fill="#051934" transform="translate(513.603030, 192.694550) rotate(-45.000000) translate(-513.603030, -192.694550) " cx="513.60303" cy="192.69455" r="16.8998379"></circle>
                <circle id="XMLID_45_" fill="#C1E7F6" cx="513.6" cy="192.7" r="9.8"></circle>
                <circle id="XMLID_43_" fill="#C1E7F6" cx="367.5" cy="192.7" r="9.8"></circle>
                <path d="M544.6,195.7 L548.7,195.7 C551.4,195.7 553.5,193.5 553.5,190.9 L553.5,186.3 C553.5,183.6 551.3,181.5 548.7,181.5 L544.6,181.5 C541.9,181.5 539.8,183.7 539.8,186.3 L539.8,190.9 C539.8,193.6 542,195.7 544.6,195.7 Z" id="XMLID_42_" fill="#051934"></path>
                <path d="M401,150 L410.5,150 L410.5,138.8 C410.5,136.3 408.4,134.2 405.8,134.2 L405.8,134.2 C403.2,134.2 401.1,136.3 401.1,138.8 L401.1,145.2 L401.1,150 L401,150 Z" id="XMLID_41_" fill="#051934"></path>
                <path d="M464.4,83.8 L438.2,83.8 C438.2,83.8 437.3,75 443.6,73.2 C449.9,71.3 451.2,75 451.2,75 C451.2,75 452.6,67.4 461.4,68.2 C470.2,68.9 470.2,77.1 470.2,77.1 C470.2,77.1 477.8,76 478.7,83.9 L464.4,83.9 L464.4,83.8 Z" id="XMLID_40_" fill="#77CFED"></path>
                <path d="M570.4,150.7 L554.4,150.7 C554.4,150.7 553.9,145.3 557.7,144.2 C561.5,143.1 562.4,145.3 562.4,145.3 C562.4,145.3 563.2,140.7 568.6,141.1 C574,141.5 574,146.5 574,146.5 C574,146.5 578.6,145.8 579.2,150.6 L570.4,150.6 L570.4,150.7 Z" id="XMLID_39_" fill="#77CFED"></path>
                <path d="M354.9,139.2 L335.7,139.2 C335.7,139.2 335.1,132.7 339.7,131.4 C344.3,130 345.3,132.7 345.3,132.7 C345.3,132.7 346.3,127.1 352.8,127.7 C359.3,128.2 359.3,134.2 359.3,134.2 C359.3,134.2 364.9,133.4 365.6,139.2 L354.9,139.2 Z" id="XMLID_38_" fill="#77CFED"></path>
                <path d="M382.7,144.5 C382.7,144.5 381.1,144.6 380.7,144.4 C380.4,144.3 379.5,143.7 379.6,143.1 C379.7,142.7 380.4,143.3 380.6,143.2 C380.9,143.1 380,143 380,142.9 C380,142.8 380.7,142.7 381,142.6 C381.3,142.6 382,143.2 382.6,143.3 C383.3,143.6 382.7,144.5 382.7,144.5 Z" id="Path" fill="#E0C5AC"></path>
                <path d="M404,142.8 C404,142.8 401.7,145.4 399,145.7 C396.3,146 392.2,146.9 391,146.9 C389.8,146.9 382.7,144.7 382.7,144.7 C382.7,144.7 382.6,144.5 382.7,144 C382.8,143.5 383.2,143.3 383.2,143.3 C383.2,143.3 388,143.4 390.3,143.7 C391.2,143.8 397.6,140 398.7,137.7 C399,136.8 404,142.8 404,142.8 Z" id="Path" fill="#71A850"></path>
                <path d="M402.3,136.6 C402.3,136.6 400,138 397.5,137.6 C397.5,137.6 397,137.5 397.3,136.9 C397.1,136.4 397.2,136.5 397.1,136.1 C396.9,135.3 396.8,134.8 396.8,134.8 L398.2,133.3 L399.5,131.9 C399.9,135.3 402.3,136.6 402.3,136.6 Z" id="Path" fill="#E0C5AC"></path>
                <path d="M399.8,133.2 C399.8,133.2 399,135.2 397.1,136.1 C396.9,135.3 396.7,134.5 396.7,134.5 L398.2,133.4 L399.8,133.2 Z" id="Path" fill="#E0C5AC" opacity="0.15"></path>
                <path d="M395.2,134.8 C395.2,134.8 399.6,135.3 399.9,132.7 C400.2,130 401,128.3 398.2,127.8 C395.4,127.3 394.8,128.3 394.5,129.2 C394.1,130 394.1,134.6 395.2,134.8 Z" id="Path" fill="#E0C5AC"></path>
                <path d="M401.3,127.3 C401.3,127.3 401.4,127.2 401.6,127.2 C401.6,127.2 401.4,127.1 401.2,127.1 C401.1,126.8 401,126.3 400.5,126.2 C400.5,126.2 400.8,126.3 400.8,126.6 C400.2,126 399.4,125.6 396.1,126 C391.7,126.5 392.9,129.3 393.4,129.6 C394,129.9 395.4,128.9 396.4,129 C397.5,129 397.7,130.6 398.1,130.8 C398.5,131 398.3,130.6 398.8,130.4 C399.3,130.2 399.4,131 399.2,131.5 C399.1,132 399.8,132.7 399.8,132.7 C399.8,132.7 399.8,132.7 400.4,132 C401,131.3 401.6,128.2 401.2,127.5 C401.3,127.4 401.3,127.4 401.3,127.3 Z" id="Path" fill="#051934"></path>
                <path d="M404.2,141.5 C404.2,141.5 402.5,144.5 400,145.4 C397.4,146.3 393.6,148 392.4,148.3 C391.2,148.6 383.8,148 383.8,148 C383.8,148 383.6,147.8 383.7,147.3 C383.7,146.8 384,146.5 384,146.5 C384,146.5 388.8,145.6 391,145.4 C391.9,145.3 397.4,140.2 397.9,137.7 C398.1,136.8 404.2,141.5 404.2,141.5 Z" id="Path" fill="#6ABF4B"></path>
                <path d="M394.5,150 C394.9,145.2 395.8,137.8 397.6,137 C399.8,136 402.4,136.2 402.4,136.2 C402.4,136.2 404.9,138.3 405.8,144.6 C406.1,146.6 406.3,148.4 406.5,150.1 L394.5,150.1 L394.5,150 Z" id="Path" fill="#6ABF4B"></path>
                <path d="M381.9,150.1 L379,143.1 C378.8,142.7 379,142.2 379.4,142 C379.8,141.8 380.3,142 380.5,142.4 L383.7,150 L381.9,150 L381.9,150.1 Z" id="Path" fill="#051934"></path>
                <path d="M381,150.1 L371.6,150.1 L373.1,145.4 C373.4,144.6 374.2,144 375.1,144 L378.4,144 C379.3,144 380,144.5 380.3,145.4 L381.3,148.1 C381.5,148.6 381.5,149.2 381.2,149.8 L381,150.1 Z" id="Path" fill="#051934"></path>
                <path d="M373.8,156.9 L373.8,156.9 C375.6,156.9 377.1,155.4 377.1,153.6 L377.1,144.3 C377.1,142.5 375.6,141 373.8,141 L373.8,141 C372,141 370.5,142.5 370.5,144.3 L370.5,153.6 C370.6,155.5 372.1,156.9 373.8,156.9 Z" id="XMLID_37_" fill="#ECEEF0"></path>
                <rect id="XMLID_16_" fill="#00B2E3" opacity="0.3" transform="translate(484.741400, 141.765200) rotate(-180.000000) translate(-484.741400, -141.765200) " x="425.8914" y="113.2152" width="117.7" height="57.1"></rect>
                <path d="M383.9,147.8 C383.9,147.8 382.3,148.2 382,148.2 C381.6,148.1 380.6,147.8 380.6,147.2 C380.6,146.8 381.4,147.3 381.6,147.1 C381.8,146.9 381,147 380.9,146.9 C380.8,146.8 381.5,146.5 381.8,146.4 C382,146.3 382.9,146.7 383.5,146.8 C384.2,146.8 383.9,147.8 383.9,147.8 Z" id="Path" fill="#E0C5AC"></path>
                <path d="M334.8,193 L334.8,193 C333.7,193 332.8,192.1 332.8,191 L332.8,186.2 C332.8,185.1 333.7,184.2 334.8,184.2 L334.8,184.2 C335.9,184.2 336.8,185.1 336.8,186.2 L336.8,191 C336.8,192.1 335.9,193 334.8,193 Z" id="Path" fill="#FFFFFF"></path>
                <path d="M339.5,195.7 L340.3,195.7 C343,195.7 345.1,193.5 345.1,190.9 L345.1,186.3 C345.1,183.6 342.9,181.5 340.3,181.5 L339.5,181.5 C336.8,181.5 334.7,183.7 334.7,186.3 L334.7,190.9 C334.7,193.6 336.9,195.7 339.5,195.7 Z" id="XMLID_15_" fill="#051934"></path>
                <g transform="translate(454.100000, 128.500000)" fill="#FFFFFF">
                    <path d="M2.7,0 L0.5,0 C0.2,0 0,0.3 0,0.5 L0,16.8 C0,17.1 0.2,17.3 0.5,17.3 L2.7,17.3 C3,17.3 3.2,17 3.2,16.8 L3.2,0.5 C3.2,0.3 2.9,0 2.7,0 Z" id="Path"></path>
                    <path d="M9,5.9 L6.8,5.9 C6.5,5.9 6.3,6.1 6.3,6.4 L6.3,16.8 C6.3,17.1 6.5,17.3 6.8,17.3 L9,17.3 C9.3,17.3 9.5,17 9.5,16.8 L9.5,6.4 C9.5,6.1 9.3,5.9 9,5.9 Z" id="Path"></path>
                    <path d="M7.9,0 C6.9,0 6.1,0.8 6.1,1.8 C6.1,2.8 6.9,3.6 7.9,3.6 C8.9,3.6 9.8,2.8 9.8,1.8 C9.8,0.8 8.9,0 7.9,0 Z" id="Path"></path>
                    <path d="M54.3,17.7 C57.6,17.7 60.2,14.9 60.2,11.6 C60.2,8.3 57.6,5.6 54.3,5.6 C51,5.6 48.4,8.4 48.4,11.6 C48.4,14.9 51,17.7 54.3,17.7 Z M54.3,8.7 C55.8,8.7 57.1,10 57.1,11.6 C57.1,13.2 55.9,14.6 54.3,14.6 C52.7,14.6 51.5,13.3 51.5,11.6 C51.5,10 52.7,8.7 54.3,8.7 Z" id="Shape"></path>
                    <path d="M58.7,23.4 C58.4,23.3 50.4,21.3 37.6,21.2 L37.6,11.7 C37.6,10.2 38.9,8.9 40.4,8.9 C41.9,8.9 43.2,10.2 43.2,11.7 C43.2,12.8 42.5,13.8 41.5,14.3 C41.2,14.4 40.8,14.5 40.4,14.5 C39.5,14.5 38.8,15.2 38.8,16.1 C38.8,17 39.5,17.7 40.4,17.7 C41.2,17.7 42,17.5 42.7,17.2 C44.9,16.3 46.3,14.1 46.3,11.7 C46.3,8.4 43.6,5.7 40.3,5.7 C37,5.7 34.3,8.4 34.3,11.7 L34.3,21.2 C22.1,21.4 14.5,23.3 14.2,23.4 C13.3,23.6 12.8,24.5 13,25.3 C13.2,26.1 14.1,26.6 15,26.4 C15.1,26.4 23.4,24.3 36.3,24.3 C49.2,24.3 57.5,26.4 57.6,26.4 C57.7,26.4 57.9,26.5 58,26.5 C58.7,26.5 59.4,26 59.6,25.3 C60.1,24.5 59.6,23.6 58.7,23.4 Z" id="Path"></path>
                    <path d="M15.3,17.4 C15.6,17.4 15.8,17.2 15.8,16.9 L15.8,11.7 C15.8,11.7 15.8,11.7 15.8,11.6 L15.8,11.6 C15.8,11.6 15.8,11.6 15.8,11.6 C15.8,10 16.9,8.7 18.4,8.7 C19.8,8.7 21,10 21,11.6 L21,16.9 C21,17.2 21.2,17.4 21.5,17.4 L23.5,17.4 C23.8,17.4 24,17.2 24,16.9 L24,11.8 C24,11.8 24,11.7 24,11.7 C24,10.1 25.1,8.8 26.6,8.8 C28,8.8 29.2,10.1 29.2,11.7 L29.2,11.7 C29.2,11.7 29.2,11.7 29.2,11.7 L29.2,11.7 L29.2,16.9 C29.2,17.2 29.4,17.4 29.7,17.4 L31.7,17.4 C32,17.4 32.2,17.2 32.2,16.9 L32.2,11.7 C32.2,11.7 32.2,11.7 32.2,11.6 L32.2,11.6 C32.2,11.6 32.2,11.6 32.2,11.6 C32.2,8.3 29.7,5.6 26.6,5.6 C25,5.6 23.5,6.4 22.5,7.6 C21.5,6.4 20,5.6 18.4,5.6 C15.3,5.6 12.8,8.3 12.8,11.6 L12.8,11.6 L12.8,16.9 C12.8,17.2 13,17.4 13.3,17.4 L15.3,17.4 L15.3,17.4 Z" id="Path"></path>
                </g>
                <path d="M516.2,42.5 C507.5,42.5 500.5,49.5 500.5,58.2 C500.5,66.9 516.2,86.2 516.2,86.2 C516.2,86.2 531.9,66.9 531.9,58.2 C531.9,49.5 524.9,42.5 516.2,42.5 Z M516.2,65.4 C512.1,65.4 508.8,62.1 508.8,58 C508.8,53.9 512.1,50.6 516.2,50.6 C520.3,50.6 523.6,53.9 523.6,58 C523.5,62.1 520.2,65.4 516.2,65.4 Z" id="Shape" fill="#6ABF4B"></path>
                <g transform="translate(0.000000, 0.000000)">
                    <polygon id="Path" fill="#051934" points="14.6 22.2 0.9 22.2 0.9 1.1 5.3 1.1 5.3 18.6 14.5 18.6 14.5 22.2"></polygon>
                    <path d="M16.5,17.6 C16.5,14.7 18.7,13 22.9,12.8 L26.9,12.6 L26.9,11.5 C26.9,9.9 25.8,9.1 24.1,9.1 C22.5,9.1 21.5,9.9 21.3,11.1 L17.4,11.1 C17.5,8 20.3,5.9 24.3,5.9 C28.4,5.9 31.2,8 31.2,11.2 L31.2,22.3 L27.1,22.3 L27.1,19.8 L27,19.8 C26.1,21.5 24.1,22.5 22.1,22.5 C18.9,22.4 16.5,20.4 16.5,17.6 Z M26.9,16.3 L26.9,15.1 L23.5,15.3 C21.7,15.4 20.8,16.1 20.8,17.3 C20.8,18.5 21.8,19.2 23.4,19.2 C25.3,19.3 26.9,18 26.9,16.3 Z" id="Shape" fill="#051934"></path>
                    <polygon id="Path" fill="#051934" points="43.3 22.2 38.5 22.2 32.9 6.1 37.5 6.1 40.9 18.4 41 18.4 44.4 6.1 48.9 6.1"></polygon>
                    <path d="M49.7,17.6 C49.7,14.7 51.9,13 56.1,12.8 L60.1,12.6 L60.1,11.5 C60.1,9.9 59,9.1 57.3,9.1 C55.7,9.1 54.7,9.9 54.5,11.1 L50.6,11.1 C50.7,8 53.5,5.9 57.5,5.9 C61.6,5.9 64.4,8 64.4,11.2 L64.4,22.3 L60.3,22.3 L60.3,19.8 L60.2,19.8 C59.3,21.5 57.3,22.5 55.3,22.5 C52,22.4 49.7,20.4 49.7,17.6 Z M60.1,16.3 L60.1,15.1 L56.7,15.3 C54.9,15.4 54,16.1 54,17.3 C54,18.5 55,19.2 56.6,19.2 C58.5,19.3 60.1,18 60.1,16.3 Z" id="Shape" fill="#051934"></path>
                    <path d="M66.8,14.1 C66.8,9 69.4,5.9 73.4,5.9 C75.7,5.9 77.5,7.1 78.3,8.8 L78.4,8.8 L78.4,0 L82.7,0 L82.7,22.1 L78.5,22.1 L78.5,19.3 L78.4,19.3 C77.6,21.1 75.7,22.2 73.4,22.2 C69.4,22.4 66.8,19.2 66.8,14.1 Z M71.2,14.1 C71.2,17.1 72.6,18.9 74.8,18.9 C77,18.9 78.4,17 78.4,14.1 C78.4,11.2 77,9.3 74.8,9.3 C72.6,9.3 71.2,11.2 71.2,14.1 Z" id="Shape" fill="#051934"></path>
                    <path d="M85.4,14.1 C85.4,8.9 88.5,5.8 93.4,5.8 C98.3,5.8 101.4,9 101.4,14.1 C101.4,19.3 98.3,22.4 93.4,22.4 C88.5,22.4 85.4,19.4 85.4,14.1 Z M97,14.1 C97,10.9 95.6,9 93.4,9 C91.1,9 89.8,10.9 89.8,14.1 C89.8,17.3 91.2,19.2 93.4,19.2 C95.6,19.2 97,17.3 97,14.1 Z" id="Shape" fill="#051934"></path>
                    <path d="M111.1,28 L111.1,24.7 C111.2,24.7 111.9,24.7 112.1,24.7 C113.7,24.7 114.6,24.1 115,22.9 L115.1,22.3 L109.4,6.1 L114.1,6.1 L117.6,18.8 L117.7,18.8 L121.2,6.1 L125.7,6.1 L120.1,22.6 C118.7,26.7 116.7,28.2 112.7,28.2 C112.6,28.1 111.3,28.1 111.1,28 Z" id="Path" fill="#051934"></path>
                    <path d="M16.5,52.1 C16.5,57.2 14,60.4 9.9,60.4 C7.6,60.4 5.8,59.3 4.9,57.5 L4.8,57.5 L4.8,65.5 L0.5,65.5 L0.5,44.1 L4.7,44.1 L4.7,46.9 L4.8,46.9 C5.6,45.1 7.5,44 9.8,44 C14,43.9 16.5,47 16.5,52.1 Z M12.2,52.1 C12.2,49.2 10.7,47.3 8.5,47.3 C6.3,47.3 4.9,49.2 4.9,52.1 C4.9,55 6.4,56.9 8.5,56.9 C10.7,56.9 12.2,55.1 12.2,52.1 Z" id="Shape" fill="#051934"></path>
                    <polygon id="Path" fill="#051934" points="19.2 38.1 23.5 38.1 23.5 60.2 19.2 60.2"></polygon>
                    <path d="M26.2,55.6 C26.2,52.7 28.4,51 32.6,50.8 L36.6,50.6 L36.6,49.5 C36.6,47.9 35.5,47.1 33.8,47.1 C32.2,47.1 31.2,47.9 31,49.1 L27.1,49.1 C27.2,46 30,43.9 34,43.9 C38.1,43.9 40.9,46 40.9,49.2 L40.9,60.3 L36.8,60.3 L36.8,57.8 L36.7,57.8 C35.8,59.5 33.8,60.5 31.8,60.5 C28.5,60.4 26.2,58.4 26.2,55.6 Z M36.5,54.3 L36.5,53.1 L33.2,53.3 C31.4,53.4 30.5,54.1 30.5,55.3 C30.5,56.5 31.5,57.2 33.1,57.2 C35,57.3 36.5,56 36.5,54.3 Z" id="Shape" fill="#051934"></path>
                    <path d="M43.9,44.1 L48,44.1 L48,47 L48.1,47 C49,45 50.7,43.9 53.1,43.9 C56.7,43.9 58.7,46.2 58.7,49.9 L58.7,60.2 L54.4,60.2 L54.4,50.8 C54.4,48.7 53.4,47.4 51.4,47.4 C49.3,47.4 48.1,48.9 48.1,51 L48.1,60.2 L43.8,60.2 L43.8,44.1 L43.9,44.1 Z" id="Path" fill="#051934"></path>
                    <path d="M72.5,50 C72.3,48.3 71.1,47.1 69.2,47.1 C67,47.1 65.6,49 65.6,52.1 C65.6,55.2 67,57.1 69.2,57.1 C71,57.1 72.2,56.1 72.5,54.3 L76.5,54.3 C76.3,58.1 73.4,60.4 69.2,60.4 C64.4,60.4 61.3,57.2 61.3,52.1 C61.3,47 64.4,43.8 69.2,43.8 C73.5,43.8 76.3,46.4 76.5,50 L72.5,50 Z" id="Path" fill="#051934"></path>
                    <path d="M79,38.1 L83.2,38.1 L83.2,47 L83.3,47 C84.2,45 85.9,43.9 88.4,43.9 C92,43.9 94,46.2 94,49.9 L94,60.2 L89.7,60.2 L89.7,50.8 C89.7,48.7 88.6,47.4 86.6,47.4 C84.5,47.4 83.2,48.9 83.2,51 L83.2,60.2 L78.9,60.2 L78.9,38.1 L79,38.1 Z" id="Path" fill="#051934"></path>
                    <path d="M96.5,55.6 C96.5,52.7 98.7,51 102.9,50.8 L106.9,50.6 L106.9,49.5 C106.9,47.9 105.8,47.1 104.1,47.1 C102.5,47.1 101.5,47.9 101.3,49.1 L97.4,49.1 C97.5,46 100.3,43.9 104.3,43.9 C108.4,43.9 111.2,46 111.2,49.2 L111.2,60.3 L107.1,60.3 L107.1,57.8 L107,57.8 C106.1,59.5 104.1,60.5 102.1,60.5 C98.8,60.4 96.5,58.4 96.5,55.6 Z M106.9,54.3 L106.9,53.1 L103.5,53.3 C101.7,53.4 100.8,54.1 100.8,55.3 C100.8,56.5 101.8,57.2 103.4,57.2 C105.3,57.3 106.9,56 106.9,54.3 Z" id="Shape" fill="#051934"></path>
                    <path d="M113.7,52.1 C113.7,47 116.3,43.9 120.3,43.9 C122.6,43.9 124.4,45.1 125.2,46.8 L125.3,46.8 L125.3,38 L129.6,38 L129.6,60.1 L125.4,60.1 L125.4,57.3 L125.3,57.3 C124.5,59.1 122.6,60.2 120.3,60.2 C116.3,60.4 113.7,57.2 113.7,52.1 Z M118,52.1 C118,55.1 119.4,56.9 121.6,56.9 C123.8,56.9 125.2,55 125.2,52.1 C125.2,49.2 123.9,47.3 121.7,47.3 C119.5,47.3 118,49.2 118,52.1 Z" id="Shape" fill="#051934"></path>
                    <path d="M132.3,52.1 C132.3,46.9 135.4,43.8 140.3,43.8 C145.2,43.8 148.3,47 148.3,52.1 C148.3,57.3 145.2,60.4 140.3,60.4 C135.4,60.4 132.3,57.4 132.3,52.1 Z M143.8,52.1 C143.8,48.9 142.4,47 140.2,47 C137.9,47 136.6,48.9 136.6,52.1 C136.6,55.3 138,57.2 140.2,57.2 C142.4,57.2 143.8,55.3 143.8,52.1 Z" id="Shape" fill="#051934"></path>
                    <path d="M156.8,55.6 C156.8,52.7 159,51 163.2,50.8 L167.2,50.6 L167.2,49.5 C167.2,47.9 166.1,47.1 164.4,47.1 C162.8,47.1 161.8,47.9 161.6,49.1 L157.7,49.1 C157.8,46 160.6,43.9 164.6,43.9 C168.7,43.9 171.5,46 171.5,49.2 L171.5,60.3 L167.4,60.3 L167.4,57.8 L167.3,57.8 C166.4,59.5 164.4,60.5 162.4,60.5 C159.2,60.4 156.8,58.4 156.8,55.6 Z M167.2,54.3 L167.2,53.1 L163.8,53.3 C162,53.4 161.1,54.1 161.1,55.3 C161.1,56.5 162.1,57.2 163.7,57.2 C165.6,57.3 167.2,56 167.2,54.3 Z" id="Shape" fill="#051934"></path>
                    <path d="M15.4,98.2 L11.3,98.2 L11.3,95.3 L11.2,95.3 C10.4,97.3 8.8,98.4 6.4,98.4 C2.9,98.4 0.6,96.1 0.6,92.4 L0.6,82.1 L4.9,82.1 L4.9,91.5 C4.9,93.7 6,94.9 8,94.9 C10,94.9 11.2,93.5 11.2,91.3 L11.2,82.1 L15.5,82.1 L15.5,98.2 L15.4,98.2 Z" id="Path" fill="#051934"></path>
                    <path d="M18.6,82.1 L22.7,82.1 L22.7,85 L22.8,85 C23.7,83 25.4,81.9 27.8,81.9 C31.4,81.9 33.4,84.2 33.4,87.9 L33.4,98.2 L29.1,98.2 L29.1,88.8 C29.1,86.7 28.1,85.4 26.1,85.4 C24,85.4 22.8,86.9 22.8,89 L22.8,98.2 L18.5,98.2 L18.5,82.1 L18.6,82.1 Z" id="Path" fill="#051934"></path>
                    <path d="M49.8,81.8 C53.8,81.8 56.4,83.8 56.5,86.9 L52.5,86.9 C52.4,85.6 51.3,84.8 49.7,84.8 C48.2,84.8 47.1,85.5 47.1,86.5 C47.1,87.3 47.8,87.8 49.3,88.2 L52.3,88.9 C55.5,89.6 56.8,90.9 56.8,93.3 C56.8,96.4 53.9,98.5 49.7,98.5 C45.5,98.5 42.8,96.4 42.6,93.3 L46.8,93.3 C47,94.7 48.1,95.4 49.9,95.4 C51.6,95.4 52.6,94.7 52.6,93.7 C52.6,92.9 52,92.4 50.6,92.1 L47.6,91.4 C44.6,90.7 43,89.1 43,86.8 C43,83.8 45.7,81.8 49.8,81.8 Z" id="Path" fill="#051934"></path>
                    <path d="M58.8,90.1 C58.8,84.9 61.9,81.8 66.8,81.8 C71.7,81.8 74.8,85 74.8,90.1 C74.8,95.3 71.7,98.4 66.8,98.4 C61.9,98.4 58.8,95.4 58.8,90.1 Z M70.3,90.1 C70.3,86.9 68.9,85 66.7,85 C64.4,85 63.1,86.9 63.1,90.1 C63.1,93.3 64.5,95.2 66.7,95.2 C68.9,95.2 70.3,93.3 70.3,90.1 Z" id="Shape" fill="#051934"></path>
                    <polygon id="Path" fill="#051934" points="77.4 76.1 81.7 76.1 81.7 98.2 77.4 98.2"></polygon>
                    <path d="M84.4,90.1 C84.4,84.9 87.5,81.8 92.4,81.8 C97.3,81.8 100.4,85 100.4,90.1 C100.4,95.3 97.3,98.4 92.4,98.4 C87.5,98.4 84.4,95.4 84.4,90.1 Z M95.9,90.1 C95.9,86.9 94.5,85 92.3,85 C90,85 88.7,86.9 88.7,90.1 C88.7,93.3 90.1,95.2 92.3,95.2 C94.5,95.2 95.9,93.3 95.9,90.1 Z" id="Shape" fill="#051934"></path>
                    <path d="M11.2,126 C11,124.3 9.8,123.1 7.9,123.1 C5.7,123.1 4.3,125 4.3,128.1 C4.3,131.2 5.7,133.1 7.9,133.1 C9.7,133.1 10.9,132.1 11.2,130.3 L15.2,130.3 C15,134.1 12.1,136.4 7.9,136.4 C3.1,136.4 -2.84217094e-14,133.2 -2.84217094e-14,128.1 C-2.84217094e-14,123 3.1,119.8 7.9,119.8 C12.2,119.8 15,122.4 15.2,126 L11.2,126 L11.2,126 Z" id="Path" fill="#00B2E3"></path>
                    <polygon id="Path" fill="#00B2E3" points="17.7 114.1 22 114.1 22 136.2 17.7 136.2"></polygon>
                    <path d="M25.2,116.1 C25.2,114.8 26.2,113.9 27.5,113.9 C28.8,113.9 29.8,114.9 29.8,116.1 C29.8,117.3 28.8,118.3 27.5,118.3 C26.3,118.3 25.2,117.4 25.2,116.1 Z M25.4,120.1 L29.7,120.1 L29.7,136.2 L25.4,136.2 L25.4,120.1 Z" id="Shape" fill="#00B2E3"></path>
                    <path d="M43.5,126 C43.3,124.3 42.1,123.1 40.2,123.1 C38,123.1 36.6,125 36.6,128.1 C36.6,131.2 38,133.1 40.2,133.1 C42,133.1 43.2,132.1 43.5,130.3 L47.5,130.3 C47.3,134.1 44.4,136.4 40.2,136.4 C35.4,136.4 32.3,133.2 32.3,128.1 C32.3,123 35.4,119.8 40.2,119.8 C44.5,119.8 47.3,122.4 47.5,126 L43.5,126 L43.5,126 Z" id="Path" fill="#00B2E3"></path>
                    <polygon id="Path" fill="#00B2E3" points="60 120.1 64.9 120.1 58.7 127 65.2 136.2 60.3 136.2 55.6 129.6 54.4 130.8 54.4 136.2 50.1 136.2 50.1 114.1 54.4 114.1 54.4 126.6 54.5 126.6"></polygon>
                </g>
            </g>
        </g>
    </g>
</svg>