<?xml version="1.0" encoding="UTF-8"?>
<svg width="44px" height="40px" viewBox="0 0 44 40" version="1.1" xmlns="http://www.w3.org/2000/svg" xmlns:xlink="http://www.w3.org/1999/xlink">
    <title>Untitled 8</title>
    <g id="Page-1" stroke="none" stroke-width="1" fill="none" fill-rule="evenodd">
        <g id="bufanda_pañuelo" transform="translate(0.994534, 0.999263)" fill-rule="nonzero">
            <path d="M18.425466,9.06073704 C11.215466,7.38073704 2.59546598,9.60073704 0.405465982,21.200737 C-1.78453402,32.800737 5.00546598,38.400737 18.145466,38.530737 C31.285466,38.660737 45.005466,36.080737 42.715466,25.700737 C40.425466,15.320737 33.155466,15.610737 29.615466,16.150737 C26.075466,16.690737 24.285466,10.420737 18.425466,9.06073704 Z" id="Path" fill="#DAF0F9"></path>
            <path d="M32.935466,22.800737 C32.405466,22.220737 30.095466,19.660737 27.085466,16.310737 L29.345466,13.790737 C29.5258622,13.5904022 29.6256185,13.3303234 29.625466,13.060737 L29.625466,1.06073704 C29.6091033,0.462639584 29.1136823,-0.0104651098 28.515466,0.000737043903 L11.935466,0.000737043903 C11.6377695,-0.0102094301 11.3485642,0.101163567 11.1351043,0.308956406 C10.9216444,0.516749244 10.8025318,0.802853862 10.805413,1.10073704 L10.805413,13.100737 C10.805413,13.3703234 10.9050698,13.6304022 11.085466,13.830737 L25.355466,29.630737 C25.6180562,29.9254812 26.0179437,30.0577458 26.4044947,29.977708 C26.7910457,29.8976703 27.1055339,29.6174899 27.2294947,29.242708 C27.3534555,28.8679262 27.2680562,28.4554812 27.005466,28.160737 L25.555466,26.550737 L26.895466,25.340737 L28.335466,27.000737 C28.6069878,27.2990538 29.0170345,27.4298547 29.4111453,27.3438683 C29.8052561,27.2578818 30.1235563,26.9681715 30.2461453,26.5838683 C30.3687343,26.1995651 30.2769878,25.7790538 30.005466,25.480737 L28.505466,23.870737 L29.855466,22.660737 L31.305466,24.270737 C31.5592969,24.5937386 31.9719601,24.7483842 32.3755536,24.6717525 C32.779147,24.5951209 33.1064084,24.2999833 33.2241835,23.9064237 C33.3419585,23.5128642 33.2306189,23.0864727 32.935466,22.800737 Z M20.825466,8.00073704 L19.605466,8.00073704 L14.365466,2.20073704 L26.065466,2.20073704 L20.825466,8.00073704 Z" id="Shape" fill="#00B2E3"></path>
        </g>
    </g>
</svg>