<?xml version="1.0" encoding="UTF-8"?>
<svg width="512px" height="512px" viewBox="0 0 512 512" version="1.1" xmlns="http://www.w3.org/2000/svg" xmlns:xlink="http://www.w3.org/1999/xlink">
    <title>Untitled 89</title>
    <g id="Page-1" stroke="none" stroke-width="1" fill="none" fill-rule="evenodd">
        <g id="cancel" transform="translate(0.001000, 0.000000)" fill-rule="nonzero">
            <path d="M256,512 C397.384,512 511.999,397.385 511.999,255.999 C511.999,114.615 397.385,0 256,0 C114.615,0 0,114.615 0,256.001 C0,397.387 114.615,512 256,512 Z" id="Path" fill="#FF6465"></path>
            <path d="M68.872,256.001 C68.872,126.295 165.338,19.135 290.436,2.313 C279.171,0.798 267.68,0 256,0 C114.615,0 2.84217094e-14,114.615 2.84217094e-14,256.001 C2.84217094e-14,397.387 114.615,512.001 255.999,512.001 C267.679,512.001 279.17,511.203 290.436,509.688 C165.338,492.865 68.872,385.705 68.872,256.001 Z" id="Path" fill="#000000" opacity="0.1"></path>
            <path d="M313.39,256.001 L380.788,188.603 C385.687,183.704 385.687,175.761 380.788,170.863 L341.138,131.213 C336.239,126.314 328.296,126.314 323.398,131.213 L256,198.611 L188.602,131.213 C183.703,126.314 175.76,126.314 170.862,131.213 L131.212,170.863 C126.313,175.762 126.313,183.705 131.212,188.603 L198.61,256.001 L131.212,323.399 C126.313,328.298 126.313,336.241 131.212,341.14 L170.862,380.79 C175.761,385.689 183.704,385.689 188.602,380.79 L256,313.392 L323.399,380.79 C328.298,385.689 336.241,385.689 341.139,380.79 L380.789,341.14 C385.688,336.241 385.688,328.298 380.789,323.399 L313.39,256.001 Z" id="Path" fill="#FFFFFF"></path>
        </g>
    </g>
</svg>