<?xml version="1.0" encoding="UTF-8"?>
<svg width="363px" height="217px" viewBox="0 0 363 217" version="1.1" xmlns="http://www.w3.org/2000/svg" xmlns:xlink="http://www.w3.org/1999/xlink">
    <title>Untitled 21</title>
    <g id="Page-1" stroke="none" stroke-width="1" fill="none" fill-rule="evenodd">
        <g id="coupon" transform="translate(0.999917, 0.990014)" fill-rule="nonzero">
            <path d="M59.3100832,193.169986 C20.8800832,192.399986 -7.50991676,156.279986 1.77008324,119.009986 C1.92008324,118.399986 2.09008324,117.779986 2.26008324,117.159986 C14.6000832,72.4099857 61.6700832,91.3099857 87.0800832,46.0099857 C112.490083,0.709985694 212.630083,-24.7300143 253.560083,35.1399857 C294.490083,95.0099857 354.170083,84.5799857 360.920083,127.139986 C367.670083,169.699986 343.460083,194.819986 266.800083,193.569986 C211.890083,192.709986 111.720083,194.219986 59.3100832,193.169986 Z" id="Path" fill="#BDE6F5"></path>
            <rect id="Rectangle" fill="#E0C5AC" x="86.6400832" y="65.6899857" width="189.94" height="150.23"></rect>
            <path d="M158.350083,65.6799857 C158.350083,65.6799857 164.940083,54.3399857 177.910083,53.6799857 C191.450083,53.0299857 199.150083,65.6799857 199.150083,65.6799857 L158.350083,65.6799857 Z" id="Path" fill="#00B2E3"></path>
            <rect id="Rectangle" fill="#E0C5AC" x="82.4700832" y="65.6899857" width="197.65" height="20.66"></rect>
            <rect id="Rectangle" fill="#000000" opacity="0.05" style="mix-blend-mode: multiply;" x="82.4700832" y="65.6899857" width="197.65" height="20.66"></rect>
            <path d="M233.570083,69.1999857 C231.440083,73.9999857 179.650083,65.5399857 179.650083,65.5399857 C181.187965,63.6773484 182.990438,62.0500688 185.000083,60.7099857 L185.000083,60.7099857 C197.000083,52.7699857 225.280083,34.6299857 228.360083,37.3599857 C228.72099,37.7015855 229.027833,38.0960981 229.270083,38.5299857 C232.800083,44.4299857 235.530083,64.7899857 233.570083,69.1999857 Z" id="Path" fill="#00B2E3"></path>
            <path d="M124.830083,69.1999857 C126.960083,73.9999857 178.750083,65.5399857 178.750083,65.5399857 C177.209152,63.6766054 175.40327,62.0492898 173.390083,60.7099857 L173.390083,60.7099857 C161.390083,52.7699857 133.100083,34.6299857 130.030083,37.3599857 C129.665744,37.7009691 129.355514,38.095501 129.110083,38.5299857 C125.600083,44.4299857 122.860083,64.7899857 124.830083,69.1999857 Z" id="Path" fill="#00B2E3"></path>
            <path d="M146.160083,147.829986 L123.620083,122.509986 C121.826478,120.496883 119.266189,119.334767 116.570083,119.309986 L42.3600832,118.769797 C39.8134158,118.75398 37.365843,119.755817 35.5612899,121.552859 C33.7567369,123.349901 32.7446995,125.793274 32.7500619,128.339986 L32.8800832,180.879986 C32.8853726,183.413629 33.8983086,185.841102 35.6954879,187.627026 C37.4926673,189.412949 39.9264567,190.410614 42.4600832,190.40007 L116.400083,190.089986 C119.168078,190.080257 121.79538,188.868779 123.600083,186.769986 L146.270083,160.399986 C149.38933,156.774723 149.342296,151.400105 146.160083,147.829986 Z M133.620083,156.949986 C131.981627,160.974548 127.391487,162.909636 123.366296,161.272726 C119.341105,159.635815 117.404254,155.046419 119.039619,151.020599 C120.674984,146.99478 125.263636,145.056167 129.290083,146.689986 C131.22739,147.473216 132.773068,148.995649 133.585562,150.920866 C134.398056,152.846082 134.410478,155.015591 133.620083,156.949986 L133.620083,156.949986 Z" id="Shape" fill="#6ABF4B"></path>
            <path d="M57.4300832,146.069986 C57.4900832,139.699986 61.4300832,135.689986 66.9200832,135.739986 C72.4100832,135.789986 76.2200832,139.819986 76.1600832,146.239986 C76.1000832,152.659986 72.2300832,156.619986 66.7300832,156.569986 C61.2300832,156.519986 57.3700832,152.439986 57.4300832,146.069986 Z M70.7600832,146.189986 C70.7600832,142.189986 69.2500832,140.189986 66.8800832,140.189986 C64.5100832,140.189986 62.8800832,142.189986 62.8800832,146.189986 C62.8800832,150.189986 64.4500832,152.189986 66.7700832,152.189986 C69.0900832,152.189986 70.7300832,150.239986 70.7600832,146.189986 Z M89.4200832,136.379986 L95.8400832,136.439986 L69.7000832,174.009986 L63.2700832,173.949986 L89.4200832,136.379986 Z M83.0000832,164.119986 C83.0600832,157.749986 87.0000832,153.739986 92.4300832,153.789986 C97.8600832,153.839986 101.780083,157.919986 101.720083,164.289986 C101.660083,170.659986 97.7200832,174.669986 92.2400832,174.619986 C86.7600832,174.569986 82.9000832,170.489986 83.0000832,164.119986 Z M96.2700832,164.239986 C96.2700832,160.239986 94.7600832,158.239986 92.3900832,158.239986 C90.0200832,158.239986 88.3900832,160.139986 88.3900832,164.189986 C88.3900832,168.239986 89.9600832,170.189986 92.2800832,170.189986 C94.6000832,170.189986 96.2000832,168.239986 96.2300832,164.239986 L96.2700832,164.239986 Z" id="Shape" fill="#FFFFFF"></path>
            <rect id="Rectangle" fill="#00B2E3" x="171.840083" y="62.6299857" width="18.33" height="153.28"></rect>
        </g>
    </g>
</svg>