<?xml version="1.0" encoding="UTF-8"?>
<svg width="44px" height="37px" viewBox="0 0 44 37" version="1.1" xmlns="http://www.w3.org/2000/svg" xmlns:xlink="http://www.w3.org/1999/xlink">
    <title>Slice 1</title>
    <g id="Page-1" stroke="none" stroke-width="1" fill="none" fill-rule="evenodd">
        <g id="cubrecama_2" transform="translate(0.994534, 0.000000)" fill-rule="nonzero">
            <path d="M18.425466,7 C11.215466,5.29 2.59546598,7.52 0.405465982,19.12 C-1.78453402,30.72 5.00546598,36.31 18.145466,36.45 C31.285466,36.59 45.005466,34 42.715466,23.62 C40.425466,13.24 33.155466,13.52 29.615466,14.07 C26.075466,14.62 24.285466,8.33 18.425466,7 Z" id="Path" fill="#DAF0F9"></path>
            <path d="M34.845466,18.11 L11.225466,18.11 C10.0717689,18.106328 9.09714295,18.9650292 8.95546598,20.11 C8.89942513,20.7238134 9.10344809,21.3329854 9.51787167,21.7892315 C9.93229525,22.2454776 10.5191072,22.5069496 11.135466,22.51 L34.845466,22.51 C37.6260092,22.3879771 39.8174857,20.0982194 39.8174857,17.315 C39.8174857,14.5317806 37.6260092,12.2420229 34.845466,12.12 L11.135466,12.12 C10.0429509,12.0844185 9.01581954,11.5908147 8.30546598,10.76 C7.56975159,9.96647597 7.2061685,8.89754168 7.30546598,7.82 C7.55429831,5.83897341 9.24897967,4.35935313 11.245466,4.38 L34.845466,4.38 C35.2608014,4.42607711 35.5750503,4.77711654 35.5750503,5.195 C35.5750503,5.61288346 35.2608014,5.96392289 34.845466,6.01 L11.225466,6.01 C10.094205,6.03060938 9.1491906,6.87771686 9.00546598,8 C8.94567168,8.6170741 9.14901494,9.23073501 9.56546598,9.69 C9.97833369,10.1496924 10.5675871,10.4115828 11.185466,10.41 L34.845466,10.41 C37.7201081,10.41 40.050466,8.07964212 40.050466,5.205 C40.050466,2.33035788 37.7201081,0 34.845466,0 L11.135466,0 C8.89040259,0.00280282686 6.74442378,0.924868535 5.19709398,2.55154858 C3.64976418,4.17822863 2.83608225,6.36760113 2.94546598,8.61 C3.07986769,10.7633022 4.04844565,12.7793793 5.64546598,14.23 C5.49546598,14.37 5.33546598,14.5 5.19546598,14.65 C2.92400595,17.0442092 2.30696296,20.5658077 3.62908576,23.5896727 C4.95120855,26.6135377 7.95546278,28.5517986 11.255466,28.51 L37.845466,28.51 C38.4612717,28.5116239 39.0493057,28.2539053 39.465466,27.8 C39.8819597,27.3375843 40.0787694,26.7179983 40.005466,26.1 C39.8642525,24.9588162 38.8953529,24.1013828 37.745466,24.1 L11.135466,24.1 C10.0574281,24.0965986 9.0307417,23.6390247 8.30746814,22.8396171 C7.58419458,22.0402095 7.23131545,20.9730004 7.33546598,19.9 C7.58429831,17.9189734 9.27897967,16.4393531 11.275466,16.46 L34.845466,16.46 C35.2944294,16.4654756 35.6554994,16.8310032 35.655466,17.28 C35.660857,17.4982694 35.5779039,17.7094717 35.4254112,17.8657296 C35.2729185,18.0219876 35.0638019,18.1100666 34.845466,18.11 Z" id="Path" fill="#00B2E3"></path>
        </g>
    </g>
</svg>