<?xml version="1.0" encoding="UTF-8"?>
<svg width="44px" height="38px" viewBox="0 0 44 38" version="1.1" xmlns="http://www.w3.org/2000/svg" xmlns:xlink="http://www.w3.org/1999/xlink">
    <title>Untitled 18</title>
    <g id="Page-1" stroke="none" stroke-width="1" fill="none" fill-rule="evenodd">
        <g id="cubrecama_1" transform="translate(0.994534, 0.999433)" fill-rule="nonzero">
            <path d="M18.425466,7.27056728 C11.215466,5.59056728 2.59546598,7.81056728 0.405465982,19.4105673 C-1.78453402,31.0105673 5.00546598,36.6105673 18.145466,36.7505673 C31.285466,36.8905673 45.005466,34.2905673 42.715466,23.9205673 C40.425466,13.5505673 33.155466,13.8205673 29.615466,14.3705673 C26.075466,14.9205673 24.285466,8.63056728 18.425466,7.27056728 Z" id="Path" fill="#DAF0F9"></path>
            <path d="M30.745466,0.000567278612 L12.355466,0.000567278612 C9.45524198,0.000145388601 6.95159683,2.03227071 6.35546598,4.87056728 L5.00546598,11.2005673 C6.72775042,9.49656444 9.05268054,8.54071991 11.475466,8.54056728 L33.825466,8.54056728 C35.277225,8.53054573 36.6887188,9.01751107 37.825466,9.92056728 L36.825466,4.86056728 C36.2192404,1.99662147 33.6726025,-0.0390133808 30.745466,0.000567278612 Z" id="Path" fill="#00B2E3"></path>
            <path d="M33.825466,10.0705673 L11.485466,10.0705673 C8.72380293,10.0902168 6.18240396,11.5817035 4.81858948,13.9831986 C3.45477499,16.3846938 3.47574088,19.3313532 4.87358948,21.7131987 C6.27143808,24.0950443 8.83380293,25.5502169 11.595466,25.5305673 L36.655466,25.5305673 C37.2384823,25.5307638 37.7942833,25.283926 38.1850373,24.8512374 C38.5757913,24.4185489 38.7648997,23.8405463 38.705466,23.2605673 C38.5645765,22.1929617 37.6523196,21.396343 36.575466,21.4005673 L11.485466,21.4005673 C10.460988,21.3977376 9.48568184,20.9609485 8.8013933,20.19851 C8.11710477,19.4360715 7.78791977,18.4193887 7.89546598,17.4005673 C8.14763762,15.5506326 9.73855463,14.1784131 11.605466,14.2005673 L33.825466,14.2005673 C34.214288,14.2450948 34.5078589,14.5742039 34.5078589,14.9655673 C34.5078589,15.3569306 34.214288,15.6860397 33.825466,15.7305673 L11.565466,15.7305673 C10.4880874,15.730101 9.57510181,16.5236306 9.42546598,17.5905673 C9.37222716,18.170861 9.56485566,18.7468761 9.9564642,19.1784059 C10.3480727,19.6099357 10.9027437,19.8574012 11.485466,19.8605673 L33.825466,19.8605673 C36.442933,19.7422316 38.504163,17.5857079 38.504163,14.9655673 C38.504163,12.3454266 36.442933,10.188903 33.825466,10.0705673 L33.825466,10.0705673 Z" id="Path" fill="#00B2E3"></path>
        </g>
    </g>
</svg>