<?xml version="1.0" encoding="UTF-8"?>
<svg width="363px" height="195px" viewBox="0 0 363 195" version="1.1" xmlns="http://www.w3.org/2000/svg" xmlns:xlink="http://www.w3.org/1999/xlink">
    <title>Untitled 15</title>
    <g id="Page-1" stroke="none" stroke-width="1" fill="none" fill-rule="evenodd">
        <g id="discount" transform="translate(0.999917, 0.990014)" fill-rule="nonzero">
            <path d="M59.3100832,193.169986 C20.8800832,192.399986 -7.50991676,156.279986 1.77008324,119.009986 C1.92008324,118.399986 2.09008324,117.779986 2.26008324,117.159986 C14.6000832,72.4099857 61.6700832,91.3099857 87.0800832,46.0099857 C112.490083,0.709985694 212.630083,-24.7300143 253.560083,35.1399857 C294.490083,95.0099857 354.170083,84.5799857 360.920083,127.139986 C367.670083,169.699986 343.460083,194.819986 266.800083,193.569986 C211.890083,192.709986 111.720083,194.219986 59.3100832,193.169986 Z" id="Path" fill="#BDE6F5"></path>
            <path d="M246.550083,87.4399857 L209.670083,62.3799857 C206.739613,60.3972076 203.109631,59.7401809 199.670083,60.5699857 L104.820083,83.7099857 C101.563823,84.5057504 98.7607604,86.5701383 97.0347463,89.4436983 C95.3087321,92.3172584 94.8029918,95.7615411 95.6300832,99.0099857 L112.630083,166.009986 C114.373596,172.72221 121.227245,176.751135 127.940083,175.009986 L222.160083,150.859986 C225.688288,149.961884 228.649614,147.570185 230.270083,144.309986 L250.720083,103.389986 C253.506714,97.7778213 251.726907,90.9701686 246.550083,87.4399857 L246.550083,87.4399857 Z M233.480083,103.089986 C232.684508,108.750325 227.451073,112.694081 221.7907,111.898745 C216.130327,111.10341 212.186349,105.870142 212.981445,100.209735 C213.776541,94.5493279 219.009643,90.6051292 224.670083,91.3999857 C227.388629,91.7817323 229.844151,93.2278682 231.496379,95.4202111 C233.148607,97.6125541 233.862175,100.371488 233.480083,103.089986 L233.480083,103.089986 Z" id="Shape" fill="#6ABF4B"></path>
            <path d="M132.800083,113.689986 C130.800083,105.549986 134.550083,99.1699857 141.590083,97.4699857 C148.630083,95.7699857 154.760083,99.6899857 156.750083,107.899986 C158.740083,116.109986 155.070083,122.399986 148.030083,124.099986 C140.990083,125.799986 134.770083,121.829986 132.800083,113.689986 Z M149.800083,109.569986 C148.550083,104.389986 145.940083,102.389986 142.910083,103.129986 C139.880083,103.869986 138.490083,106.899986 139.720083,111.999986 C140.950083,117.099986 143.650083,119.159986 146.610083,118.449986 C149.570083,117.739986 151.100083,114.739986 149.850083,109.569986 L149.800083,109.569986 Z M170.500083,91.0599857 L178.710083,89.0599857 L157.410083,145.349986 L149.200083,147.349986 L170.500083,91.0599857 Z M171.160083,128.519986 C169.160083,120.369986 172.910083,113.999986 179.870083,112.309986 C186.830083,110.619986 193.130083,114.579986 195.100083,122.719986 C197.070083,130.859986 193.360083,137.239986 186.320083,138.949986 C179.280083,140.659986 173.130083,136.659986 171.160083,128.519986 Z M188.160083,124.409986 C186.930083,119.299986 184.310083,117.229986 181.270083,117.969986 C178.230083,118.709986 176.840083,121.669986 178.090083,126.849986 C179.340083,132.029986 182.000083,134.009986 185.000083,133.289986 C188.000083,132.569986 189.370083,129.519986 188.130083,124.409986 L188.160083,124.409986 Z" id="Shape" fill="#FFFFFF"></path>
        </g>
    </g>
</svg>