<?xml version="1.0" encoding="UTF-8"?>
<svg width="512px" height="384px" viewBox="0 0 512 384" version="1.1" xmlns="http://www.w3.org/2000/svg" xmlns:xlink="http://www.w3.org/1999/xlink">
    <title>Untitled 25</title>
    <g id="Page-1" stroke="none" stroke-width="1" fill="none" fill-rule="evenodd">
        <g id="envelope" transform="translate(0.000000, -0.000267)" fill="#000000" fill-rule="nonzero">
            <path d="M463.999666,0 L48.000334,0 C21.5313219,0 0,21.5313219 0,48.000334 L0,336.0002 C0,362.469212 21.5313219,384.000534 48.000334,384.000534 L463.999666,384.000534 C490.468678,384.000534 512,362.469212 512,336.0002 L512,48.000334 C512,21.5313219 490.468678,0 463.999666,0 Z M463.999666,31.9998664 C466.173532,31.9998664 468.241591,32.4508849 470.132235,33.238564 L256,218.828384 L41.8666967,33.238564 C43.7573404,32.4519536 45.825399,31.9998664 47.9992652,31.9998664 L463.999666,31.9998664 Z M463.999666,351.999599 L48.000334,351.999599 C39.1723424,351.999599 31.9998664,344.828192 31.9998664,335.999132 L31.9998664,67.0467793 L245.515424,252.093667 C248.531476,254.70252 252.265738,256 256,256 C259.734262,256 263.468524,254.703589 266.484576,252.093667 L480.000134,67.0467793 L480.000134,336.0002 C480.000134,344.828192 472.827658,351.999599 463.999666,351.999599 L463.999666,351.999599 Z" id="Shape"></path>
        </g>
    </g>
</svg>