<?xml version="1.0" encoding="UTF-8"?>
<svg width="44px" height="43px" viewBox="0 0 44 43" version="1.1" xmlns="http://www.w3.org/2000/svg" xmlns:xlink="http://www.w3.org/1999/xlink">
    <title>Slice 1</title>
    <g id="Page-1" stroke="none" stroke-width="1" fill="none" fill-rule="evenodd">
        <g id="frazada" transform="translate(0.994534, 0.000000)" fill-rule="nonzero">
            <path d="M18.425466,6.9 C11.215466,5.23 2.59546598,7.45 0.405465982,19.05 C-1.78453402,30.65 5.00546598,36.24 18.145466,36.38 C31.285466,36.52 45.005466,33.92 42.715466,23.55 C40.425466,13.18 33.155466,13.45 29.615466,14 C26.075466,14.55 24.285466,8.27 18.425466,6.9 Z" id="Path" fill="#DAF0F9"></path>
            <rect id="Rectangle" fill="#00B2E3" x="10.455466" y="7.04" width="21.11" height="28.15" rx="0.88"></rect>
            <path d="M31.565466,2.64 L31.565466,1.32 C31.565466,0.59098413 30.9744819,0 30.245466,0 C29.5164501,0 28.925466,0.59098413 28.925466,1.32 L28.925466,2.64 L25.415466,2.64 L25.415466,1.32 C25.415466,0.59098413 24.8244819,0 24.095466,0 C23.3664501,0 22.775466,0.59098413 22.775466,1.32 L22.775466,2.64 L19.255466,2.64 L19.255466,1.32 C19.255466,0.59098413 18.6644819,0 17.935466,0 C17.2064501,0 16.615466,0.59098413 16.615466,1.32 L16.615466,2.64 L13.095466,2.64 L13.095466,1.32 C13.095466,0.590984146 12.5044818,0 11.775466,0 C11.0464501,0 10.455466,0.590984146 10.455466,1.32 L10.455466,3.08 L10.455466,3.08 L10.455466,4.4 C10.4608716,4.88375383 10.8517122,5.27459443 11.335466,5.28 L30.695466,5.28 C31.1792198,5.27459443 31.5700604,4.88375383 31.575466,4.4 L31.575466,2.64 L31.565466,2.64 Z" id="Path" fill="#00B2E3"></path>
            <path d="M31.565466,37.83 C31.5681739,37.5957898 31.4763297,37.3703816 31.310707,37.204759 C31.1450844,37.0391363 30.9196761,36.9472921 30.685466,36.95 L11.335466,36.95 C11.1012558,36.9472921 10.8758476,37.0391363 10.7102249,37.204759 C10.5446023,37.3703816 10.4527581,37.5957898 10.4554078,37.83 L10.4554078,39.59 L10.4554078,39.59 L10.4554078,40.91 C10.4554078,41.6390159 11.0464501,42.23 11.775466,42.23 C12.5044819,42.23 13.095466,41.6390159 13.095466,40.91 L13.095466,39.59 L16.615466,39.59 L16.615466,40.91 C16.615466,41.6390159 17.2064501,42.23 17.935466,42.23 C18.6644819,42.23 19.255466,41.6390159 19.255466,40.91 L19.255466,39.59 L22.775466,39.59 L22.775466,40.91 C22.775466,41.6390159 23.3664501,42.23 24.095466,42.23 C24.8244819,42.23 25.415466,41.6390159 25.415466,40.91 L25.415466,39.59 L28.935466,39.59 L28.935466,40.91 C28.935466,41.6390159 29.5264501,42.23 30.255466,42.23 C30.9844819,42.23 31.575466,41.6390159 31.575466,40.91 L31.575466,39.15 L31.575466,39.15 L31.565466,37.83 Z" id="Path" fill="#00B2E3"></path>
        </g>
    </g>
</svg>