<?xml version="1.0" encoding="UTF-8"?>
<svg width="155px" height="60px" viewBox="0 0 155 60" version="1.1" xmlns="http://www.w3.org/2000/svg" xmlns:xlink="http://www.w3.org/1999/xlink">
    <title>Untitled 29</title>
    <g id="Page-1" stroke="none" stroke-width="1" fill="none" fill-rule="evenodd">
        <g id="google_play" fill="#FFFFFF" fill-rule="nonzero">
            <g id="Group">
                <rect id="Rectangle" fill-opacity="0" x="0" y="0" width="155" height="60"></rect>
                <path d="M77.7,30.6 C74.8,30.6 72.4,32.8 72.4,35.9 C72.4,39 74.8,41.2 77.7,41.2 C80.6,41.2 83,38.9 83,35.9 C83,32.9 80.6,30.6 77.7,30.6 Z M77.7,39.2 C76.1,39.2 74.7,37.9 74.7,36 C74.7,34.1 76.1,32.8 77.7,32.8 C79.3,32.8 80.7,34.1 80.7,36 C80.7,37.9 79.3,39.2 77.7,39.2 Z M66,30.6 C63.1,30.6 60.7,32.8 60.7,35.9 C60.7,39 63.1,41.2 66,41.2 C68.9,41.2 71.3,38.9 71.3,35.9 C71.4,32.9 69,30.6 66,30.6 Z M66,39.2 C64.4,39.2 63,37.9 63,36 C63,34.1 64.4,32.8 66,32.8 C67.6,32.8 69,34.1 69,36 C69,37.9 67.6,39.2 66,39.2 Z M52.1,32.3 L52.1,34.6 L57.5,34.6 C57.3,35.9 56.9,36.8 56.3,37.4 C55.5,38.2 54.3,39.1 52.1,39.1 C48.8,39.1 46.2,36.4 46.2,33.1 C46.2,29.8 48.8,27.1 52.1,27.1 C53.9,27.1 55.2,27.8 56.2,28.7 L57.8,27.1 C56.4,25.8 54.7,24.8 52.1,24.8 C47.5,24.8 43.7,28.5 43.7,33.1 C43.7,37.7 47.5,41.4 52.1,41.4 C54.6,41.4 56.4,40.6 57.9,39.1 C59.4,37.6 59.9,35.5 59.9,33.8 C59.9,33.3 59.9,32.8 59.8,32.4 L52.1,32.4 L52.1,32.3 Z M108.9,34 C108.5,32.8 107.1,30.6 104.3,30.6 C101.6,30.6 99.3,32.8 99.3,35.9 C99.3,38.9 101.6,41.2 104.6,41.2 C107,41.2 108.5,39.7 109,38.8 L107.2,37.6 C106.6,38.5 105.8,39.1 104.6,39.1 C103.4,39.1 102.6,38.6 102,37.5 L109.1,34.6 L108.9,34 Z M101.6,35.8 C101.5,33.7 103.2,32.7 104.4,32.7 C105.3,32.7 106.1,33.2 106.4,33.8 L101.6,35.8 Z M95.8,41 L98.1,41 L98.1,25.3 L95.8,25.3 L95.8,41 Z M92,31.8 L92,31.8 C91.4,31.2 90.4,30.6 89.1,30.6 C86.5,30.6 84,33 84,36 C84,39 86.4,41.3 89.1,41.3 C90.4,41.3 91.4,40.7 91.9,40.1 L92,40.1 L92,40.9 C92,42.9 90.9,44 89.2,44 C87.8,44 86.9,43 86.5,42.1 L84.5,42.9 C85.1,44.3 86.6,46 89.2,46 C91.9,46 94.3,44.4 94.3,40.4 L94.3,31 L92,31 L92,31.8 Z M89.3,39.2 C87.7,39.2 86.3,37.8 86.3,36 C86.3,34.1 87.7,32.8 89.3,32.8 C90.9,32.8 92.1,34.2 92.1,36 C92.2,37.8 90.9,39.2 89.3,39.2 Z M119.9,25.3 L114.3,25.3 L114.3,41 L116.6,41 L116.6,35 L119.9,35 C122.5,35 125,33.1 125,30.1 C125,27.1 122.5,25.3 119.9,25.3 Z M119.9,32.9 L116.6,32.9 L116.6,27.5 L119.9,27.5 C121.6,27.5 122.6,28.9 122.6,30.2 C122.7,31.4 121.7,32.9 119.9,32.9 Z M134.4,30.6 C132.7,30.6 131,31.3 130.2,33 L132.3,33.9 C132.7,33 133.6,32.8 134.4,32.8 C135.6,32.8 136.8,33.5 136.9,34.8 L136.9,35 C136.5,34.8 135.6,34.4 134.5,34.4 C132.3,34.4 130,35.6 130,37.9 C130,40 131.8,41.3 133.9,41.3 C135.5,41.3 136.3,40.6 136.9,39.8 L137,39.8 L137,41 L139.3,41 L139.3,35 C139.1,32.2 137,30.6 134.4,30.6 Z M134.1,39.2 C133.3,39.2 132.3,38.8 132.3,37.9 C132.3,36.7 133.6,36.2 134.8,36.2 C135.8,36.2 136.3,36.4 136.9,36.7 C136.7,38.2 135.4,39.2 134.1,39.2 Z M147.3,31 L144.6,37.8 L144.5,37.8 L141.7,31 L139.2,31 L143.4,40.5 L141,45.8 L143.4,45.8 L149.8,31 L147.3,31 L147.3,31 Z M126.3,41 L128.6,41 L128.6,25.3 L126.3,25.3 L126.3,41 Z" id="Shape"></path>
                <g transform="translate(4.600000, 12.369487)" id="Path">
                    <path d="M0.8,0.430512654 C0.4,0.830512654 0.2,1.43051265 0.2,2.23051265 L0.2,29.9305127 C0.2,30.7305127 0.4,31.3305127 0.8,31.7305127 L0.9,31.8305127 L16.4,16.2305127 L16.4,16.0305127 L16.4,15.8305127 L0.8,0.430512654 L0.8,0.430512654 Z"></path>
                    <path d="M21.6,21.4305127 L16.4,16.2305127 L16.4,16.0305127 L16.4,15.8305127 L21.6,10.6305127 L21.7,10.7305127 L27.8,14.2305127 C29.6,15.2305127 29.6,16.8305127 27.8,17.8305127 L21.7,21.3305127 L21.6,21.4305127 Z"></path>
                    <path d="M21.7,21.3305127 L16.4,16.0305127 L0.8,31.7305127 C1.4,32.3305127 2.3,32.3305127 3.4,31.7305127 L21.7,21.3305127" stroke="#0B172F"></path>
                    <path d="M21.7,10.8305127 L3.4,0.430512654 C2.3,-0.169487346 1.4,-0.0694873464 0.8,0.530512654 L16.4,16.0305127 L21.7,10.8305127 Z" stroke="#0B172F"></path>
                    <g transform="translate(0.000000, 21.230513)">
                        <path d="M21.6,0 L3.4,10.4 C2.4,11 1.5,10.9 0.9,10.4 L0.9,10.4 L0.8,10.5 L0.8,10.5 L0.9,10.6 L0.9,10.6 C1.5,11.1 2.4,11.2 3.4,10.6 L21.7,0.2 L21.6,0 Z" opacity="0.2"></path>
                        <path d="M0.8,10.3 C0.4,9.9 0.2,9.3 0.2,8.5 L0.2,8.7 C0.2,9.5 0.4,10.1 0.8,10.5 L0.8,10.3 L0.8,10.3 Z" opacity="0.12"></path>
                    </g>
                    <path d="M27.8,17.7305127 L21.6,21.2305127 L21.7,21.3305127 L27.8,17.8305127 C28.7,17.3305127 29.1,16.6305127 29.1,16.0305127 L29.1,16.0305127 C29.1,16.6305127 28.6,17.2305127 27.8,17.7305127 Z" opacity="0.12"></path>
                    <path d="M3.4,0.530512654 L27.8,14.4305127 C28.6,14.9305127 29,15.4305127 29.1,16.0305127 L29.1,16.0305127 C29.1,15.3305127 28.7,14.7305127 27.8,14.2305127 L3.4,0.430512654 C1.6,-0.569487346 0.2,0.230512654 0.2,2.23051265 L0.2,2.43051265 C0.2,0.430512654 1.6,-0.469487346 3.4,0.530512654 Z" opacity="0.25"></path>
                </g>
            </g>
            <g id="Group" transform="translate(44.000000, 11.900000)" stroke="#FFFFFF" stroke-width="0.2">
                <path d="M0,7.8 L0,0.3 L2.3,0.3 C3.5,0.3 4.4,0.6 5.1,1.3 C5.8,2 6.1,2.9 6.1,4 C6.1,5.1 5.8,6 5.1,6.7 C4.4,7.4 3.5,7.7 2.3,7.7 L0,7.7 L0,7.8 Z M1,6.8 L2.3,6.8 C3.2,6.8 3.9,6.6 4.4,6.1 C4.9,5.6 5.2,4.9 5.2,4 C5.2,3.1 4.9,2.4 4.4,1.9 C3.9,1.4 3.2,1.1 2.3,1.1 L1,1.1 L1,6.8 Z" id="Shape"></path>
                <polygon id="Path" points="7.5 7.8 7.5 0.3 8.5 0.3 8.5 7.8"></polygon>
                <path d="M12.3,7.9 C11.8,7.9 11.2,7.7 10.7,7.4 C10.2,7 9.8,6.5 9.7,5.9 L10.6,5.5 C10.7,5.9 10.9,6.3 11.2,6.5 C11.5,6.8 11.9,6.9 12.3,6.9 C12.7,6.9 13.1,6.8 13.4,6.6 C13.7,6.4 13.8,6.1 13.8,5.7 C13.8,5.3 13.7,5 13.4,4.7 C13.1,4.5 12.6,4.3 12,4.1 C11.3,3.9 10.8,3.6 10.5,3.3 C10.2,3 10,2.5 10,2 C10,1.5 10.2,1 10.6,0.6 C11,0.2 11.6,0 12.3,0 C12.9,0 13.5,0.2 13.9,0.5 C14.3,0.8 14.6,1.2 14.7,1.5 L13.8,1.9 C13.7,1.7 13.6,1.4 13.3,1.2 C13.1,1 12.7,0.9 12.3,0.9 C11.9,0.9 11.6,1 11.4,1.2 C11.1,1.4 11,1.7 11,2 C11,2.3 11.1,2.5 11.4,2.7 C11.6,2.9 12,3.1 12.5,3.2 C12.9,3.3 13.2,3.4 13.4,3.5 C13.6,3.6 13.9,3.8 14.2,3.9 C14.5,4.1 14.6,4.3 14.8,4.6 C15,4.9 15,5.2 15,5.6 C15,6 14.9,6.3 14.8,6.6 C14.6,6.9 14.4,7.1 14.2,7.3 C14,7.5 13.7,7.6 13.4,7.7 C12.9,7.9 12.6,7.9 12.3,7.9 Z" id="Path"></path>
                <path d="M17.2,7.8 L16.2,7.8 L16.2,0.3 L18.8,0.3 C19.4,0.3 20,0.5 20.5,0.9 C21,1.3 21.2,1.9 21.2,2.5 C21.2,3.1 21,3.7 20.5,4.1 C20,4.5 19.5,4.7 18.8,4.7 L17.2,4.7 L17.2,7.8 L17.2,7.8 Z M17.2,3.8 L18.8,3.8 C19.2,3.8 19.5,3.7 19.8,3.4 C20,3.1 20.2,2.8 20.2,2.5 C20.2,2.2 20.1,1.9 19.8,1.6 C19.6,1.3 19.2,1.2 18.8,1.2 L17.2,1.2 L17.2,3.8 Z" id="Shape"></path>
                <path d="M28.5,6.8 C27.8,7.6 26.8,7.9 25.7,7.9 C24.6,7.9 23.7,7.5 22.9,6.8 C22.2,6 21.8,5.1 21.8,4 C21.8,2.9 22.2,2 22.9,1.2 C23.6,0.4 24.6,0.1 25.7,0.1 C26.8,0.1 27.7,0.5 28.5,1.2 C29.2,2 29.6,2.9 29.6,4 C29.6,5.1 29.2,6 28.5,6.8 Z M23.7,6.2 C24.3,6.8 24.9,7 25.7,7 C26.5,7 27.2,6.7 27.7,6.2 C28.3,5.6 28.5,4.9 28.5,4 C28.5,3.1 28.2,2.4 27.7,1.8 C27.1,1.2 26.5,1 25.7,1 C24.9,1 24.2,1.3 23.7,1.8 C23.1,2.4 22.9,3.1 22.9,4 C22.9,4.9 23.1,5.6 23.7,6.2 Z" id="Shape"></path>
                <polygon id="Path" points="30.9 7.8 30.9 0.3 32.1 0.3 35.8 6.1 35.8 6.1 35.8 4.7 35.8 0.3 36.8 0.3 36.8 7.8 35.8 7.8 32 1.7 32 1.7 32 3.1 32 7.8 30.9 7.8"></polygon>
                <polygon id="Path" points="38.5 7.8 38.5 0.3 39.5 0.3 39.5 7.8"></polygon>
                <path d="M41.1,7.8 L41.1,0.3 L43.8,0.3 C44.4,0.3 44.9,0.5 45.3,0.9 C45.7,1.3 45.9,1.8 45.9,2.4 C45.9,2.8 45.8,3.1 45.6,3.3 C45.4,3.6 45.2,3.8 44.9,3.9 L44.9,3.9 C45.3,4 45.6,4.2 45.8,4.6 C46,4.9 46.2,5.3 46.2,5.7 C46.2,6.3 46,6.8 45.5,7.2 C45,7.6 44.5,7.8 43.9,7.8 L41.1,7.8 L41.1,7.8 Z M42.1,3.5 L43.9,3.5 C44.3,3.5 44.6,3.4 44.8,3.1 C45,2.9 45.1,2.6 45.1,2.3 C45.1,2 45,1.8 44.8,1.5 C44.6,1.3 44.3,1.1 44,1.1 L42.2,1.1 L42.2,3.5 L42.1,3.5 Z M42.1,6.8 L44,6.8 C44.4,6.8 44.7,6.7 44.9,6.4 C45.1,6.1 45.2,5.9 45.2,5.5 C45.2,5.2 45.1,4.9 44.8,4.7 C44.6,4.4 44.3,4.3 43.9,4.3 L42,4.3 L42,6.8 L42.1,6.8 Z" id="Shape"></path>
                <polygon id="Path" points="47.6 7.8 47.6 0.3 48.6 0.3 48.6 6.9 51.9 6.9 51.9 7.8 47.6 7.8"></polygon>
                <polygon id="Path" points="57.4 1.2 54 1.2 54 3.6 57.1 3.6 57.1 4.5 54 4.5 54 6.9 57.4 6.9 57.4 7.8 53 7.8 53 0.3 57.4 0.3"></polygon>
                <polygon id="Path" points="65.8 1.2 62.4 1.2 62.4 3.6 65.5 3.6 65.5 4.5 62.4 4.5 62.4 6.9 65.8 6.9 65.8 7.8 61.4 7.8 61.4 0.3 65.8 0.3"></polygon>
                <polygon id="Path" points="67.4 7.8 67.4 0.3 68.6 0.3 72.3 6.1 72.3 6.1 72.3 4.7 72.3 0.3 73.3 0.3 73.3 7.8 72.3 7.8 68.5 1.7 68.5 1.7 68.5 3.1 68.5 7.8 67.4 7.8"></polygon>
            </g>
        </g>
    </g>
</svg>