<?xml version="1.0" encoding="UTF-8"?>
<svg width="512px" height="512px" viewBox="0 0 512 512" version="1.1" xmlns="http://www.w3.org/2000/svg" xmlns:xlink="http://www.w3.org/1999/xlink">
    <title>Slice 1</title>
    <g id="Page-1" stroke="none" stroke-width="1" fill="none" fill-rule="evenodd">
        <g id="instagram" fill="#000000" fill-rule="nonzero">
            <path d="M373.40625,0 L138.59375,0 C62.171875,0 0,62.171875 0,138.59375 L0,373.410156 C0,449.828125 62.171875,512 138.59375,512 L373.410156,512 C449.828125,512 512,449.828125 512,373.410156 L512,138.59375 C512,62.171875 449.828125,0 373.40625,0 Z M481.984375,373.410156 C481.984375,433.277344 433.277344,481.984375 373.40625,481.984375 L138.59375,481.984375 C78.722656,481.984375 30.015625,433.277344 30.015625,373.410156 L30.015625,138.59375 C30.015625,78.722656 78.722656,30.015625 138.59375,30.015625 L373.410156,30.015625 C433.277344,30.015625 481.984375,78.722656 481.984375,138.59375 L481.984375,373.410156 Z" id="Shape"></path>
            <path d="M256,116.003906 C178.804688,116.003906 116.003906,178.804688 116.003906,256 C116.003906,333.195312 178.804688,395.996094 256,395.996094 C333.195312,395.996094 395.996094,333.195312 395.996094,256 C395.996094,178.804688 333.195312,116.003906 256,116.003906 Z M256,365.980469 C195.359375,365.980469 146.019531,316.644531 146.019531,256 C146.019531,195.359375 195.359375,146.019531 256,146.019531 C316.644531,146.019531 365.980469,195.359375 365.980469,256 C365.980469,316.644531 316.644531,365.980469 256,365.980469 Z" id="Shape"></path>
            <path d="M399.34375,66.285156 C376.53125,66.285156 357.976562,84.84375 357.976562,107.652344 C357.976562,130.464844 376.53125,149.023438 399.34375,149.023438 C422.15625,149.023438 440.714844,130.464844 440.714844,107.652344 C440.714844,84.839844 422.15625,66.285156 399.34375,66.285156 Z M399.34375,119.003906 C393.085938,119.003906 387.992188,113.910156 387.992188,107.652344 C387.992188,101.390625 393.085938,96.300781 399.34375,96.300781 C405.605469,96.300781 410.699219,101.390625 410.699219,107.652344 C410.699219,113.910156 405.605469,119.003906 399.34375,119.003906 Z" id="Shape"></path>
        </g>
    </g>
</svg>