<?xml version="1.0" encoding="UTF-8"?>
<svg width="45px" height="24px" viewBox="0 0 45 24" version="1.1" xmlns="http://www.w3.org/2000/svg" xmlns:xlink="http://www.w3.org/1999/xlink">
    <title>Slice 1</title>
    <g id="Page-1" stroke="none" stroke-width="1" fill="none" fill-rule="evenodd">
        <g id="planchado" transform="translate(0.000000, 0.001234)" fill-rule="nonzero">
            <path d="M39.1,0.138765614 C3.18,-2.00123439 0.81,21.3187656 0,21.3087656 L41.27,21.4587656 C41.96,16.4587656 44.78,14.6187656 44.78,14.6187656 L39.1,0.138765614 Z M15.4,13.8387656 C15.4,13.8387656 19.58,4.67876561 34.88,6.29876561 C36.0125373,8.78456784 37.0139129,11.3280617 37.88,13.9187656 L15.4,13.8387656 Z" id="Shape" fill="#E4E4E4"></path>
            <rect id="Rectangle" fill="#001936" transform="translate(20.712154, 22.547606) rotate(-89.800000) translate(-20.712154, -22.547606) " x="19.452154" y="1.84760598" width="2.52" height="41.4"></rect>
            <rect id="Rectangle" fill="#001936" transform="translate(23.547124, 13.204968) rotate(-89.800000) translate(-23.547124, -13.204968) " x="22.7671245" y="9.19996823" width="1.56" height="8.01"></rect>
            <path d="M39.1,0.138765614 C3.18,-2.00123439 0.81,21.3187656 0,21.3087656 L41.27,21.4587656 C41.96,16.4587656 44.78,14.6187656 44.78,14.6187656 L39.1,0.138765614 Z M15.4,13.8387656 C15.4,13.8387656 19.58,4.67876561 34.88,6.29876561 C36.0125373,8.78456784 37.0139129,11.3280617 37.88,13.9187656 L15.4,13.8387656 Z" id="Shape" fill="#F3F3F3"></path>
            <path d="M1.13,18.3887656 C0.45,20.1587656 0.19,21.3087656 0,21.3087656 L41.27,21.4587656 C41.4110302,20.40568 41.6831395,19.3743521 42.08,18.3887656 L1.13,18.3887656 Z" id="Path" fill="#00B2E3"></path>
        </g>
    </g>
</svg>