<?xml version="1.0" encoding="UTF-8"?>
<svg width="149px" height="111px" viewBox="0 0 149 111" version="1.1" xmlns="http://www.w3.org/2000/svg" xmlns:xlink="http://www.w3.org/1999/xlink">
    <title>Slice 1</title>
    <g id="Page-1" stroke="none" stroke-width="1" fill="none" fill-rule="evenodd">
        <g id="laundry_machine" transform="translate(0.002969, 0.000000)" fill-rule="nonzero">
            <path d="M24.3270309,109 C8.56703091,108.65 -3.08296909,93.83 0.727030911,78.53 C0.787030911,78.28 0.857030911,78.03 0.927030911,77.77 C5.99703091,59.43 25.2970309,67.18 35.7170309,48.6 C46.1370309,30.02 87.2170309,19.6 104.007031,44.14 C120.797031,68.68 145.277031,64.42 148.007031,81.89 C150.737031,99.36 140.847031,111.09 109.397031,110.58 C86.9170309,110.21 45.8270309,109.4 24.3270309,109 Z" id="Path" fill="#75AA53"></path>
            <rect id="Rectangle" fill="#FFFFFF" x="40.7870309" y="16.41" width="58.63" height="79.46"></rect>
            <line x1="99.4070309" y1="33.35" x2="40.7870309" y2="33.35" id="Path" fill="#BEE2F5"></line>
            <rect id="Rectangle" fill="#C5E5F3" x="44.7370309" y="86.62" width="11.34" height="5.57"></rect>
            <path d="M70.2270491,25.39 C70.2270491,26.5072242 69.553484,27.5142473 68.5209145,27.9408502 C67.4883449,28.3674532 66.3004392,28.1294807 65.5118775,27.3380514 C64.7233157,26.5466222 64.4896565,25.3578605 64.9200047,24.3268462 C65.3503528,23.295832 66.359814,22.6259521 67.4770309,22.6299818 C68.2081122,22.6299818 68.9091052,22.9210988 69.4251187,23.4389887 C69.9411321,23.9568785 70.2296894,24.6589236 70.2270491,25.39 Z" id="Path" fill="#C5E5F3"></path>
            <path d="M79.3070309,25.39 C79.3070309,26.5063158 78.6345785,27.5127119 77.6032372,27.9399075 C76.5718959,28.3671031 75.3847707,28.1309692 74.5954162,27.3416147 C73.8060617,26.5522602 73.5699278,25.365135 73.9971234,24.3337937 C74.424319,23.3024524 75.4307151,22.63 76.5470309,22.63 C78.0713368,22.63 79.3070309,23.8656941 79.3070309,25.39 L79.3070309,25.39 Z" id="Path" fill="#C5E5F3"></path>
            <rect id="Rectangle" fill="#C5E5F3" x="83.5570309" y="22.13" width="11.79" height="6.51"></rect>
            <rect id="Rectangle" fill="#C5E5F3" x="43.1070309" y="20.86" width="17.19" height="9.05"></rect>
            <circle id="Oval" fill="#001C39" cx="69.3470309" cy="61.22" r="20.78"></circle>
            <circle id="Oval" fill="#FFFFFF" transform="translate(69.343515, 61.212803) rotate(-22.230000) translate(-69.343515, -61.212803) " cx="69.3435155" cy="61.2128031" r="15.33"></circle>
            <path d="M69.3470309,76.5400033 C73.4101475,76.5400033 77.3068495,74.9259332 80.1799068,72.0528759 C83.0529641,69.1798186 84.6670309,65.2831166 84.6670309,61.22 C84.6670309,61.22 77.8670309,67.84 71.2470309,61.22 C64.6270309,54.6 54.0170309,61.22 54.0170309,61.22 C54.0170309,65.2848498 55.6324695,69.183068 58.50769,72.056413 C61.3829105,74.9297579 65.2821819,76.5426533 69.3470309,76.5400033 L69.3470309,76.5400033 Z" id="Path" fill="#11B0DE"></path>
            <rect id="Rectangle" fill="#C5E5F3" x="83.3870309" y="0" width="14.31" height="16.41"></rect>
            <polygon id="Path" fill="#FFFFFF" points="84.7570309 7.15 84.7570309 13.36 96.3370309 9.61 96.3370309 2.99"></polygon>
            <rect id="Rectangle" fill="#11B0DE" x="45.4470309" y="11.95" width="30.64" height="4.46" rx="2.23"></rect>
            <rect id="Rectangle" fill="#FFFFFF" x="49.2470309" y="8.55" width="23.32" height="3.4" rx="1.7"></rect>
            <rect id="Rectangle" fill="#FFFFFF" x="50.9270309" y="5.16" width="23.32" height="3.4" rx="1.7"></rect>
        </g>
    </g>
</svg>