<?xml version="1.0" encoding="UTF-8"?>
<svg width="30px" height="49px" viewBox="0 0 30 49" version="1.1" xmlns="http://www.w3.org/2000/svg" xmlns:xlink="http://www.w3.org/1999/xlink">
    <title>Untitled 43</title>
    <g id="Page-1" stroke="none" stroke-width="1" fill="none" fill-rule="evenodd">
        <g id="lavaseco" transform="translate(1.000000, 0.985053)" fill-rule="nonzero">
            <path d="M13.34,3.62494699 L13.47,3.68494699 L13.47,5.43494699 L14.61,5.43494699 L14.61,3.20494699 C14.6074972,3.04752269 14.541103,2.89788007 14.4260653,2.79038585 C14.3110277,2.68289163 14.1572324,2.62678343 14,2.63494699 C13.5913093,2.63494699 13.26,2.3036377 13.26,1.89494699 C13.26,1.48625628 13.5913093,1.15494699 14,1.15494699 C14.1970811,1.15222824 14.3868868,1.22931895 14.5262574,1.36868959 C14.665628,1.50806022 14.7427187,1.6978659 14.74,1.89494699 C14.739953,2.21140719 14.9935868,2.46949078 15.31,2.47494699 L15.31,2.47494699 C15.6224886,2.46416516 15.8701859,2.20762147 15.87,1.89494699 C15.8774616,0.946998265 15.1779859,0.141790903 14.2383089,0.0166120609 C13.298632,-0.108566781 12.4127592,0.485448741 12.1718028,1.40229252 C11.9308465,2.31913629 12.4101969,3.27194706 13.29,3.62494699 L13.34,3.62494699 Z" id="Path" fill="#E0C5AC"></path>
            <path d="M14.64,47.554947 L28.08,47.554947 L28.08,18.554947 C28.047013,11.3070724 22.1679414,5.44587033 14.92,5.43494699 L13.16,5.43494699 C5.89649959,5.44596066 0.0110136663,11.3314466 0,18.594947 L0,47.594947 L14.64,47.594947 L14.64,47.554947 Z" id="Path" fill="#00B2E3"></path>
            <rect id="Rectangle" fill="#FFFFFF" x="17.4" y="12.134947" width="5.55" height="4.17" rx="0.69"></rect>
            <path d="M13.74,47.554947 L13.74,8.07494699 C13.74,7.79494699 13.87,7.74494699 14.03,7.74494699 C14.19,7.74494699 14.33,7.82494699 14.33,8.07494699 L14.33,47.554947 L13.74,47.554947 Z" id="Path" fill="#E0C5AC"></path>
        </g>
    </g>
</svg>