<?xml version="1.0" encoding="UTF-8"?>
<svg width="37px" height="45px" viewBox="0 0 37 45" version="1.1" xmlns="http://www.w3.org/2000/svg" xmlns:xlink="http://www.w3.org/1999/xlink">
    <title>Slice 1</title>
    <g id="Page-1" stroke="none" stroke-width="1" fill="none" fill-rule="evenodd">
        <g id="lavado_bolsa" transform="translate(0.991133, 0.000000)" fill-rule="nonzero">
            <path d="M34.6488665,11.92 C34.2855689,11.5513227 33.7863423,11.348738 33.2688665,11.36 L26.7988665,11.36 L26.7988665,9.79 C26.7988665,4.25 22.7288665,0 17.5588665,0 C15.039063,0.0361371112 12.6397879,1.08467676 10.9016258,2.90937072 C9.16346374,4.73406468 8.23263512,7.18141317 8.31886652,9.7 L8.31886652,11.36 L1.85886652,11.36 C1.32901231,11.3806343 0.829038852,11.6108379 0.468866517,12 C0.125507346,12.3772249 -0.041678917,12.8824182 0.00886651687,13.39 L2.31886652,37.6 C2.40886652,40.83 5.17886652,44.340262 9.00886652,44.340262 L26.2388665,44.340262 C29.7322007,44.3710479 32.6272824,41.6392559 32.7988665,38.15 L35.1088665,13.3 C35.1413886,12.7976105 34.9763178,12.3023983 34.6488665,11.92 Z M12.0088665,9.7 C12.0088665,6.28 14.4088665,3.6 17.5488665,3.6 C20.6888665,3.6 23.0888665,6.28 23.0888665,9.7 L23.0888665,11.36 L12.0088665,11.36 L12.0088665,9.7 Z" id="Shape" fill="#00B2E3"></path>
            <path d="M9.37886652,22.17 L8.68886652,22.17 C8.60442855,22.1752875 8.53870112,22.2453968 8.53886621,22.33 L8.53886621,27.11 C8.53870112,27.1946032 8.60442855,27.2647125 8.68886652,27.27 L9.37886652,27.27 C9.46723208,27.27 9.53886621,27.1983656 9.53886621,27.11 L9.53886621,22.33 C9.53392682,22.2437633 9.46510318,22.1749397 9.37886652,22.17 Z" id="Path" fill="#FFFFFF"></path>
            <path d="M11.0088665,22.17 C10.8002665,22.1414142 10.5940739,22.2366799 10.4806329,22.4140558 C10.3671919,22.5914318 10.3671919,22.8185682 10.4806329,22.9959442 C10.5940739,23.1733201 10.8002665,23.2685858 11.0088665,23.24 C11.2174665,23.2685858 11.4236591,23.1733201 11.5371001,22.9959442 C11.6505412,22.8185682 11.6505412,22.5914318 11.5371001,22.4140558 C11.4236591,22.2366799 11.2174665,22.1414142 11.0088665,22.17 L11.0088665,22.17 Z" id="Path" fill="#FFFFFF"></path>
            <path d="M11.3888665,23.8999996 L10.6988665,23.8999996 C10.6572892,23.8999075 10.6175387,23.9170762 10.5891022,23.9474085 C10.5606657,23.9777407 10.5460946,24.0185151 10.5488665,24.06 L10.5488665,27.11 C10.5487011,27.1946032 10.6144286,27.2647125 10.6988665,27.27 L11.3888665,27.27 C11.4772321,27.27 11.5488665,27.1983656 11.5488665,27.11 L11.5488665,24.06 C11.5488665,23.9716344 11.4772321,23.8999996 11.3888665,23.8999996 L11.3888665,23.8999996 Z" id="Path" fill="#FFFFFF"></path>
            <path d="M25.6288665,27.36 C26.6003158,27.3162947 27.3568989,26.501059 27.328084,25.5290541 C27.2992691,24.5570492 26.495722,23.7880633 25.5233897,23.801981 C24.5510573,23.8158988 23.7698492,24.6075686 23.7688665,25.58 C23.7961365,26.5828706 24.6257662,27.3768173 25.6288665,27.36 L25.6288665,27.36 Z M25.6288665,24.72 C25.9816537,24.7200233 26.2995016,24.9330903 26.433554,25.2594164 C26.5676065,25.5857425 26.4913217,25.9607164 26.2404258,26.2087285 C25.9895298,26.4567406 25.613699,26.5286855 25.2889444,26.3908696 C24.9641899,26.2530536 24.7548115,25.9327638 24.7588665,25.58 C24.758851,25.3501706 24.8508293,25.129897 25.0142799,24.9683251 C25.1777305,24.8067533 25.3990526,24.7173276 25.6288665,24.72 L25.6288665,24.72 Z" id="Shape" fill="#FFFFFF"></path>
            <path d="M27.0088665,29 C24.8255607,28.5428125 22.5994503,28.3215425 20.3688665,28.34 L20.3688665,25.54 C20.3688665,25.0539894 20.7628559,24.66 21.2488665,24.66 C21.7348771,24.66 22.1288665,25.0539894 22.1288665,25.54 C22.1244005,25.8809707 21.9093813,26.1835902 21.5888665,26.3 C21.479869,26.3395611 21.3648213,26.3598636 21.2488665,26.36 C21.0664594,26.3331787 20.8852165,26.4154835 20.7853742,26.5704779 C20.685532,26.7254723 20.685532,26.9245277 20.7853742,27.0795221 C20.8852165,27.2345165 21.0664594,27.3168213 21.2488665,27.29 C21.4988102,27.2893582 21.746419,27.2418716 21.9788665,27.15 C22.6557709,26.9014066 23.1091952,26.2610442 23.1188665,25.54 C23.1188665,24.5072275 22.281639,23.67 21.2488665,23.67 C20.216094,23.67 19.3788665,24.5072275 19.3788665,25.54 L19.3788665,28.34 C17.2383864,28.3384178 15.1035535,28.5596093 13.0088665,29 C12.8831401,29.0235373 12.7728911,29.0983611 12.7045878,29.2065081 C12.6362844,29.3146552 12.6160949,29.4463587 12.6488665,29.57 C12.7430119,29.8248789 13.0175146,29.9643089 13.2788665,29.89 C15.4954393,29.4588417 17.7510846,29.2610956 20.0088665,29.3 C22.2615684,29.270891 24.5109522,29.482085 26.7188665,29.9300259 L26.8588665,29.9300259 C27.0801745,29.9321787 27.2795366,29.7966126 27.3588665,29.59 C27.3983333,29.4651173 27.3826955,29.3293324 27.315874,29.2166905 C27.2490525,29.1040485 27.1373839,29.0252311 27.0088665,29 L27.0088665,29 Z" id="Path" fill="#FFFFFF"></path>
            <path d="M13.3588665,27.27 C13.4417092,27.27 13.5088665,27.2028427 13.5088665,27.12 L13.5088665,25.59 L13.5088665,25.59 C13.5088665,25.1371265 13.875993,24.77 14.3288665,24.77 C14.78174,24.77 15.1488665,25.1371265 15.1488665,25.59 L15.1488665,27.13 C15.1488665,27.2128427 15.2160238,27.28 15.2988665,27.28 L15.9388665,27.28 C16.0217092,27.28 16.0888665,27.2128427 16.0888665,27.13 L16.0888665,25.58 C16.0888665,25.1271265 16.455993,24.76 16.9088665,24.76 C17.36174,24.76 17.7288665,25.1271265 17.7288665,25.58 L17.7288665,25.58 L17.7288665,27.11 C17.7288665,27.1928427 17.7960238,27.26 17.8788665,27.26 L18.5188665,27.26 C18.6017092,27.26 18.6688665,27.1928427 18.6688665,27.11 L18.6688665,25.59 L18.6688665,25.59 C18.6634702,24.6185894 17.8802309,23.8308999 16.9088665,23.82 C16.4164123,23.8232129 15.9481038,24.0337702 15.6188665,24.4 C15.2896292,24.0337702 14.8213207,23.8232129 14.3288665,23.82 C13.3673714,23.8358794 12.5902243,24.608611 12.5688665,25.57 L12.5688665,25.57 L12.5688665,27.13 C12.5688665,27.2128427 12.6360238,27.28 12.7188665,27.28 L13.3588665,27.27 Z" id="Path" fill="#FFFFFF"></path>
        </g>
    </g>
</svg>