<?xml version="1.0" encoding="UTF-8"?>
<svg width="59px" height="80px" viewBox="0 0 59 80" version="1.1" xmlns="http://www.w3.org/2000/svg" xmlns:xlink="http://www.w3.org/1999/xlink">
    <title>Untitled 45</title>
    <g id="Page-1" stroke="none" stroke-width="1" fill="none" fill-rule="evenodd">
        <g id="loading_2" fill-rule="nonzero">
            <rect id="emr5bf90rqyc4" fill="#E3E3E3" x="0" y="0" width="58.63" height="79.46"></rect>
            <rect id="emr5bf90rqyc5" fill="#FFFFFF" x="3.95" y="70.2" width="11.34" height="5.57"></rect>
            <path d="M29.4400182,9 C29.444044,10.118125 28.773078,11.128217 27.740834,11.557975 C26.708589,11.987734 25.519043,11.752236 24.728403,10.961597 C23.937764,10.170957 23.702266,8.981411 24.132025,7.949166 C24.561783,6.916922 25.571875,6.245956 26.69,6.24998182 C28.208783,6.24998182 29.4400182,7.481217 29.4400182,9 Z" id="emr5bf90rqyc6" fill="#FFFFFF"></path>
            <path d="M38.5200182,9 C38.524048,10.117217 37.854168,11.126678 36.823154,11.557026 C35.792139,11.987374 34.603378,11.753715 33.811949,10.965153 C33.020519,10.176592 32.782547,8.988686 33.20915,7.956116 C33.635753,6.923547 34.642776,6.2499818 35.76,6.2499818 C36.491076,6.247342 37.193121,6.535899 37.711011,7.051912 C38.228901,7.567926 38.5200182,8.268919 38.5200182,9 Z" id="emr5bf90rqyc7" fill="#FFFFFF"></path>
            <rect id="emr5bf90rqyc8" fill="#FFFFFF" x="42.77" y="5.72" width="11.79" height="6.51"></rect>
            <rect id="emr5bf90rqyc9" fill="#FFFFFF" x="2.33" y="4.45" width="17.19" height="9.05"></rect>
            <circle id="emr5bf90rqyc10" fill="#061C39" cx="28.56" cy="44.8" r="20.78"></circle>
            <circle id="emr5bf90rqyc11" fill="#FFFFFF" transform="translate(28.560000, 44.800000) rotate(-45.000000) translate(-28.560000, -44.800000) " cx="28.56" cy="44.8" r="15.3300047"></circle>
            <g id="emr5bf90rqyc12_tr" transform="translate(13.234999, 41.888889)" fill="#11B0DE">
                <path d="M15.33,18.2622255 C19.393117,18.2622255 23.289819,16.6481552 26.162876,13.7750982 C29.035933,10.9020412 30.65,7.00533922 30.65,2.94222222 C30.65,-1.12089478 23.85,9.56222222 17.23,2.94222222 C10.61,-3.67777778 0,2.94222222 0,2.94222222 C0,7.00707222 1.615439,10.9052902 4.490659,13.7786352 C7.36588,16.6519802 11.265151,18.2648752 15.33,18.2622255 Z" id="emr5bf90rqyc12"></path>
            </g>
        </g>
    </g>
</svg>