<?xml version="1.0" encoding="UTF-8"?>
<svg width="206px" height="146px" viewBox="0 0 206 146" version="1.1" xmlns="http://www.w3.org/2000/svg" xmlns:xlink="http://www.w3.org/1999/xlink">
    <title>Slice 1</title>
    <g id="Page-1" stroke="none" stroke-width="1" fill="none" fill-rule="evenodd">
        <g id="mailing_message" transform="translate(0.999484, 0.005430)">
            <path d="M33.430516,138.76457 C11.770516,138.32457 -4.239484,117.99457 1.000516,96.9945698 C1.080516,96.6445698 1.180516,96.2945698 1.270516,95.9945698 C8.270516,70.7845698 34.770516,81.4345698 49.090516,55.9045698 C63.410516,30.3745698 119.870516,15.9245698 143.000516,49.6745698 C166.130516,83.4245698 199.720516,77.5445698 203.520516,101.55457 C207.320516,125.56457 193.680516,141.68457 150.460516,140.98457 C119.450516,140.47457 63.000516,139.35457 33.430516,138.76457 Z" id="Path" fill="#DEF0F8" fill-rule="nonzero"></path>
            <path d="M138.000516,82.5845698 L137.400516,83.2345698 C135.970516,84.7845698 132.090516,88.9945698 127.820516,93.8345698 L124.740516,97.3545698 C123.190516,99.1345698 121.680516,100.92457 120.260516,102.65457 L120.260516,102.65457 C119.820516,103.16457 119.420516,103.65457 119.010516,104.15457 C118.170516,105.15457 117.390516,106.15457 116.670516,107.15457 C114.500516,109.98457 112.980516,112.26457 112.670516,113.42457 C110.940516,120.65457 114.310516,141.00457 115.180516,145.98457 L67.920516,145.98457 C69.350516,135.63457 71.330516,120.98457 71.590516,118.80457 C71.980516,115.30457 59.760516,100.27457 59.590516,89.2945698 C59.420516,78.3145698 66.590516,70.4945698 67.780516,59.7045698 C68.340516,54.6245698 67.700516,48.0045698 66.890516,42.3745698 C66.470516,39.3745698 65.980516,36.7045698 65.580516,34.6745698 C65.3970546,33.7542632 65.6817252,32.802864 66.340516,32.1345698 C66.4994557,31.9638006 66.6811639,31.8157421 66.880516,31.6945698 C67.6746808,31.1794318 68.6753557,31.1004312 69.540516,31.4845698 C72.240516,32.6445698 76.250516,35.6945698 77.040516,43.3445698 C77.040516,43.3445698 79.590516,57.3445698 83.260516,59.6345698 C84.750516,60.5645698 85.170516,49.1345698 87.060516,50.3345698 L91.720516,53.3345698 L92.040516,53.5245698 C92.700516,53.9545698 93.350516,54.3745698 94.040516,54.8045698 L94.040516,54.8045698 C94.280516,54.9545698 94.520516,55.1245698 94.780516,55.2745698 L96.130516,56.1345698 C96.2225927,56.1958294 96.3195919,56.2493462 96.420516,56.2945698 L105.650516,62.1745698 L105.650516,62.1745698 C106.160516,62.4745698 106.650516,62.8045698 107.190516,63.1745698 L108.390516,63.9245698 C108.880516,64.2545698 109.390516,64.5745698 109.910516,64.9245698 L109.910516,64.9245698 L120.220516,71.4645698 L121.740516,72.4645698 L122.930516,73.2145698 L124.430516,74.2145698 L124.430516,74.2145698 C130.650516,78.1445698 135.430516,81.2145698 137.220516,82.3345698 C137.690516,82.4245698 138.000516,82.5745698 138.000516,82.5845698 Z" id="Path" fill="#DBC5AF" fill-rule="nonzero"></path>
            <path d="M129.000516,17.2945698 C129.000516,17.2945698 137.060516,10.1445698 142.340516,14.2045698 C147.620516,18.2645698 130.450516,31.3545698 130.450516,31.3545698 L129.000516,17.2945698 Z" id="Path" fill="#DBC5AF" fill-rule="nonzero"></path>
            <path d="M142.510516,42.5745698 L136.000516,46.2045698 C133.290516,47.7045698 127.240516,48.6445698 126.000516,46.3945698 L124.730516,44.0945698 C123.490516,41.8445698 127.100516,37.4445698 129.810516,35.9445698 L136.810516,32.0945698 C139.520516,30.5945698 142.760516,31.2045698 144.010516,33.4545698 L145.280516,35.7545698 C146.420516,37.9945698 145.220516,41.0745698 142.510516,42.5745698 Z" id="Path" fill="#DBC5AF" fill-rule="nonzero"></path>
            <rect id="Rectangle" fill="#407BFF" fill-rule="nonzero" transform="translate(108.063475, 63.458486) rotate(-11.240000) translate(-108.063475, -63.458486) " x="80.0634753" y="4.32348611" width="56" height="118.27" rx="5.67"></rect>
            <rect id="Rectangle" fill="#051934" fill-rule="nonzero" transform="translate(108.063475, 63.458486) rotate(-11.240000) translate(-108.063475, -63.458486) " x="80.0634753" y="4.32348611" width="56" height="118.27" rx="5.67"></rect>
            <circle id="Oval" fill="#FFFFFF" fill-rule="nonzero" cx="118.180516" cy="114.38457" r="3.19"></circle>
            <path d="M104.870516,8.92456983 C104.744737,8.40482088 104.232316,8.07600223 103.707425,8.17821829 C103.182533,8.28043436 102.830944,8.77750808 102.90939,9.30647464 C102.987835,9.83544121 103.46855,10.2090849 104.000516,10.1545698 L104.000516,10.1545698 C104.278645,10.1122491 104.526082,9.95473026 104.682135,9.72064949 C104.838189,9.48656872 104.888423,9.1975812 104.820516,8.92456983 L104.870516,8.92456983 Z" id="Path" fill="#FFFFFF" fill-rule="nonzero"></path>
            <rect id="Rectangle" fill="#FFFFFF" fill-rule="nonzero" transform="translate(96.007745, 10.684522) rotate(-11.240000) translate(-96.007745, -10.684522) " x="90.5977449" y="9.63452239" width="10.82" height="2.1" rx="1.05"></rect>
            <rect id="Rectangle" fill="#FFFFFF" fill-rule="nonzero" transform="translate(107.688674, 61.329009) rotate(-11.290000) translate(-107.688674, -61.329009) " x="81.488674" y="12.7240089" width="52.4" height="97.21" rx="2.36"></rect>
            <path d="M142.680516,55.8745698 L135.100516,60.0745698 C132.390516,61.5745698 127.370516,61.9445698 126.100516,59.6945698 L124.830516,57.3945698 C123.590516,55.1445698 127.110516,50.7945698 129.830516,49.2945698 L136.830516,45.3945698 C139.540516,43.8945698 142.830516,44.5045698 144.030516,46.7645698 L145.290516,49.0545698 C146.600516,51.3045698 145.400516,54.3745698 142.680516,55.8745698 Z" id="Path" fill="#DBC5AF" fill-rule="nonzero"></path>
            <path d="M143.380516,68.7545698 L136.780516,72.4045698 C134.070516,73.9145698 128.070516,74.8245698 126.780516,72.5745698 L125.510516,70.2745698 C124.270516,68.0245698 127.700516,63.7245698 130.410516,62.2245698 L137.550516,58.2745698 C140.260516,56.7745698 143.500516,57.3845698 144.750516,59.6445698 L146.010516,61.9345698 C147.300516,64.1845698 146.100516,67.2545698 143.380516,68.7545698 Z" id="Path" fill="#DBC5AF" fill-rule="nonzero"></path>
            <polyline id="Path" stroke="#7FBC5B" stroke-width="4" stroke-linecap="round" stroke-linejoin="round" points="120.300516 52.3845698 105.930516 74.8745698 95.700516 66.8945698"></polyline>
        </g>
    </g>
</svg>