<?xml version="1.0" encoding="UTF-8"?>
<svg width="441px" height="316px" viewBox="0 0 441 316" version="1.1" xmlns="http://www.w3.org/2000/svg" xmlns:xlink="http://www.w3.org/1999/xlink">
    <title>Slice 1</title>
    <g id="Page-1" stroke="none" stroke-width="1" fill="none" fill-rule="evenodd">
        <g id="pay_error" transform="translate(0.989953, 0.853370)" fill-rule="nonzero">
            <path d="M72.010047,298.85663 C25.350047,297.92663 -9.11995302,254.06663 2.15004698,208.78663 C2.34004698,208.03663 2.53004698,207.28663 2.74004698,206.53663 C17.740047,152.23663 74.880047,175.17663 105.740047,120.19663 C136.600047,65.2166302 258.180047,34.2966302 307.870047,106.98663 C357.560047,179.67663 430.030047,166.98663 438.230047,218.72663 C446.430047,270.46663 417.010047,305.14663 323.950047,303.63663 C257.280047,302.54663 135.660047,300.14663 72.010047,298.85663 Z" id="Path" fill="#DAF0F9"></path>
            <path d="M297.110047,177.87663 L295.810047,179.26663 C292.740047,182.60663 284.390047,191.66663 275.190047,202.08663 C273.020047,204.54663 270.790047,207.08663 268.560047,209.66663 C265.220047,213.51663 261.950047,217.36663 258.910047,221.09663 L258.910047,221.09663 C257.970047,222.19663 257.100047,223.26663 256.220047,224.33663 C254.410047,226.56663 252.720047,228.70663 251.170047,230.70663 C246.510047,236.79663 243.240047,241.70663 242.620047,244.20663 C238.900047,259.77663 246.150047,303.61663 248.030047,314.32663 L146.290047,314.32663 C149.360047,292.05663 153.640047,260.58663 154.190047,255.79663 C155.030047,248.25663 128.710047,215.88663 128.260047,192.24663 C127.810047,168.60663 143.440047,151.75663 145.900047,128.50663 C147.100047,117.56663 145.740047,103.32663 143.990047,91.1866302 C143.080047,84.7466302 141.990047,78.9766302 141.170047,74.6066302 C140.769723,72.6305306 141.37675,70.5846226 142.790047,69.1466302 C143.137304,68.7835261 143.530654,68.4675015 143.960047,68.2066302 C145.669266,67.0920381 147.827789,66.9225206 149.690047,67.7566302 C155.510047,70.2466302 164.150047,76.8166302 165.840047,93.2966302 C165.840047,93.2966302 171.350047,123.35663 179.240047,128.37663 C182.450047,130.37663 183.350047,105.76663 187.430047,108.37663 C190.570047,110.37663 193.940047,112.48663 197.430047,114.71663 C197.650047,114.84663 197.880047,115.00663 198.110047,115.13663 C199.530047,116.04663 200.920047,116.94663 202.410047,117.88663 L202.410047,117.88663 C202.920047,118.21663 203.410047,118.56663 203.990047,118.88663 C204.930047,119.49663 205.900047,120.11663 206.910047,120.72663 C207.101159,120.866229 207.305464,120.986802 207.520047,121.08663 L227.400047,133.74663 L227.400047,133.74663 C228.500047,134.38663 229.600047,135.10663 230.700047,135.81663 C231.540047,136.36663 232.420047,136.88663 233.290047,137.43663 C234.360047,138.14663 235.460047,138.82663 236.560047,139.50663 L236.560047,139.50663 C244.240047,144.35663 251.750047,149.15663 258.770047,153.58663 C259.870047,154.29663 260.970047,154.97663 262.040047,155.65663 C262.910047,156.20663 263.760047,156.75663 264.600047,157.27663 C265.730047,157.98663 266.770047,158.66663 267.830047,159.38663 L267.830047,159.38663 C281.230047,167.82663 291.590047,174.43663 295.380047,176.86663 C296.560047,177.51663 297.110047,177.84663 297.110047,177.87663 Z" id="Path" fill="#E0C5AC"></path>
            <path d="M274.250047,37.8766302 C274.250047,37.8766302 292.750047,21.8766302 304.130047,30.5966302 C315.510047,39.3166302 278.530047,67.5266302 278.530047,67.5266302 L274.250047,37.8766302 Z" id="Path" fill="#E0C5AC"></path>
            <path d="M306.920047,91.6966302 L292.810047,99.5066302 C286.960047,102.73663 273.940047,104.76663 271.250047,99.9166302 L268.520047,94.9766302 C265.840047,90.1466302 273.610047,80.6466302 279.450047,77.4066302 L294.450047,69.1266302 C300.300047,65.8866302 307.280047,67.2066302 309.960047,72.0566302 L312.690047,76.9966302 C315.360047,81.8466302 312.770047,88.4666302 306.920047,91.6966302 Z" id="Path" fill="#E0C5AC"></path>
            <rect id="Rectangle" fill="#3078FF" transform="translate(232.742528, 136.666843) rotate(-11.240000) translate(-232.742528, -136.666843) " x="172.437528" y="9.3118426" width="120.61" height="254.71" rx="12.22"></rect>
            <rect id="Rectangle" fill="#001936" transform="translate(232.742528, 136.666843) rotate(-11.240000) translate(-232.742528, -136.666843) " x="172.437528" y="9.3118426" width="120.61" height="254.71" rx="12.22"></rect>
            <circle id="Oval" fill="#FFFFFF" cx="254.530047" cy="246.34663" r="6.88"></circle>
            <path d="M225.870047,19.2266302 C225.632076,18.0016965 224.446374,17.2014307 223.221352,17.4389461 C221.99633,17.6764616 221.195623,18.8618657 221.432683,20.086976 C221.669742,21.3120864 222.854849,22.1132342 224.080047,21.8766302 L224.080047,21.8766302 C224.66662,21.7607616 225.182953,21.4161881 225.515046,20.9189877 C225.847138,20.4217873 225.967676,19.8128528 225.850047,19.2266302 L225.870047,19.2266302 Z" id="Path" fill="#FFFFFF"></path>
            <rect id="Rectangle" fill="#FFFFFF" transform="translate(206.789878, 23.001141) rotate(-11.240000) translate(-206.789878, -23.001141) " x="195.139878" y="20.7411414" width="23.3" height="4.52" rx="2.26"></rect>
            <rect id="Rectangle" fill="#FFFFFF" transform="translate(231.940935, 132.076047) rotate(-11.290000) translate(-231.940935, -132.076047) " x="175.510935" y="27.396047" width="112.86" height="209.36" rx="2.36"></rect>
            <path d="M307.310047,120.34663 L290.980047,129.34663 C285.140047,132.57663 274.320047,133.34663 271.640047,128.53663 L268.900047,123.59663 C266.220047,118.74663 273.810047,109.36663 279.660047,106.12663 L294.820047,97.7466302 C300.660047,94.5066302 307.640047,95.8266302 310.320047,100.67663 L313.060047,105.61663 C315.740047,110.49663 313.150047,117.14663 307.310047,120.34663 Z" id="Path" fill="#E0C5AC"></path>
            <path d="M308.810047,148.08663 L294.600047,155.94663 C288.760047,159.18663 275.830047,161.15663 273.140047,156.30663 L270.410047,151.36663 C267.730047,146.51663 275.110047,137.24663 280.960047,134.01663 L296.330047,125.51663 C302.170047,122.27663 309.150047,123.60663 311.830047,128.45663 L314.570047,133.38663 C317.250047,138.23663 314.660047,144.85663 308.810047,148.08663 Z" id="Path" fill="#E0C5AC"></path>
            <path d="M263.820047,151.59663 L236.560047,132.84663 L255.310047,105.58663 C255.748676,104.999819 255.831353,104.220146 255.525547,103.554395 C255.21974,102.888643 254.5744,102.443378 253.843452,102.393801 C253.112504,102.344223 252.41295,102.69827 252.020047,103.31663 L233.260047,130.57663 L206.010047,111.81663 C205.098777,111.189787 203.85189,111.42036 203.225047,112.33163 C202.598204,113.2429 202.828777,114.489787 203.740047,115.11663 L231.010047,133.86663 L212.240047,161.14663 C211.614043,162.055319 211.84226,163.299321 212.750047,163.92663 C213.084394,164.151265 213.477263,164.27295 213.880047,164.27663 C214.539888,164.27663 215.157237,163.951059 215.530047,163.40663 L234.290047,136.14663 L261.550047,154.90663 C261.884394,155.131265 262.277263,155.25295 262.680047,155.25663 C263.55853,155.260921 264.336968,154.691452 264.598869,153.852906 C264.860771,153.014361 264.544815,152.10308 263.820047,151.60663 L263.820047,151.59663 Z" id="Path" fill="#C1272D"></path>
        </g>
    </g>
</svg>