<?xml version="1.0" encoding="UTF-8"?>
<svg width="44px" height="40px" viewBox="0 0 44 40" version="1.1" xmlns="http://www.w3.org/2000/svg" xmlns:xlink="http://www.w3.org/1999/xlink">
    <title>Slice 1</title>
    <g id="Page-1" stroke="none" stroke-width="1" fill="none" fill-rule="evenodd">
        <g id="funda_almohada_2" transform="translate(0.994534, 0.997827)">
            <path d="M18.425466,7.21217314 C11.215466,5.53217314 2.59546598,7.76217314 0.405465982,19.3621731 C-1.78453402,30.9621731 5.00546598,36.5521731 18.145466,36.6921731 C31.285466,36.8321731 45.005466,34.2321731 42.715466,23.8621731 C40.425466,13.4921731 33.155466,13.7621731 29.615466,14.3121731 C26.075466,14.8621731 24.285466,8.58217314 18.425466,7.21217314 Z" id="Path" fill="#DAF0F9" fill-rule="nonzero"></path>
            <path d="M17.085466,13.3221731 C21.0825759,14.2229446 25.1681288,14.6724225 29.265466,14.6621731 C33.3629253,14.6747072 37.4487336,14.2252012 41.445466,13.3221731 C42.0508851,13.2110407 42.6351963,13.6005815 42.765466,14.2021731 C42.7953839,14.3540471 42.7953839,14.5102992 42.765466,14.6621731 C42.465466,16.3421731 42.165466,18.1021731 41.935466,19.9821731 C41.4821212,23.7786875 41.4821212,27.6156588 41.935466,31.4121731 C42.165466,33.3321731 42.465466,35.0921731 42.765466,36.7721731 C42.8241863,37.0601037 42.7652595,37.3595593 42.6018235,37.6037739 C42.4383875,37.8479886 42.1840315,38.016657 41.895466,38.0721731 C41.7481246,38.1121129 41.5928073,38.1121129 41.445466,38.0721731 C37.4487336,37.1691451 33.3629253,36.7196391 29.265466,36.7321731 C25.1681288,36.7219238 21.0825759,37.1714017 17.085466,38.0721731 C16.4958734,38.1800991 15.9234034,37.813019 15.775466,37.2321731 C15.7352045,37.067938 15.7352045,36.8964083 15.775466,36.7321731 C16.075466,35.0521731 16.375466,33.2921731 16.595466,31.4121731 C16.8267304,29.5210475 16.9402824,27.6173808 16.935466,25.7121731 C16.940697,23.8036295 16.8271442,21.8966101 16.595466,20.0021731 C16.375466,18.1221731 16.075466,16.3221731 15.775466,14.6421731 C15.7136892,14.3554193 15.7700962,14.0558693 15.9319384,13.8112241 C16.0937806,13.566579 16.3473962,13.3974901 16.635466,13.3421731 C16.781025,13.2956443 16.9363531,13.2887408 17.085466,13.3221731 Z M1.37546598,4.40217314 C5.4673697,4.57803949 9.56611448,4.29629271 13.595466,3.56217314 C17.6376529,2.85047949 21.5861758,1.68303179 25.365466,0.0821731419 C25.6357579,-0.0291785811 25.9394498,-0.0272924063 26.2083378,0.0874080653 C26.4772258,0.202108537 26.6887717,0.420009089 26.795466,0.692173142 C26.8713544,0.832777135 26.8960952,0.995359937 26.865466,1.15217314 C26.865466,2.87217314 26.865466,4.67217314 26.975466,6.55217314 C27.0776903,8.46119691 27.2779544,10.3637059 27.575466,12.2521731 L27.575466,12.3621731 C24.2090703,12.3001546 20.8580311,11.8913278 17.575466,11.1421731 C17.1409229,11.0441726 16.6900091,11.0441726 16.255466,11.1421731 C14.4756442,11.5050622 13.3008918,13.209778 13.595466,15.0021731 C13.895466,16.7221731 14.195466,18.4421731 14.385466,20.2021731 C14.6191964,22.0163569 14.7427562,23.8430392 14.755466,25.6721731 L14.755466,25.7921731 C11.6132918,26.4941595 8.54084292,27.4781464 5.57546598,28.7321731 C5.30685359,28.8461257 5.00335553,28.8454389 4.73526162,28.7302718 C4.46716771,28.6151047 4.25773432,28.3954477 4.15546598,28.1221731 C4.0744867,27.9952499 4.02321168,27.8516798 4.00546598,27.7021731 C4.00546598,25.9821731 4.00546598,24.1821731 3.93546598,22.3121731 C3.82980164,20.4016237 3.61612686,18.4985827 3.29546598,16.6121731 C2.96842495,14.7199808 2.53777729,12.8471643 2.00546598,11.0021731 C1.45546598,9.23217314 0.855465982,7.54217314 0.295465982,5.94217314 C0.184179604,5.66512201 0.18811917,5.35510457 0.306409767,5.0809708 C0.424700363,4.80683704 0.647549536,4.59128058 0.925465982,4.48217314 C1.07140485,4.43627929 1.22265138,4.40939102 1.37546598,4.40217314 Z" id="Shape" fill="#00B2E3"></path>
        </g>
    </g>
</svg>