<?xml version="1.0" encoding="UTF-8"?>
<svg width="92px" height="73px" viewBox="0 0 92 73" version="1.1" xmlns="http://www.w3.org/2000/svg" xmlns:xlink="http://www.w3.org/1999/xlink">
    <title>Slice 1</title>
    <g id="Page-1" stroke="none" stroke-width="1" fill="none" fill-rule="evenodd">
        <g id="plan2" transform="translate(0.997578, 0.998403)" fill-rule="nonzero">
            <path d="M14.8224225,70.0015971 C5.22242245,69.6915971 -1.87757755,57.7615971 0.442422451,45.4315971 L0.562422451,44.8215971 C3.65242245,30.0015971 10.0024225,33.4515971 16.3224225,18.4915971 C22.6424225,3.53159708 54.7724225,-1.29840292 65.0024225,18.4915971 C75.2324225,38.2815971 88.4824225,34.0615971 90.1724225,48.1415971 C91.8624225,62.2215971 85.8024225,71.6615971 66.6524225,71.2515971 C52.9324225,71.0015971 27.9124225,70.3015971 14.8224225,70.0015971 Z" id="Path" fill="#9AD382"></path>
            <path d="M66.8024225,13.8315971 C63.8024225,11.9215971 57.9024225,8.71159708 51.6424225,8.52159708 L51.6424225,6.16159708 C51.6424225,5.58159708 51.3624225,4.47159708 50.3024225,4.41159708 C49.8843047,4.38680609 49.4959304,4.18717444 49.2324225,3.86159708 C48.9440208,3.53404083 48.7935174,3.10761449 48.8124225,2.67159708 C48.8195862,2.15671405 49.0376297,1.66730582 49.4156416,1.31764479 C49.7936535,0.96798376 50.2985428,0.788679189 50.8124225,0.821597077 C52.1524225,0.821597077 52.2724225,3.22159708 52.2724225,3.25159708 C52.2775993,3.36038178 52.3258448,3.46263698 52.4065149,3.53580287 C52.487185,3.60896877 52.5936504,3.64703276 52.7024225,3.64159708 C52.8112071,3.63642024 52.9134624,3.58817475 52.9866282,3.50750466 C53.0597941,3.42683458 53.0978581,3.32036915 53.0924225,3.21159708 C53.0636091,2.69018379 52.9626481,2.17528246 52.7924225,1.68159708 C52.2724225,0.291597077 51.4124225,0.00159707747 50.7824225,0.00159707747 C49.3002311,-0.0490151025 48.0566907,1.10953507 48.0024225,2.59159708 C47.9631157,3.25297495 48.1858537,3.90322627 48.6224225,4.40159708 C49.0329969,4.8903733 49.6254295,5.19020202 50.2624225,5.23159708 C50.8224225,5.23159708 50.8324225,6.13159708 50.8324225,6.16159708 L50.8324225,8.51159708 C44.8324225,8.58159708 38.9924225,11.6315971 35.9824225,13.5115971 C35.3916735,13.8820918 35.1160869,14.597835 35.3058203,15.2688432 C35.4955536,15.9398514 36.105134,16.405306 36.8024225,16.4115971 L66.0624225,16.4115971 C66.6731255,16.408279 67.2090195,16.0039521 67.3798416,15.4176168 C67.5506637,14.8312815 67.3157837,14.2023984 66.8024225,13.8715971 L66.8024225,13.8315971 Z M66.1824225,15.0015971 C66.1684105,15.0559811 66.1185544,15.0933731 66.0624225,15.0915971 L36.7924225,15.0915971 C36.6506216,15.0954998 36.5254682,14.9995489 36.4924225,14.8615971 C36.4402972,14.7288482 36.4962778,14.5781314 36.6224225,14.5115971 C39.5624225,12.7115971 45.3024225,9.72159708 51.0624225,9.72159708 L51.3024225,9.72159708 C57.3624225,9.81159708 63.1924225,12.9715971 66.1324225,14.8515971 C66.1810747,14.8845503 66.2015723,14.9460431 66.1824225,15.0015971 L66.1824225,15.0015971 Z" id="Shape" fill="#E0C5AC"></path>
            <path d="M34.1024225,67.9415971 C35.4237577,69.2282068 37.3517556,69.6716463 39.1024225,69.0915971 C41.3642845,68.3869348 43.8048403,68.5254816 45.9724225,69.4815971 C49.5724225,71.7215971 53.5024225,71.9615971 55.1424225,69.0915971 C56.2424225,67.1715971 59.7024225,71.0915971 66.8924225,69.6315971 C66.8924225,69.6315971 59.5924225,38.8315971 59.4224225,34.5315971 C59.2524225,30.2315971 64.3024225,25.1615971 61.9324225,16.6315971 C61.9324225,16.6315971 61.9324225,16.5715971 61.9324225,16.4615971 C61.9324225,16.3515971 61.8424225,15.7615971 61.8024225,15.1815971 C61.7247859,14.1473096 61.7921039,13.1072467 62.0024225,12.0915971 C62.092073,11.6659265 62.276661,11.2659858 62.5424225,10.9215971 C61.5424225,10.5015971 60.5424225,10.1015971 59.5424225,9.74159708 C59.4124225,10.0515971 59.2424225,10.4515971 59.0324225,10.9215971 C58.5224225,12.0915971 57.7824225,13.6515971 56.9324225,15.1815971 C56.6924225,15.6115971 56.4424225,16.0415971 56.1824225,16.4615971 C54.8424225,18.6515971 53.3024225,20.5215971 51.9024225,20.6815971 C51.9024225,20.6815971 50.0524225,20.4315971 47.7124225,16.4615971 C47.4824225,16.0715971 47.2524225,15.6515971 47.0124225,15.1815971 C46.3027167,13.7579142 45.6815363,12.291795 45.1524225,10.7915971 C45.0124225,10.4015971 44.7424225,9.79159708 44.6024225,9.32159708 C43.4636948,9.68042622 42.3453697,10.10105 41.2524225,10.5815971 C41.2050246,10.6471023 41.1647942,10.7175055 41.1324225,10.7915971 C41.2840745,11.2529431 41.404349,11.7240182 41.4924225,12.2015971 C41.6561226,13.1929108 41.7297564,14.1970075 41.7124225,15.2015971 C41.7124225,15.6215971 41.7124225,16.0515971 41.6224225,16.4815971 L41.6224225,16.6515971 C40.8543875,18.5521957 40.5925256,20.6195271 40.8624225,22.6515971 C41.2024225,26.5415971 42.7824225,30.5015971 42.6624225,34.5315971 C42.4224225,39.9415971 34.2724225,61.3515971 34.1024225,67.9415971 Z M61.2824225,17.0715971 L61.8624225,16.7015971 L61.2824225,17.0715971 Z" id="Shape" fill="#001936"></path>
            <path d="M45.0024225,44.5415971 C16.8124225,42.7615971 15.0024225,62.3515971 14.3224225,62.3515971 L46.7224225,62.4715971 C47.2624225,58.2815971 49.4624225,56.7215971 49.4624225,56.7215971 L45.0024225,44.5415971 Z M26.3724225,56.0615971 C26.3724225,56.0615971 29.6524225,48.3615971 41.6624225,49.7315971 C42.5494562,51.8242601 43.3304471,53.9603034 44.0024225,56.1315971 L26.3724225,56.0615971 Z" id="Shape" fill="#E4E4E4"></path>
            <rect id="Rectangle" fill="#001936" transform="translate(30.539220, 63.395222) rotate(-89.780000) translate(-30.539220, -63.395222) " x="29.4792201" y="47.1452217" width="2.12" height="32.5"></rect>
            <rect id="Rectangle" fill="#001936" transform="translate(32.772821, 55.530039) rotate(-89.780000) translate(-32.772821, -55.530039) " x="32.1178214" y="52.3850388" width="1.31" height="6.29"></rect>
            <path d="M45.0024225,44.5415971 C16.8124225,42.7615971 15.0024225,62.3515971 14.3224225,62.3515971 L46.7224225,62.4715971 C47.2624225,58.2815971 49.4624225,56.7215971 49.4624225,56.7215971 L45.0024225,44.5415971 Z M26.3724225,56.0615971 C26.3724225,56.0615971 29.6524225,48.3615971 41.6624225,49.7315971 C42.5494562,51.8242601 43.3304471,53.9603034 44.0024225,56.1315971 L26.3724225,56.0615971 Z" id="Shape" fill="#FFFFFF"></path>
            <path d="M15.1724225,59.8915971 C14.9528883,60.7361534 14.6583858,61.5594219 14.2924225,62.3515971 L46.6924225,62.4715971 C46.8017254,61.5900878 47.0131447,60.7242753 47.3224225,59.8915971 L15.1724225,59.8915971 Z" id="Path" fill="#00B2E3"></path>
        </g>
    </g>
</svg>