<?xml version="1.0" encoding="UTF-8"?>
<svg width="44px" height="40px" viewBox="0 0 44 40" version="1.1" xmlns="http://www.w3.org/2000/svg" xmlns:xlink="http://www.w3.org/1999/xlink">
    <title>Untitled 67</title>
    <g id="Page-1" stroke="none" stroke-width="1" fill="none" fill-rule="evenodd">
        <g id="polera_7" transform="translate(0.994534, 0.993319)" fill-rule="nonzero">
            <path d="M18.425466,9.23668109 C11.215466,7.55668109 2.59546598,9.78668109 0.405465982,21.3866811 C-1.78453402,32.9866811 5.00546598,38.5766811 18.145466,38.7166811 C31.285466,38.8566811 45.005466,36.2566811 42.715466,25.8866811 C40.425466,15.5166811 33.155466,15.7866811 29.615466,16.3366811 C26.075466,16.8866811 24.285466,10.5966811 18.425466,9.23668109 Z" id="Path" fill="#DAF0F9"></path>
            <path d="M18.805466,1.91668109 L18.805466,0.916681094 C18.7921178,0.471810164 18.4487124,0.106941899 18.005466,0.0666810942 C17.815466,0.00668109418 12.275466,-0.743318906 7.70546598,4.74668109 C3.45546598,9.84668109 3.12546598,10.2566811 3.10546598,10.2666811 C2.82708363,10.6032421 2.82708363,11.0901201 3.10546598,11.4266811 L7.83546598,16.6566811 C8.08902027,16.9336135 8.4890977,17.0216305 8.83546598,16.8766811 L9.51546598,16.5666811 L9.51546598,37.8266811 C9.51546598,38.0627238 9.60923357,38.2890988 9.77614095,38.4560061 C9.94304832,38.6229135 10.1694233,38.7166811 10.405466,38.7166811 L33.005466,38.7166811 C33.4969994,38.7166811 33.895466,38.3182145 33.895466,37.8266811 L33.895466,37.8266811 L33.895466,16.5766811 L34.575466,16.8766811 C34.9218343,17.0216305 35.3219117,16.9336135 35.575466,16.6566811 L40.305466,11.4266811 C40.5920586,11.0931192 40.5920586,10.600243 40.305466,10.2666811 C40.305466,10.2666811 40.005466,9.84668109 35.715466,4.74668109 C31.145466,-0.743318906 25.605466,0.00668109418 25.375466,0.0666810942 C24.9368192,0.127040925 24.6113326,0.503920144 24.615466,0.946681094 L24.615466,1.94668109 C24.6476175,2.54600255 24.6073262,3.14701406 24.495466,3.73668109 C24.255466,4.61668109 23.565466,5.52668109 21.705466,5.52668109 C20.5546487,5.51049951 19.532796,4.78685284 19.135466,3.70668109 C18.9218858,3.13383424 18.8102012,2.52803009 18.805466,1.91668109 Z" id="Path" fill="#00B2E3"></path>
            <circle id="Oval" fill="#6ABF4B" cx="33.165466" cy="9.00668109" r="8.88"></circle>
            <text id="x" fill="#FFFFFF" font-family="Helvetica" font-size="10" font-weight="normal">
                <tspan x="27.115466" y="12.2266811">x</tspan>
            </text>
        </g>
    </g>
</svg>