<?xml version="1.0" encoding="UTF-8"?>
<svg width="44px" height="43px" viewBox="0 0 44 43" version="1.1" xmlns="http://www.w3.org/2000/svg" xmlns:xlink="http://www.w3.org/1999/xlink">
    <title>Slice 1</title>
    <g id="Page-1" stroke="none" stroke-width="1" fill="none" fill-rule="evenodd">
        <g id="plumon_1" transform="translate(0.994534, 0.000000)" fill-rule="nonzero">
            <path d="M18.425466,7 C11.215466,5.27 2.59546598,7.49 0.405465982,19.09 C-1.78453402,30.69 5.00546598,36.29 18.145466,36.42 C31.285466,36.55 45.005466,34 42.715466,23.59 C40.425466,13.18 33.155466,13.5 29.615466,14 C26.075466,14.5 24.285466,8.31 18.425466,7 Z" id="Path" fill="#DAF0F9"></path>
            <path d="M25.525466,0 L25.725466,0 L25.725466,9 C25.725466,14.68 21.545466,19.32 16.305466,19.35 L7.87546598,19.35 L7.87546598,33.93 C7.87546598,39.66 12.165466,42.72 17.455466,42.73 L25.525466,42.73 C30.805466,42.73 35.085466,39.66 35.095466,33.93 L35.095466,8.65 C35.085466,2.92 30.805466,0 25.525466,0 Z" id="Path" fill="#00B2E3"></path>
            <path d="M16.635466,17.23 C20.505466,17.23 23.635466,13.91 23.715466,9.71 L23.715466,3.21 L10.795466,17.21 L16.635466,17.23 Z" id="Path" fill="#00B2E3"></path>
        </g>
    </g>
</svg>