<?xml version="1.0" encoding="UTF-8"?>
<svg width="44px" height="43px" viewBox="0 0 44 43" version="1.1" xmlns="http://www.w3.org/2000/svg" xmlns:xlink="http://www.w3.org/1999/xlink">
    <title>Slice 1</title>
    <g id="Page-1" stroke="none" stroke-width="1" fill="none" fill-rule="evenodd">
        <g id="plumon_2" transform="translate(0.994534, 0.000000)" fill-rule="nonzero">
            <path d="M18.425466,7 C11.215466,5.29 2.59546598,7.51 0.405465982,19.11 C-1.78453402,30.71 5.00546598,36.31 18.145466,36.44 C31.285466,36.57 45.005466,34 42.715466,23.62 C40.425466,13.24 33.155466,13.52 29.615466,14.06 C26.075466,14.6 24.285466,8.33 18.425466,7 Z" id="Path" fill="#DAF0F9"></path>
            <path d="M31.005466,0 L19.755466,0 L19.755466,8.9 C19.755466,14.51 15.835466,19.09 10.925466,19.12 L3.00546598,19.12 L3.00546598,33.46 C3.00546598,39.12 7.00546598,42.19 12.005466,42.2 L31.005466,42.2 C36.005466,42.2 40.005466,39.12 40.005466,33.46 L40.005466,8.57 C39.945466,2.91 35.925466,0 31.005466,0 Z" id="Path" fill="#00B2E3"></path>
            <path d="M11.215466,17 C14.835466,17.05 17.805466,13.72 17.845466,9.58 L17.845466,3.13 L5.73546598,17 L11.215466,17 Z" id="Path" fill="#00B2E3"></path>
        </g>
    </g>
</svg>