<?xml version="1.0" encoding="UTF-8"?>
<svg width="26px" height="26px" viewBox="0 0 26 26" version="1.1" xmlns="http://www.w3.org/2000/svg" xmlns:xlink="http://www.w3.org/1999/xlink">
    <title>Slice 1</title>
    <g id="Page-1" stroke="none" stroke-width="1" fill="none" fill-rule="evenodd">
        <g id="question" fill="#11B0DE" fill-rule="nonzero">
            <path d="M12.59,0 C5.636735,0 0,5.636735 0,12.59 C0,19.543265 5.636735,25.18 12.59,25.18 C19.543265,25.18 25.18,19.543265 25.18,12.59 C25.18,9.25092439 23.8535574,6.04860863 21.4924744,3.68752562 C19.1313914,1.32644262 15.9290756,0 12.59,0 Z M12.52,19.3 C11.7732826,19.2457448 11.2060275,18.6059762 11.2415598,17.858134 C11.2770922,17.1102918 11.9024498,16.527188 12.6509475,16.5439752 C13.3994451,16.5607625 13.9980316,17.1713167 14,17.92 C13.9951671,18.3021047 13.8343519,18.6656281 13.5548644,18.9262314 C13.2753769,19.1868346 12.9015091,19.3218669 12.52,19.3 Z M15.15,12.66 C13.98,13.34 13.65,13.77 13.65,14.66 L13.65,15.13 L11.32,15.13 L11.32,14.62 C11.1364505,13.4106686 11.7888227,12.2290134 12.91,11.74 C14.04,11.06 14.38,10.63 14.38,9.74 C14.3690042,9.32032168 14.18147,8.92475596 13.8635248,8.65059966 C13.5455797,8.37644335 13.1267301,8.24913918 12.71,8.3 C12.2515796,8.27702405 11.8047175,8.44839157 11.479208,8.77199748 C11.1536985,9.09560338 10.9797131,9.54145269 11,10 L8.58,10 C8.58,7.83 10.15,6.32 12.85,6.32 C15.37,6.32 17.03,7.72 17.03,9.72 C17.0175174,10.9789988 16.2876006,12.1204644 15.15,12.66 Z" id="Shape"></path>
        </g>
    </g>
</svg>