<?xml version="1.0" encoding="UTF-8"?>
<svg width="45px" height="30px" viewBox="0 0 45 30" version="1.1" xmlns="http://www.w3.org/2000/svg" xmlns:xlink="http://www.w3.org/1999/xlink">
    <title>Untitled 71</title>
    <g id="Page-1" stroke="none" stroke-width="1" fill="none" fill-rule="evenodd">
        <g id="ropa_hogar" transform="translate(1.000000, 0.000000)" fill-rule="nonzero">
            <path d="M41.0800004,13.47 L2.35000044,13.47 L2.35000044,13.47 C1.17000044,14.03 1.18000044,15.47 1.17000044,16.47 L1.17000044,17.59 C0.541390605,17.6470113 0.0463498823,18.1505142 0,18.78 L0,25.78 C-0.000549647093,26.4347345 0.515815775,26.9731668 1.17000044,27 L3.52000044,27 L3.52000044,28.17 C3.54101742,28.8111287 4.0587161,29.3244401 4.70000044,29.34 L8.22000044,29.34 C8.85738338,29.3192558 9.36925625,28.8073829 9.39000044,28.17 L9.39000044,27 L34,27 L34,28.17 C34.0207446,28.8073829 34.5326175,29.3192558 35.1700004,29.34 L38.6900004,29.34 C39.3312848,29.3244401 39.8489835,28.8111287 39.8700004,28.17 L39.8700004,27 L42.2200004,27 C42.858996,26.974117 43.3695566,26.4591927 43.3900004,25.82 L43.3900004,18.82 C43.3644562,18.1847083 42.8552921,17.6755442 42.2200004,17.65 L42.2200004,16.43 C42.2200004,15.25 42.2200004,14.08 41.0400004,13.52" id="Path" fill="#001936"></path>
            <path d="M41.0000004,1.16 C40.9658002,0.537873284 40.4718077,0.0395852814 39.8500004,0 L3.47000044,0 C2.83080771,0.0204438663 2.3158834,0.531004402 2.29000044,1.17 L2.35000044,13.47 L41.0800004,13.47 L41.0000004,1.16 Z" id="Path" fill="#E0C5AC"></path>
            <path d="M13.5000004,8.8 C14.7926221,8.88842582 16.0623926,9.18560615 17.2600004,9.68 C17.0530052,10.7435817 16.9657948,11.8270028 17.0000004,12.91 L10.0000004,12.91 C9.99497225,11.8341266 9.90132222,10.7604958 9.72000044,9.7 C10.9235597,9.19915898 12.1998776,8.89527376 13.5000004,8.8 L13.5000004,8.8 Z" id="Path" fill="#FFFFFF"></path>
            <path d="M29.9300004,8.8 C31.2226221,8.88842582 32.4923926,9.18560615 33.6900004,9.68 C33.4897085,10.744336 33.4092071,11.8277506 33.4500004,12.91 L26.4500004,12.91 C26.4615617,11.8343046 26.3745312,10.7598125 26.1900004,9.7 C27.3816978,9.2055472 28.6438211,8.90182768 29.9300004,8.8 L29.9300004,8.8 Z" id="Path" fill="#FFFFFF"></path>
            <path d="M4.71000044,15.26 L38.7100004,15.26 C39.8200004,15.26 39.8800004,15.7 39.8900004,16.43 L39.8900004,17.61 L3.52000044,17.61 L3.52000044,16.49 C3.50000044,15.35 4.00000044,15.26 4.71000044,15.26 Z" id="Path" fill="#FFFFFF"></path>
        </g>
    </g>
</svg>