<?xml version="1.0" encoding="UTF-8"?>
<svg width="44px" height="37px" viewBox="0 0 44 37" version="1.1" xmlns="http://www.w3.org/2000/svg" xmlns:xlink="http://www.w3.org/1999/xlink">
    <title>Slice 1</title>
    <g id="Page-1" stroke="none" stroke-width="1" fill="none" fill-rule="evenodd">
        <g id="sabanas_2" transform="translate(0.994534, 0.000000)" fill-rule="nonzero">
            <path d="M18.425466,6.87 C11.215466,5.2 2.59546598,7.42 0.405465982,19 C-1.78453402,30.58 5.00546598,36.21 18.145466,36.35 C31.285466,36.49 45.005466,33.89 42.715466,23.52 C40.425466,13.15 33.155466,13.42 29.615466,14 C26.075466,14.58 24.285466,8.24 18.425466,6.87 Z" id="Path" fill="#DAF0F9"></path>
            <path d="M38.835466,9.05 L4.30546598,9.05 C2.0930027,9.16802621 0.370053949,11.0146739 0.405465982,13.23 C0.405465982,13.37 0.405465982,24.05 0.405465982,24.04 C0.359901131,24.8210056 0.954622044,25.4917435 1.73546598,25.54 L6.13546598,25.54 L6.13546598,28 C6.08601491,28.7665043 6.63501802,29.4418653 7.39546598,29.55 C7.78111879,29.5424676 8.14711365,29.3783718 8.40929205,29.0954455 C8.67147046,28.8125192 8.8072706,28.4351096 8.78546598,28.05 L8.78546598,25.54 L34.355466,25.54 L34.355466,28 C34.3060149,28.7665043 34.855018,29.4418653 35.615466,29.55 C36.0011188,29.5424676 36.3671136,29.3783718 36.6292921,29.0954455 C36.8914705,28.8125192 37.0272706,28.4351096 37.005466,28.05 L37.005466,25.54 L41.415466,25.54 C41.7961815,25.5145671 42.1506426,25.3369867 42.3989612,25.0472816 C42.6472798,24.7575766 42.7685594,24.3801262 42.735466,24 L42.735466,13.41 C42.8548662,11.1317432 41.1128927,9.18430608 38.835466,9.05 L38.835466,9.05 Z" id="Path" fill="#00B2E3"></path>
            <path d="M37.085466,0 L25.325466,0 C24.2711304,0.0539546868 23.4557962,0.945030335 23.495466,2 L23.495466,6.9 L38.915466,6.9 L38.915466,2 C38.9551358,0.945030335 38.1398016,0.0539546868 37.085466,0 Z" id="Path" fill="#00B2E3"></path>
            <path d="M18.915466,0 L7.16546598,0 C6.10716427,0.0486647799 5.28592312,0.941318207 5.32546598,2 L5.32546598,6.9 L20.755466,6.9 L20.755466,2 C20.7950088,0.941318207 19.9737677,0.0486647799 18.915466,0 Z" id="Path" fill="#00B2E3"></path>
        </g>
    </g>
</svg>