<?xml version="1.0" encoding="UTF-8"?>
<svg width="44px" height="37px" viewBox="0 0 44 37" version="1.1" xmlns="http://www.w3.org/2000/svg" xmlns:xlink="http://www.w3.org/1999/xlink">
    <title>Slice 1</title>
    <g id="Page-1" stroke="none" stroke-width="1" fill="none" fill-rule="evenodd">
        <g id="sabanas_1" transform="translate(0.994534, 0.000000)" fill-rule="nonzero">
            <path d="M18.425466,7 C11.215466,5.31 2.59546598,7.53 0.405465982,19.13 C-1.78453402,30.73 5.00546598,36.32 18.145466,36.46 C31.285466,36.6 45.005466,34 42.715466,23.63 C40.425466,13.26 33.155466,13.53 29.615466,14.08 C26.075466,14.63 24.285466,8.35 18.425466,7 Z" id="Path" fill="#DAF0F9"></path>
            <path d="M31.845466,8.76982464 L11.155466,8.76982464 C8.62801921,8.75066949 6.53391006,10.7257451 6.40546598,13.25 L6.40546598,24.84 C6.40546598,25.7252878 7.12019526,26.4445013 8.00546598,26.45 L10.915466,26.45 L10.915466,29.09 C10.9028706,29.9621621 11.5751711,30.6915862 12.445466,30.75 C12.8853809,30.7690325 13.3140906,30.6081729 13.6329029,30.3044524 C13.9517151,30.0007319 14.1331594,29.5803204 14.135466,29.14 L14.135466,26.45 L28.855466,26.45 L28.855466,29.09 C28.8482278,29.9638334 29.5235447,30.6917724 30.395466,30.75 C30.8353809,30.7690325 31.2640906,30.6081729 31.5829029,30.3044524 C31.9017151,30.0007319 32.0831594,29.5803204 32.085466,29.14 L32.085466,26.45 L35.005466,26.45 C35.8962765,26.450017 36.6199672,25.7307936 36.625466,24.84 L36.625466,13.44 C36.597986,10.8370959 34.4684204,8.74779521 31.865466,8.76982464 L31.845466,8.76982464 Z" id="Path" fill="#00B2E3"></path>
            <path d="M27.545466,0 L15.455466,0 C14.4116478,0 13.565466,0.846181823 13.565466,1.89 L13.565466,6.49 L29.435466,6.49 L29.435466,1.89 C29.435466,0.846181823 28.5892842,0 27.545466,0 L27.545466,0 Z" id="Path" fill="#00B2E3"></path>
        </g>
    </g>
</svg>