<?xml version="1.0" encoding="UTF-8"?>
<svg width="44px" height="40px" viewBox="0 0 44 40" version="1.1" xmlns="http://www.w3.org/2000/svg" xmlns:xlink="http://www.w3.org/1999/xlink">
    <title>Untitled 4</title>
    <g id="Page-1" stroke="none" stroke-width="1" fill="none" fill-rule="evenodd">
        <g id="chaleco_sueter" transform="translate(0.994534, 0.970482)" fill-rule="nonzero">
            <path d="M18.425466,9.19951759 C11.215466,7.52951759 2.59546598,9.74951759 0.405465982,21.3495176 C-1.78453402,32.9495176 5.00546598,38.5395176 18.145466,38.6795176 C31.285466,38.8195176 45.005466,36.2195176 42.715466,25.8495176 C40.425466,15.4795176 33.155466,15.7495176 29.615466,16.2995176 C26.075466,16.8495176 24.285466,10.5695176 18.425466,9.19951759 Z" id="Path" fill="#DAF0F9"></path>
            <path d="M38.005466,12.2395176 C37.115466,9.14951759 36.875466,7.70951759 34.505466,4.44951759 C32.2068115,1.41753818 28.5303248,-0.245723963 24.735466,0.0295175947 L18.135466,0.0295175947 C14.3775776,-0.0946291216 10.7764755,1.53954659 8.39546598,4.44951759 C6.00546598,7.70951759 5.78546598,9.14951759 4.89546598,12.2395176 C3.36546598,17.6995176 0.135465982,31.2895176 0.235465982,31.9495176 C0.335465982,32.6095176 4.65546598,34.2395176 4.65546598,34.2395176 C5.03546598,34.4295176 5.51546598,34.6795176 5.65546598,34.4495176 L11.235466,15.5895176 L11.235466,37.5895176 C11.2409432,38.0550497 11.6199016,38.4295176 12.085466,38.4295176 L30.825466,38.4295176 C31.0482478,38.4295176 31.2619051,38.3410178 31.4194357,38.1834873 C31.5769662,38.0259567 31.665466,37.8122994 31.665466,37.5895176 L31.665466,15.5895176 L37.245466,34.4495176 C37.345466,34.6795176 37.835466,34.4495176 38.245466,34.2395176 C38.245466,34.2395176 42.565466,32.5995176 42.665466,31.9495176 C42.765466,31.2995176 39.505466,17.6995176 38.005466,12.2395176 Z M21.535466,30.2395176 C21.1082178,30.2798437 20.6949998,30.0746721 20.4688755,29.7099325 C20.2427511,29.345193 20.2427511,28.8838422 20.4688755,28.5191027 C20.6949998,28.1543631 21.1082178,27.9491915 21.535466,27.9895176 C22.115833,28.0442959 22.5592822,28.5315712 22.5592822,29.1145176 C22.5592822,29.697464 22.115833,30.1847393 21.535466,30.2395176 Z M21.535466,20.3795176 C21.0766288,20.3835604 20.6609032,20.1097378 20.4834411,19.6865887 C20.3059791,19.2634396 20.4020197,18.7749903 20.7264792,18.4505308 C21.0509387,18.1260713 21.539388,18.0300307 21.9625371,18.2074928 C22.3856862,18.3849548 22.6595088,18.8006804 22.655466,19.2595176 C22.6284536,19.8718173 22.1182544,20.3509609 21.505466,20.3395176 L21.535466,20.3795176 Z M21.535466,10.5195176 C21.0766288,10.5235604 20.6609032,10.2497378 20.4834411,9.82658872 C20.3059791,9.40343965 20.4020197,8.91499029 20.7264792,8.59053079 C21.0509387,8.2660713 21.539388,8.17003068 21.9625371,8.34749276 C22.3856862,8.52495484 22.6595088,8.94068039 22.655466,9.39951759 C22.6284536,10.0118173 22.1182544,10.4909609 21.505466,10.4795176 L21.535466,10.5195176 Z" id="Shape" fill="#00B2E3"></path>
        </g>
    </g>
</svg>