<?xml version="1.0" encoding="UTF-8"?>
<svg width="512px" height="512px" viewBox="0 0 512 512" version="1.1" xmlns="http://www.w3.org/2000/svg" xmlns:xlink="http://www.w3.org/1999/xlink">
    <title>Slice 1</title>
    <g id="Page-1" stroke="none" stroke-width="1" fill="none" fill-rule="evenodd">
        <g id="sms" fill-rule="nonzero">
            <circle id="Oval" fill="#7FBC5B" cx="256" cy="256" r="256"></circle>
            <g id="Group" transform="translate(104.000000, 136.000000)" fill="#FFFFFF">
                <path d="M280.616,8 C289.112,8.008 295.992,14.888 295.999993,23.384 L295.999993,187.08 C295.992,195.576 289.112,202.456 280.616,202.464 L225.848,202.464 L225.848,264 L151.152,204.248 L148.96,202.496 L23.36,202.496 C14.864,202.472 7.992,195.576 7.99999302,187.08 L7.99999302,23.384 C8.008,14.888 14.888,8.008 23.384,8 L280.616,8 M280.616,0 L23.384,0 C10.488,0.04 0.04,10.488 0,23.384 L0,187.08 C0.04,199.976 10.488,210.424 23.384,210.464 L146.152,210.464 L233.848,280.616 L233.848,210.464 L280.616,210.464 C293.512,210.424 303.96,199.976 304,187.08 L304,23.384 C303.96,10.488 293.512,0.04 280.616,0 Z" id="Shape"></path>
                <path d="M50.248,125.896 C54.968,128.848 60.384,130.488 65.952,130.64 C74.616,130.64 78.68,126.304 78.68,120.888 C78.68,115.208 75.296,112.088 66.496,108.84 C54.72,104.648 49.168,98.144 49.168,90.296 C49.648,79.144 59.072,70.496 70.224,70.968 C70.744,70.992 71.264,71.032 71.776,71.096 C77.408,71.04 82.952,72.44 87.888,75.152 L84.912,83.816 C80.88,81.32 76.24,80 71.504,80 C64.456,80 60.536,84.064 60.536,88.936 C60.536,94.352 64.456,96.784 72.992,100.04 C84.368,104.368 90.184,110.056 90.184,119.808 C90.184,131.312 81.248,139.432 65.68,139.432 C59.264,139.552 52.928,138.008 47.28,134.96 L50.248,125.896 Z" id="Path"></path>
                <path d="M105.488,90.296 C105.488,83.528 105.352,77.976 104.952,72.56 L115.352,72.56 L115.888,83.12 L116.296,83.12 C120.304,75.52 128.28,70.848 136.872,71.072 C145.24,70.984 152.72,76.28 155.416,84.2 L155.688,84.2 C157.504,80.88 159.992,77.976 162.992,75.68 C167.136,72.504 172.264,70.872 177.488,71.08 C186.152,71.08 199.008,76.76 199.008,99.504 L199.008,138.088 L187.384,138.088 L187.384,100.992 C187.384,88.408 182.784,80.824 173.176,80.824 C166.664,81.096 161.032,85.432 159.096,91.656 C158.48,93.584 158.16,95.592 158.152,97.616 L158.152,138.096 L146.504,138.096 L146.504,98.824 C146.504,88.424 141.904,80.816 132.832,80.816 C125.872,81.216 119.936,86.008 118.072,92.728 C117.408,94.6 117.088,96.568 117.128,98.552 L117.128,138.08 L105.488,138.08 L105.488,90.296 L105.488,90.296 Z" id="Path"></path>
                <path d="M216.8,125.896 C221.52,128.848 226.936,130.488 232.504,130.64 C241.168,130.64 245.232,126.304 245.232,120.888 C245.232,115.208 241.848,112.088 233.048,108.84 C221.272,104.648 215.72,98.144 215.72,90.296 C216.2,79.144 225.624,70.496 236.776,70.968 C237.296,70.992 237.816,71.032 238.328,71.096 C243.96,71.04 249.504,72.44 254.44,75.152 L251.464,83.816 C247.432,81.32 242.784,80 238.048,80 C231,80 227.08,84.064 227.08,88.936 C227.08,94.352 231,96.784 239.536,100.04 C250.912,104.368 256.728,110.056 256.728,119.808 C256.728,131.312 247.792,139.432 232.224,139.432 C225.808,139.552 219.472,138.008 213.824,134.96 L216.8,125.896 Z" id="Path"></path>
            </g>
        </g>
    </g>
</svg>