<?xml version="1.0" encoding="UTF-8"?>
<svg width="364px" height="232px" viewBox="0 0 364 232" version="1.1" xmlns="http://www.w3.org/2000/svg" xmlns:xlink="http://www.w3.org/1999/xlink">
    <title>Untitled 80</title>
    <g id="Page-1" stroke="none" stroke-width="1" fill="none" fill-rule="evenodd">
        <g id="success_comment" transform="translate(-0.000295, 0.004663)" fill-rule="nonzero">
            <path d="M59.5802949,195.275337 C20.9802949,194.495337 -7.54970508,157.975337 1.78029492,120.275337 C1.93029492,119.655337 2.10029492,119.025337 2.27029492,118.395337 C14.6702949,73.185337 62.0002949,92.295337 87.4902949,46.515337 C112.980295,0.735336992 213.630295,-25.004663 254.750295,35.505337 C295.870295,96.015337 355.830295,85.505337 362.610295,128.555337 C369.390295,171.605337 345.070295,200.555337 268.050295,199.255337 C212.880295,198.345337 112.250295,196.345337 59.5802949,195.275337 Z" id="Path" fill="#D4EEF8"></path>
            <path d="M88.2502949,119.855337 L174.360295,68.305337 C179.106839,65.4611407 185.033751,65.4611407 189.780295,68.305337 L275.890295,119.855337 L275.890295,203.855337 L88.2502949,194.465337 L88.2502949,119.855337 Z" id="Path" fill="#6ABF4B"></path>
            <rect id="Rectangle" fill="#F0F9FC" x="104.400295" y="82.625337" width="155.34" height="134.24"></rect>
            <polygon id="Path" fill="#88CB6C" points="275.890295 119.625337 275.890295 231.955337 88.2502949 231.955337 88.2502949 119.625337 182.070295 175.785337"></polygon>
            <path d="M88.2502949,231.995337 L174.190295,170.385337 C178.899467,167.003823 185.241123,167.003823 189.950295,170.385337 L275.890295,231.995337 L88.2502949,231.995337 Z" id="Path" fill="#6ABF4B"></path>
            <path d="M276.470295,47.815337 L234.470295,47.815337 C234.470295,47.815337 233.070295,33.745337 243.170295,30.755337 C253.270295,27.765337 255.420295,33.675337 255.420295,33.675337 C255.420295,33.675337 257.630295,21.555337 271.770295,22.675337 C285.910295,23.795337 286.000295,36.935337 286.000295,36.935337 C286.000295,36.935337 298.120295,35.225337 299.670295,47.815337 L276.470295,47.815337 Z" id="Path" fill="#77CFED"></path>
            <path d="M39.0702949,184.735337 L13.8902949,184.735337 C13.8902949,184.735337 13.0502949,176.285337 19.1102949,174.495337 C25.1702949,172.705337 26.4602949,176.245337 26.4602949,176.245337 C26.4602949,176.245337 27.7902949,168.975337 36.2702949,169.675337 C40.9298623,169.781837 44.6756976,173.545321 44.7602949,178.205337 C44.7602949,178.205337 52.0302949,177.205337 52.9602949,184.735337 L39.0702949,184.735337 Z" id="Path" fill="#77CFED"></path>
        </g>
    </g>
</svg>