<?xml version="1.0" encoding="UTF-8"?>
<svg width="44px" height="42px" viewBox="0 0 44 42" version="1.1" xmlns="http://www.w3.org/2000/svg" xmlns:xlink="http://www.w3.org/1999/xlink">
    <title>Untitled</title>
    <g id="Page-1" stroke="none" stroke-width="1" fill="none" fill-rule="evenodd">
        <g id="abrigo_parka" transform="translate(0.994534, 0.991486)" fill-rule="nonzero">
            <path d="M18.425466,9.19851444 C11.215466,7.51851444 2.59546598,9.73851444 0.405465982,21.3385144 C-1.78453402,32.9385144 5.00546598,38.5385144 18.145466,38.6785144 C31.285466,38.8185144 45.005466,36.2185144 42.715466,25.8485144 C40.425466,15.4785144 33.155466,15.7485144 29.615466,16.2885144 C26.075466,16.8285144 24.285466,10.5585144 18.425466,9.19851444 Z" id="Path" fill="#DAF0F9"></path>
            <path d="M42.705466,31.3985144 C42.075466,24.3185144 38.935466,12.6685144 38.795466,12.1385144 C37.105466,6.80851444 30.275466,5.13851444 27.895466,4.74851444 C28.0004711,4.17355682 28.0038556,3.584641 27.905466,3.00851444 L27.905466,2.90851444 C27.6253325,2.14594101 27.1239227,1.48435863 26.465466,1.00851444 C26.325466,0.888514444 25.005466,-0.101485556 21.505466,0.00851444386 C18.005466,-0.0914855561 16.685466,0.888514444 16.565466,1.00851444 C15.9107948,1.48821857 15.410339,2.14854218 15.125466,2.90851444 C15.1310607,2.94161302 15.1310607,2.97541586 15.125466,3.00851444 C15.020205,3.59381958 15.020205,4.19320931 15.125466,4.77851444 C12.745466,5.19851444 5.92546598,6.83851444 4.21546598,12.1985144 C4.08546598,12.6985144 0.945465982,24.3485144 0.315465982,31.4285144 C0.209990415,32.8047349 0.345351941,34.1888065 0.715465982,35.5185144 C0.796271513,35.7465736 0.989120231,35.9167342 1.22546598,35.9685144 L4.92546598,36.9685144 C5.16004061,37.0243261 5.40704324,36.9607042 5.58546598,36.7985144 C6.69346735,35.6692107 7.48643443,34.2694514 7.88546598,32.7385144 L9.49546598,24.8985144 C9.38546598,29.6185144 9.37546598,34.8285144 9.80546598,36.4085144 C10.0037343,37.631026 10.4679974,38.7950974 11.165466,39.8185144 C11.3009336,39.9605793 11.4891729,40.040219 11.685466,40.0385413 L31.345466,40.0385413 C31.5410633,40.0367893 31.7280215,39.9576917 31.865466,39.8185144 C32.5528591,38.8101901 33.0103105,37.6631479 33.205466,36.4585144 C33.645466,34.8485144 33.645466,29.6185144 33.535466,24.8785144 L35.155466,32.7685144 C35.5587642,34.2757622 36.344066,35.6534847 37.435466,36.7685144 C37.6132942,36.9391871 37.8677785,37.0037577 38.105466,36.9385144 L41.805466,35.9985144 C42.0371244,35.9419941 42.2249402,35.7729599 42.305466,35.5485144 C42.6881242,34.2006506 42.8236422,32.7946515 42.705466,31.3985144 Z M22.365466,5.00851444 C21.9696555,5.05059836 21.6805193,5.40201006 21.715466,5.79851444 C21.7234785,5.87139751 21.7437648,5.94239958 21.775466,6.00851444 C21.6014855,5.70113334 21.3785623,5.42416817 21.115466,5.18851444 C21.002609,5.08460514 20.8583424,5.02126858 20.705466,5.00851444 C20.3229472,4.97483559 19.9445448,4.90451303 19.575466,4.79851444 C20.2019003,4.61539973 20.8530504,4.53105386 21.505466,4.54851444 C22.1546006,4.53094917 22.8024736,4.61530762 23.425466,4.79851444 C23.0797739,4.90270403 22.7247704,4.97303491 22.365466,5.00851444 Z" id="Shape" fill="#00B2E3"></path>
        </g>
    </g>
</svg>