<?xml version="1.0" encoding="UTF-8"?>
<svg width="44px" height="37px" viewBox="0 0 44 37" version="1.1" xmlns="http://www.w3.org/2000/svg" xmlns:xlink="http://www.w3.org/1999/xlink">
    <title>Slice 1</title>
    <g id="Page-1" stroke="none" stroke-width="1" fill="none" fill-rule="evenodd">
        <g id="toalla_grande" transform="translate(0.994534, 0.000000)">
            <path d="M18.425466,7 C11.215466,5.3 2.59546598,7.53 0.405465982,19.13 C-1.78453402,30.73 5.00546598,36.32 18.145466,36.46 C31.285466,36.6 45.005466,34 42.715466,23.63 C40.425466,13.26 33.155466,13.53 29.615466,14.08 C26.075466,14.63 24.285466,8.34 18.425466,7 Z" id="Path" fill="#DAF0F9" fill-rule="nonzero"></path>
            <path d="M32.545466,0 L10.465466,0 C8.88402297,0.0100181218 7.59384674,1.26926547 7.54546598,2.85 L7.54546598,2.85 L7.54546598,26.63 C7.54926605,28.1948856 8.78211661,29.4805726 10.345466,29.55 L10.345466,2.85 L10.345466,2.85 L10.345466,2.1 L12.345466,2.1 L12.345466,32.36 L35.455466,32.36 L35.455466,2.92 C35.455466,1.31122572 34.1542308,0.00550950095 32.545466,0 Z" id="Path" fill="#00B2E3"></path>
        </g>
    </g>
</svg>