<?xml version="1.0" encoding="UTF-8"?>
<svg width="44px" height="37px" viewBox="0 0 44 37" version="1.1" xmlns="http://www.w3.org/2000/svg" xmlns:xlink="http://www.w3.org/1999/xlink">
    <title>Untitled 81</title>
    <g id="Page-1" stroke="none" stroke-width="1" fill="none" fill-rule="evenodd">
        <g id="toalla_chica" transform="translate(0.994534, 0.000000)">
            <path d="M18.425466,7 C11.215466,5.28 2.59546598,7.51 0.405465982,19.11 C-1.78453402,30.71 5.00546598,36.3 18.145466,36.44 C31.285466,36.58 45.005466,34 42.715466,23.61 C40.425466,13.22 33.155466,13.51 29.615466,14.06 C26.075466,14.61 24.285466,8.33 18.425466,7 Z" id="Path" fill="#DAF0F9" fill-rule="nonzero"></path>
            <path d="M29.435466,0 L13.565466,0 C12.4270643,0.00493526637 11.4978272,0.912047661 11.465466,2.05 L11.465466,2.05 L11.465466,19.15 C11.4692508,20.2698157 12.3471663,21.191627 13.465466,21.25 L13.465466,2.05 L13.465466,2.05 L13.465466,1.51 L14.915466,1.51 L14.915466,23.27 L31.515466,23.27 L31.515466,2.1 C31.5101326,0.950190763 30.5851715,0.0163358053 29.435466,0 Z" id="Path" fill="#00B2E3"></path>
        </g>
    </g>
</svg>