<?xml version="1.0" encoding="UTF-8"?>
<svg width="44px" height="42px" viewBox="0 0 44 42" version="1.1" xmlns="http://www.w3.org/2000/svg" xmlns:xlink="http://www.w3.org/1999/xlink">
    <title>Slice 1</title>
    <g id="Page-1" stroke="none" stroke-width="1" fill="none" fill-rule="evenodd">
        <g id="traje_terno" transform="translate(0.994534, 0.999946)" fill-rule="nonzero">
            <path d="M18.425466,9.23005395 C11.215466,7.55005395 2.59546598,9.78005395 0.405465982,21.380054 C-1.78453402,32.980054 5.00546598,38.570054 18.145466,38.710054 C31.285466,38.850054 45.005466,36.250054 42.715466,25.880054 C40.425466,15.510054 33.155466,15.780054 29.615466,16.330054 C26.075466,16.880054 24.285466,10.590054 18.425466,9.23005395 Z" id="Path" fill="#DAF0F9"></path>
            <path d="M42.735466,34.770054 L34.845466,5.42005395 L27.845466,3.69005395 C27.365027,3.57105561 26.9621256,3.24507172 26.745466,2.80005395 L25.845466,0.940053951 C25.5770056,0.365485808 24.9996568,-0.00120871204 24.365466,0 L18.795466,0 C18.1576645,-0.00511974837 17.5754435,0.362187457 17.305466,0.940053951 L16.415466,2.80005395 C16.2054986,3.24635351 15.8047395,3.57357881 15.325466,3.69005395 L8.32546598,5.42005395 L0.325465982,34.650054 L6.68546598,34.650054 L12.375466,17.250054 L10.545466,39.500054 C14.1701452,40.1856704 17.8578866,40.4806897 21.545466,40.380054 C25.2327019,40.4680313 28.9191135,40.1731184 32.545466,39.500054 L30.775466,17.250054 L36.315466,34.770054 L42.735466,34.770054 Z" id="Path" fill="#00B2E3"></path>
        </g>
    </g>
</svg>