<?xml version="1.0" encoding="UTF-8"?>
<svg width="44px" height="43px" viewBox="0 0 44 43" version="1.1" xmlns="http://www.w3.org/2000/svg" xmlns:xlink="http://www.w3.org/1999/xlink">
    <title>Untitled 86</title>
    <g id="Page-1" stroke="none" stroke-width="1" fill="none" fill-rule="evenodd">
        <g id="vestido_fiesta" transform="translate(0.994534, 0.000000)" fill-rule="nonzero">
            <path d="M18.425466,9.19 C11.215466,7.52 2.59546598,9.74 0.405465982,21.34 C-1.78453402,32.94 5.00546598,38.53 18.145466,38.67 C31.285466,38.81 45.005466,36.21 42.715466,25.84 C40.425466,15.47 33.155466,15.74 29.615466,16.29 C26.075466,16.84 24.285466,10.56 18.425466,9.19 Z" id="Path" fill="#DAF0F9"></path>
            <path d="M17.835466,0.08 C18.7876182,3.33922283 19.9603239,6.52991796 21.345466,9.63 C21.345466,9.8 21.455466,9.63 21.485466,9.58 C22.005466,8.4 22.565466,7.2 23.005466,6 C23.795466,3.79 24.405466,2.29 25.005466,0 C25.6867467,0.294169333 26.3886163,0.538152576 27.105466,0.73 C27.915466,0.97 28.745466,1.18 29.555466,1.41 C29.645466,4.94 29.675466,8.47 29.555466,11.99 C29.555466,13.12 29.445466,14.25 29.315466,15.38 C29.3134925,15.7974965 29.1648278,16.201015 28.895466,16.52 C28.2881921,17.0684711 27.5273129,17.4174982 26.715466,17.52 C26.915466,18.02 27.085466,18.52 27.295466,19.03 C28.0910832,19.7782274 28.727166,20.679628 29.165466,21.68 C29.335466,22.12 29.465466,22.57 29.605466,23.02 C30.515466,26.02 31.305466,29.02 32.075466,32.02 C32.675466,34.32 33.235466,36.62 33.795466,38.92 C33.8180041,39.223529 33.7482903,39.5267842 33.595466,39.79 C33.1368294,40.7324517 32.2635307,41.4059278 31.235466,41.61 C29.6941124,41.9316291 28.1345363,42.1587194 26.565466,42.29 C23.485466,42.58 20.385466,42.69 17.285466,42.72 C17.285466,42.42 17.235466,42.13 17.215466,41.83 C15.7677512,42.1640973 14.2600469,42.1366221 12.825466,41.75 C11.7196709,41.3153389 10.7472901,40.5981218 10.005466,39.67 C10.515466,36.53 11.065466,33.4 11.685466,30.28 C12.185466,27.73 12.685466,25.18 13.415466,22.67 C13.7639577,21.4126448 14.494241,20.2945076 15.505466,19.47 C15.615466,19.37 15.775466,19.3 15.815466,19.15 C15.955466,18.75 16.075466,18.36 16.215466,17.97 C15.5237205,17.9649919 14.8527292,17.733131 14.305466,17.31 C13.9111458,16.9792109 13.6485759,16.5179396 13.565466,16.01 C13.3089421,14.5012011 13.1419833,12.9785364 13.065466,11.45 C12.875466,8.2 12.885466,4.94 12.955466,1.69 C12.9471333,1.52837506 12.9640018,1.36643778 13.005466,1.21 L15.305466,0.64 L17.835466,0.08 Z" id="Path" fill="#00B2E3"></path>
        </g>
    </g>
</svg>