<?xml version="1.0" encoding="UTF-8"?>
<svg width="44px" height="44px" viewBox="0 0 44 44" version="1.1" xmlns="http://www.w3.org/2000/svg" xmlns:xlink="http://www.w3.org/1999/xlink">
    <title>Slice 1</title>
    <g id="Page-1" stroke="none" stroke-width="1" fill="none" fill-rule="evenodd">
        <g id="vestido_diario" transform="translate(0.994534, 0.970000)" fill-rule="nonzero">
            <path d="M18.425466,9.26 C11.215466,7.58 2.59546598,9.8 0.405465982,21.4 C-1.78453402,33 5.00546598,38.6 18.145466,38.73 C31.285466,38.86 45.005466,36.28 42.715466,25.91 C40.425466,15.54 33.155466,15.81 29.615466,16.35 C26.075466,16.89 24.285466,10.62 18.425466,9.26 Z" id="Path" fill="#DAF0F9"></path>
            <path d="M7.26546598,38.52 C7.1770982,38.7291985 7.17719955,38.9652631 7.26574691,39.1743856 C7.35429428,39.3835081 7.52374185,39.5478675 7.73546598,39.63 C17.129367,43.3926497 27.6115649,43.3926497 37.005466,39.63 C37.2171901,39.5478675 37.3866377,39.3835081 37.4751851,39.1743856 C37.5637324,38.9652631 37.5638338,38.7291985 37.475466,38.52 C36.4738554,36.3174061 35.3349485,34.1798684 34.065466,32.12 C31.615466,27.95 29.305466,24.01 29.295466,19.62 L30.895466,8.3 C30.9267933,8.08803255 30.8728571,7.87228783 30.745466,7.7 L28.575466,4.7 L28.575466,0.88 C28.575466,0.39398942 28.1814766,0 27.695466,0 C27.2094554,0 26.815466,0.39398942 26.815466,0.88 L26.815466,4.58 L22.385466,9.19 L18.005466,4.58 L18.005466,0.88 C18.005466,0.39398942 17.6114766,0 17.125466,0 C16.6394554,0 16.245466,0.39398942 16.245466,0.88 L16.245466,4.65 L14.005466,7.71 C13.881611,7.88013309 13.8279063,8.09137164 13.855466,8.3 L15.415466,19.62 C15.415466,24.01 13.095466,27.95 10.645466,32.12 C9.38622942,34.1806417 8.25735092,36.3181632 7.26546598,38.52 Z" id="Path" fill="#00B2E3"></path>
        </g>
    </g>
</svg>