<?xml version="1.0" encoding="UTF-8"?>
<svg width="512px" height="354px" viewBox="0 0 512 354" version="1.1" xmlns="http://www.w3.org/2000/svg" xmlns:xlink="http://www.w3.org/1999/xlink">
    <title>Slice 1</title>
    <g id="Page-1" stroke="none" stroke-width="1" fill="none" fill-rule="evenodd">
        <g id="AmericanExpress" transform="translate(0.000000, 0.451000)" fill-rule="nonzero">
            <path d="M512,322.83 C512,339.546 498.45,353.097 481.735,353.097 L30.265,353.097 C13.55,353.097 0,339.546 0,322.83 L0,30.266 C0,13.551 13.55,0 30.265,0 L481.735,0 C498.451,0 512,13.551 512,30.266 L512,322.83 L512,322.83 Z" id="Path" fill="#306FC5"></path>
            <path d="M21.517,322.83 L21.517,30.266 C21.517,13.551 35.069,0 51.784,0 L30.264,0 C13.55,0 0,13.55 0,30.266 L0,322.831 C0,339.547 13.55,353.098 30.265,353.098 L51.785,353.098 C35.07,353.098 21.517,339.546 21.517,322.83 Z" id="Path" fill="#202121" opacity="0.15"></path>
            <g id="Group" transform="translate(36.748000, 103.747000)" fill="#FFFFFF">
                <polygon id="Path" points="37.842 37.55 53.14 37.55 45.493 18.08"></polygon>
                <polygon id="Path" points="119.198 102.909 119.198 111.95 144.927 111.95 144.927 121.687 119.198 121.687 119.198 132.12 147.707 132.12 160.918 117.514 148.403 102.909"></polygon>
                <polygon id="Path" points="320.15 18.08 311.805 37.55 327.8 37.55"></polygon>
                <polygon id="Path" points="193.6 137.677 193.6 98.043 175.52 117.514"></polygon>
                <path d="M227.672,109.17 C226.976,104.998 224.192,102.909 220.018,102.909 L205.419,102.909 L205.419,115.425 L220.718,115.425 C224.889,115.426 227.672,113.341 227.672,109.17 Z" id="Path"></path>
                <path d="M276.342,114.038 C277.733,113.341 278.431,111.253 278.431,109.171 C279.127,106.392 277.733,104.999 276.342,104.303 C274.955,103.607 272.866,103.607 270.783,103.607 L256.873,103.607 L256.873,114.734 L270.782,114.734 C272.865,114.734 274.954,114.734 276.342,114.038 Z" id="Path"></path>
                <path d="M376.469,-2.84217094e-14 L376.469,8.344 L372.3,-2.84217094e-14 L339.622,-2.84217094e-14 L339.622,8.344 L335.448,-2.84217094e-14 L290.946,-2.84217094e-14 C283.298,-2.84217094e-14 277.037,1.392 271.477,4.173 L271.477,-2.84217094e-14 L240.188,-2.84217094e-14 L240.188,0.696 L240.188,4.173 C236.712,1.393 232.54,-2.84217094e-14 226.977,-2.84217094e-14 L115.027,-2.84217094e-14 L107.375,17.384 L99.728,-2.84217094e-14 L74.697,-2.84217094e-14 L64.266,-2.84217094e-14 L64.266,8.344 L60.789,-2.84217094e-14 L60.093,-2.84217094e-14 L30.194,-2.84217094e-14 L16.285,32.68 L0.294,68.142 L-1.42108547e-14,68.839 L0.294,68.839 L35.757,68.839 L36.201,68.839 L36.453,68.142 L40.627,57.714 L49.666,57.714 L53.838,68.839 L94.164,68.839 L94.164,68.142 L94.164,60.495 L97.643,68.838 L117.806,68.838 L121.281,60.495 L121.281,68.142 L121.281,68.839 L137.274,68.839 L217.239,68.839 L217.935,68.839 L217.935,50.759 L219.329,50.759 C220.718,50.759 220.718,50.759 220.718,52.846 L220.718,68.143 L270.783,68.143 L270.783,63.971 C274.955,66.06 281.209,68.143 289.554,68.143 L310.417,68.143 L314.589,57.02 L324.321,57.02 L328.493,68.143 L368.821,68.143 L368.821,61.191 L368.821,57.715 L375.082,68.143 L376.469,68.143 L377.167,68.143 L407.762,68.143 L407.762,-2.84217094e-14 L376.471,-2.84217094e-14 L376.471,-2.84217094e-14 L376.469,-2.84217094e-14 L376.469,-2.84217094e-14 Z M140.753,58.411 L133.798,58.411 L129.627,58.411 L129.627,54.242 L129.627,20.166 L128.931,21.761 L128.931,21.742 L112.755,58.411 L112.243,58.411 L108.524,58.411 L102.507,58.411 L85.82,20.166 L85.82,58.411 L62.18,58.411 L57.313,47.981 L33.669,47.981 L28.801,58.411 L16.578,58.411 L37.148,9.736 L54.53,9.736 L73.999,56.323 L73.999,9.736 L78.17,9.736 L92.421,9.736 L92.749,10.433 L92.773,10.433 L101.546,29.527 L107.846,43.833 L108.069,43.112 L121.975,9.737 L140.753,9.737 L140.753,58.411 L140.753,58.411 L140.753,58.411 Z M188.733,20.166 L161.614,20.166 L161.614,29.205 L188.037,29.205 L188.037,38.939 L161.614,38.939 L161.614,48.677 L188.733,48.677 L188.733,59.104 L149.794,59.104 L149.794,9.737 L188.733,9.737 L188.733,20.166 L188.733,20.166 Z M238.328,38.096 C238.346,38.112 238.369,38.123 238.391,38.138 C238.654,38.416 238.879,38.695 239.071,38.962 C240.403,40.708 241.48,43.305 241.534,47.113 C241.538,47.179 241.541,47.244 241.545,47.31 C241.545,47.348 241.552,47.381 241.552,47.42 C241.552,47.442 241.55,47.459 241.55,47.48 C241.566,47.863 241.576,48.254 241.576,48.677 L241.576,58.412 L231.148,58.412 L231.148,52.847 C231.148,50.066 231.148,45.893 229.059,43.112 C228.402,42.455 227.737,42.022 227.013,41.714 C225.971,41.039 223.996,41.028 220.718,41.028 L208.198,41.028 L208.198,58.412 L196.38,58.412 L196.38,9.737 L222.805,9.737 C229.059,9.737 233.233,9.737 236.711,11.823 C240.118,13.869 242.176,17.262 242.254,22.635 C242.093,30.035 237.343,34.095 233.928,35.464 C233.928,35.464 236.248,35.931 238.328,38.096 Z M261.743,58.411 L249.921,58.411 L249.921,9.736 L261.743,9.736 L261.743,58.411 Z M397.335,58.411 L382.035,58.411 L359.785,21.556 L359.785,52.151 L359.712,52.079 L359.712,58.441 L347.965,58.441 L347.965,58.412 L336.143,58.412 L331.971,47.982 L307.632,47.982 L303.46,59.105 L290.249,59.105 C284.69,59.105 277.732,57.716 273.562,53.544 C269.39,49.372 267.306,43.809 267.306,34.771 C267.306,27.818 268.695,20.86 273.562,15.299 C277.036,11.124 283.297,9.737 290.944,9.737 L302.072,9.737 L302.072,20.166 L290.944,20.166 C286.772,20.166 284.69,20.859 281.903,22.949 C279.821,25.034 278.429,29.205 278.429,34.072 C278.429,39.636 279.125,43.112 281.903,45.893 C283.994,47.982 286.773,48.678 290.249,48.678 L295.116,48.678 L311.107,10.435 L318.064,10.435 L328.492,10.435 L347.964,57.022 L347.964,54.646 L347.964,38.941 L347.964,37.552 L347.964,10.436 L365.346,10.436 L385.507,44.506 L385.507,10.436 L397.333,10.436 L397.333,58.413 L397.335,58.413 L397.335,58.411 L397.335,58.411 Z" id="Shape"></path>
                <path d="M228.413,30.009 C228.616,29.792 228.8,29.546 228.956,29.264 C229.586,28.267 230.308,26.471 229.919,24.02 C229.903,23.795 229.862,23.587 229.814,23.386 C229.801,23.33 229.803,23.281 229.788,23.225 L229.781,23.226 C229.435,22.035 228.552,21.303 227.671,20.859 C226.277,20.166 224.191,20.166 222.106,20.166 L208.197,20.166 L208.197,31.293 L222.106,31.293 C224.191,31.293 226.278,31.293 227.671,30.596 C227.88,30.49 228.066,30.346 228.245,30.183 L228.247,30.192 C228.248,30.191 228.319,30.117 228.413,30.009 Z" id="Path"></path>
                <path d="M438.357,127.946 C438.357,123.079 436.968,118.21 434.883,114.734 L434.883,83.445 L434.851,83.445 L434.851,81.356 C434.851,81.356 405.706,81.356 401.368,81.356 C397.032,81.356 391.77,85.527 391.77,85.527 L391.77,81.356 L359.786,81.356 C354.916,81.356 348.662,82.748 345.877,85.527 L345.877,81.356 L288.861,81.356 L288.861,83.445 L288.861,85.526 C284.692,82.052 277.037,81.355 273.563,81.355 L236.014,81.355 L236.014,83.444 L236.014,85.525 C232.538,82.051 224.19,81.354 220.016,81.354 L178.302,81.354 L168.565,91.785 L159.525,81.354 L156.614,81.354 L151.877,81.354 L96.947,81.354 L96.947,83.443 L96.947,88.936 L96.947,151.587 L158.137,151.587 L168.191,141.53 L176.906,151.587 L177.604,151.587 L212.862,151.587 L214.46,151.587 L215.156,151.587 L215.848,151.587 L215.848,144.634 L215.848,135.595 L219.327,135.595 C224.19,135.595 230.451,135.595 235.318,133.506 L235.318,150.888 L235.318,152.282 L266.609,152.282 L266.609,150.888 L266.609,134.202 L267.996,134.202 C270.085,134.202 270.085,134.202 270.085,136.288 L270.085,150.888 L270.085,152.282 L364.648,152.282 C370.911,152.282 377.165,150.888 380.641,148.107 L380.641,150.888 L380.641,152.282 L410.543,152.282 C416.797,152.282 423.06,151.587 427.232,148.804 C433.634,144.963 437.669,138.164 438.269,130.055 C438.297,129.815 438.332,129.575 438.357,129.334 L438.313,129.295 C438.339,128.845 438.357,128.4 438.357,127.946 Z M219.328,123.775 L205.418,123.775 L205.418,125.856 L205.418,130.03 L205.418,134.203 L205.418,141.852 L182.563,141.852 L169.261,126.553 L169.215,126.604 L168.565,125.856 L153.268,141.852 L108.767,141.852 L108.767,93.179 L153.964,93.179 L166.312,106.704 L168.908,109.536 L169.26,109.171 L183.864,93.18 L220.716,93.18 C227.868,93.18 235.877,94.945 238.912,102.222 C239.277,103.663 239.489,105.265 239.489,107.085 C239.489,120.991 229.754,123.775 219.328,123.775 Z M288.861,123.078 C290.25,125.159 290.946,127.945 290.946,132.119 L290.946,141.851 L279.127,141.851 L279.127,135.595 C279.127,132.809 279.127,127.945 277.038,125.856 C275.651,123.775 272.866,123.775 268.697,123.775 L256.182,123.775 L256.182,141.852 L244.362,141.852 L244.362,92.483 L270.783,92.483 C276.342,92.483 281.209,92.483 284.692,94.567 C288.166,96.655 290.946,100.132 290.946,105.695 C290.946,113.342 286.081,117.514 282.603,118.907 C286.081,120.292 288.166,121.687 288.861,123.078 Z M336.841,102.909 L309.719,102.909 L309.719,111.949 L336.143,111.949 L336.143,121.686 L309.719,121.686 L309.719,131.422 L336.841,131.422 L336.841,141.851 L297.902,141.851 L297.902,92.482 L336.841,92.482 L336.841,102.909 Z M366.043,141.852 L343.791,141.852 L343.791,131.423 L366.043,131.423 C368.125,131.423 369.519,131.423 370.913,130.031 C371.609,129.334 372.3,127.946 372.3,126.554 C372.3,125.16 371.609,123.776 370.913,123.079 C370.215,122.384 368.822,121.688 366.737,121.688 C355.611,120.992 342.4,121.688 342.4,106.392 C342.4,99.438 346.572,91.788 359.089,91.788 L382.034,91.788 L382.034,103.607 L360.48,103.607 C358.395,103.607 357.002,103.607 355.61,104.303 C354.223,105 354.223,106.392 354.223,107.781 C354.223,109.868 355.61,110.564 357.001,111.254 C358.395,111.951 359.784,111.951 361.173,111.951 L367.432,111.951 C373.691,111.951 377.862,113.342 380.643,116.124 C382.73,118.211 384.121,121.688 384.121,126.554 C384.121,136.981 377.863,141.852 366.043,141.852 Z M425.842,136.981 C423.064,139.766 418.194,141.852 411.238,141.852 L388.992,141.852 L388.992,131.423 L411.237,131.423 C413.324,131.423 414.718,131.423 416.107,130.031 C416.8,129.334 417.498,127.946 417.498,126.554 C417.498,125.16 416.8,123.776 416.107,123.079 C415.411,122.384 414.022,121.688 411.935,121.688 C400.813,120.992 387.598,121.688 387.598,106.393 C387.598,99.784 391.379,93.814 400.704,92.041 C401.819,91.887 402.997,91.788 404.287,91.788 L427.235,91.788 L427.235,103.607 L411.935,103.607 L406.374,103.607 L405.678,103.607 C403.591,103.607 402.202,103.607 400.813,104.303 C400.113,105 399.417,106.392 399.417,107.781 C399.417,109.868 400.113,110.564 402.202,111.254 C403.591,111.951 404.982,111.951 406.374,111.951 L407.065,111.951 L412.63,111.951 C415.669,111.951 417.967,112.326 420.07,113.065 C421.996,113.762 428.372,116.614 429.798,124.059 C429.922,124.839 430.013,125.653 430.013,126.554 C430.013,130.727 428.622,134.203 425.842,136.981 Z" id="Shape"></path>
            </g>
        </g>
    </g>
</svg>