<?xml version="1.0" encoding="UTF-8"?>
<svg width="258px" height="208px" viewBox="0 0 258 208" version="1.1" xmlns="http://www.w3.org/2000/svg" xmlns:xlink="http://www.w3.org/1999/xlink">
    <title>Untitled 14</title>
    <g id="Page-1" stroke="none" stroke-width="1" fill="none" fill-rule="evenodd">
        <g id="DINERSCLUB" transform="translate(0.000000, 1.000000)" fill="#062151" fill-rule="nonzero">
            <path d="M48,103 C48.0111513,126.28082 62.3578041,147.150847 84.09,155.5 L84.09,50.5 C62.3743502,58.8701261 48.0366592,79.7271164 48,103 Z" id="Path"></path>
            <path d="M224.38,28.85 C203.894039,10.2917809 177.242033,0.00948113879 149.6,0 L103.91,0 C44.67,0 0,44.71 0,104 C0,160.42 46.44,206.33 103.51,206.33 L150.08,206.33 C177.08,206.33 204.25,195.4 224.57,176.33 C245.57,156.63 257.171911,130.93 257.171911,103.96 C257.34543,75.4145397 245.433184,48.1279027 224.38,28.85 L224.38,28.85 Z M128.579995,181.85 C94.5082237,192.403312 57.511512,179.88529 36.8476296,150.811895 C16.1837472,121.7385 16.5245521,82.6828808 37.6926464,53.9745176 C58.8607407,25.2661544 96.07027,13.3956668 129.952693,24.5419569 C163.835115,35.6882469 186.730018,67.3312709 186.720515,103 C186.847646,139.230542 163.227893,171.267929 128.579995,181.86 L128.579995,181.85 Z" id="Shape"></path>
            <path d="M128.58,52.31 C127.19,51.64 125.78,51.01 124.33,50.45 L124.33,155.45 C125.78,154.9 127.19,154.27 128.58,153.6 C148.065825,144.250176 160.461966,124.55288 160.461966,102.94 C160.461966,81.3271204 148.065825,61.6298239 128.58,52.28 L128.58,52.31 Z" id="Path"></path>
        </g>
    </g>
</svg>