<?xml version="1.0" encoding="UTF-8"?>
<svg width="512px" height="156px" viewBox="0 0 512 156" version="1.1" xmlns="http://www.w3.org/2000/svg" xmlns:xlink="http://www.w3.org/1999/xlink">
    <title>Slice 1</title>
    <g id="Page-1" stroke="none" stroke-width="1" fill="none" fill-rule="evenodd">
        <g id="VISA" fill="#201890" fill-rule="nonzero">
            <polygon id="Path" points="187.73 151.16 213.74 4.88 254.38 4.88 229.18 151.16"></polygon>
            <polygon id="Path" points="187.73 151.16 221.05 4.88 254.38 4.88 229.18 151.16"></polygon>
            <path d="M376.28,6.5 C368.15,3.25 355.15,0 338.9,0 C298.26,0 269,20.32 269,49.57 C269,71.52 289.32,82.9 305.57,90.21 C321.82,97.52 326.7,102.4 326.7,108.9 C326.7,118.65 313.7,123.53 302.32,123.53 C286.07,123.53 277.13,121.09 263.32,115.4 L257.63,113 L251.94,146.32 C261.69,150.38 279.57,154.44 298.26,154.44 C341.33,154.44 369.78,134.13 369.78,103.24 C369.78,86.18 359.21,73.17 334.83,62.61 C320.2,55.29 311.26,51.23 311.26,43.92 C311.26,37.41 318.58,30.92 334.83,30.92 C348.65,30.92 358.4,33.36 365.71,36.61 L369.78,38.24 L376.28,6.54 L376.28,6.5 Z" id="Path"></path>
            <path d="M376.28,6.5 C368.15,3.25 355.15,0 338.9,0 C298.26,0 276.32,20.32 276.32,49.57 C276.32,71.52 289.32,82.9 305.57,90.21 C321.82,97.52 326.7,102.4 326.7,108.9 C326.7,118.65 313.7,123.53 302.32,123.53 C286.07,123.53 277.13,121.09 263.32,115.4 L257.63,113 L251.94,146.32 C261.69,150.38 279.57,154.44 298.26,154.44 C341.33,154.44 369.78,134.13 369.78,103.24 C369.78,86.18 359.21,73.17 334.83,62.61 C320.2,55.29 311.26,51.23 311.26,43.92 C311.26,37.41 318.58,30.92 334.83,30.92 C348.65,30.92 358.4,33.36 365.71,36.61 L369.78,38.24 L376.28,6.54 L376.28,6.5 Z" id="Path"></path>
            <path d="M446.17,4.88 C436.42,4.88 429.1,5.69 425.04,15.44 L364.04,151.16 L408,151.16 L416.13,126.78 L468.13,126.78 L473,151.16 L512,151.16 L477.87,4.88 L446.17,4.88 Z M427.48,102.4 C429.92,95.09 443.73,59.33 443.73,59.33 C443.73,59.33 446.98,50.39 449.42,44.7 L451.86,58.51 C451.86,58.51 459.99,95.09 461.61,103.21 L427.48,103.21 L427.48,102.4 Z" id="Shape"></path>
            <path d="M455.92,4.88 C446.17,4.88 438.86,5.69 434.79,15.44 L364.09,151.16 L408,151.16 L416.13,126.78 L468.13,126.78 L473,151.16 L512,151.16 L477.87,4.88 L455.92,4.88 Z M427.48,102.4 C430.73,94.27 443.73,59.33 443.73,59.33 C443.73,59.33 446.98,50.39 449.42,44.7 L451.86,58.51 C451.86,58.51 459.99,95.09 461.61,103.21 L427.48,103.21 L427.48,102.4 Z" id="Shape"></path>
            <path d="M113,107.28 L108.9,86.15 C101.59,61.77 78,35 52,21.94 L88.58,152 L132.47,152 L198.3,5.69 L154.41,5.69 L113,107.28 Z" id="Path"></path>
            <path d="M113,107.28 L108.9,86.15 C101.59,61.77 78,35 52,21.94 L88.58,152 L132.47,152 L198.3,5.69 L162.54,5.69 L113,107.28 Z" id="Path"></path>
            <path d="M0,4.88 L7.31,6.5 C59.31,18.69 95.09,49.57 108.9,86.15 L94.27,17.07 C91.83,7.31 84.52,4.88 75.58,4.88 L0,4.88 Z" id="Path"></path>
            <path d="M0,4.88 L0,4.88 C52,17.07 95.09,48.76 108.9,85.33 L95.09,27.63 C93.0191624,18.5405008 84.9021243,12.1167659 75.58,12.19 L0,4.88 Z" id="Path"></path>
            <path d="M0,4.88 L0,4.88 C52,17.07 95.09,48.76 108.9,85.33 L99.15,53.64 C96.71,43.89 93.46,34.13 82.08,30.07 L0,4.88 Z" id="Path"></path>
            <path d="M153.6,102.4 L126,74.77 L113,105.65 L109.74,85.33 C102.4,61 78.83,34.13 52.83,21.13 L89.4,151.13 L133.28,151.13 L153.6,102.4 Z" id="Path"></path>
            <polygon id="Path" points="229.18 151.16 194.24 115.4 187.73 151.16"></polygon>
            <path d="M322.64,100.77 L322.64,100.77 C325.89,104.03 327.52,106.46 326.7,109.71 C326.7,119.47 313.7,124.34 302.32,124.34 C286.07,124.34 277.13,121.9 263.32,116.22 L257.64,113.78 L251.95,147.1 C261.7,151.16 279.58,155.23 298.27,155.23 C324.27,155.23 345.41,147.91 357.6,134.91 L322.64,100.77 Z" id="Path"></path>
            <path d="M369.78,151.16 L408,151.16 L416.13,126.78 L468.13,126.78 L473,151.16 L512,151.16 L498.18,91.83 L449.42,44.7 L451.86,57.7 C451.86,57.7 459.99,94.27 461.61,102.4 L427.48,102.4 C430.73,94.27 443.73,59.33 443.73,59.33 C443.73,59.33 446.98,50.39 449.42,44.7" id="Path"></path>
        </g>
    </g>
</svg>