<?xml version="1.0" encoding="UTF-8"?>
<svg width="131px" height="97px" viewBox="0 0 131 97" version="1.1" xmlns="http://www.w3.org/2000/svg" xmlns:xlink="http://www.w3.org/1999/xlink">
    <title>Slice 1</title>
    <g id="Page-1" stroke="none" stroke-width="1" fill="none" fill-rule="evenodd">
        <g id="how" transform="translate(0.001555, 0.997417)" fill-rule="nonzero">
            <path d="M21.4284448,88.3125829 C7.54844483,88.0025829 -2.71155517,73.0025829 0.638444833,57.5825829 C0.698444833,57.3325829 0.748444833,57.0725829 0.818444833,56.8225829 C5.27844483,38.2925829 14.4184448,42.5725829 23.5984448,23.8225829 C32.7784448,5.07258286 79.2184448,-0.997417139 93.9984448,23.8225829 C108.778445,48.6425829 127.998445,43.3425829 130.418445,61.0025829 C132.838445,78.6625829 124.108445,90.4825829 96.4184448,90.0025829 C76.5584448,89.5725829 40.3684448,88.7525829 21.4284448,88.3125829 Z" id="Path" fill="#F0F8FB"></path>
            <path d="M97.7184448,5.00258286 L29.7184448,5.00258286 C28.807175,5.00258286 28.0679559,4.2638527 28.0679559,3.35258286 L28.0679559,3.35258286 C28.0577214,2.91059016 28.2237609,2.48258074 28.5297495,2.16345147 C28.8357382,1.84432221 29.2563919,1.66044297 29.6984448,1.65258286 L97.6984448,1.65258286 C98.6113299,1.65808227 99.3489332,2.39968126 99.3489332,3.31258286 L99.3489332,3.31258286 C99.3591709,3.75363109 99.1928228,4.18060558 98.8865502,4.49815197 C98.5802777,4.81569837 98.1595926,4.99736565 97.7184448,5.00258286 Z" id="Path" fill="#DBC5AF"></path>
            <path d="M73.2384448,21.1725829 C69.4784448,18.7625829 62.0484448,14.7325829 54.1784448,14.4825829 L54.1784448,7.75258286 C54.1784448,7.02258286 53.8284448,5.63258286 52.4884448,5.55258286 C51.9664001,5.51484459 51.4823902,5.26561558 51.1484448,4.86258286 C50.7848739,4.44511711 50.592052,3.90592969 50.6084448,3.35258286 C50.6131893,2.707967 50.8803097,2.09309564 51.3482334,1.64970019 C51.8161571,1.20630474 52.444507,0.972645711 53.0884448,1.00258286 C54.7784448,1.00258286 54.9384448,4.00258286 54.9384448,4.06258286 C54.8778255,4.27479297 54.9577654,4.50215219 55.1378543,4.6297289 C55.3179432,4.75730561 55.5589465,4.75730561 55.7390354,4.6297289 C55.9191243,4.50215219 55.9990642,4.27479297 55.9384448,4.06258286 C55.8956221,3.40880593 55.7678823,2.76338396 55.5584448,2.14258286 C54.9984448,0.372582861 53.8884448,0.00258286104 53.0884448,0.00258286104 C52.1901642,-0.0325354063 51.3148995,0.291637147 50.6562093,0.903412108 C49.9975191,1.51518707 49.6096746,2.36415862 49.5784448,3.26258286 C49.5314023,4.09392296 49.8154363,4.91007112 50.3684448,5.53258286 C50.8910347,6.13155107 51.6345587,6.49248503 52.4284448,6.53258286 C53.1284448,6.53258286 53.1484448,7.65258286 53.1484448,7.70258286 L53.1484448,14.4225829 C45.6184448,14.5225829 38.2484448,18.3525829 34.4684448,20.6725829 C33.769775,21.1559379 33.4527181,22.0279427 33.6777782,22.8471616 C33.9028384,23.6663805 34.6208947,24.2540136 35.4684448,24.312584 L72.3084448,24.312584 C73.0781287,24.3134456 73.7558197,23.8057069 73.9712423,23.066784 C74.186665,22.3278611 73.8880055,21.535481 73.2384448,21.1225829 L73.2384448,21.1725829 Z M72.4684448,22.6725829 C72.45345,22.74749 72.3845542,22.7991618 72.3084448,22.7925829 L35.4984448,22.7925829 C35.317953,22.8016914 35.1572901,22.6790802 35.1184448,22.5025829 C35.0577506,22.3340477 35.1302013,22.1465284 35.2884448,22.0625829 C38.9984448,19.7925829 46.1984448,16.0025829 53.4484448,16.0025829 L53.7384448,16.0025829 C61.3684448,16.1125829 68.7384448,20.0925829 72.3984448,22.4525829 C72.4398118,22.469326 72.4715755,22.503619 72.4851065,22.546145 C72.4986376,22.5886711 72.4921683,22.6350139 72.4684448,22.6725829 Z" id="Shape" fill="#DBC5AF"></path>
            <path d="M40.9984448,17.2025829 C44.9517089,20.4059027 49.9113249,22.1063425 54.9984448,22.0025829 C63.2684448,21.6925829 67.1884448,17.5525829 67.1884448,17.5525829 C67.1884448,17.5525829 73.6984448,20.8625829 75.0484448,22.7225829 C76.3984448,24.5825829 76.9984448,43.6025829 76.9984448,43.6025829 C74.9117061,44.3599752 72.7083798,44.7458111 70.4884448,44.7425829 L69.1484448,40.7425829 L73.2184448,95.1125829 C73.2184448,95.1125829 68.2184448,95.3125829 65.1484448,93.5825829 C62.0784448,91.8525829 57.8684448,94.1025829 53.9984448,94.6325829 C50.1284448,95.1625829 47.8184448,92.1725829 43.9984448,93.4125829 C40.5631439,94.574474 36.8920081,94.8597776 33.3184448,94.2425829 L39.5184448,40.5125829 L37.8384448,44.4325829 C37.8384448,44.4325829 32.0784448,44.4325829 30.2184448,42.4325829 C30.2184448,42.4325829 32.4284448,22.2225829 33.6684448,20.9825829 C34.9084448,19.7425829 40.9984448,17.2025829 40.9984448,17.2025829 Z" id="Path" fill="#11B0DE"></path>
            <path d="M55.1484448,22.9225829 C55.3896552,23.751578 56.1356049,24.3322091 56.9984448,24.362584 L93.8484448,24.362584 C94.6181287,24.3634456 95.2958197,23.8557069 95.5112423,23.116784 C95.726665,22.3778611 95.4280055,21.585481 94.7784448,21.1725829 C92.5837865,19.7668559 90.2835786,18.5331688 87.8984448,17.4825829 C86.5607999,16.8950731 85.1920995,16.3809759 83.7984448,15.9425829 C81.1850352,15.0867876 78.4660887,14.5954928 75.7184448,14.4825829 L75.7184448,14.4825829 L75.7184448,7.75258286 C75.7184448,7.02258286 75.3584448,5.63258286 74.0284448,5.55258286 C73.5057527,5.51715957 73.0208818,5.26748727 72.6884448,4.86258286 C72.3248739,4.44511711 72.132052,3.90592969 72.1484448,3.35258286 C72.1531893,2.707967 72.4203097,2.09309564 72.8882334,1.64970019 C73.3561571,1.20630474 73.984507,0.972645711 74.6284448,1.00258286 C76.3084448,1.00258286 76.4684448,4.00258286 76.4784448,4.06258286 C76.5422178,4.28583283 76.7462649,4.43975429 76.9784448,4.43975429 C77.2106248,4.43975429 77.4146719,4.28583283 77.4784448,4.06258286 C77.4356221,3.40880593 77.3078823,2.76338396 77.0984448,2.14258286 C76.5084448,0.372582861 75.4284448,0.00258286104 74.6284448,0.00258286104 C73.7301642,-0.0325354063 72.8548995,0.291637147 72.1962093,0.903412108 C71.5375191,1.51518707 71.1496746,2.36415862 71.1184448,3.26258286 C71.0714023,4.09392296 71.3554363,4.91007112 71.9084448,5.53258286 C72.4146308,6.11986721 73.1349058,6.48000466 73.9084448,6.53258286 C74.6184448,6.53258286 74.6284448,7.65258286 74.6284448,7.70258286 L74.6284448,14.4225829 C71.5612032,14.5123765 68.5258931,15.0722225 65.6284448,16.0825829 C64.3284448,16.5225829 63.0784448,17.0125829 61.9184448,17.5325829 C59.8506356,18.4442265 57.8461566,19.4932372 55.9184448,20.6725829 C55.1753147,21.1565933 54.8576788,22.0847502 55.1484448,22.9225829 L55.1484448,22.9225829 Z M56.8284448,22.0525829 C58.6905194,20.9266064 60.6247019,19.9244394 62.6184448,19.0525829 C63.7784448,18.5425829 65.0184448,18.0525829 66.3084448,17.6225829 C69.0998982,16.6215571 72.0338073,16.0746143 74.9984448,16.0025829 L75.2884448,16.0025829 C78.0074645,16.0768327 80.701689,16.5415865 83.2884448,17.3825829 C84.8150308,17.8652381 86.3110856,18.4396162 87.7684448,19.1025829 C89.9015553,20.0723162 91.9633712,21.1917787 93.9384448,22.4525829 C93.9986718,22.4907061 94.0237524,22.5659481 93.9984448,22.6325829 C93.9880998,22.7059868 93.9223293,22.7586032 93.8484448,22.7525829 L56.9984448,22.7525829 C56.817953,22.7616914 56.6572901,22.6390802 56.6184448,22.4625829 C56.5881888,22.2942285 56.6741453,22.1264087 56.8284448,22.0525829 L56.8284448,22.0525829 Z" id="Shape" fill="#DBC5AF"></path>
            <path d="M107.108445,59.6125829 L94.9984448,18.4725829 L84.6184448,15.9125829 C83.9091096,15.7352015 83.3154409,15.2514714 82.9984448,14.5925829 L81.6784448,11.8225829 C81.2768894,10.9703245 80.4205612,10.4253883 79.4784448,10.4225829 L71.1884448,10.4225829 C70.2506613,10.4316352 69.4003271,10.9752278 68.9984448,11.8225829 L67.6784448,14.5925829 C67.3487192,15.2654935 66.7302615,15.7514245 65.9984448,15.9125829 L55.6184448,18.4725829 L43.5384448,59.6125829 L52.9984448,59.6125829 L61.6884448,36.0525829 L58.9284448,66.4725829 C58.9284448,66.4725829 64.2584448,67.7825829 75.3284448,67.7825829 C86.1984448,67.7825829 91.7184448,66.4725829 91.7184448,66.4725829 L88.9984448,36.0525829 L97.5684448,59.6125829 L107.108445,59.6125829 Z" id="Path" fill="#051934"></path>
        </g>
    </g>
</svg>