<?xml version="1.0" encoding="UTF-8"?>
<svg width="228px" height="169px" viewBox="0 0 228 169" version="1.1" xmlns="http://www.w3.org/2000/svg" xmlns:xlink="http://www.w3.org/1999/xlink">
    <title>Untitled 39</title>
    <g id="Page-1" stroke="none" stroke-width="1" fill="none" fill-rule="evenodd">
        <g id="laundry_empty" transform="translate(0.999151, 0.000000)" fill-rule="nonzero">
            <path d="M37.1608486,166.43 C13.0808486,166 -4.70915142,143.32 1.11084858,120 L1.41084858,118.84 C9.15084858,90.84 38.6408486,102.66 54.5608486,74.29 C70.4808486,45.92 133.230849,29.96 158.870849,67.47 C184.510849,104.98 221.870849,98.47 226.140849,125.13 C230.410849,151.79 215.200849,169.73 167.140849,168.95 C132.760849,168.34 70.0008486,167.09 37.1608486,166.43 Z" id="Path" fill="#DAF0F9"></path>
            <rect id="Rectangle" fill="#FFFFFF" x="62.3008486" y="25.07" width="89.55" height="121.37"></rect>
            <line x1="151.850849" y1="50.94" x2="62.3008486" y2="50.94" id="Path" fill="#B4E2F6"></line>
            <rect id="Rectangle" fill="#BDE6F5" x="68.3308486" y="132.3" width="17.32" height="8.5"></rect>
            <path d="M107.280849,38.78 C107.280849,40.4827861 106.255115,42.0179048 104.681946,42.6695328 C103.108777,43.3211608 101.297981,42.9609711 100.093929,41.7569195 C98.8898775,40.552868 98.5296877,38.7420719 99.1813157,37.1689027 C99.8329438,35.5957336 101.368063,34.57 103.070849,34.57 C105.393686,34.5754979 107.275351,36.4571623 107.280849,38.78 Z" id="Path" fill="#BDE6F5"></path>
            <path d="M121.140849,38.78 C121.140849,41.1051188 119.255967,42.99 116.930849,42.99 C114.60573,42.99 112.720849,41.1051188 112.720849,38.78 C112.720849,36.4548812 114.60573,34.57 116.930849,34.57 C119.253686,34.5754979 121.135351,36.4571623 121.140849,38.78 L121.140849,38.78 Z" id="Path" fill="#BDE6F5"></path>
            <rect id="Rectangle" fill="#BDE6F5" x="127.630849" y="33.81" width="18" height="9.94"></rect>
            <rect id="Rectangle" fill="#BDE6F5" x="65.8508486" y="31.86" width="26.25" height="13.83"></rect>
            <circle id="Oval" fill="#001C3B" cx="105.920849" cy="93.5" r="31.75"></circle>
            <circle id="Oval" fill="#FFFFFF" transform="translate(105.921529, 93.498151) rotate(-22.230000) translate(-105.921529, -93.498151) " cx="105.921529" cy="93.498151" r="23.41"></circle>
            <path d="M105.920849,116.91 C118.849835,116.91 129.330849,106.428986 129.330849,93.5 C129.330849,93.5 118.940849,103.62 108.830849,93.5 C98.7208486,83.38 82.5108486,93.5 82.5108486,93.5 C82.5108486,106.428986 92.9918626,116.91 105.920849,116.91 Z" id="Path" fill="#00B2E3"></path>
            <rect id="Rectangle" fill="#BDE6F5" x="127.380849" y="0" width="21.86" height="25.07"></rect>
            <polygon id="Path" fill="#FFFFFF" points="129.460849 10.93 129.460849 20.41 147.150849 14.68 147.150849 4.56"></polygon>
            <rect id="Rectangle" fill="#00B2E3" x="69.4208486" y="18.25" width="46.8" height="6.82" rx="2.23"></rect>
            <rect id="Rectangle" fill="#FFFFFF" x="75.2208486" y="13.07" width="35.61" height="5.19" rx="1.7"></rect>
            <rect id="Rectangle" fill="#FFFFFF" x="77.7908486" y="7.88" width="35.61" height="5.19" rx="1.7"></rect>
        </g>
    </g>
</svg>