<?xml version="1.0" encoding="UTF-8"?>
<svg width="131px" height="92px" viewBox="0 0 131 92" version="1.1" xmlns="http://www.w3.org/2000/svg" xmlns:xlink="http://www.w3.org/1999/xlink">
    <title>Untitled 53</title>
    <g id="Page-1" stroke="none" stroke-width="1" fill="none" fill-rule="evenodd">
        <g id="orders" transform="translate(0.001555, 0.000000)" fill-rule="nonzero">
            <path d="M21.4284448,89.89 C7.54844483,89.57 -2.71155517,74.61 0.638444833,59.16 C0.698444833,58.91 0.748444833,58.65 0.818444833,58.39 C5.27844483,39.87 14.4184448,44.15 23.5984448,25.39 C32.7784448,6.63 95.7284448,0.59 110.518445,25.39 C125.308445,50.19 127.998445,44.91 130.418445,62.55 C132.838445,80.19 124.108445,92.03 96.4184448,91.55 C76.5584448,91.15 40.3684448,90.32 21.4284448,89.89 Z" id="Path" fill="#F0F8FB"></path>
            <rect id="Rectangle" fill="#DBC5AF" x="42.4084448" y="9.89" width="67.89" height="10.21"></rect>
            <rect id="Rectangle" fill="#DBC5AF" x="42.4084448" y="0" width="67.89" height="54.4"></rect>
            <rect id="Rectangle" fill="#FFFFFF" x="86.5484448" y="34.92" width="19.33" height="12.5"></rect>
            <path d="M104.448445,45.91 L87.9984448,45.91 L87.9984448,36.42 L104.458445,36.42 L104.448445,45.91 Z M88.3384448,45.56 L104.088445,45.56 L104.088445,36.77 L88.3384448,36.77 L88.3384448,45.56 Z" id="Shape" fill="#051934"></path>
            <path d="M102.048445,39.46 L90.3884448,39.46 C90.2878848,39.4684099 90.1884117,39.4342276 90.1142618,39.3657816 C90.040112,39.2973356 89.9980938,39.2009105 89.9984427,39.1 C89.9984427,39.0054154 90.0366506,38.9148418 90.1044674,38.8489089 C90.1722841,38.782976 90.2638988,38.7472976 90.3584448,38.75 L102.018445,38.75 C102.211744,38.75 102.368452,38.9067003 102.368452,39.1 C102.369585,39.2841945 102.231503,39.4395371 102.048445,39.46 L102.048445,39.46 Z" id="Path" fill="#051934"></path>
            <path d="M102.048445,41.52 L90.3884448,41.52 C90.2473974,41.5437561 90.1056655,41.4817571 90.027373,41.3620533 C89.9490804,41.2423495 89.9490804,41.0876505 90.027373,40.9679467 C90.1056655,40.8482429 90.2473974,40.7862439 90.3884448,40.81 L102.048445,40.81 C102.221753,40.8391896 102.348654,40.9892509 102.348654,41.165 C102.348654,41.3407491 102.221753,41.4908104 102.048445,41.52 L102.048445,41.52 Z" id="Path" fill="#051934"></path>
            <path d="M102.048445,43.58 L90.3884448,43.58 C90.2473974,43.6037561 90.1056655,43.5417571 90.027373,43.4220533 C89.9490804,43.3023495 89.9490804,43.1476505 90.027373,43.0279467 C90.1056655,42.9082429 90.2473974,42.8462439 90.3884448,42.87 L102.048445,42.87 C102.221753,42.8991896 102.348654,43.0492509 102.348654,43.225 C102.348654,43.4007491 102.221753,43.5508104 102.048445,43.58 L102.048445,43.58 Z" id="Path" fill="#051934"></path>
            <rect id="Rectangle" fill="#000000" opacity="0.1" style="mix-blend-mode: multiply;" x="42.4084448" y="11.12" width="67.89" height="1.55"></rect>
            <rect id="Rectangle" fill="#000000" opacity="0.1" style="mix-blend-mode: multiply;" x="42.4084448" y="52.09" width="67.89" height="2.31"></rect>
            <path d="M71.3584448,34.42 C70.8303371,33.8870949 70.1086503,33.5912033 69.3584448,33.6 L59.7784448,33.6 L59.7784448,31.29 C59.7784448,23.12 53.7784448,16.85 46.1684448,16.85 C38.5584448,16.85 32.5584448,23.12 32.5584448,31.15 L32.5584448,33.6 L22.9984448,33.6 C22.2155852,33.6298655 21.4772916,33.9720016 20.9484448,34.55 C20.4475022,35.109583 20.2012498,35.8519615 20.2684448,36.6 L23.6784448,72.27 C23.8084448,77.03 27.8984448,82.200353 33.4784448,82.200353 L58.9984448,82.200353 C64.1436442,82.2437316 68.4064585,78.2192112 68.6584448,73.08 L71.9984448,36.46 C72.0558136,35.7229513 71.8265559,34.9921923 71.3584448,34.42 Z M37.9984448,31.15 C37.9984448,26.15 41.5384448,22.15 46.1684448,22.15 C50.7984448,22.15 54.3384448,26.1 54.3384448,31.15 L54.3384448,33.6 L37.9984448,33.6 L37.9984448,31.15 Z" id="Shape" fill="#11B0DE"></path>
            <path d="M34.1084448,49.53 L33.1084448,49.53 C32.9819922,49.540062 32.8831192,49.6432338 32.8784448,49.77 L32.8784448,56.77 C32.8835471,56.894851 32.9835938,56.9948977 33.1084448,57 L34.1084448,57 C34.2354703,57 34.3384449,56.8970255 34.3384449,56.77 L34.3384449,49.77 C34.3385566,49.6412607 34.2370724,49.5353641 34.1084448,49.53 L34.1084448,49.53 Z" id="Path" fill="#FFFFFF"></path>
            <path d="M36.5484448,49.53 C36.1121399,49.53 35.7584448,49.883695 35.7584448,50.32 C35.7584448,50.756305 36.1121399,51.11 36.5484448,51.11 C36.9847498,51.11 37.3384448,50.756305 37.3384448,50.32 C37.3384448,49.883695 36.9847498,49.53 36.5484448,49.53 Z" id="Path" fill="#FFFFFF"></path>
            <path d="M37.0684448,52.0699999 L36.0684448,52.0699999 C36.0056722,52.0699406 35.9456028,52.0955406 35.90217,52.1408617 C35.8587373,52.1861828 35.8357156,52.2472867 35.8384448,52.31 L35.8384448,56.82 C35.8435471,56.944851 35.9435938,57.0448977 36.0684448,57.05 L37.0684448,57.05 C37.1932959,57.0448977 37.2933426,56.944851 37.2984448,56.82 L37.2984448,52.31 C37.3011741,52.2472867 37.2781523,52.1861828 37.2347196,52.1408617 C37.1912869,52.0955406 37.1312174,52.0699406 37.0684448,52.0699999 Z" id="Path" fill="#FFFFFF"></path>
            <path d="M58.0584448,57.18 C59.4866694,57.1144994 60.5986746,55.9160907 60.5573174,54.4869632 C60.5159603,53.0578356 59.3365132,51.9257386 57.9068909,51.9429406 C56.4772686,51.9601426 55.325403,53.1202911 55.3184448,54.55 C55.3566437,56.0294423 56.5786793,57.202418 58.0584448,57.18 Z M58.0584448,53.29 C58.7598143,53.2955443 59.3238961,53.8686036 59.3183663,54.5699731 C59.3128365,55.2713427 58.7397889,55.8354364 58.0384192,55.8299211 C57.3370495,55.8244057 56.772944,55.2513698 56.7784448,54.55 C56.7810866,54.2131718 56.91743,53.8911898 57.1574788,53.6548917 C57.3975277,53.4185936 57.7216168,53.2873374 58.0584448,53.29 L58.0584448,53.29 Z" id="Shape" fill="#FFFFFF"></path>
            <path d="M60.0984448,59.65 C56.879716,58.97102 53.5979778,58.6358067 50.3084448,58.65 L50.3084448,54.56 C50.3674862,53.8887684 50.9296216,53.3739079 51.6034448,53.3739079 C52.2772681,53.3739079 52.8394035,53.8887684 52.8984448,54.56 C52.8910414,55.0581115 52.5766523,55.4998481 52.1084448,55.67 C51.9505053,55.737611 51.7802394,55.7716642 51.6084448,55.77 C51.2328912,55.77 50.9284448,56.0744464 50.9284448,56.45 C50.9284448,56.8255536 51.2328912,57.13 51.6084448,57.13 C51.9747834,57.1342324 52.3383689,57.0662725 52.6784448,56.93 C53.6798011,56.56829 54.3527515,55.6245667 54.3684448,54.56 C54.2463086,53.1265226 53.047116,52.0251595 51.6084448,52.0251595 C50.1697736,52.0251595 48.970581,53.1265226 48.8484448,54.56 L48.8484448,58.68 C45.7091449,58.6937498 42.5794985,59.0288297 39.5084448,59.68 C39.3235751,59.7153905 39.1616443,59.825826 39.0612039,59.9850146 C38.9607634,60.1442033 38.9307992,60.3379033 38.9784448,60.52 C39.1153627,60.8984593 39.5206398,61.1076346 39.9084448,61 C43.159993,60.3147748 46.4755425,59.9795321 49.7984448,60 C53.1222708,59.9534797 56.4414323,60.2652797 59.6984448,60.93 L59.8984448,60.93 C60.2246457,60.9399085 60.5198115,60.7377401 60.6284448,60.43 C60.6900382,60.0698313 60.4559837,59.7253737 60.0984448,59.65 L60.0984448,59.65 Z" id="Path" fill="#FFFFFF"></path>
            <path d="M39.9984448,57.05 C40.1199475,57.05 40.2184448,56.9515026 40.2184448,56.83 L40.2184448,54.56 L40.2184448,54.56 C40.2184448,53.8917355 40.7601803,53.35 41.4284448,53.35 C42.0967094,53.35 42.6384448,53.8917355 42.6384448,54.56 L42.6384448,56.84 C42.6384448,56.9615026 42.7369422,57.06 42.8584448,57.06 L43.7984448,57.06 C43.9199475,57.06 44.0184448,56.9615026 44.0184448,56.84 L44.0184448,54.55 C44.0184448,53.8817355 44.5601803,53.34 45.2284448,53.34 C45.8967094,53.34 46.4384448,53.8817355 46.4384448,54.55 L46.4384448,54.55 L46.4384448,56.82 C46.4384448,56.9415026 46.5369422,57.04 46.6584448,57.04 L47.5984448,57.04 C47.7199475,57.04 47.8184448,56.9415026 47.8184448,56.82 L47.8184448,54.56 L47.8184448,54.56 C47.7912004,53.1381003 46.6306054,51.999739 45.2084448,52 C44.4833111,52.0014529 43.792811,52.3103608 43.3084448,52.85 C42.8240786,52.3103608 42.1335786,52.0014529 41.4084448,52 C39.9864147,52.0108036 38.8347494,53.1580223 38.8184448,54.58 L38.8184448,54.58 L38.8184448,56.88 C38.8184448,57.0015026 38.9169422,57.1 39.0384448,57.1 L39.9984448,57.05 Z" id="Path" fill="#FFFFFF"></path>
        </g>
    </g>
</svg>