<?xml version="1.0" encoding="UTF-8"?>
<svg width="149px" height="107px" viewBox="0 0 149 107" version="1.1" xmlns="http://www.w3.org/2000/svg" xmlns:xlink="http://www.w3.org/1999/xlink">
    <title>Slice 1</title>
    <g id="Page-1" stroke="none" stroke-width="1" fill="none" fill-rule="evenodd">
        <g id="plans" transform="translate(0.002969, 0.276588)" fill-rule="nonzero">
            <path d="M24.3270309,100.963412 C8.56703091,100.653412 -3.08296909,85.8334121 0.727030911,70.5334121 C0.787030911,70.2834121 0.857030911,70.0334121 0.927030911,69.7734121 C5.99703091,51.4334121 25.2970309,59.1834121 35.7170309,40.6034121 C46.1370309,22.0234121 87.2170309,11.6034121 104.007031,36.1434121 C120.797031,60.6834121 145.277031,56.4234121 148.007031,73.8934121 C150.737031,91.3634121 140.847031,103.093412 109.397031,102.583412 C86.9170309,102.213412 45.8270309,101.403412 24.3270309,100.963412 Z" id="Path" fill="#F0F8FB"></path>
            <path d="M100.367031,60.0934121 L99.9370309,60.5634121 C98.9370309,61.6934121 96.0770309,64.7534121 92.9370309,68.2734121 L90.6970309,70.8334121 C89.5670309,72.1334121 88.4670309,73.4334121 87.4370309,74.6934121 L87.4370309,74.6934121 C87.1170309,75.0634121 86.8270309,75.4234121 86.5270309,75.7834121 C85.9136976,76.5434121 85.3436976,77.2634121 84.8170309,77.9434121 C83.654905,79.3179649 82.7044352,80.8582652 81.9970309,82.5134121 C80.7370309,87.7734121 83.1870309,102.583412 83.8170309,106.203412 L49.4170309,106.203412 C50.4170309,98.6734121 51.8970309,88.0434121 52.0870309,86.4334121 C52.3670309,83.8834121 43.4770309,72.9434121 43.3270309,64.9634121 C43.1770309,56.9834121 48.4570309,51.2734121 49.3270309,43.4234121 C49.5951772,39.2090636 49.3770736,34.9778539 48.6770309,30.8134121 C48.3770309,28.6434121 48.0170309,26.6934121 47.6770309,25.2134121 C47.5422742,24.5436964 47.7482893,23.8507364 48.2270309,23.3634121 C48.3401589,23.2404693 48.4717338,23.1358841 48.6170309,23.0534121 C49.1923651,22.6677478 49.9262857,22.6072182 50.5570309,22.8934121 C52.5570309,23.7434121 55.4370309,25.9534121 56.0070309,31.5234121 C56.0070309,31.5234121 57.8770309,41.6834121 60.5370309,43.3734121 C61.6270309,44.0534121 61.9270309,35.7334121 63.3070309,36.6134121 L66.7070309,38.7234121 L66.9370309,38.8634121 C67.4170309,39.1734121 67.9370309,39.4834121 68.3870309,39.7934121 L68.3870309,39.7934121 L68.9170309,40.1334121 L69.9170309,40.7634121 L70.1170309,40.8834121 L76.8370309,45.1534121 L76.8370309,45.1534121 C77.2070309,45.3734121 77.5770309,45.6134121 77.9570309,45.8534121 C78.3370309,46.0934121 78.5270309,46.2134121 78.8270309,46.4034121 C79.1270309,46.5934121 79.5570309,46.8734121 79.9270309,47.1034121 L79.9270309,47.1034121 L87.4270309,51.8634121 L88.5270309,52.5634121 L89.3970309,53.1034121 L90.4870309,53.8134121 L90.4870309,53.8134121 C95.0170309,56.6734121 98.4870309,58.9034121 99.7970309,59.7234121 L100.367031,60.0934121 Z" id="Path" fill="#DBC5AF"></path>
            <path d="M92.9970309,12.5834121 C92.9970309,12.5834121 98.8570309,7.37341209 102.707031,10.3334121 C106.557031,13.2934121 94.0970309,22.8134121 94.0970309,22.8134121 L92.9970309,12.5834121 Z" id="Path" fill="#DBC5AF"></path>
            <path d="M103.687031,30.9734121 L98.9170309,33.6134121 C96.9170309,34.7034121 92.5370309,35.3934121 91.6370309,33.7534121 L90.7070309,32.0834121 C89.8070309,30.4434121 92.4270309,27.2434121 94.4070309,26.1534121 L99.4670309,23.3534121 C101.467031,22.2634121 103.797031,22.7034121 104.707031,24.3534121 L105.627031,26.0234121 C106.537031,27.6534121 105.657031,29.8834121 103.687031,30.9734121 Z" id="Path" fill="#DBC5AF"></path>
            <rect id="Rectangle" fill="#407BFF" transform="translate(78.622050, 46.171229) rotate(-11.240000) translate(-78.622050, -46.171229) " x="58.2470499" y="3.14622851" width="40.75" height="86.05" rx="4.13"></rect>
            <rect id="Rectangle" fill="#051934" transform="translate(78.622050, 46.171229) rotate(-11.240000) translate(-78.622050, -46.171229) " x="58.2470499" y="3.14622851" width="40.75" height="86.05" rx="4.13"></rect>
            <circle id="Oval" fill="#FFFFFF" cx="85.9870309" cy="83.2234121" r="2.32"></circle>
            <path d="M76.3070309,6.49341209 C76.2487285,6.1872595 76.0116274,5.94644157 75.7064187,5.88338452 C75.4012099,5.82032746 75.0880876,5.94746756 74.9132333,6.20544927 C74.738379,6.46343098 74.7362781,6.80137444 74.9079112,7.06151024 C75.0795444,7.32164604 75.3910617,7.45266949 75.6970309,7.39341209 L75.6970309,7.39341209 C76.1081469,7.31282356 76.3765159,6.91474285 76.2970309,6.50341209 L76.3070309,6.49341209 Z" id="Path" fill="#FFFFFF"></path>
            <rect id="Rectangle" fill="#FFFFFF" transform="translate(69.855370, 7.767208) rotate(-11.240000) translate(-69.855370, -7.767208) " x="65.9203695" y="7.00220766" width="7.87" height="1.53" rx="0.76"></rect>
            <rect id="Rectangle" fill="#FFFFFF" transform="translate(78.349314, 44.619044) rotate(-11.290000) translate(-78.349314, -44.619044) " x="59.2843142" y="9.25404356" width="38.13" height="70.73" rx="2.36"></rect>
            <path d="M103.817031,40.6534121 L98.2970309,43.7234121 C96.2970309,44.8234121 92.6670309,45.0934121 91.7670309,43.4534121 L90.8370309,41.7234121 C89.9370309,40.0834121 92.4970309,36.9134121 94.4770309,35.8234121 L99.5970309,32.9934121 C101.597031,31.8934121 103.927031,32.3434121 104.837031,33.9934121 L105.757031,35.6634121 C106.667031,37.3334121 105.787031,39.5634121 103.817031,40.6534121 Z" id="Path" fill="#DBC5AF"></path>
            <path d="M104.327031,50.0334121 L99.5270309,52.7234121 C97.5270309,53.8134121 93.1770309,54.4834121 92.2770309,52.8434121 L91.3470309,51.1734121 C90.4470309,49.5334121 92.9370309,46.4034121 94.9170309,45.3134121 L100.107031,42.4434121 C102.107031,41.3534121 104.437031,41.7934121 105.347031,43.4434121 L106.267031,45.1134121 C107.177031,46.7234121 106.297031,48.9334121 104.327031,50.0334121 Z" id="Path" fill="#DBC5AF"></path>
            <path d="M64.8970309,39.4534121 L63.9870309,39.6434121 C63.8750486,39.6814598 63.8101751,39.7982321 63.8370309,39.9134121 L65.2570309,46.7234121 C65.2863315,46.8400984 65.3974987,46.9170604 65.5170309,46.9034121 L66.4270309,46.7134121 C66.5390132,46.6753643 66.6038867,46.5585921 66.5770309,46.4434121 L65.1570309,39.6534121 C65.1365543,39.5286797 65.0228425,39.441209 64.8970309,39.4534121 Z" id="Path" fill="#11B0DE"></path>
            <path d="M68.0770309,41.3334121 L67.1670309,41.5334121 C67.1097285,41.5475359 67.0605036,41.5840906 67.0304164,41.6348627 C67.0003292,41.6856349 66.9919029,41.7463665 67.0070309,41.8034121 L67.9170309,46.1434121 C67.9463315,46.2600984 68.0574987,46.3370604 68.1770309,46.3234121 L69.0770309,46.1334121 C69.1343333,46.1192883 69.1835583,46.0827336 69.2136455,46.0319615 C69.2437327,45.9811893 69.2521589,45.9204576 69.2370309,45.8634121 L68.3270309,41.5234121 C68.3066182,41.4041966 68.1973592,41.3211597 68.0770309,41.3334121 L68.0770309,41.3334121 Z" id="Path" fill="#11B0DE"></path>
            <path d="M67.0870309,38.9834121 C66.6668971,39.0754937 66.4005887,39.4902891 66.4917379,39.9106263 C66.582887,40.3309634 66.9970905,40.5981915 67.4176289,40.5079753 C67.8381672,40.4177591 68.1063137,40.0041496 68.0170309,39.5834121 C67.9739017,39.3801692 67.8514676,39.2025325 67.6768803,39.0898955 C67.502293,38.9772586 67.2899822,38.9389308 67.0870309,38.9834121 Z" id="Path" fill="#11B0DE"></path>
            <path d="M87.9970309,42.2934121 C89.0280376,42.0997798 89.8391543,41.3011644 90.0487759,40.2732893 C90.2583975,39.2454143 89.8247837,38.1929524 88.9519362,37.6110541 C88.0790888,37.0291558 86.940811,37.0336899 86.072627,37.6225233 C85.2044429,38.2113568 84.7792274,39.2672396 84.9970309,40.2934121 C85.2831917,41.6673859 86.6186856,42.5577151 87.9970309,42.2934121 L87.9970309,42.2934121 Z M87.2070309,38.5534121 C87.5270529,38.4955943 87.8568774,38.5690287 88.12214,38.7571582 C88.3874027,38.9452878 88.5657717,39.2322743 88.6170309,39.5534121 C88.704561,39.9660539 88.5653004,40.3940473 88.2517072,40.6761715 C87.938114,40.9582956 87.4978304,41.0516891 87.0967071,40.9211715 C86.6955838,40.7906539 86.394561,40.4560539 86.3070309,40.0434121 C86.2161154,39.7301721 86.2577572,39.393345 86.4222209,39.1116774 C86.5866845,38.8300097 86.8595524,38.6281939 87.1770309,38.5534121 L87.2070309,38.5534121 Z" id="Shape" fill="#11B0DE"></path>
            <path d="M90.2970309,44.2834121 C87.271842,44.2476182 84.2524087,44.5562713 81.2970309,45.2034121 L80.4570309,41.2034121 C80.3269061,40.5532174 80.7399297,39.9181381 81.3870309,39.7734121 C81.9455407,39.6631744 82.5053581,39.9571681 82.7316426,40.4795481 C82.957927,41.0019281 82.7894704,41.6113952 82.3270309,41.9434121 C82.2357675,42.0032309 82.1385887,42.0534958 82.0370309,42.0934121 C81.8694455,42.1478963 81.7311635,42.2680887 81.6538674,42.4264513 C81.5765714,42.584814 81.5668862,42.7677739 81.6270309,42.9334121 C81.7497172,43.2750782 82.1221946,43.4568827 82.4670309,43.3434121 C82.6827312,43.2664663 82.8877225,43.1622904 83.0770309,43.0334121 C84.122278,42.3136981 84.4726009,40.9309771 83.8961413,39.8003914 C83.3196816,38.6698058 81.9948269,38.1412192 80.7984213,38.5644725 C79.6020157,38.9877257 78.9042912,40.2318415 79.1670309,41.4734121 L79.9970309,45.4734121 C77.1768625,46.0725131 74.4305746,46.9778827 71.8070309,48.1734121 C71.4702362,48.3391845 71.331477,48.7465099 71.4970309,49.0834121 C71.6817887,49.4166477 72.0966425,49.5446345 72.4370309,49.3734121 C75.2194631,48.1149458 78.1391922,47.1853309 81.1370309,46.6034121 C84.1146271,45.9187948 87.1618106,45.5832019 90.2170309,45.6034121 L90.3970309,45.6034121 C90.7036155,45.5493038 90.9342994,45.2939037 90.9570309,44.9834121 C90.9651661,44.8023018 90.89956,44.6256254 90.7751907,44.4937186 C90.6508214,44.3618118 90.4783063,44.2859353 90.2970309,44.2834121 L90.2970309,44.2834121 Z" id="Path" fill="#11B0DE"></path>
            <path d="M71.6870309,45.5834121 C71.742634,45.5746746 71.7915014,45.5417339 71.82046,45.4934695 C71.8494186,45.4452052 71.8554876,45.3865854 71.8370309,45.3334121 L71.3870309,43.1734121 L71.3870309,43.1734121 L71.3870309,43.1734121 C71.2361826,42.7607724 71.3405273,42.2980439 71.6538711,41.990079 C71.9672148,41.682114 72.4316805,41.5857963 72.8416467,41.7437661 C73.2516129,41.9017359 73.5313554,42.2848149 73.5570309,42.7234121 L74.0170309,44.9234121 C74.0420646,45.0374309 74.1517932,45.1120463 74.2670309,45.0934121 L75.1070309,44.9134121 C75.2202086,44.8885009 75.2918137,44.776618 75.2670309,44.6634121 L74.8170309,42.5234121 L74.8170309,42.4634121 C74.7113028,42.0686703 74.8289632,41.6476769 75.1240319,41.3649509 C75.4191006,41.082225 75.8447346,40.98265 76.2346012,41.1051388 C76.6244679,41.2276276 76.9166747,41.5527347 76.9970309,41.9534121 L76.9970309,41.9534121 L77.4570309,44.1334121 C77.4666815,44.1896065 77.498767,44.2394612 77.5459159,44.2715224 C77.5930648,44.3035837 77.6512237,44.3150951 77.7070309,44.3034121 L78.5470309,44.1334121 C78.6544872,44.0958125 78.7182685,43.9852582 78.6970309,43.8734121 L78.2270309,41.7234121 L78.2270309,41.7234121 L78.2270309,41.7234121 L78.2270309,41.7234121 C77.9784736,40.3929706 76.7127052,39.504712 75.3770309,39.7234121 C74.7142087,39.869122 74.1501562,40.301318 73.8370309,40.9034121 C73.3268195,40.474748 72.6540231,40.2919229 71.9970309,40.4034121 C70.6731842,40.7379722 69.8657364,42.0762834 70.1870309,43.4034121 L70.1870309,43.4034121 L70.6570309,45.6234121 C70.6773703,45.7359917 70.7840802,45.8115778 70.8970309,45.7934121 L71.6870309,45.5834121 Z" id="Path" fill="#11B0DE"></path>
        </g>
    </g>
</svg>